<?xml version="1.0" encoding="UTF-8"?>
<svg id="Layer_1" data-name="Layer 1" xmlns="http://www.w3.org/2000/svg" viewBox="0 0 164 164">
  <defs>
    <style>
      .cls-1 {
        fill: #3a179d;
      }

      .cls-1, .cls-2, .cls-3, .cls-4 {
        stroke-width: 0px;
      }

      .cls-2 {
        fill: #fff;
      }

      .cls-3 {
        fill: #1c1c1c;
      }

      .cls-4 {
        fill: #7000ff;
      }
    </style>
  </defs>
  <g>
    <circle class="cls-4" cx="82.15" cy="82.64" r="73.07" transform="translate(-31.34 109.08) rotate(-58.28)"/>
    <path class="cls-2" d="m82.15,18.02c35.69,0,64.63,28.93,64.63,64.63s-28.93,64.63-64.63,64.63S17.53,118.33,17.53,82.64,46.46,18.02,82.15,18.02m0-16.9C37.2,1.12.63,37.69.63,82.64s36.57,81.52,81.52,81.52,81.52-36.57,81.52-81.52S127.11,1.12,82.15,1.12h0Z"/>
  </g>
  <g>
    <path class="cls-1" d="m73.71,118.23h-.05c-3.49-.53-5.55-1.95-6.76-3.3-1.1-1.24-.44-3.2,1.19-3.52h0c.75-.15,1.51.13,2.02.69.62.68,1.85,1.53,4.17,1.87h.03c3.71.54,5.48-1.6,5.56-1.69.73-.91,2.08-1.08,3-.36.93.72,1.11,2.03.41,2.97-.13.17-3.28,4.25-9.58,3.34Z"/>
    <g>
      <path class="cls-2" d="m66.31,73.22v16.71c0,5.18-2.1,9.87-5.5,13.27-3.39,3.39-8.09,5.49-13.27,5.49-10.36,0-18.76-8.4-18.76-18.76v-16.71c0-5.18,2.1-9.88,5.49-13.27,3.4-3.39,8.09-5.5,13.27-5.5,10.36,0,18.77,8.4,18.77,18.77Z"/>
      <path class="cls-1" d="m47.54,110.83c-11.53,0-20.91-9.38-20.91-20.91v-16.7c0-5.59,2.17-10.84,6.12-14.79,3.96-3.95,9.21-6.13,14.79-6.13,11.53,0,20.91,9.38,20.91,20.91v16.7c0,5.58-2.18,10.83-6.12,14.79-3.95,3.95-9.2,6.12-14.79,6.12Zm0-54.23c-4.43,0-8.61,1.73-11.75,4.87-3.13,3.13-4.86,7.31-4.86,11.75v16.7c0,9.16,7.45,16.61,16.61,16.61,4.44,0,8.62-1.73,11.75-4.86,3.14-3.14,4.87-7.32,4.87-11.75v-16.7c0-9.16-7.46-16.62-16.62-16.62Z"/>
    </g>
    <g>
      <rect class="cls-3" x="43.4" y="63.12" width="13.89" height="25.14" rx="6.3" ry="6.3"/>
      <circle class="cls-2" cx="53.24" cy="65.82" r="3.68"/>
    </g>
    <g>
      <rect class="cls-2" x="82.31" y="54.45" width="37.52" height="54.23" rx="18.76" ry="18.76"/>
      <path class="cls-1" d="m101.08,110.83c-11.53,0-20.91-9.38-20.91-20.91v-16.71c0-11.53,9.38-20.91,20.91-20.91s20.91,9.38,20.91,20.91v16.71c0,11.53-9.38,20.91-20.91,20.91Zm0-54.23c-9.16,0-16.62,7.45-16.62,16.62v16.71c0,9.16,7.45,16.62,16.62,16.62s16.61-7.45,16.61-16.62v-16.71c0-9.16-7.45-16.62-16.61-16.62Z"/>
    </g>
    <g>
      <rect class="cls-3" x="96.94" y="63.6" width="13.89" height="25.14" rx="6.3" ry="6.3"/>
      <circle class="cls-2" cx="106.78" cy="66.31" r="3.68"/>
    </g>
  </g>
</svg>