<svg width="778" height="586" viewBox="0 0 778 586" fill="none" xmlns="http://www.w3.org/2000/svg">
<rect x="748.599" y="2.08471" width="545.3" height="747.044" rx="20.5302" transform="rotate(87.1688 748.599 2.08471)" fill="white" stroke="#2A2B2A" stroke-width="3.73277"/>
<rect x="762.522" y="20.2013" width="545.3" height="747.044" rx="20.5302" transform="rotate(90 762.522 20.2013)" fill="white" stroke="#2A2B2A" stroke-width="3.73277"/>
<path d="M60.3953 48.7591C65.5956 48.7591 69.8112 44.5428 69.8112 39.3417C69.8112 34.1406 65.5956 29.9243 60.3953 29.9243C55.1951 29.9243 50.9795 34.1406 50.9795 39.3417C50.9795 44.5428 55.1951 48.7591 60.3953 48.7591Z" fill="white" stroke="#262626" stroke-width="3.73277" stroke-miterlimit="10"/>
<path d="M66.5404 15.0676C66.5404 11.6664 63.789 8.90918 60.395 8.90918C57.0009 8.90918 54.2495 11.6664 54.2495 15.0676V37.9041C54.2495 41.3053 57.0009 44.0626 60.395 44.0626C63.789 44.0626 66.5404 41.3053 66.5404 37.9041V15.0676Z" fill="#2A2B2A"/>
<path d="M118.895 48.7591C124.096 48.7591 128.311 44.5428 128.311 39.3417C128.311 34.1406 124.096 29.9243 118.895 29.9243C113.695 29.9243 109.479 34.1406 109.479 39.3417C109.479 44.5428 113.695 48.7591 118.895 48.7591Z" fill="white" stroke="#262626" stroke-width="3.73277" stroke-miterlimit="10"/>
<path d="M125.04 15.0676C125.04 11.6664 122.289 8.90918 118.895 8.90918C115.501 8.90918 112.75 11.6664 112.75 15.0676V37.9041C112.75 41.3053 115.501 44.0626 118.895 44.0626C122.289 44.0626 125.04 41.3053 125.04 37.9041V15.0676Z" fill="#2A2B2A"/>
<path d="M177.395 48.7591C182.596 48.7591 186.811 44.5428 186.811 39.3417C186.811 34.1406 182.596 29.9243 177.395 29.9243C172.195 29.9243 167.979 34.1406 167.979 39.3417C167.979 44.5428 172.195 48.7591 177.395 48.7591Z" fill="white" stroke="#262626" stroke-width="3.73277" stroke-miterlimit="10"/>
<path d="M183.54 15.0676C183.54 11.6664 180.789 8.90918 177.395 8.90918C174.001 8.90918 171.25 11.6664 171.25 15.0676V37.9041C171.25 41.3053 174.001 44.0626 177.395 44.0626C180.789 44.0626 183.54 41.3053 183.54 37.9041V15.0676Z" fill="#2A2B2A"/>
<path d="M235.895 48.7591C241.095 48.7591 245.311 44.5428 245.311 39.3417C245.311 34.1406 241.095 29.9243 235.895 29.9243C230.695 29.9243 226.479 34.1406 226.479 39.3417C226.479 44.5428 230.695 48.7591 235.895 48.7591Z" fill="white" stroke="#262626" stroke-width="3.73277" stroke-miterlimit="10"/>
<path d="M242.04 15.0676C242.04 11.6664 239.289 8.90918 235.894 8.90918C232.5 8.90918 229.749 11.6664 229.749 15.0676V37.9041C229.749 41.3053 232.5 44.0626 235.894 44.0626C239.289 44.0626 242.04 41.3053 242.04 37.9041V15.0676Z" fill="#2A2B2A"/>
<path d="M294.395 48.7591C299.595 48.7591 303.811 44.5428 303.811 39.3417C303.811 34.1406 299.595 29.9243 294.395 29.9243C289.195 29.9243 284.979 34.1406 284.979 39.3417C284.979 44.5428 289.195 48.7591 294.395 48.7591Z" fill="white" stroke="#262626" stroke-width="3.73277" stroke-miterlimit="10"/>
<path d="M300.54 15.0676C300.54 11.6664 297.789 8.90918 294.394 8.90918C291 8.90918 288.249 11.6664 288.249 15.0676V37.9041C288.249 41.3053 291 44.0626 294.394 44.0626C297.789 44.0626 300.54 41.3053 300.54 37.9041V15.0676Z" fill="#2A2B2A"/>
<path d="M352.895 48.7591C358.095 48.7591 362.311 44.5428 362.311 39.3417C362.311 34.1406 358.095 29.9243 352.895 29.9243C347.695 29.9243 343.479 34.1406 343.479 39.3417C343.479 44.5428 347.695 48.7591 352.895 48.7591Z" fill="white" stroke="#262626" stroke-width="3.73277" stroke-miterlimit="10"/>
<path d="M359.04 15.0676C359.04 11.6664 356.289 8.90918 352.894 8.90918C349.5 8.90918 346.749 11.6664 346.749 15.0676V37.9041C346.749 41.3053 349.5 44.0626 352.894 44.0626C356.289 44.0626 359.04 41.3053 359.04 37.9041V15.0676Z" fill="#2A2B2A"/>
<path d="M411.395 48.7591C416.595 48.7591 420.811 44.5428 420.811 39.3417C420.811 34.1406 416.595 29.9243 411.395 29.9243C406.195 29.9243 401.979 34.1406 401.979 39.3417C401.979 44.5428 406.195 48.7591 411.395 48.7591Z" fill="white" stroke="#262626" stroke-width="3.73277" stroke-miterlimit="10"/>
<path d="M417.54 15.0676C417.54 11.6664 414.789 8.90918 411.394 8.90918C408 8.90918 405.249 11.6664 405.249 15.0676V37.9041C405.249 41.3053 408 44.0626 411.394 44.0626C414.789 44.0626 417.54 41.3053 417.54 37.9041V15.0676Z" fill="#2A2B2A"/>
<path d="M469.895 48.7591C475.095 48.7591 479.311 44.5428 479.311 39.3417C479.311 34.1406 475.095 29.9243 469.895 29.9243C464.695 29.9243 460.479 34.1406 460.479 39.3417C460.479 44.5428 464.695 48.7591 469.895 48.7591Z" fill="white" stroke="#262626" stroke-width="3.73277" stroke-miterlimit="10"/>
<path d="M476.04 15.0676C476.04 11.6664 473.289 8.90918 469.894 8.90918C466.5 8.90918 463.749 11.6664 463.749 15.0676V37.9041C463.749 41.3053 466.5 44.0626 469.894 44.0626C473.289 44.0626 476.04 41.3053 476.04 37.9041V15.0676Z" fill="#2A2B2A"/>
<path d="M528.394 48.7591C533.595 48.7591 537.81 44.5428 537.81 39.3417C537.81 34.1406 533.595 29.9243 528.394 29.9243C523.194 29.9243 518.979 34.1406 518.979 39.3417C518.979 44.5428 523.194 48.7591 528.394 48.7591Z" fill="white" stroke="#262626" stroke-width="3.73277" stroke-miterlimit="10"/>
<path d="M534.539 15.0676C534.539 11.6664 531.788 8.90918 528.394 8.90918C525 8.90918 522.249 11.6664 522.249 15.0676V37.9041C522.249 41.3053 525 44.0626 528.394 44.0626C531.788 44.0626 534.539 41.3053 534.539 37.9041V15.0676Z" fill="#2A2B2A"/>
<path d="M586.894 48.7591C592.095 48.7591 596.31 44.5428 596.31 39.3417C596.31 34.1406 592.095 29.9243 586.894 29.9243C581.694 29.9243 577.479 34.1406 577.479 39.3417C577.479 44.5428 581.694 48.7591 586.894 48.7591Z" fill="white" stroke="#262626" stroke-width="3.73277" stroke-miterlimit="10"/>
<path d="M593.039 15.0676C593.039 11.6664 590.288 8.90918 586.894 8.90918C583.5 8.90918 580.749 11.6664 580.749 15.0676V37.9041C580.749 41.3053 583.5 44.0626 586.894 44.0626C590.288 44.0626 593.039 41.3053 593.039 37.9041V15.0676Z" fill="#2A2B2A"/>
<path d="M645.394 48.7591C650.595 48.7591 654.81 44.5428 654.81 39.3417C654.81 34.1406 650.595 29.9243 645.394 29.9243C640.194 29.9243 635.979 34.1406 635.979 39.3417C635.979 44.5428 640.194 48.7591 645.394 48.7591Z" fill="white" stroke="#262626" stroke-width="3.73277" stroke-miterlimit="10"/>
<path d="M651.539 15.0676C651.539 11.6664 648.788 8.90918 645.394 8.90918C642 8.90918 639.249 11.6664 639.249 15.0676V37.9041C639.249 41.3053 642 44.0626 645.394 44.0626C648.788 44.0626 651.539 41.3053 651.539 37.9041V15.0676Z" fill="#2A2B2A"/>
<path d="M703.894 48.7591C709.095 48.7591 713.31 44.5428 713.31 39.3417C713.31 34.1406 709.095 29.9243 703.894 29.9243C698.694 29.9243 694.479 34.1406 694.479 39.3417C694.479 44.5428 698.694 48.7591 703.894 48.7591Z" fill="white" stroke="#262626" stroke-width="3.73277" stroke-miterlimit="10"/>
<path d="M710.039 15.0676C710.039 11.6664 707.288 8.90918 703.894 8.90918C700.5 8.90918 697.749 11.6664 697.749 15.0676V37.9041C697.749 41.3053 700.5 44.0626 703.894 44.0626C707.288 44.0626 710.039 41.3053 710.039 37.9041V15.0676Z" fill="#2A2B2A"/>
</svg>
