<svg width="251" height="211" viewBox="0 0 251 211" fill="none" xmlns="http://www.w3.org/2000/svg">
<path d="M113.379 132.514L73.7989 120.864C55.669 115.527 45.6244 97.5751 51.4072 80.8443C53.3272 75.2895 59.7605 72.2241 65.7798 73.9958C71.7991 75.7676 75.1208 81.7044 73.2009 87.2592C71.2509 92.901 74.6368 98.9525 80.7503 100.752L120.33 112.402" fill="#7000FF"/>
<path fill-rule="evenodd" clip-rule="evenodd" d="M122.705 113.103C123.124 111.893 122.4 110.6 121.088 110.214L81.5084 98.5632C76.7061 97.1497 74.0441 92.392 75.5758 87.9603C77.914 81.1954 73.8683 73.9648 66.5378 71.8071C59.2072 69.6493 51.3719 73.3828 49.0337 80.1476C42.8327 98.0885 53.6012 117.335 73.0424 123.057L112.622 134.707L114.137 130.325L74.557 118.675C57.7382 113.724 48.4176 97.0661 53.7822 81.5453C55.2839 77.2006 60.3151 74.8033 65.0232 76.1891C69.7313 77.5749 72.3291 82.2179 70.8274 86.5626C68.4591 93.4144 72.569 100.76 79.9938 102.945L119.574 114.596C120.885 114.982 122.287 114.313 122.705 113.103Z" fill="#3A179D"/>
<rect width="5.78961" height="20.483" rx="2.89481" transform="matrix(1.00028 0.200589 -0.224179 0.952028 64.3237 62.9976)" fill="white"/>
<path d="M73.308 83.1393C73.1199 85.579 71.4218 90.3715 63.1685 87.7677C58.5913 86.3236 59.0015 80.5325 65.679 82.1479" stroke="#3A179D" stroke-width="4" stroke-linecap="round"/>
<path d="M101.623 51.4746C102.388 54.2307 101.491 57.1893 99.2867 59.1787L84.0126 72.965C81.9022 74.8698 78.9116 75.5977 76.1385 74.8815L55.1027 69.4486C52.3297 68.7324 50.183 66.6776 49.4506 64.0387L44.15 44.9385C43.3851 42.1824 44.2824 39.2238 46.4864 37.2344L61.7606 23.4481C63.8709 21.5433 66.8616 20.8154 69.6346 21.5316L90.6704 26.9645C93.4434 27.6807 95.5902 29.7355 96.3225 32.3744L101.623 51.4746Z" fill="#3A179D"/>
<path d="M95.7444 50.9942C96.3181 53.0613 95.6451 55.2803 93.9921 56.7723L81.5676 67.9865C79.9848 69.4151 77.7418 69.961 75.6621 69.4239L58.5801 65.0121C56.5003 64.475 54.8902 62.9339 54.341 60.9547L50.0293 45.418C49.4556 43.3509 50.1286 41.1319 51.7816 39.6399L64.2061 28.4257C65.7889 26.9971 68.0319 26.4511 70.1116 26.9883L87.1936 31.4001C89.2734 31.9372 90.8835 33.4783 91.4327 35.4575L95.7444 50.9942Z" fill="white"/>
<path d="M62.9337 47.8128L68.5669 49.1955L67.6595 52.3434L62.0264 50.9606L62.9337 47.8128ZM58.2109 52.0827L66.6744 40.4155L70.2519 41.2937L70.8806 55.1927L67.2832 54.3097L67.0932 43.0009L68.5163 43.3502L61.7885 52.9609L58.2109 52.0827ZM76.2439 54.7534L78.9986 45.1967L82.5959 46.0797L79.8412 55.6364L76.2439 54.7534ZM74.0175 50.8766L74.9792 47.5402L84.8421 49.9613L83.8804 53.2977L74.0175 50.8766Z" fill="#3A179D"/>
<ellipse opacity="0.5" cx="156.967" cy="201.253" rx="94.0241" ry="9.02389" fill="#3A179D"/>
<path d="M133.769 124.626V162.965C133.769 180.526 149.25 194.812 168.28 194.812C174.598 194.812 179.718 190.088 179.718 184.257C179.718 178.427 174.598 173.702 168.28 173.702C161.863 173.702 156.644 168.886 156.644 162.965V124.626" fill="#7000FF"/>
<path fill-rule="evenodd" clip-rule="evenodd" d="M133.77 122.326C135.147 122.326 136.262 123.356 136.262 124.626V162.965C136.262 179.256 150.628 192.512 168.281 192.512C173.223 192.512 177.227 188.818 177.227 184.257C177.227 179.697 173.223 176.002 168.281 176.002C160.488 176.002 154.154 170.156 154.154 162.965V124.626C154.154 123.356 155.269 122.326 156.646 122.326C158.022 122.326 159.138 123.356 159.138 124.626V162.965C159.138 167.616 163.241 171.402 168.281 171.402C175.976 171.402 182.211 177.157 182.211 184.257C182.211 191.358 175.976 197.112 168.281 197.112C147.875 197.112 131.278 181.796 131.278 162.965V124.626C131.278 123.356 132.394 122.326 133.77 122.326Z" fill="#3A179D"/>
<path d="M164.866 5.89062C135.983 5.89062 112.536 27.6879 112.536 54.5385V139.277H217.203L217.203 54.544C217.203 27.6934 193.749 5.89062 164.866 5.89062Z" fill="#7000FF"/>
<path fill-rule="evenodd" clip-rule="evenodd" d="M117.52 54.5385C117.52 30.1963 138.77 10.4901 164.866 10.4901C190.962 10.4901 212.218 30.2018 212.218 54.544V134.677H117.52V54.5385ZM112.536 54.5385C112.536 27.6879 135.983 5.89062 164.866 5.89062C193.749 5.89062 217.203 27.6934 217.203 54.544V139.277H112.536V54.5385Z" fill="#3A179D"/>
<path d="M116.791 103.879C124.687 103.879 131.115 97.953 131.115 90.6664V77.8177C131.115 70.5311 124.693 64.5986 116.791 64.5986C108.888 64.5986 102.473 70.5251 102.473 77.8177V90.6664C102.473 97.953 108.895 103.879 116.791 103.879Z" fill="white"/>
<path fill-rule="evenodd" clip-rule="evenodd" d="M116.792 106.946C126.521 106.946 134.439 99.6483 134.439 90.6663V77.8177C134.439 68.8385 126.53 61.5322 116.792 61.5322C107.052 61.5322 99.151 68.8333 99.151 77.8177V90.6663C99.151 99.6464 107.061 106.946 116.792 106.946ZM131.116 90.6663C131.116 97.9529 124.688 103.879 116.792 103.879C108.896 103.879 102.474 97.9529 102.474 90.6663V77.8177C102.474 70.525 108.889 64.5986 116.792 64.5986C124.694 64.5986 131.116 70.5311 131.116 77.8177V90.6663Z" fill="#3A179D"/>
<path d="M116.79 65.8131C109.618 65.8131 103.788 71.1991 103.788 77.8117V90.6604C103.788 97.2791 109.625 102.659 116.797 102.659C123.969 102.659 129.806 97.273 129.806 90.6604V77.8117C129.806 71.1931 123.969 65.8131 116.797 65.8131M116.797 63.3843C125.43 63.3843 132.438 69.8451 132.438 77.8117V90.6604C132.438 98.6332 125.436 105.088 116.797 105.088C108.164 105.088 101.163 98.6271 101.163 90.6604V77.8117C101.163 69.839 108.164 63.3843 116.797 63.3843Z" fill="#3A179D"/>
<path d="M111 75.8381C111 72.887 113.593 70.4946 116.791 70.4946C119.989 70.4946 122.581 72.887 122.581 75.8381V84.4849C122.581 87.436 119.989 89.8284 116.791 89.8284C113.593 89.8284 111 87.436 111 84.4849V75.8381Z" fill="#262626"/>
<path d="M111.315 72.5777C111.315 71.0171 112.69 69.748 114.382 69.748C116.073 69.748 117.448 71.0171 117.448 72.5777C117.448 74.1382 116.073 75.4073 114.382 75.4073C112.69 75.4073 111.315 74.1382 111.315 72.5777Z" fill="white"/>
<path d="M160.011 103.879C167.907 103.879 174.336 97.953 174.336 90.6664V77.8177C174.336 70.5311 167.914 64.5986 160.011 64.5986C152.109 64.5986 145.693 70.5251 145.693 77.8177V90.6664C145.693 97.953 152.115 103.879 160.011 103.879Z" fill="white"/>
<path fill-rule="evenodd" clip-rule="evenodd" d="M160.008 106.946C169.737 106.946 177.655 99.6483 177.655 90.6663V77.8177C177.655 68.8385 169.747 61.5322 160.008 61.5322C150.268 61.5322 142.367 68.8333 142.367 77.8177V90.6663C142.367 99.6464 150.277 106.946 160.008 106.946ZM174.333 90.6663C174.333 97.9529 167.904 103.879 160.008 103.879C152.112 103.879 145.69 97.9529 145.69 90.6663V77.8177C145.69 70.525 152.105 64.5986 160.008 64.5986C167.91 64.5986 174.333 70.5311 174.333 77.8177V90.6663Z" fill="#3A179D"/>
<path d="M160.01 65.8131C152.838 65.8131 147.008 71.1991 147.008 77.8117V90.6604C147.008 97.2791 152.844 102.659 160.016 102.659C167.188 102.659 173.025 97.273 173.025 90.6604V77.8117C173.025 71.1931 167.188 65.8131 160.016 65.8131M160.016 63.3843C168.649 63.3843 175.657 69.8451 175.657 77.8117V90.6604C175.657 98.6332 168.656 105.088 160.016 105.088C151.383 105.088 144.382 98.6271 144.382 90.6604V77.8117C144.382 69.839 151.383 63.3843 160.016 63.3843Z" fill="#3A179D"/>
<path d="M154.218 75.8381C154.218 72.887 156.81 70.4946 160.008 70.4946C163.206 70.4946 165.798 72.887 165.798 75.8381V84.4849C165.798 87.436 163.206 89.8284 160.008 89.8284C156.81 89.8284 154.218 87.436 154.218 84.4849V75.8381Z" fill="#262626"/>
<path d="M154.534 72.5777C154.534 71.0171 155.909 69.748 157.6 69.748C159.291 69.748 160.667 71.0171 160.667 72.5777C160.667 74.1382 159.291 75.4073 157.6 75.4073C155.909 75.4073 154.534 74.1382 154.534 72.5777Z" fill="white"/>
<path d="M191.463 47.3004C188.73 47.3004 186.515 45.2559 186.515 42.7339C186.515 40.2119 188.73 38.1675 191.463 38.1675C194.196 38.1675 196.412 40.2119 196.412 42.7339C196.412 45.2559 194.196 47.3004 191.463 47.3004Z" fill="#FEE702"/>
<path d="M178.972 43.2843C176.926 43.2843 175.266 41.753 175.266 39.8641C175.266 37.9751 176.926 36.4438 178.972 36.4438C181.019 36.4438 182.679 37.9751 182.679 39.8641C182.679 41.753 181.019 43.2843 178.972 43.2843Z" fill="#FEE702"/>
<path d="M185.66 33.7109C184.217 33.7109 183.047 32.6312 183.047 31.2993C183.047 29.9674 184.217 28.8877 185.66 28.8877C187.103 28.8877 188.273 29.9674 188.273 31.2993C188.273 32.6312 187.103 33.7109 185.66 33.7109Z" fill="#FEE702"/>
<path fill-rule="evenodd" clip-rule="evenodd" d="M121.257 53.4036C121.93 54.4873 123.422 54.8793 124.614 54.2773C125.822 53.6679 126.265 52.2705 125.605 51.1561L123.419 52.2596C125.605 51.1561 125.604 51.155 125.604 51.1539L125.602 51.1516L125.599 51.1468L125.593 51.1364L125.579 51.1125C125.568 51.0953 125.555 51.0753 125.541 51.0529C125.512 51.0081 125.475 50.9531 125.43 50.8896C125.341 50.7627 125.218 50.6002 125.059 50.4145C124.743 50.0443 124.274 49.5724 123.63 49.1065C122.315 48.1556 120.325 47.2761 117.586 47.2862M121.257 53.4036C121.256 53.4022 121.255 53.4005 121.253 53.3986C121.239 53.3784 121.204 53.3309 121.148 53.2647C121.033 53.131 120.839 52.9315 120.556 52.727C120.017 52.3372 119.095 51.88 117.605 51.8857L117.604 51.8857C115.737 51.892 114.86 52.3951 114.488 52.6853C114.281 52.8463 114.167 52.9917 114.114 53.069C114.1 53.0893 114.091 53.1048 114.085 53.1143C113.592 54.2525 112.21 54.8395 110.945 54.4292C109.647 54.008 108.964 52.6952 109.42 51.497L111.771 52.2596C109.42 51.497 109.421 51.4954 109.422 51.4938L109.423 51.4905L109.425 51.4838L109.431 51.4696L109.444 51.4381C109.453 51.4156 109.464 51.3904 109.476 51.3626C109.5 51.3071 109.531 51.241 109.57 51.1661C109.646 51.0164 109.752 50.8297 109.896 50.6192C110.183 50.1978 110.622 49.6778 111.27 49.1723C112.607 48.1299 114.641 47.2963 117.585 47.2862" fill="#3A179D"/>
<path fill-rule="evenodd" clip-rule="evenodd" d="M163.623 54.1702C164.296 55.2539 165.788 55.6459 166.981 55.0439C168.188 54.4345 168.632 53.0371 167.971 51.9227L165.785 53.0262C167.971 51.9227 167.971 51.9216 167.97 51.9205L167.969 51.9182L167.966 51.9134L167.959 51.903L167.945 51.8791C167.934 51.8619 167.922 51.8419 167.907 51.8195C167.878 51.7747 167.842 51.7198 167.797 51.6562C167.707 51.5293 167.584 51.3668 167.426 51.1811C167.109 50.8109 166.64 50.339 165.996 49.8731C164.681 48.9222 162.691 48.0427 159.952 48.0528M163.623 54.1702C163.622 54.1688 163.621 54.1671 163.619 54.1652C163.605 54.145 163.57 54.0975 163.514 54.0313C163.399 53.8976 163.205 53.6981 162.922 53.4936C162.383 53.1038 161.461 52.6466 159.972 52.6523L159.97 52.6523C158.103 52.6586 157.226 53.1617 156.854 53.4519C156.647 53.6129 156.533 53.7583 156.48 53.8356C156.466 53.8559 156.457 53.8714 156.451 53.8809C155.959 55.0191 154.576 55.6061 153.311 55.1958C152.013 54.7746 151.33 53.4618 151.787 52.2636L154.138 53.0262C151.787 52.2636 151.787 52.262 151.788 52.2604L151.789 52.2572L151.792 52.2505L151.797 52.2362L151.81 52.2047C151.819 52.1822 151.83 52.157 151.842 52.1292C151.867 52.0737 151.897 52.0076 151.936 51.9327C152.012 51.783 152.118 51.5963 152.262 51.3858C152.549 50.9644 152.988 50.4444 153.637 49.9389C154.973 48.8965 157.008 48.0629 159.951 48.0528" fill="#3A179D"/>
<path fill-rule="evenodd" clip-rule="evenodd" d="M135.53 107.469C134.858 106.386 133.366 105.994 132.173 106.596C130.965 107.205 130.522 108.603 131.182 109.717L133.369 108.613C131.182 109.717 131.183 109.718 131.183 109.719L131.185 109.721L131.188 109.726L131.194 109.737L131.209 109.761C131.219 109.778 131.232 109.798 131.246 109.82C131.275 109.865 131.312 109.92 131.357 109.983C131.446 110.11 131.569 110.273 131.728 110.459C132.044 110.829 132.513 111.301 133.157 111.767C134.472 112.717 136.462 113.597 139.201 113.587M135.53 107.469C135.531 107.471 135.533 107.473 135.534 107.474C135.548 107.495 135.583 107.542 135.64 107.608C135.754 107.742 135.948 107.942 136.231 108.146C136.77 108.536 137.692 108.993 139.182 108.987L139.183 108.987C141.05 108.981 141.927 108.478 142.3 108.188C142.506 108.027 142.62 107.881 142.673 107.804C142.687 107.784 142.696 107.768 142.702 107.759C143.195 106.621 144.577 106.034 145.842 106.444C147.141 106.865 147.823 108.178 147.367 109.376L145.016 108.613C147.367 109.376 147.366 109.378 147.366 109.379L147.364 109.382L147.362 109.389L147.356 109.403L147.343 109.435C147.334 109.457 147.324 109.483 147.311 109.51C147.287 109.566 147.256 109.632 147.218 109.707C147.141 109.857 147.035 110.043 146.891 110.254C146.604 110.675 146.165 111.195 145.517 111.701C144.18 112.743 142.146 113.577 139.202 113.587" fill="#3A179D"/>
<path d="M138.234 128.768V167.106C138.234 184.667 122.753 198.954 103.723 198.954C97.4053 198.954 92.2857 194.229 92.2857 188.399C92.2857 182.568 97.4053 177.844 103.723 177.844C110.14 177.844 115.359 173.028 115.359 167.106V128.768" fill="#7000FF"/>
<path fill-rule="evenodd" clip-rule="evenodd" d="M138.234 126.468C136.858 126.468 135.742 127.497 135.742 128.768V167.106C135.742 183.397 121.377 196.654 103.723 196.654C98.7813 196.654 94.7774 192.959 94.7774 188.399C94.7774 183.838 98.7813 180.143 103.723 180.143C111.516 180.143 117.851 174.298 117.851 167.106V128.768C117.851 127.497 116.735 126.468 115.359 126.468C113.982 126.468 112.866 127.497 112.866 128.768V167.106C112.866 171.758 108.764 175.544 103.723 175.544C96.0286 175.544 89.7933 181.298 89.7933 188.399C89.7933 195.499 96.0286 201.254 103.723 201.254C124.129 201.254 140.726 185.938 140.726 167.106V128.768C140.726 127.497 139.61 126.468 138.234 126.468Z" fill="#3A179D"/>
<path d="M157.529 123.534V161.873C157.529 179.434 142.048 193.72 123.018 193.72C116.7 193.72 111.581 188.996 111.581 183.165C111.581 177.335 116.7 172.61 123.018 172.61C129.435 172.61 134.654 167.795 134.654 161.873V123.534" fill="#7000FF"/>
<path fill-rule="evenodd" clip-rule="evenodd" d="M157.527 121.234C156.151 121.234 155.035 122.264 155.035 123.534V161.873C155.035 178.164 140.67 191.421 123.017 191.421C118.075 191.421 114.071 187.726 114.071 183.165C114.071 178.605 118.075 174.91 123.017 174.91C130.81 174.91 137.144 169.065 137.144 161.873V123.534C137.144 122.264 136.028 121.234 134.652 121.234C133.276 121.234 132.16 122.264 132.16 123.534V161.873C132.16 166.524 128.057 170.311 123.017 170.311C115.322 170.311 109.087 176.065 109.087 183.165C109.087 190.266 115.322 196.02 123.017 196.02C143.423 196.02 160.02 180.704 160.02 161.873V123.534C160.02 122.264 158.904 121.234 157.527 121.234Z" fill="#3A179D"/>
<path d="M191.22 125.478V164.477C191.22 182.339 206.969 196.872 226.33 196.872C232.759 196.872 237.966 192.067 237.966 186.135C237.966 180.202 232.759 175.397 226.33 175.397C219.803 175.397 214.491 170.495 214.491 164.477V125.478" fill="#7000FF"/>
<path fill-rule="evenodd" clip-rule="evenodd" d="M214.493 123.178C213.117 123.178 212.001 124.208 212.001 125.478V164.477C212.001 171.766 218.429 177.697 226.332 177.697C231.385 177.697 235.476 181.472 235.476 186.135C235.476 190.797 231.385 194.572 226.332 194.572C208.347 194.572 193.714 181.069 193.714 164.477V125.478H188.73V164.477C188.73 183.609 205.595 199.172 226.332 199.172C234.137 199.172 240.46 193.337 240.46 186.135C240.46 178.932 234.137 173.097 226.332 173.097C221.18 173.097 216.985 169.224 216.985 164.477V125.478C216.985 124.208 215.87 123.178 214.493 123.178Z" fill="#3A179D"/>
<path d="M181.706 124.626V163.625C181.706 181.487 197.454 196.02 216.816 196.02C223.244 196.02 228.451 191.215 228.451 185.283C228.451 179.35 223.244 174.545 216.816 174.545C210.288 174.545 204.977 169.643 204.977 163.625V124.626" fill="#7000FF"/>
<path fill-rule="evenodd" clip-rule="evenodd" d="M204.978 122.326C203.601 122.326 202.486 123.356 202.486 124.626V163.625C202.486 170.914 208.914 176.845 216.817 176.845C221.869 176.845 225.96 180.62 225.96 185.283C225.96 189.945 221.869 193.72 216.817 193.72C198.831 193.72 184.199 180.216 184.199 163.625V124.626C184.199 123.356 183.083 122.326 181.707 122.326C180.33 122.326 179.215 123.356 179.215 124.626V163.625C179.215 182.757 196.079 198.32 216.817 198.32C224.622 198.32 230.944 192.485 230.944 185.283C230.944 178.08 224.622 172.245 216.817 172.245C211.665 172.245 207.47 168.372 207.47 163.625V124.626C207.47 123.356 206.354 122.326 204.978 122.326Z" fill="#3A179D"/>
<path d="M157.348 124.626V162.965C157.348 180.526 172.829 194.812 191.859 194.812C198.177 194.812 203.297 190.088 203.297 184.257C203.297 178.427 198.177 173.702 191.859 173.702C185.442 173.702 180.224 168.886 180.224 162.965V124.626" fill="#7000FF"/>
<path fill-rule="evenodd" clip-rule="evenodd" d="M157.349 122.326C158.726 122.326 159.842 123.356 159.842 124.626V162.965C159.842 179.256 174.207 192.512 191.86 192.512C196.802 192.512 200.806 188.818 200.806 184.257C200.806 179.697 196.802 176.002 191.86 176.002C184.067 176.002 177.733 170.156 177.733 162.965V124.626C177.733 123.356 178.849 122.326 180.225 122.326C181.601 122.326 182.717 123.356 182.717 124.626V162.965C182.717 167.616 186.82 171.402 191.86 171.402C199.555 171.402 205.79 177.157 205.79 184.257C205.79 191.358 199.555 197.112 191.86 197.112C171.454 197.112 154.857 181.796 154.857 162.965V124.626C154.857 123.356 155.973 122.326 157.349 122.326Z" fill="#3A179D"/>
</svg>
