<svg width="77" height="80" viewBox="0 0 77 80" fill="none" xmlns="http://www.w3.org/2000/svg">
<path d="M36.1649 48.8789V64.5916C36.1649 71.7889 42.02 77.644 49.2174 77.644C51.6069 77.644 53.5432 75.7077 53.5432 73.3181C53.5432 70.9286 51.6069 68.9923 49.2174 68.9923C46.7904 68.9923 44.8167 67.0186 44.8167 64.5916V48.8789" fill="#7000FF"/>
<path fill-rule="evenodd" clip-rule="evenodd" d="M36.1656 47.936C36.6861 47.936 37.1081 48.358 37.1081 48.8786V64.5912C37.1081 71.268 42.5412 76.7011 49.218 76.7011C51.087 76.7011 52.6013 75.1868 52.6013 73.3178C52.6013 71.4488 51.087 69.9345 49.218 69.9345C46.2705 69.9345 43.8748 67.5388 43.8748 64.5912V48.8786C43.8748 48.358 44.2968 47.936 44.8173 47.936C45.3379 47.936 45.7598 48.358 45.7598 48.8786V64.5912C45.7598 66.4977 47.3116 68.0494 49.218 68.0494C52.1281 68.0494 54.4864 70.4077 54.4864 73.3178C54.4864 76.2279 52.1281 78.5862 49.218 78.5862C41.5001 78.5862 35.223 72.3091 35.223 64.5912V48.8786C35.223 48.358 35.645 47.936 36.1656 47.936Z" fill="#3C008A"/>
<path d="M32.7963 58.9658L17.981 53.7317C11.1948 51.3341 7.62451 43.863 10.0221 37.0767C10.8181 34.8236 13.2888 33.6429 15.5419 34.4389C17.795 35.2349 18.9757 37.7057 18.1797 39.9587C17.3712 42.2471 18.5747 44.7656 20.8631 45.574L35.6783 50.8082" fill="#7000FF"/>
<path fill-rule="evenodd" clip-rule="evenodd" d="M36.5671 51.1232C36.7405 50.6324 36.4832 50.094 35.9924 49.9206L21.1771 44.6864C19.3796 44.0513 18.4334 42.0713 19.0685 40.2738C20.0379 37.5299 18.5999 34.5207 15.856 33.5513C13.1121 32.5819 10.1029 34.0199 9.13347 36.7638C6.56251 44.0409 10.3901 52.0505 17.6671 54.6214L32.4824 59.8556L33.1103 58.0782L18.2951 52.844C11.9997 50.6199 8.68671 43.6872 10.9109 37.3917C11.5335 35.6295 13.4657 34.7061 15.228 35.3287C16.9903 35.9513 17.9137 37.8836 17.2911 39.6458C16.3092 42.425 17.77 45.4819 20.5492 46.4638L35.3644 51.698C35.8553 51.8714 36.3937 51.6141 36.5671 51.1232Z" fill="#3C008A"/>
<path d="M47.9258 0.216309C37.0018 0.216309 28.1338 9.14971 28.1338 20.1541V54.8831H67.7201L67.7201 20.1564C67.7201 9.15195 58.8498 0.216309 47.9258 0.216309Z" fill="#7000FF"/>
<path fill-rule="evenodd" clip-rule="evenodd" d="M30.0188 20.1541C30.0188 10.1777 38.056 2.10137 47.9258 2.10137C57.7957 2.10137 65.835 10.18 65.835 20.1564V52.9981H30.0188V20.1541ZM28.1338 20.1541C28.1338 9.14971 37.0018 0.216309 47.9258 0.216309C58.8498 0.216309 67.7201 9.15195 67.7201 20.1564V54.8831H28.1338V20.1541Z" fill="#3C008A"/>
<path d="M29.7437 40.3757C32.73 40.3757 35.1614 37.9468 35.1614 34.9605V29.6946C35.1614 26.7082 32.7325 24.2769 29.7437 24.2769C26.7549 24.2769 24.3285 26.7057 24.3285 29.6946V34.9605C24.3285 37.9468 26.7573 40.3757 29.7437 40.3757Z" fill="white"/>
<path fill-rule="evenodd" clip-rule="evenodd" d="M29.7439 41.6328C33.4236 41.6328 36.4183 38.642 36.4183 34.9608V29.6949C36.4183 26.0149 33.4272 23.0205 29.7439 23.0205C26.0603 23.0205 23.072 26.0128 23.072 29.6949V34.9608C23.072 38.6412 26.0635 41.6328 29.7439 41.6328ZM35.1616 34.9608C35.1616 37.9472 32.7303 40.376 29.7439 40.376C26.7576 40.376 24.3287 37.9472 24.3287 34.9608V29.6949C24.3287 26.7061 26.7551 24.2772 29.7439 24.2772C32.7327 24.2772 35.1616 26.7086 35.1616 29.6949V34.9608Z" fill="#3C008A"/>
<path d="M29.7436 24.7747C27.031 24.7747 24.8261 26.9821 24.8261 29.6922V34.9581C24.8261 37.6707 27.0335 39.8756 29.7461 39.8756C32.4587 39.8756 34.6661 37.6682 34.6661 34.9581V29.6922C34.6661 26.9796 32.4587 24.7747 29.7461 24.7747M29.7461 23.7793C33.0111 23.7793 35.6615 26.4272 35.6615 29.6922V34.9581C35.6615 38.2257 33.0136 40.8711 29.7461 40.8711C26.481 40.8711 23.8331 38.2232 23.8331 34.9581V29.6922C23.8331 26.4247 26.481 23.7793 29.7461 23.7793Z" fill="#3C008A"/>
<path d="M27.5539 28.8838C27.5539 27.6743 28.5344 26.6938 29.7439 26.6938C30.9534 26.6938 31.9338 27.6743 31.9338 28.8838V32.4276C31.9338 33.6371 30.9534 34.6176 29.7439 34.6176C28.5344 34.6176 27.5539 33.6371 27.5539 32.4276V28.8838Z" fill="#1C1C1C"/>
<path d="M27.6729 27.5476C27.6729 26.908 28.193 26.3879 28.8326 26.3879C29.4722 26.3879 29.9923 26.908 29.9923 27.5476C29.9923 28.1871 29.4722 28.7073 28.8326 28.7073C28.193 28.7073 27.6729 28.1871 27.6729 27.5476Z" fill="white"/>
<path d="M46.0899 40.3757C49.0762 40.3757 51.5076 37.9468 51.5076 34.9605V29.6946C51.5076 26.7082 49.0787 24.2769 46.0899 24.2769C43.101 24.2769 40.6746 26.7057 40.6746 29.6946V34.9605C40.6746 37.9468 43.1035 40.3757 46.0899 40.3757Z" fill="white"/>
<path fill-rule="evenodd" clip-rule="evenodd" d="M46.0886 41.6328C49.7683 41.6328 52.7631 38.642 52.7631 34.9608V29.6949C52.7631 26.0149 49.7719 23.0205 46.0886 23.0205C42.405 23.0205 39.4167 26.0128 39.4167 29.6949V34.9608C39.4167 38.6412 42.4083 41.6328 46.0886 41.6328ZM51.5064 34.9608C51.5064 37.9472 49.075 40.376 46.0886 40.376C43.1023 40.376 40.6734 37.9472 40.6734 34.9608V29.6949C40.6734 26.7061 43.0998 24.2772 46.0886 24.2772C49.0775 24.2772 51.5064 26.7086 51.5064 29.6949V34.9608Z" fill="#3C008A"/>
<path d="M46.0892 24.7747C43.3766 24.7747 41.1717 26.9821 41.1717 29.6922V34.9581C41.1717 37.6707 43.3791 39.8756 46.0917 39.8756C48.8042 39.8756 51.0116 37.6682 51.0116 34.9581V29.6922C51.0116 26.9796 48.8042 24.7747 46.0917 24.7747M46.0917 23.7793C49.3567 23.7793 52.0071 26.4272 52.0071 29.6922V34.9581C52.0071 38.2257 49.3592 40.8711 46.0917 40.8711C42.8266 40.8711 40.1787 38.2232 40.1787 34.9581V29.6922C40.1787 26.4247 42.8266 23.7793 46.0917 23.7793Z" fill="#3C008A"/>
<path d="M43.8989 28.8838C43.8989 27.6743 44.8793 26.6938 46.0888 26.6938C47.2983 26.6938 48.2788 27.6743 48.2788 28.8838V32.4276C48.2788 33.6371 47.2983 34.6176 46.0888 34.6176C44.8793 34.6176 43.8989 33.6371 43.8989 32.4276V28.8838Z" fill="#1C1C1C"/>
<path d="M44.0185 27.5476C44.0185 26.908 44.5386 26.3879 45.1782 26.3879C45.8178 26.3879 46.3379 26.908 46.3379 27.5476C46.3379 28.1871 45.8178 28.7073 45.1782 28.7073C44.5386 28.7073 44.0185 28.1871 44.0185 27.5476Z" fill="white"/>
<path fill-rule="evenodd" clip-rule="evenodd" d="M31.7553 18.3454C32.1978 18.6028 32.7668 18.4598 33.0341 18.0206C33.3048 17.5759 33.1637 16.996 32.719 16.7254L32.229 17.5305C32.719 16.7254 32.7186 16.7251 32.7181 16.7249L32.7172 16.7243L32.7153 16.7231L32.7111 16.7206L32.7014 16.7149C32.6944 16.7108 32.6862 16.7061 32.6769 16.7009C32.6582 16.6905 32.6349 16.6779 32.6072 16.6638C32.5519 16.6357 32.4784 16.6012 32.3883 16.5654C32.2087 16.4939 31.9586 16.415 31.6521 16.3714C31.0264 16.2826 30.1945 16.3468 29.2994 16.8683M31.7553 18.3454C31.7547 18.3451 31.754 18.3447 31.7531 18.3443C31.7443 18.3398 31.7232 18.3295 31.6911 18.3168C31.6262 18.2909 31.5217 18.2569 31.3871 18.2378C31.1307 18.2014 30.7351 18.2134 30.2483 18.4972L30.2479 18.4974C29.6375 18.8527 29.4534 19.1972 29.391 19.3706C29.3564 19.4667 29.3486 19.54 29.3472 19.5774C29.3468 19.5872 29.3469 19.5945 29.347 19.5989C29.4189 20.0961 29.0863 20.5659 28.588 20.6594C28.0764 20.7555 27.5838 20.4186 27.4877 19.907L28.4141 19.7331C27.4877 19.907 27.4876 19.9063 27.4875 19.9056L27.4872 19.9043L27.4867 19.9014L27.4856 19.8953L27.4833 19.8817C27.4817 19.872 27.4801 19.861 27.4784 19.8488C27.475 19.8245 27.4716 19.7952 27.4688 19.7614C27.4631 19.6938 27.4596 19.6074 27.4635 19.5056C27.4713 19.3016 27.5086 19.034 27.6173 18.7321C27.8415 18.1093 28.337 17.4287 29.299 16.8686" fill="#3C008A"/>
<path fill-rule="evenodd" clip-rule="evenodd" d="M46.7618 20.5597C46.7601 21.0715 47.1685 21.4928 47.6825 21.5047C48.2029 21.5168 48.6346 21.1047 48.6466 20.5842L47.7043 20.5624C48.6466 20.5843 48.6466 20.5837 48.6466 20.5832L48.6467 20.5821L48.6467 20.5799L48.6468 20.575L48.6469 20.5638C48.6469 20.5556 48.6469 20.5462 48.6468 20.5355C48.6465 20.5141 48.6457 20.4877 48.6441 20.4566C48.6408 20.3947 48.6338 20.3138 48.6199 20.2178C48.592 20.0266 48.5353 19.7705 48.4197 19.4833C48.1838 18.897 47.7123 18.2086 46.8131 17.6942M46.7618 20.5597C46.7618 20.559 46.7617 20.5582 46.7617 20.5572C46.7612 20.5474 46.7595 20.5239 46.7545 20.4897C46.7444 20.4206 46.7216 20.3131 46.6709 20.187C46.5742 19.9467 46.366 19.6101 45.8769 19.3304L45.8765 19.3302C45.2636 18.9793 44.8732 18.992 44.6918 19.0246C44.5913 19.0427 44.5239 19.0727 44.4908 19.0902C44.4821 19.0948 44.4759 19.0985 44.4721 19.1008C44.0775 19.4116 43.5043 19.3585 43.1741 18.9737C42.8352 18.5786 42.8806 17.9836 43.2756 17.6446L43.8894 18.3599C43.2756 17.6446 43.2762 17.6442 43.2767 17.6437L43.2778 17.6428L43.28 17.6409L43.2847 17.6369L43.2954 17.6281C43.303 17.6219 43.3116 17.615 43.3213 17.6074C43.3408 17.5923 43.3644 17.5747 43.3923 17.5554C43.448 17.5167 43.521 17.4705 43.6112 17.4229C43.7917 17.3277 44.0421 17.2262 44.358 17.1694C45.0094 17.0522 45.8465 17.141 46.8127 17.694" fill="#3C008A"/>
<path fill-rule="evenodd" clip-rule="evenodd" d="M36.4689 42.1067C36.2145 41.6626 35.6501 41.5019 35.199 41.7486C34.7423 41.9984 34.5746 42.5711 34.8243 43.0278L35.6513 42.5756C34.8243 43.0278 34.8246 43.0283 34.8248 43.0287L34.8253 43.0297L34.8264 43.0316L34.8288 43.0359L34.8343 43.0457C34.8384 43.0528 34.8431 43.0609 34.8486 43.0701C34.8595 43.0885 34.8734 43.111 34.8903 43.137C34.9242 43.189 34.9706 43.2556 35.0307 43.3318C35.1505 43.4835 35.3277 43.6769 35.5714 43.8678C36.0688 44.2576 36.8213 44.618 37.8572 44.6139M36.4689 42.1067C36.4693 42.1073 36.4697 42.108 36.4703 42.1088C36.4756 42.117 36.4888 42.1365 36.5102 42.1636C36.5535 42.2184 36.627 42.3002 36.734 42.384C36.9379 42.5438 37.2864 42.7311 37.8499 42.7288L37.8504 42.7288C38.5566 42.7262 38.8883 42.52 39.0291 42.4011C39.1071 42.3351 39.1504 42.2755 39.1704 42.2438C39.1756 42.2355 39.1792 42.2292 39.1813 42.2253C39.3676 41.7588 39.8906 41.5182 40.3689 41.6864C40.86 41.859 41.1182 42.397 40.9456 42.8881L40.0564 42.5756C40.9456 42.8881 40.9453 42.8888 40.9451 42.8894L40.9446 42.8908L40.9436 42.8935L40.9415 42.8993L40.9367 42.9123C40.9332 42.9215 40.9292 42.9318 40.9246 42.9432C40.9153 42.966 40.9036 42.993 40.8892 43.0237C40.8603 43.0851 40.8201 43.1616 40.7658 43.2479C40.6571 43.4206 40.491 43.6337 40.2458 43.8409C39.7403 44.2681 38.9709 44.6097 37.8577 44.6139" fill="#3C008A"/>
<path d="M37.8539 49.6333V65.346C37.8539 72.5433 31.9988 78.3984 24.8014 78.3984C22.4119 78.3984 20.4756 76.4621 20.4756 74.0725C20.4756 71.683 22.4119 69.7467 24.8014 69.7467C27.2284 69.7467 29.2021 67.7729 29.2021 65.346V49.6333" fill="#7000FF"/>
<path fill-rule="evenodd" clip-rule="evenodd" d="M37.8537 48.6904C37.3332 48.6904 36.9112 49.1124 36.9112 49.633V65.3456C36.9112 72.0224 31.4781 77.4555 24.8013 77.4555C22.9323 77.4555 21.4179 75.9412 21.4179 74.0722C21.4179 72.2032 22.9323 70.6889 24.8013 70.6889C27.7488 70.6889 30.1445 68.2932 30.1445 65.3456V49.633C30.1445 49.1124 29.7225 48.6904 29.202 48.6904C28.6814 48.6904 28.2594 49.1124 28.2594 49.633V65.3456C28.2594 67.2521 26.7077 68.8038 24.8013 68.8038C21.8912 68.8038 19.5329 71.1621 19.5329 74.0722C19.5329 76.9823 21.8912 79.3406 24.8013 79.3406C32.5192 79.3406 38.7963 73.0635 38.7963 65.3456V49.633C38.7963 49.1124 38.3743 48.6904 37.8537 48.6904Z" fill="#3C008A"/>
<path d="M45.1508 48.4316L45.1508 64.1443C45.1508 71.3416 39.2956 77.1967 32.0983 77.1967C29.7087 77.1967 27.7724 75.2604 27.7724 72.8709C27.7724 70.4813 29.7087 68.545 32.0983 68.545C34.5253 68.545 36.499 66.5713 36.499 64.1443V48.4316" fill="#7000FF"/>
<path fill-rule="evenodd" clip-rule="evenodd" d="M45.1506 47.4888C44.6301 47.4888 44.2081 47.9108 44.2081 48.4313L44.2081 64.144C44.2081 70.8207 38.7749 76.2539 32.0982 76.2539C30.2291 76.2539 28.7148 74.7396 28.7148 72.8705C28.7148 71.0015 30.2291 69.4872 32.0982 69.4872C35.0457 69.4872 37.4414 67.0915 37.4414 64.144V48.4313C37.4414 47.9108 37.0194 47.4888 36.4989 47.4888C35.9783 47.4888 35.5563 47.9108 35.5563 48.4313V64.144C35.5563 66.0504 34.0046 67.6021 32.0982 67.6021C29.188 67.6021 26.8298 69.9604 26.8298 72.8705C26.8298 75.7806 29.188 78.1389 32.0982 78.1389C39.816 78.1389 46.0931 71.8618 46.0931 64.144L46.0931 48.4313C46.0931 47.9108 45.6712 47.4888 45.1506 47.4888Z" fill="#3C008A"/>
<path d="M57.8938 49.228V65.2113C57.8938 72.5319 63.8502 78.4882 71.1729 78.4882C73.6043 78.4882 75.5736 76.5189 75.5736 74.0875C75.5736 71.6561 73.6043 69.6868 71.1729 69.6868C68.7041 69.6868 66.6952 67.6779 66.6952 65.2113V49.228" fill="#7000FF"/>
<path fill-rule="evenodd" clip-rule="evenodd" d="M66.6956 48.2852C66.175 48.2852 65.753 48.7071 65.753 49.2277V65.211C65.753 68.1984 68.1842 70.629 71.1733 70.629C73.0841 70.629 74.6314 72.1763 74.6314 74.0872C74.6314 75.998 73.0841 77.5453 71.1733 77.5453C64.371 77.5453 58.8367 72.0109 58.8367 65.211V49.2277H56.9516V65.211C56.9516 73.0522 63.3301 79.4304 71.1733 79.4304C74.1252 79.4304 76.5165 77.0391 76.5165 74.0872C76.5165 71.1353 74.1252 68.744 71.1733 68.744C69.2247 68.744 67.6381 67.1567 67.6381 65.211V49.2277C67.6381 48.7071 67.2161 48.2852 66.6956 48.2852Z" fill="#3C008A"/>
<path d="M54.2952 48.8789V64.8622C54.2952 72.1828 60.2515 78.1391 67.5743 78.1391C70.0057 78.1391 71.975 76.1698 71.975 73.7384C71.975 71.307 70.0057 69.3377 67.5743 69.3377C65.1055 69.3377 63.0966 67.3288 63.0966 64.8622V48.8789" fill="#7000FF"/>
<path fill-rule="evenodd" clip-rule="evenodd" d="M63.0969 47.936C62.5764 47.936 62.1544 48.358 62.1544 48.8786V64.8619C62.1544 67.8493 64.5856 70.2799 67.5746 70.2799C69.4855 70.2799 71.0328 71.8272 71.0328 73.7381C71.0328 75.6489 69.4855 77.1962 67.5746 77.1962C60.7723 77.1962 55.2381 71.6618 55.2381 64.8619V48.8786C55.2381 48.358 54.8161 47.936 54.2955 47.936C53.775 47.936 53.353 48.358 53.353 48.8786V64.8619C53.353 72.7031 59.7314 79.0813 67.5746 79.0813C70.5266 79.0813 72.9178 76.69 72.9178 73.7381C72.9178 70.7861 70.5266 68.3948 67.5746 68.3948C65.6261 68.3948 64.0395 66.8076 64.0395 64.8619V48.8786C64.0395 48.358 63.6175 47.936 63.0969 47.936Z" fill="#3C008A"/>
<path d="M45.0824 48.8789V64.5916C45.0824 71.7889 50.9375 77.644 58.1348 77.644C60.5244 77.644 62.4607 75.7077 62.4607 73.3181C62.4607 70.9286 60.5244 68.9923 58.1348 68.9923C55.7079 68.9923 53.7342 67.0186 53.7342 64.5916V48.8789" fill="#7000FF"/>
<path fill-rule="evenodd" clip-rule="evenodd" d="M45.0835 47.936C45.6041 47.936 46.0261 48.358 46.0261 48.8786V64.5912C46.0261 71.268 51.4592 76.7011 58.136 76.7011C60.005 76.7011 61.5193 75.1868 61.5193 73.3178C61.5193 71.4488 60.005 69.9345 58.136 69.9345C55.1884 69.9345 52.7927 67.5388 52.7927 64.5912V48.8786C52.7927 48.358 53.2147 47.936 53.7353 47.936C54.2558 47.936 54.6778 48.358 54.6778 48.8786V64.5912C54.6778 66.4977 56.2295 68.0494 58.136 68.0494C61.0461 68.0494 63.4044 70.4077 63.4044 73.3178C63.4044 76.2279 61.0461 78.5862 58.136 78.5862C50.4181 78.5862 44.141 72.3091 44.141 64.5912V48.8786C44.141 48.358 44.563 47.936 45.0835 47.936Z" fill="#3C008A"/>
</svg>
