<?xml version="1.0" encoding="UTF-8"?>
<svg id="Layer_1" data-name="Layer 1" xmlns="http://www.w3.org/2000/svg" xmlns:xlink="http://www.w3.org/1999/xlink" viewBox="0 0 307.57 394.1">
  <defs>
    <style>
      .cls-1 {
        stroke-width: 48px;
      }

      .cls-1, .cls-2, .cls-3, .cls-4, .cls-5, .cls-6, .cls-7 {
        fill: none;
      }

      .cls-1, .cls-2, .cls-3, .cls-8, .cls-9, .cls-5, .cls-10 {
        stroke: #3a179d;
      }

      .cls-1, .cls-2, .cls-8, .cls-9, .cls-5, .cls-10, .cls-6, .cls-7 {
        stroke-linecap: round;
        stroke-linejoin: round;
      }

      .cls-2, .cls-6 {
        stroke-width: 36px;
      }

      .cls-3 {
        stroke-miterlimit: 10;
        stroke-width: 6.17px;
      }

      .cls-11 {
        fill: #f2b6ff;
      }

      .cls-11, .cls-4, .cls-12, .cls-13, .cls-14, .cls-15, .cls-16, .cls-17 {
        stroke-width: 0px;
      }

      .cls-12, .cls-8 {
        fill: #fff;
      }

      .cls-13 {
        fill: #fee702;
      }

      .cls-8, .cls-9, .cls-5, .cls-10 {
        stroke-width: 6px;
      }

      .cls-18 {
        clip-path: url(#clippath);
      }

      .cls-9 {
        fill: #7000ff;
      }

      .cls-14 {
        fill: #ffb3b3;
      }

      .cls-15 {
        fill: #841347;
      }

      .cls-16 {
        fill: #1c1c1c;
      }

      .cls-10 {
        fill: #20105b;
      }

      .cls-6 {
        stroke: #7000ff;
      }

      .cls-7 {
        stroke: #ff4c4c;
        stroke-width: 1.5px;
      }

      .cls-17 {
        fill: #721482;
      }
    </style>
    <clipPath id="clippath">
      <circle class="cls-3" cx="168.28" cy="89.3" r="58.54"/>
    </clipPath>
  </defs>
  <g id="legBack">
    <path class="cls-1" d="m263.8,351.24h0c-23.04,0-41.72-18.68-41.72-41.72v-70.11"/>
    <path class="cls-2" d="m263.8,351.24h0c-23.04,0-41.72-18.68-41.72-41.72v-70.11"/>
  </g>
  <g id="legBack-2" data-name="legBack">
    <path class="cls-1" d="m229.8,351.24h0c-23.04,0-41.72-18.68-41.72-41.72v-70.11"/>
    <path class="cls-2" d="m229.8,351.24h0c-23.04,0-41.72-18.68-41.72-41.72v-70.11"/>
  </g>
  <g id="legBack-3" data-name="legBack">
    <path class="cls-1" d="m195.8,351.24h0c-23.04,0-41.72-18.68-41.72-41.72v-70.11"/>
    <path class="cls-2" d="m195.8,351.24h0c-23.04,0-41.72-18.68-41.72-41.72v-70.11"/>
  </g>
  <g id="leg1">
    <path class="cls-1" d="m44.37,351.24c23.04,0,41.72-18.68,41.72-41.72v-70.11"/>
    <path class="cls-6" d="m44.37,351.24c23.04,0,41.72-18.68,41.72-41.72v-70.11"/>
  </g>
  <g id="leg5">
    <path class="cls-1" d="m263.8,351.24c-23.04,0-41.72-18.68-41.72-41.72v-70.11"/>
    <path class="cls-6" d="m263.8,351.24c-23.04,0-41.72-18.68-41.72-41.72v-70.11"/>
  </g>
  <g id="leg4">
    <path class="cls-1" d="m229.8,351.24c-23.04,0-41.72-18.68-41.72-41.72v-70.11"/>
    <path class="cls-6" d="m229.8,351.24c-23.04,0-41.72-18.68-41.72-41.72v-70.11"/>
  </g>
  <g id="leg3">
    <path class="cls-1" d="m195.8,351.24c-23.04,0-41.72-18.68-41.72-41.72v-70.11"/>
    <path class="cls-6" d="m195.8,351.24c-23.04,0-41.72-18.68-41.72-41.72v-70.11"/>
  </g>
  <g id="leg2">
    <path class="cls-1" d="m78.37,351.24c23.04,0,41.72-18.68,41.72-41.72v-70.11"/>
    <path class="cls-6" d="m78.37,351.24c23.04,0,41.72-18.68,41.72-41.72v-70.11"/>
  </g>
  <path id="body" class="cls-9" d="m65,239.41V98.74c0-49.18,39.87-89.05,89.05-89.05h0c49.18,0,89.05,39.87,89.05,89.05v140.67"/>
  <g id="brainMask">
    <g class="cls-18">
      <g>
        <path class="cls-10" d="m65,239.41V98.74c0-49.18,39.87-89.05,89.05-89.05h0c49.18,0,89.05,39.87,89.05,89.05v140.67"/>
        <g id="brandAndAtoms">
          <g>
            <g>
              <path class="cls-11" d="m124.82,110.99s-.02-.09-.03-.13c-.12-.5-.21-.99-.28-1.48,0-.01,0-.02,0-.03-.02-.18-.04-.36-.06-.53-.12.13-.28.23-.48.28-.93.2-1.93.23-2.95.15-1.77-.14-3.58-.63-5.15-1.1-.34-.1-.56-.31-.67-.56-.32-.71.24-1.74,1.24-1.52.17.04.34.07.51.11,2.33.45,4.71.35,7.02.8.17.03.31.1.42.2.07-4.12,1.81-8.14,4.38-11.39,2.95-3.71,7.15-6.56,11.82-7.49.32-.06.57-.32.62-.65.26-1.6.71-3.15,1.35-4.63.06-.15.08-.31.05-.46-.21-.98-.53-1.95-.87-2.89-.72-2.03-1.65-3.96-2.88-5.7-.02-.03-.04-.06-.06-.09-.5-.7-1.04-1.37-1.63-2-.93-.99.52-2.45,1.5-1.5.93.91,1.75,1.89,2.48,2.93,1.35,1.9,2.4,4.01,3.23,6.21.01.03.02.07.04.1,2.29-3.4,5.6-6.12,9.6-7.68,2.67-1.04,5.55-1.52,8.42-1.44.3,0,.58-.16.72-.43.19-.38.37-.77.51-1.17.41-1.11.48-2.25.66-3.38.06-.39.14-.79.25-1.17.26-.92,1.59-.91,1.86,0,.11.37.18.75.2,1.14.11,1.44-.32,2.92-1.04,4.29-.24.46.03,1.02.54,1.11.56.11,1.11.24,1.66.39.49.13.99.3,1.51.48.27.1.56.04.78-.14,3.15-2.75,7.06-5.04,11.16-6.21.45-.13.68-.62.49-1.05-.98-2.22-2.57-4.17-4.47-5.78-.12-.11-.25-.21-.38-.32-3-2.45-6.91-4.54-10.66-5.35-5.42-1.17-10.22.65-14.38,3.65-.41.29-.43.89-.05,1.22,2,1.72,3.62,3.86,4.25,6.28.2.76-.2,1.36-.76,1.62-.6.29-1.41.19-1.85-.53-.92-1.5-1.68-2.94-2.79-4.24-.24-.29-.51-.57-.79-.85-.35-.34-.73-.67-1.11-.99-.65-.52-1.35-1-2.08-1.41-.56-.32-1.15-.59-1.74-.83-3.47-1.37-7.16-1.35-10.6-.11-.64.23-1.26.5-1.88.81-5.34,2.7-9.29,7.85-10.83,13.61-.12.45.17.9.63.97,1.85.29,3.73.71,5.33,1.59.06.03.11.07.16.11.85.61.57,1.76-.19,2.23-.29.18-.65.27-1.04.18-1.67-.36-3.57-.85-5.55-1.22-.63-.13-1.26-.23-1.89-.33-3.82-.56-7.69-.49-10.38,1.76-.82.69-1.53,1.58-2.09,2.71-2.23,4.48-1.13,9.08.93,13.32.24.49.89.58,1.26.19.56-.6,1.19-1.15,1.92-1.6.09-.05.18-.09.26-.1.16-.03.31.01.43.1.35.25.47.86,0,1.19-1.04.73-1.84,1.7-2.52,2.76-.43.66-.81,1.35-1.18,2.04-.16.29-.31.58-.46.87-1,1.87-1.9,3.8-2.23,5.91-.64,4.06.67,8.23,2.91,11.6.96,1.44,2.08,2.7,3.32,3.78l-1.07-.84c.33.33.69.61,1.08.85,0,0,0,0,.01,0,4.06,3.55,9.39,5.33,14.77,6.33.52.1.98-.35.9-.87-.38-2.68-.26-5.43.36-8.06.05-.22,0-.46-.14-.64-1.09-1.48-1.88-3.19-2.32-4.97Zm2.38-22.25c.13.21.16.43.14.65-.08.61-.29-.14-.95-.34-.37-.11-.87.09-1.21-.07-.67.08-1.75-.18-2.43-.2.02.13.02.26.04.38-.09-.01-.18-.04-.28-.04-1.26-.09-2.54.3-3.65.89-.87.47-1.93-.75-1.1-1.43,1.45-1.18,2.8-1.94,4.75-1.94,1.69,0,3.78.58,4.7,2.1Z"/>
              <path class="cls-11" d="m212.88,101.25c0-.17-.01-.34-.02-.51-.01-.17-.03-.35-.04-.52-.02-.17-.04-.34-.06-.51-.01-.1-.03-.19-.04-.29-.02-.13-.04-.27-.07-.4,0,0,0,0,0,0,0,0,0,0,0-.01-.02-.13-.05-.26-.07-.39-.01-.05-.02-.11-.03-.15-.05-.25-.12-.49-.19-.73-.01-.05-.02-.1-.04-.15-.01-.04-.02-.09-.04-.13-.02-.07-.04-.15-.07-.22-.03-.11-.06-.21-.1-.31-.05-.15-.11-.3-.16-.45-.06-.17-.13-.34-.21-.51-.06-.16-.14-.31-.21-.46-.02-.03-.03-.06-.04-.09-.07-.15-.15-.29-.22-.44,0,0-.01-.02-.01-.02-.08-.15-.16-.29-.25-.44-.01-.02-.02-.04-.04-.06-.09-.15-.18-.3-.28-.45-.1-.16-.21-.31-.32-.47-1.07-1.5-2.45-2.62-4-3.54-.69-.41-1.42-.79-2.16-1.14-.5-.23-1.01-.46-1.53-.68-2.54-1.07-5.28-1.94-7.96-2.26-.13-.01-.24-.05-.34-.1h0c-.39-.19-.6-.58-.6-.97-.01-.48.3-.94.95-.92,2.32.07,4.79.4,7.17,1.03.51.13,1.01-.28.96-.81-.55-6.04-4.64-11.71-9.89-14.98-2.18-1.36-4.58-1.84-7.03-1.77-.17,0-.34.01-.51.02-.14,0-.28.02-.42.03-.08,0-.16.01-.24.02-.14.01-.28.02-.41.04-.13.01-.27.03-.39.05-.25.03-.51.07-.76.12-.14.02-.28.05-.42.07h0s-.06.01-.09.02c-1.05.2-2.08.47-3.09.78-2.55.79-4.95,1.92-7.14,3.37-.48.32-.45,1.02.04,1.31.32.19.64.38.94.59.15.1.3.21.45.32.17.12.33.25.49.38.26.2.51.42.74.65.14.13.27.27.4.4.12.12.22.24.33.37.17.19.33.39.47.6.06.08.11.16.16.24.03.04.06.09.08.13.06.09.11.17.16.26.06.11.12.21.18.32,0,.01.01.02.02.03.06.12.12.24.17.36.01.03.03.06.04.09.01.02.02.05.03.07.04.08.07.16.1.23.02.06.04.12.06.18.05.14.09.28.13.42.02.07.04.13.05.2.02.06.03.12.04.17.02.06.03.12.04.18.02.08.03.17.04.26.15,1.11-1.59,1.8-2.27.94-1.24-1.56-2.07-3.2-3.71-4.43-.83-.62-1.72-1.13-2.66-1.55-.47-.21-.95-.4-1.44-.57-.33-.12-.66-.22-.99-.31-1.17-.33-2.36-.52-3.57-.59-.69-.04-1.38-.04-2.07,0-2.11.11-4.21.58-6.15,1.37-4.15,1.68-7.32,4.85-9.32,8.69-.62,1.19-1.12,2.45-1.51,3.75-.14.48.2.96.7.99.07,0,.14.01.21.01,2.13.16,4.22.75,6.19,1.59,1.44.6,2.81,1.25,4.02,2.24,1.21.99,2.28,2.1,3.42,3.17.77.72-.22,1.69-1.03,1.34-2.24-.95-4.51-1.69-6.7-2.75-.5-.24-1-.47-1.52-.67-.13-.05-.25-.1-.39-.15-.12-.04-.24-.09-.36-.13-.37-.13-.74-.25-1.12-.36-.09-.02-.18-.05-.27-.07-.08-.02-.15-.04-.23-.06-.13-.03-.27-.06-.4-.1-.54-.12-1.08-.2-1.63-.25-.14-.01-.27-.02-.41-.03h0c-.06-.01-.14,0-.2-.01-.02,0-.04,0-.06,0-.08,0-.15,0-.23,0h-.02s-.05,0-.08,0h-.01s-.06,0-.09,0h0c-1.06.05-2.54.33-3.32.49h0c-.08,0-.17,0-.25.03s-.17.05-.25.08c0,0-.01,0-.02,0,0,0-.02,0-.02,0-.16.05-.33.11-.49.17,0,0,0,0-.01,0-.17.06-.34.13-.51.19-.16.06-.31.13-.47.19-.04.02-.08.04-.12.06-.14.06-.27.12-.41.19-.01,0-.03.01-.04.02-.15.07-.3.15-.46.23-.01,0-.02.01-.04.02-.15.08-.3.16-.45.25-.01.01-.03.02-.04.02-.14.08-.28.17-.41.25-.04.02-.07.04-.11.07-.13.08-.26.17-.39.25-.15.1-.31.21-.46.32-.15.11-.3.22-.45.33-.15.11-.29.22-.43.34-.13.1-.25.2-.37.31-.12.1-.24.2-.35.31-.45.4-.88.83-1.29,1.27-2.92,3.16-4.83,7.49-4.34,11.86.04.4.11.8.2,1.19.15.68,1.05.82,1.41.22.58-.94,1.24-1.85,1.98-2.69,1.25-1.43,3.76.5,2.64,2.04-1.39,1.9-2.4,3.98-3.01,6.13-.31,1.09-.52,2.21-.64,3.32-.01.12-.02.23-.03.35-.01.12-.02.23-.02.34,0,.07-.01.15-.01.23-.01.15-.01.3-.02.46,0,.34,0,.69,0,1.03,0,.16.01.31.02.47v.02c.01.18.02.35.04.53.01.15.03.31.04.46,0,.02,0,.04,0,.06.02.16.04.32.06.48.02.16.05.32.07.48.03.15.05.29.08.44,0,.02,0,.04.01.06.03.17.07.34.11.5.11.5.25.99.41,1.47.18.55.38,1.09.62,1.63,1.38,3.14,3.73,5.9,7.02,7.85,5.15,3.05,10.69,2.91,16.32,1.41,1.29-.35,2.67-.64,3.88-1.24,1.35-.67,2.27-1.83,3.19-2.98.9-1.13,1.77-2.29,2.64-3.45.72-.97,1.44-1.95,2.16-2.92.23-.31.65-.4.99-.22.44.24.87.5,1.3.76.56.34,1.12.68,1.67.95,2.33,1.15,4.87,2.02,7.51,1.74,4.35-.45,8.9-3.62,11.29-7.2.4-.59.75-1.21,1.05-1.84.09-.18.17-.36.25-.54.15-.36.29-.72.41-1.08.06-.18.12-.36.17-.55.05-.18.1-.37.15-.55.03-.14.06-.27.09-.4h0c.1-.46.16-.91.21-1.36.23-2.3-.18-4.66-1.32-6.9-.47-.92-1.06-1.76-1.75-2.54-.53-.6-1.12-1.17-1.75-1.7-2.47-2.12-5.54-3.76-8.11-5.41-.51-.33-.42-.93-.09-1.24.21-.2.53-.27.86-.08.93.52,1.9,1.04,2.87,1.56,0,0,0,0,.01,0,.24.09.35.3.54.46,1.54,1.24,3.67,2.35,5.62,3.7,1.34-.68,3.54-1.71,4.76-2.04.17-.04.33-.09.5-.13,1.51-.36,3.08-.55,4.62-.51,1.58.04,3.67.06,4.75,1.38.54.66.34,1.56-.49,1.85-1.38.49-2.85-.14-4.27-.23-1.46-.09-2.96-.01-4.4.27-.78.16-1.55.36-2.3.62-.5.17-.68.79-.35,1.2.61.76,1.15,1.59,1.58,2.5.06.14.13.28.19.41.05.12.1.24.15.36.05.13.11.26.15.39.04.11.08.22.12.34.03.07.05.15.07.23.01.03.02.05.03.08.03.09.06.18.08.27.03.1.06.2.08.3.04.14.07.27.11.41.05.18.09.37.12.55,0,.01,0,.03.01.04t0,0c.05.27.1.53.14.8.02.12.04.24.05.37.01.11.03.22.04.34.01.09.02.18.03.27,0,.03,0,.06,0,.1,0,.05,0,.1.01.15h0c.04.57.05,1.14.03,1.7-.01.39.28.73.67.78,1.57.2,3.16.25,4.75.16,2.44-.14,5.04-.41,6.76-2.3,1.79-1.97,3.28-4.45,4.26-6.93.1-.25.19-.51.28-.77.06-.18.12-.35.17-.53.05-.17.1-.34.15-.51.1-.33.18-.67.24-1,.02-.08.04-.16.05-.24,0-.03.01-.05.01-.08.03-.13.05-.27.07-.4,0-.02.01-.04.01-.06.01-.09.03-.18.04-.27,0-.02.01-.04.01-.07.03-.2.06-.41.08-.61.02-.2.04-.41.06-.61.02-.2.03-.41.03-.61.01-.38.01-.75,0-1.12,0-.03,0-.06,0-.09Zm-43.56,23.18s0,0,.01,0c0,0,0,0-.01,0,0,0,0,0,0,0Zm1.7.67c.39.12.78.23,1.17.3-.4-.07-.79-.18-1.17-.3Zm11.67-34.49c-.12.06-.23.12-.34.18-.15.08-.3.15-.46.22-.05.02-.1.05-.15.07-.11.05-.22.1-.34.14-.14.05-.27.11-.41.15h0c-.16.06-.32.11-.48.16-.14.04-.28.08-.42.13-.18.05-.36.1-.55.14-.07.02-.14.03-.21.05,0,0,0,0-.01,0-.05.01-.1.02-.15.03-.02,0-.04.01-.06.01,0,0,0,0-.01,0-.11.02-.22.04-.33.06-.18.03-.35.06-.53.08-.14.02-.29.04-.43.05-.1.01-.2.02-.29.03-.1.01-.19.02-.29.02-.14,0-.28.01-.41.02-1.5.05-2.98-.14-4.3-.56-1.1-.35-.62-1.85.47-1.69,1.95.28,4.06.16,5.94-.4,1.93-.58,3.31-1.68,4.95-2.78.3-.2.58-.24.84-.17.04.01.07.02.11.04h0c.06.02.12.05.18.1.03.01.05.03.07.05.02.02.04.03.06.05.02.02.04.03.05.05.04.04.08.09.12.14.02.02.03.05.05.07.02.03.03.05.05.08.01.03.03.05.04.08.01.02.02.03.02.05.01.02.02.04.02.05,0,.01.01.02.01.03.01.02.02.04.02.06,0,.02.01.04.01.06,0,.02.01.04.01.07,0,0,0,.01,0,.01,0,.03.01.06.01.09.03.31-.05.63-.27.89-.36.42-.76.8-1.19,1.15-.12.1-.24.19-.37.28-.33.24-.67.46-1.03.65Z"/>
            </g>
            <path class="cls-17" d="m127.34,89.39c-.08.61-.69,1.13-1.35.93-.37-.11-.72-.25-1.06-.41-.77-.35-1.51-.73-2.43-.79-1.26-.09-2.54.3-3.65.89-.87.47-1.93-.75-1.1-1.43,1.45-1.18,2.8-1.94,4.75-1.94,1.69,0,3.78.58,4.7,2.1.13.21.16.43.14.65Z"/>
            <path class="cls-17" d="m178.86,117.75c-2.86-.38-4.91-2.85-7.27-4.52-.47-.33-.94-.63-1.44-.87-.71-.35-1.46-.64-2.24-.86-.69-.2-1.41.08-1.8.68-.49.76-1.05,1.48-1.68,2.14-.52.55-1.08,1.07-1.69,1.55-2.45,1.92-5.59,3.11-8.72,3.35h0c-.87.07-1.74.07-2.6-.01-.67-.06-1.31.32-1.58.93-.34.79-.64,1.6-.9,2.43-.28.85-.52,1.72-.75,2.61-.14.54-1.08.62-1.17,0-.18-1.27-.13-2.54.1-3.77.11-.57.25-1.13.43-1.69.24-.73-.1-1.51-.77-1.87-1.1-.59-2.1-1.37-2.95-2.36-.73-.85-1.35-1.84-1.82-3-.35-.87.98-1.69,1.6-1.04.02.02.04.04.06.07,1.1,1.42,2.15,2.82,3.76,3.7.61.33,1.25.6,1.91.81.86.27,1.74.42,2.64.47.21.01.43.02.64.02,3.1.01,6.2-1.18,8.55-3.19.84-.72,1.57-1.54,2.19-2.44.62-.88,1.11-1.85,1.47-2.86.35-.99.57-2.03.65-3.1.06-.9.03-1.81-.1-2.71-.1-.74-.28-1.48-.51-2.19-.49-1.51-1.38-2.78-2.06-4.19-.79-1.62,1.16-3.24,2.53-1.95,2.53,2.38,3.36,6.42,3.26,9.94-.02.64-.06,1.26-.14,1.86-.05.41-.12.83-.2,1.24-.17.82.31,1.62,1.11,1.87,0,0,.01,0,.01,0,1.38.42,2.65,1.04,3.86,1.75,2.2,1.3,4.22,2.91,6.4,4.29,1.18.74.85,3.11-.79,2.89Z"/>
            <path class="cls-17" d="m185.28,88.53c-.36.42-.76.8-1.19,1.15-.12.1-.24.19-.37.28-.33.24-.67.46-1.03.65-.11.06-.23.12-.34.18-.15.08-.3.15-.46.22-.05.02-.1.04-.15.07-.11.05-.22.1-.34.14-.14.05-.27.11-.41.15h0c-.16.06-.32.11-.48.16-.14.04-.28.08-.42.13-.18.05-.36.1-.55.14-.07.02-.14.03-.21.05,0,0,0,0-.01,0-.05.01-.1.02-.15.03-.02,0-.04.01-.06.01,0,0,0,0-.01,0-.11.02-.22.04-.33.06-.18.03-.35.06-.53.08-.14.02-.29.04-.43.05-.1.01-.19.02-.29.03-.1.01-.19.02-.29.02-.14,0-.28.01-.41.02-1.5.05-2.98-.14-4.3-.56-1.1-.35-.62-1.85.47-1.69,1.95.28,4.06.16,5.94-.4,1.93-.58,3.31-1.68,4.95-2.78.3-.2.58-.24.84-.17.04.01.07.02.11.04,0,0,0,0,0,0,.06.02.12.05.18.1.03.01.05.03.07.05.02.02.04.03.06.05.02.02.04.03.05.05.04.04.08.09.12.14.02.02.03.05.05.07.02.03.03.05.05.08.01.03.03.05.04.08.01.02.02.03.02.05,0,.02.01.03.02.05,0,.01.01.02.01.03.01.02.02.04.02.06,0,.02.01.04.01.06,0,.02.01.04.01.07,0,0,0,.01,0,.01,0,.03.01.06.01.09.03.31-.05.63-.27.89Z"/>
            <path class="cls-17" d="m211.4,89.83c-1.21-1.1-2.6-2.02-4.08-2.79-.27-.14-.43-.42-.42-.72.25-7.84-5.06-15.57-11.84-19.6-2.87-1.71-6.02-2.32-9.19-2.13-.34.02-.66-.18-.78-.51-1.02-2.74-2.77-5.18-4.98-7.15-3.49-3.09-8.29-5.66-12.86-6.67-6.49-1.43-13.09.82-18.08,5-.25.21-.59.24-.88.08-.62-.34-1.24-.64-1.85-.9-4.74-2.02-9.79-1.86-14.48.22-6.75,3-11.27,9.33-12.53,16.35-.07.39-.44.67-.84.62-1.69-.18-3.41-.29-5.09-.18-3.99.25-7.35,2.23-9.25,5.78-3.27,6.12-2.1,12.44,1.32,17.86.16.25.16.57,0,.82-.02.04-.05.08-.07.12-1.31,2.12-1.8,4.28-2.39,6.72-1.07,4.42-.07,9.1,2.11,13.02,4.52,8.11,13.57,12.02,22.45,13.36.27.04.5.22.6.48.68,1.66,1.59,3.24,2.72,4.68,2.94,3.77,7.22,6.62,11.87,7.77,5.35,1.32,11.17.33,16.25-1.61,2.86-1.09,4.7-2.84,6.37-5.36.69-1.04,1.34-2.08,1.95-3.14.2-.34.62-.48.98-.32.89.39,1.76.71,2.49.99,2.91,1.11,5.97,1.66,9.07,1.14,5.39-.89,10.27-4.5,13.01-9.17.44-.74.81-1.52,1.12-2.33.13-.33.46-.52.81-.48.97.12,1.94.19,2.91.21,2.56.06,5.34-.14,7.81-.87,2.35-.7,4-2.19,5.45-4.11,5.73-7.64,8.3-20.01.34-27.2Zm-87.01,17.34c-.11-.1-.25-.17-.42-.2-2.31-.44-4.68-.35-7.02-.8-.17-.03-.34-.07-.51-.11-1-.23-1.56.81-1.24,1.52.11.24.33.46.67.56,1.57.47,3.38.96,5.15,1.1,1.01.08,2.01.05,2.95-.15.2-.04.42.39.54.26,0,.01,0,.02,0,.03.06.66.12.87.28,1.48.01.04.02.08.03.13.45,1.77,1.23,3.49,2.32,4.97.14.19.19.42.14.64-.62,2.63-.74,5.38-.36,8.06.08.52-.38.97-.9.87-5.38-1-10.71-2.78-14.77-6.33,0,0,0,0-.01,0-1.24-1.08-2.37-2.34-3.33-3.79-2.25-3.37-3.55-7.54-2.91-11.6.33-2.11,1.23-4.04,2.23-5.91.15-.29.31-.58.46-.87.37-.69.75-1.38,1.18-2.04.68-1.06,1.48-2.02,2.52-2.76.47-.33.35-.94,0-1.19-.12-.08-.27-.13-.44-.1-.08.01-.17.05-.26.1-.73.46-1.36,1-1.92,1.6-.37.39-1.02.3-1.26-.19-2.06-4.24-3.16-8.85-.93-13.32.57-1.14,1.27-2.03,2.09-2.71,2.69-2.26,6.56-2.33,10.38-1.76.64.09,1.27.2,1.89.33,1.98.38,3.89.86,5.55,1.22.39.08.75,0,1.04-.18.75-.47,1.04-1.62.19-2.23-.05-.04-.11-.07-.16-.11-1.6-.88-3.48-1.3-5.33-1.59-.46-.07-.74-.52-.63-.97,1.54-5.76,5.49-10.92,10.83-13.61.62-.31,1.24-.58,1.88-.81,3.43-1.24,7.12-1.26,10.6.11.6.23,1.18.51,1.74.83.73.41,1.43.89,2.08,1.41.39.31.76.64,1.11.99.29.28.55.56.79.85,1.11,1.31,1.86,2.75,2.79,4.24.44.71,1.24.82,1.85.53.56-.27.96-.86.76-1.62-.63-2.42-2.25-4.56-4.25-6.28-.38-.33-.36-.92.05-1.22,4.16-2.99,8.96-4.82,14.38-3.65,3.76.81,7.66,2.9,10.66,5.35.13.11.25.21.38.32,1.89,1.61,3.49,3.55,4.47,5.78.19.42-.05.92-.49,1.05-4.1,1.17-8.01,3.46-11.16,6.21-.21.19-.51.24-.78.14-.51-.19-1.02-.35-1.51-.48-.55-.15-1.1-.28-1.66-.39-.51-.1-.78-.66-.54-1.11.72-1.37,1.15-2.85,1.04-4.29-.03-.38-.1-.76-.2-1.14-.27-.91-1.6-.92-1.86,0-.11.39-.19.78-.25,1.17-.18,1.13-.24,2.27-.66,3.38-.15.39-.32.79-.51,1.17-.14.27-.41.44-.72.43-2.87-.07-5.75.4-8.42,1.44-3.99,1.56-7.31,4.29-9.6,7.68-.01-.03-.02-.07-.04-.1-.84-2.2-1.88-4.31-3.23-6.21-.73-1.04-1.56-2.03-2.48-2.93-.98-.96-2.43.51-1.5,1.5.59.63,1.14,1.3,1.63,2,.02.03.05.06.06.09,1.23,1.74,2.16,3.68,2.88,5.7.33.94.65,1.91.87,2.89.03.15.01.32-.05.46-.63,1.48-1.09,3.03-1.35,4.63-.05.33-.3.58-.62.65-4.67.93-8.87,3.78-11.82,7.49-2.57,3.25-4.31,7.27-4.38,11.39Zm88.45-4.09c-.01.2-.03.41-.06.61-.02.2-.05.4-.08.61,0,.02,0,.04-.01.07-.01.09-.03.18-.04.27,0,.02,0,.04-.01.06-.02.14-.04.27-.07.4,0,.03-.01.05-.01.08-.02.08-.03.16-.05.24-.07.34-.15.67-.24,1-.05.17-.1.34-.15.51-.05.18-.11.35-.17.53-.09.26-.18.51-.28.77-.98,2.48-2.46,4.95-4.26,6.93-1.72,1.89-4.32,2.16-6.76,2.3-1.59.09-3.18.04-4.75-.16-.39-.05-.68-.39-.67-.78.02-.56,0-1.13-.03-1.69h0c0-.06-.01-.11-.01-.16,0-.03,0-.07,0-.1,0-.09-.02-.18-.03-.27-.01-.11-.02-.22-.04-.34-.01-.12-.03-.24-.05-.37-.04-.27-.08-.54-.14-.8t0,0s0-.03-.01-.04c-.04-.18-.08-.37-.12-.55-.03-.14-.07-.28-.11-.41-.03-.1-.05-.2-.08-.3-.02-.09-.05-.18-.08-.27,0-.03-.02-.06-.03-.08-.02-.08-.05-.15-.07-.23-.04-.11-.08-.22-.12-.34-.05-.13-.1-.26-.15-.39-.05-.12-.1-.24-.15-.36-.06-.14-.13-.28-.19-.41-.44-.91-.97-1.74-1.58-2.5-.33-.41-.15-1.03.35-1.2.75-.26,1.52-.46,2.3-.62,1.44-.29,2.93-.36,4.4-.27,1.41.08,2.89.71,4.27.23.83-.29,1.03-1.19.49-1.85-1.08-1.32-3.17-1.33-4.75-1.38-1.55-.04-3.11.14-4.62.51-.17.04-.34.08-.5.13-1.22.33-2.64.83-3.98,1.5-.06.03-.12.06-.18.09-.27.14-.59.11-.83-.07-1.83-1.39-3.89-2.54-5.93-3.63,0,0,0,0-.01,0-.97-.52-1.94-1.04-2.87-1.56-.33-.19-.65-.11-.86.08-.34.3-.42.91.09,1.24,2.57,1.66,5.64,3.29,8.11,5.41.63.53,1.22,1.1,1.75,1.7.69.77,1.28,1.61,1.75,2.54,1.13,2.24,1.54,4.59,1.32,6.9-.04.46-.11.91-.21,1.36h0c-.03.14-.06.27-.09.4-.04.19-.09.37-.15.55-.05.18-.11.37-.17.55-.12.36-.26.72-.41,1.08-.08.18-.16.36-.25.54-.3.63-.65,1.24-1.05,1.84-2.39,3.58-6.94,6.75-11.29,7.2-2.64.27-5.18-.59-7.51-1.74-.55-.27-1.1-.6-1.67-.95-.43-.26-.86-.52-1.3-.76-.34-.18-.76-.09-.99.22-.72.97-1.44,1.94-2.16,2.92-.86,1.16-1.73,2.32-2.64,3.45-.92,1.16-1.84,2.31-3.19,2.98-1.21.59-2.59.89-3.88,1.24-5.63,1.5-11.17,1.63-16.32-1.41-3.3-1.95-5.64-4.71-7.02-7.85-.24-.53-.45-1.07-.62-1.63-.16-.49-.3-.98-.41-1.47-.04-.17-.07-.33-.11-.5,0-.02-.01-.04-.01-.06-.03-.15-.05-.29-.08-.44-.03-.16-.05-.32-.07-.48-.02-.16-.04-.32-.06-.48,0-.02,0-.04,0-.06-.02-.15-.03-.31-.04-.46-.02-.18-.03-.35-.04-.53v-.02c-.01-.16-.02-.31-.02-.47-.01-.34-.01-.68,0-1.03,0-.15,0-.31.02-.46,0-.08,0-.16.01-.23,0-.12.01-.23.02-.34.01-.12.02-.23.03-.35.11-1.11.32-2.23.64-3.32.61-2.14,1.61-4.22,3.01-6.13,1.12-1.53-1.39-3.46-2.64-2.04-.74.85-1.4,1.75-1.98,2.69-.36.59-1.26.46-1.41-.22-.09-.39-.16-.79-.2-1.19-.49-4.37,1.42-8.7,4.34-11.86.41-.44.84-.87,1.29-1.27.12-.11.23-.21.35-.31.12-.11.25-.21.37-.31.14-.12.29-.23.44-.34.15-.11.3-.22.45-.33.15-.11.3-.21.46-.32.13-.08.26-.17.39-.25.04-.02.07-.04.11-.07.14-.08.27-.17.41-.25.01,0,.03-.01.04-.02.15-.08.3-.17.45-.25.01,0,.03-.01.04-.02.15-.08.3-.16.46-.23.01-.01.03-.02.04-.02.14-.07.27-.13.41-.19.04-.02.08-.04.12-.06.16-.07.31-.13.47-.19.17-.07.34-.13.51-.19,0,0,.01,0,.01,0,.16-.06.33-.11.49-.17,0,0,.02,0,.02,0,0,0,.01,0,.02,0,.08-.03.17-.06.25-.08s.17-.03.25-.03h0c.79-.16,2.26-.44,3.32-.49h0s.06,0,.09,0h.01s.05,0,.08,0h.02c.08,0,.15,0,.23,0,.08,0,.17,0,.25.01h0c.14,0,.27.02.41.03.55.05,1.09.14,1.63.25.14.03.27.06.4.1.07.02.15.04.23.06.09.02.18.05.27.07.38.11.75.22,1.12.36.12.04.24.09.36.13.13.05.26.1.39.15.51.2,1.02.43,1.52.67,2.2,1.06,4.46,1.8,6.7,2.75.82.35,1.8-.62,1.03-1.34-1.14-1.06-2.22-2.18-3.42-3.17-1.21-.99-2.58-1.63-4.02-2.24-1.97-.83-4.06-1.43-6.19-1.59-.07,0-.14-.01-.21-.01-.5-.03-.84-.52-.7-.99.38-1.29.89-2.55,1.51-3.75,1.99-3.84,5.17-7.01,9.32-8.69,1.95-.79,4.04-1.26,6.15-1.37.69-.04,1.38-.03,2.07,0,1.21.07,2.41.26,3.57.59.33.09.67.19.99.31.49.16.97.35,1.44.57.94.42,1.83.93,2.66,1.55,1.64,1.23,2.48,2.87,3.71,4.43.68.86,2.42.18,2.27-.94-.01-.09-.02-.18-.04-.26-.01-.06-.02-.12-.04-.18-.01-.06-.02-.12-.04-.17-.01-.07-.03-.13-.05-.2-.04-.14-.08-.29-.13-.42-.02-.06-.04-.12-.06-.18-.03-.08-.06-.16-.1-.23-.01-.02-.02-.05-.03-.07-.01-.03-.02-.05-.04-.08h0c-.05-.14-.11-.25-.17-.37,0-.01-.01-.02-.02-.03-.06-.11-.12-.21-.18-.32-.05-.09-.1-.17-.16-.26-.03-.04-.05-.08-.08-.13-.05-.08-.11-.16-.16-.24-.15-.2-.31-.4-.47-.6-.11-.13-.21-.25-.33-.37-.13-.14-.26-.27-.4-.4-.24-.23-.49-.45-.74-.65-.16-.13-.32-.26-.49-.38-.15-.11-.3-.22-.45-.32-.31-.21-.62-.41-.94-.59-.49-.29-.51-.99-.04-1.31,2.19-1.45,4.59-2.58,7.14-3.37,1.01-.31,2.05-.58,3.09-.78.03,0,.06-.01.09-.02h0c.14-.03.28-.05.42-.07.25-.04.5-.08.76-.12.13-.02.26-.03.39-.05.14-.02.28-.03.41-.04.08-.01.16-.02.24-.02.14-.01.28-.02.42-.03.17-.01.34-.02.51-.02,2.44-.06,4.85.41,7.03,1.77,5.24,3.28,9.33,8.95,9.89,14.98.05.53-.45.94-.96.81-2.39-.63-4.85-.95-7.17-1.03-.65-.02-.96.44-.95.92,0,.38.21.78.6.97h0c.1.05.21.08.34.1,2.68.32,5.43,1.19,7.96,2.26.52.22,1.03.45,1.53.68.74.35,1.46.72,2.16,1.14,1.54.92,2.93,2.05,4,3.54.11.15.22.31.32.47.1.15.19.3.28.45.01.02.03.04.04.06.08.15.17.29.25.44,0,0,0,.02.01.02.07.14.15.29.22.44.01.03.03.06.04.09.07.15.14.31.21.46.07.17.14.34.21.51.06.15.11.3.16.45.04.1.07.2.1.31.03.07.05.15.07.22.01.04.03.08.04.13.02.05.03.1.04.15.07.24.13.49.19.73.01.05.02.1.03.15.03.13.05.26.07.39,0,0,0,0,0,.01,0,0,0,0,0,0,.03.13.05.27.07.4.02.1.03.19.04.29.02.17.04.34.06.51.02.17.03.35.04.52.01.17.02.34.02.51,0,.03,0,.06,0,.09.01.37.01.75,0,1.12,0,.2-.02.41-.03.61Z"/>
          </g>
          <path class="cls-7" d="m211.15,116.98c2.95,5.55,3.66,10.38,1.63,13.9-6.5,11.26-38.62,4.89-71.74-14.23s-54.69-43.75-48.19-55.02c3.81-6.59,16.39-7.14,32.82-2.63"/>
          <circle class="cls-13" cx="125.39" cy="106.16" r="3.69"/>
          <path class="cls-7" d="m102.27,106.11c-8.85,10.04-12.7,19.1-9.42,24.77,6.5,11.26,38.62,4.89,71.74-14.23s54.69-43.75,48.19-55.02c-3.66-6.34-15.42-7.09-30.91-3.14"/>
          <circle class="cls-13" cx="203.8" cy="56.73" r="2.86"/>
        </g>
      </g>
      <g id="brandAndAtoms-2" data-name="brandAndAtoms">
        <g>
          <g id="fill">
            <path class="cls-14" d="m337.05,51.75c-.24-.29-.51-.57-.79-.85-.35-.34-.73-.67-1.11-.99-.65-.52-1.35-1-2.08-1.41-.56-.32-1.15-.59-1.74-.83-3.47-1.37-7.16-1.35-10.6-.11-2.14,2.53-3.74,5.54-4.81,8.69-.92,2.72-1.47,5.54-1.77,8.39.85.61.57,1.76-.19,2.23-.29.18-.65.27-1.04.18-1.67-.36-3.57-.85-5.55-1.22-.63-.13-1.26-.23-1.89-.33-3.82-.56-7.69-.49-10.38,1.76-1.37,1.91-1.64,4.44-1.22,6.75.42,2.33,1.47,4.5,2.53,6.61.22.45.55.94.97,1.15.16-.03.31.01.44.1.35.25.47.86,0,1.19-1.04.73-1.84,1.7-2.52,2.76-.43.66-.81,1.35-1.18,2.04-.16.29-.31.58-.46.87-1,1.87-1.9,3.8-2.23,5.91-.64,4.06.67,8.23,2.91,11.6.97,1.45,2.09,2.7,3.33,3.79,0,0,0,0,.01,0,2.35,1.45,5.6,1.31,8.18.11,1.42-.66,2.78-1.68,3.3-3.16.25-.73.29-1.53.21-2.3-.17-1.68-.84-3.3-1.91-4.62-1.77-.14-3.58-.63-5.15-1.1-.34-.1-.56-.31-.67-.56-.32-.71.24-1.74,1.24-1.52.17.04.34.07.51.11,4.39-4.03,6.75-10.25,5.95-16.17.68.03,1.36,0,2.03-.08-.77-.35-1.51-.73-2.43-.79-1.26-.09-2.54.3-3.65.89-.87.47-1.93-.75-1.1-1.43,1.45-1.18,2.8-1.94,4.75-1.94,1.69,0,3.78.58,4.7,2.1.13.21.16.43.14.65,2.71-.84,5.18-2.5,7.05-4.66,2.58-2.99,4.04-6.84,4.48-10.77-.02-.03-.04-.06-.06-.09-.5-.7-1.04-1.37-1.63-2-.93-.99.52-2.45,1.5-1.5.93.91,1.75,1.89,2.48,2.93,2.05-.85,3.85-2.5,5.47-4.1,1.19-1.17,2.38-2.36,3.2-3.81.76-1.35,1.18-2.97.84-4.48Zm15.57-8c-5.42-1.17-10.22.65-14.38,3.65-.41.29-.43.89-.05,1.22,2,1.72,3.62,3.86,4.25,6.28.2.76-.2,1.36-.76,1.62.32.33.69.6,1.12.8,1.14.5,2.45.33,3.68.14,1.44-.22,2.94-.46,4.23-1.1.06-.39.14-.79.25-1.17.26-.92,1.59-.91,1.86,0,.11.37.18.75.2,1.14,2.2.98,4.99.39,6.87-1.18,1.81-1.5,2.87-3.72,3.37-6.04-3-2.45-6.91-4.54-10.66-5.35Zm-41.7,56.47c.06.66.12.87.28,1.48-.12-.5-.21-.99-.28-1.48Zm-.06-.57c-.12.13-.28.23-.48.28.2-.04.42.39.54.26-.02-.18-.04-.36-.06-.53Z"/>
          </g>
          <path class="cls-14" d="m328.97,73.85c-.63,1.48-1.09,3.03-1.35,4.63-.05.33-.3.58-.62.65-4.67.93-8.87,3.78-11.82,7.49-2.57,3.25-4.31,7.27-4.38,11.39-.11-.1-.25-.17-.42-.2-2.31-.44-4.68-.35-7.02-.8,4.39-4.03,6.59-11.47,5.79-17.39.68.03,1.76.28,2.43.2.34.16.84-.04,1.21.07.66.2.87.95.95.34,2.71-.84,5.18-2.5,7.05-4.66,2.58-2.99,4.04-6.84,4.48-10.77,1.23,1.74,2.16,3.68,2.88,5.7.33.94.65,1.91.87,2.89.03.15.01.32-.05.46Z"/>
          <path class="cls-14" d="m313.68,107.44c-.62,2.63-.74,5.38-.36,8.06.08.52-.38.97-.9.87-5.38-1-10.71-2.78-14.77-6.33,2.35,1.45,5.6,1.31,8.18.11,1.42-.66,2.78-1.68,3.3-3.16.25-.73.29-1.53.21-2.3-.17-1.68-.84-3.3-1.91-4.62,1.01.08,2.01.05,2.95-.15.2-.04.42.39.54.26,0,.01,0,.02,0,.03.06.66.12.87.28,1.48.01.04.02.08.03.13.45,1.77,1.23,3.49,2.32,4.97.14.19.19.42.14.64Z"/>
          <path class="cls-14" d="m297.36,81.79c-.08.01-.17.05-.26.1-.73.46-1.36,1-1.92,1.6-.37.39-1.02.3-1.26-.19-2.06-4.24-3.16-8.85-.93-13.32.57-1.14,1.27-2.03,2.09-2.71-1.37,1.91-1.64,4.44-1.22,6.75.42,2.33,1.47,4.5,2.53,6.61.22.45.55.94.97,1.15Z"/>
          <path class="cls-15" d="m313.74,80.23c-.08.61-.69,1.13-1.35.93-.37-.11-.72-.25-1.06-.41-.77-.35-1.51-.73-2.43-.79-1.26-.09-2.54.3-3.65.89-.87.47-1.93-.75-1.1-1.43,1.45-1.18,2.8-1.94,4.75-1.94,1.69,0,3.78.58,4.7,2.1.13.21.16.43.14.65Z"/>
          <path class="cls-4" d="m307.43,100.07c-.09-.11-.18-.22-.28-.33"/>
          <path class="cls-4" d="m297.65,110.04s0,0-.01,0c-.39-.24-.75-.52-1.08-.85"/>
          <path class="cls-15" d="m397.81,80.67c-1.21-1.1-2.6-2.02-4.08-2.79-.27-.14-.43-.42-.42-.72.25-7.84-5.06-15.57-11.84-19.6-2.87-1.71-6.02-2.32-9.19-2.13-.34.02-.66-.18-.78-.51-1.02-2.74-2.77-5.18-4.98-7.15-3.49-3.09-8.29-5.66-12.86-6.67-6.49-1.43-13.09.82-18.08,5-.25.21-.59.24-.88.08-.62-.34-1.24-.64-1.85-.9-4.74-2.02-9.79-1.86-14.48.22-6.75,3-11.27,9.33-12.53,16.35-.07.39-.44.67-.84.62-1.69-.18-3.41-.29-5.09-.18-3.99.25-7.35,2.23-9.25,5.78-3.27,6.12-1.7,13.12,1.73,18.54.16.25.16.57,0,.82-.02.04-.05.08-.07.12-1.31,2.12-2.2,3.59-2.8,6.04-1.07,4.42-.07,9.1,2.11,13.02,4.52,8.11,13.57,12.02,22.45,13.36.27.04.5.22.6.48.68,1.66,1.59,3.24,2.72,4.68,2.94,3.77,7.22,6.62,11.87,7.77,5.35,1.32,11.17.33,16.25-1.61,2.86-1.09,4.7-2.84,6.37-5.36.69-1.04,1.34-2.08,1.95-3.14.2-.34.62-.48.98-.32.89.39,1.76.71,2.49.99,2.91,1.11,5.97,1.66,9.07,1.14,5.39-.89,10.27-4.5,13.01-9.17.44-.74.81-1.52,1.12-2.33.13-.33.46-.52.81-.48.97.12,1.94.19,2.91.21,2.56.06,5.34-.14,7.81-.87,2.35-.7,4-2.19,5.45-4.11,5.73-7.64,8.3-20.01.34-27.2Zm-87.01,17.34c-.11-.1-.25-.17-.42-.2-2.31-.44-4.68-.35-7.02-.8-.17-.03-.34-.07-.51-.11-1-.23-1.56.81-1.24,1.52.11.24.33.46.67.56,1.57.47,3.38.96,5.15,1.1,1.01.08,2.01.05,2.95-.15.2-.04.42.39.54.26,0,.01,0,.02,0,.03.06.66.12.87.28,1.48.01.04.02.08.03.13.45,1.77,1.23,3.49,2.32,4.97.14.19.19.42.14.64-.62,2.63-.74,5.38-.36,8.06.08.52-.38.97-.9.87-5.38-1-10.71-2.78-14.77-6.33,0,0,0,0-.01,0-1.24-1.08-2.37-2.34-3.33-3.79-2.25-3.37-3.55-7.54-2.91-11.6.33-2.11,1.23-4.04,2.23-5.91.15-.29.31-.58.46-.87.37-.69.75-1.38,1.18-2.04.68-1.06,1.48-2.02,2.52-2.76.47-.33.35-.94,0-1.19-.12-.08-.27-.13-.44-.1-.08.01-.17.05-.26.1-.73.46-1.36,1-1.92,1.6-.37.39-1.02.3-1.26-.19-2.06-4.24-3.16-8.85-.93-13.32.57-1.14,1.27-2.03,2.09-2.71,2.69-2.26,6.56-2.33,10.38-1.76.64.09,1.27.2,1.89.33,1.98.38,3.89.86,5.55,1.22.39.08.75,0,1.04-.18.75-.47,1.04-1.62.19-2.23-.05-.04-.11-.07-.16-.11-1.6-.88-3.48-1.3-5.33-1.59-.46-.07-.74-.52-.63-.97,1.54-5.76,5.49-10.92,10.83-13.61.62-.31,1.24-.58,1.88-.81,3.43-1.24,7.12-1.26,10.6.11.6.23,1.18.51,1.74.83.73.41,1.43.89,2.08,1.41.39.31.76.64,1.11.99.29.28.55.56.79.85,1.11,1.31,1.86,2.75,2.79,4.24.44.71,1.24.82,1.85.53.56-.27.96-.86.76-1.62-.63-2.42-2.25-4.56-4.25-6.28-.38-.33-.36-.92.05-1.22,4.16-2.99,8.96-4.82,14.38-3.65,3.76.81,7.66,2.9,10.66,5.35.13.11.25.21.38.32,1.89,1.61,3.49,3.55,4.47,5.78.19.42-.05.92-.49,1.05-4.1,1.17-8.01,3.46-11.16,6.21-.21.19-.51.24-.78.14-.51-.19-1.02-.35-1.51-.48-.55-.15-1.1-.28-1.66-.39-.51-.1-.78-.66-.54-1.11.72-1.37,1.15-2.85,1.04-4.29-.03-.38-.1-.76-.2-1.14-.27-.91-1.6-.92-1.86,0-.11.39-.19.78-.25,1.17-.18,1.13-.24,2.27-.66,3.38-.15.39-.32.79-.51,1.17-.14.27-.41.44-.72.43-2.87-.07-5.75.4-8.42,1.44-3.99,1.56-7.31,4.29-9.6,7.68-.01-.03-.02-.07-.04-.1-.84-2.2-1.88-4.31-3.23-6.21-.73-1.04-1.56-2.03-2.48-2.93-.98-.96-2.43.51-1.5,1.5.59.63,1.14,1.3,1.63,2,.02.03.05.06.06.09,1.23,1.74,2.16,3.68,2.88,5.7.33.94.65,1.91.87,2.89.03.15.01.32-.05.46-.63,1.48-1.09,3.03-1.35,4.63-.05.33-.3.58-.62.65-4.67.93-8.87,3.78-11.82,7.49-2.57,3.25-4.31,7.27-4.38,11.39Zm88.45-4.09c-.01.2-.03.41-.06.61-.02.2-.05.4-.08.61,0,.02,0,.04-.01.07-.01.09-.03.18-.04.27,0,.02,0,.04-.01.06-.02.14-.04.27-.07.4,0,.03-.01.05-.01.08-.02.08-.03.16-.05.24-.07.34-.15.67-.24,1-.05.17-.1.34-.15.51-.05.18-.11.35-.17.53-.09.26-.18.51-.28.77-.98,2.48-2.46,4.95-4.26,6.93-1.72,1.89-4.32,2.16-6.76,2.3-1.59.09-3.18.04-4.75-.16-.39-.05-.68-.39-.67-.78.02-.56,0-1.13-.03-1.69h0c0-.06-.01-.11-.01-.16,0-.03,0-.07,0-.1,0-.09-.02-.18-.03-.27-.01-.11-.02-.22-.04-.34-.01-.12-.03-.24-.05-.37-.04-.27-.08-.54-.14-.8t0,0s0-.03-.01-.04c-.04-.18-.08-.37-.12-.55-.03-.14-.07-.28-.11-.41-.03-.1-.05-.2-.08-.3-.02-.09-.05-.18-.08-.27,0-.03-.02-.06-.03-.08-.02-.08-.05-.15-.07-.23-.04-.11-.08-.22-.12-.34-.05-.13-.1-.26-.15-.39-.05-.12-.1-.24-.15-.36-.06-.14-.13-.28-.19-.41-.44-.91-.97-1.74-1.58-2.5-.33-.41-.15-1.03.35-1.2.75-.26,1.52-.46,2.3-.62,1.44-.29,2.93-.36,4.4-.27,1.41.08,2.89.71,4.27.23.83-.29,1.03-1.19.49-1.85-1.08-1.32-3.17-1.33-4.75-1.38-1.55-.04-3.11.14-4.62.51-.17.04-.34.08-.5.13-1.22.33-2.64.83-3.98,1.5-.06.03-.12.06-.18.09-.27.14-.59.11-.83-.07-1.83-1.39-3.89-2.54-5.93-3.63,0,0,0,0-.01,0-.97-.52-1.94-1.04-2.87-1.56-.33-.19-.65-.11-.86.08-.34.3-.42.91.09,1.24,2.57,1.66,5.64,3.29,8.11,5.41.63.53,1.22,1.1,1.75,1.7.69.77,1.28,1.61,1.75,2.54,1.13,2.24,1.54,4.59,1.32,6.9-.04.46-.11.91-.21,1.36h0c-.03.14-.06.27-.09.4-.04.19-.09.37-.15.55-.05.18-.11.37-.17.55-.12.36-.26.72-.41,1.08-.08.18-.16.36-.25.54-.3.63-.65,1.24-1.05,1.84-2.39,3.58-6.94,6.75-11.29,7.2-2.64.27-5.18-.59-7.51-1.74-.55-.27-1.1-.6-1.67-.95-.43-.26-.86-.52-1.3-.76-.34-.18-.76-.09-.99.22-.72.97-1.44,1.94-2.16,2.92-.86,1.16-1.73,2.32-2.64,3.45-.92,1.16-1.84,2.31-3.19,2.98-1.21.59-2.59.89-3.88,1.24-5.63,1.5-11.17,1.63-16.32-1.41-3.3-1.95-5.64-4.71-7.02-7.85-.24-.53-.45-1.07-.62-1.63-.16-.49-.3-.98-.41-1.47-.04-.17-.07-.33-.11-.5,0-.02-.01-.04-.01-.06-.03-.15-.05-.29-.08-.44-.03-.16-.05-.32-.07-.48-.02-.16-.04-.32-.06-.48,0-.02,0-.04,0-.06-.02-.15-.03-.31-.04-.46-.02-.18-.03-.35-.04-.53v-.02c-.01-.16-.02-.31-.02-.47-.01-.34-.01-.68,0-1.03,0-.15,0-.31.02-.46,0-.08,0-.16.01-.23,0-.12.01-.23.02-.34.01-.12.02-.23.03-.35.11-1.11.32-2.23.64-3.32.61-2.14,1.61-4.22,3.01-6.13,1.12-1.53-1.39-3.46-2.64-2.04-.74.85-1.4,1.75-1.98,2.69-.36.59-1.26.46-1.41-.22-.09-.39-.16-.79-.2-1.19-.49-4.37,1.42-8.7,4.34-11.86.41-.44.84-.87,1.29-1.27.12-.11.23-.21.35-.31.12-.11.25-.21.37-.31.14-.12.29-.23.44-.34.15-.11.3-.22.45-.33.15-.11.3-.21.46-.32.13-.08.26-.17.39-.25.04-.02.07-.04.11-.07.14-.08.27-.17.41-.25.01,0,.03-.01.04-.02.15-.08.3-.17.45-.25.01,0,.03-.01.04-.02.15-.08.3-.16.46-.23.01-.01.03-.02.04-.02.14-.07.27-.13.41-.19.04-.02.08-.04.12-.06.16-.07.31-.13.47-.19.17-.07.34-.13.51-.19,0,0,.01,0,.01,0,.16-.06.33-.11.49-.17,0,0,.02,0,.02,0,0,0,.01,0,.02,0,.08-.03.17-.06.25-.08s.17-.03.25-.03h0c.79-.16,2.26-.44,3.32-.49h0s.06,0,.09,0h.01s.05,0,.08,0h.02c.08,0,.15,0,.23,0,.08,0,.17,0,.25.01h0c.14,0,.27.02.41.03.55.05,1.09.14,1.63.25.14.03.27.06.4.1.07.02.15.04.23.06.09.02.18.05.27.07.38.11.75.22,1.12.36.12.04.24.09.36.13.13.05.26.1.39.15.51.2,1.02.43,1.52.67,2.2,1.06,4.46,1.8,6.7,2.75.82.35,1.8-.62,1.03-1.34-1.14-1.06-2.22-2.18-3.42-3.17-1.21-.99-2.58-1.63-4.02-2.24-1.97-.83-4.06-1.43-6.19-1.59-.07,0-.14-.01-.21-.01-.5-.03-.84-.52-.7-.99.38-1.29.89-2.55,1.51-3.75,1.99-3.84,5.17-7.01,9.32-8.69,1.95-.79,4.04-1.26,6.15-1.37.69-.04,1.38-.03,2.07,0,1.21.07,2.41.26,3.57.59.33.09.67.19.99.31.49.16.97.35,1.44.57.94.42,1.83.93,2.66,1.55,1.64,1.23,2.48,2.87,3.71,4.43.68.86,2.42.18,2.27-.94-.01-.09-.02-.18-.04-.26-.01-.06-.02-.12-.04-.18-.01-.06-.02-.12-.04-.17-.01-.07-.03-.13-.05-.2-.04-.14-.08-.29-.13-.42-.02-.06-.04-.12-.06-.18-.03-.08-.06-.16-.1-.23-.01-.02-.02-.05-.03-.07-.01-.03-.02-.05-.04-.08h0c-.05-.14-.11-.25-.17-.37,0-.01-.01-.02-.02-.03-.06-.11-.12-.21-.18-.32-.05-.09-.1-.17-.16-.26-.03-.04-.05-.08-.08-.13-.05-.08-.11-.16-.16-.24-.15-.2-.31-.4-.47-.6-.11-.13-.21-.25-.33-.37-.13-.14-.26-.27-.4-.4-.24-.23-.49-.45-.74-.65-.16-.13-.32-.26-.49-.38-.15-.11-.3-.22-.45-.32-.31-.21-.62-.41-.94-.59-.49-.29-.51-.99-.04-1.31,2.19-1.45,4.59-2.58,7.14-3.37,1.01-.31,2.05-.58,3.09-.78.03,0,.06-.01.09-.02h0c.14-.03.28-.05.42-.07.25-.04.5-.08.76-.12.13-.02.26-.03.39-.05.14-.02.28-.03.41-.04.08-.01.16-.02.24-.02.14-.01.28-.02.42-.03.17-.01.34-.02.51-.02,2.44-.06,4.85.41,7.03,1.77,5.24,3.28,9.33,8.95,9.89,14.98.05.53-.45.94-.96.81-2.39-.63-4.85-.95-7.17-1.03-.65-.02-.96.44-.95.92,0,.38.21.78.6.97h0c.1.05.21.08.34.1,2.68.32,5.43,1.19,7.96,2.26.52.22,1.03.45,1.53.68.74.35,1.46.72,2.16,1.14,1.54.92,2.93,2.05,4,3.54.11.15.22.31.32.47.1.15.19.3.28.45.01.02.03.04.04.06.08.15.17.29.25.44,0,0,0,.02.01.02.07.14.15.29.22.44.01.03.03.06.04.09.07.15.14.31.21.46.07.17.14.34.21.51.06.15.11.3.16.45.04.1.07.2.1.31.03.07.05.15.07.22.01.04.03.08.04.13.02.05.03.1.04.15.07.24.13.49.19.73.01.05.02.1.03.15.03.13.05.26.07.39,0,0,0,0,0,.01,0,0,0,0,0,0,.03.13.05.27.07.4.02.1.03.19.04.29.02.17.04.34.06.51.02.17.03.35.04.52.01.17.02.34.02.51,0,.03,0,.06,0,.09.01.37.01.75,0,1.12,0,.2-.02.41-.03.61Z"/>
          <path class="cls-14" d="m298.1,103.31c1.56,2.17,3.5,4.55,6.17,4.68"/>
          <path class="cls-14" d="m301.83,92.67c1.18-.91,1.95-2.34,2.05-3.84"/>
          <path class="cls-14" d="m299.48,71.51c2.71-1.13,5.84-1.23,8.62-.26"/>
        </g>
        <path class="cls-7" d="m397.56,107.82c2.95,5.55,3.66,10.38,1.63,13.9-6.5,11.26-38.62,4.89-71.74-14.23s-54.69-43.75-48.19-55.02c3.81-6.59,16.39-7.14,32.82-2.63"/>
        <path class="cls-7" d="m288.67,96.94c-8.85,10.04-12.7,19.1-9.42,24.77,6.5,11.26,38.62,4.89,71.74-14.23,33.12-19.12,54.69-43.75,48.19-55.02-3.66-6.34-15.42-7.09-30.91-3.14"/>
      </g>
    </g>
    <circle class="cls-3" cx="168.28" cy="89.3" r="58.54"/>
  </g>
  <g id="face">
    <path class="cls-5" d="m94.54,209.09s2.22.03,9.49,0c8.27-.03,10.53,0,10.53,0"/>
    <path class="cls-5" d="m58.41,97.68s1.18-5.59,8.14-7.66c7.93-2.36,11.02,1.87,11.02,1.87"/>
    <rect class="cls-8" x="115.85" y="127.78" width="52.43" height="75.77" rx="26.21" ry="26.21"/>
    <g>
      <rect class="cls-16" x="132.36" y="138.89" width="19.41" height="35.12" rx="8.8" ry="8.8"/>
      <circle class="cls-12" cx="146.11" cy="142.67" r="5.14"/>
    </g>
    <rect class="cls-8" x="39.01" y="127.78" width="52.43" height="75.77" rx="26.21" ry="26.21"/>
    <g>
      <rect class="cls-16" x="55.52" y="138.89" width="19.41" height="35.12" rx="8.8" ry="8.8"/>
      <circle class="cls-12" cx="69.27" cy="142.67" r="5.14"/>
    </g>
  </g>
</svg>