<svg width="395" height="303" viewBox="0 0 395 303" fill="none" xmlns="http://www.w3.org/2000/svg">
<path d="M155.205 0.341187C225.587 0.341187 282.723 57.8978 282.723 128.798V352.551H27.6738L27.6738 128.812C27.6738 57.9122 84.8239 0.341187 155.205 0.341187Z" fill="#7000FF"/>
<circle cx="221.277" cy="276.888" r="13.9699" fill="#3C008A"/>
<path fill-rule="evenodd" clip-rule="evenodd" d="M270.577 128.798C270.577 64.5212 218.795 12.4864 155.205 12.4864C91.6153 12.4864 39.819 64.5356 39.819 128.812V340.406H270.577V128.798ZM282.723 128.798C282.723 57.8978 225.587 0.341187 155.205 0.341187C84.8239 0.341187 27.6738 57.9122 27.6738 128.812V352.551H282.723V128.798Z" fill="#3C008A"/>
<path d="M272.357 259.085C253.117 259.085 237.452 243.436 237.452 224.195V190.268C237.452 171.027 253.101 155.362 272.357 155.362C291.614 155.362 307.247 171.011 307.247 190.268V224.195C307.247 243.436 291.598 259.085 272.357 259.085Z" fill="white"/>
<path fill-rule="evenodd" clip-rule="evenodd" d="M272.358 267.182C248.65 267.182 229.355 247.913 229.355 224.196V190.268C229.355 166.558 248.627 147.266 272.358 147.266C296.091 147.266 315.344 166.545 315.344 190.268V224.196C315.344 247.908 296.07 267.182 272.358 267.182ZM237.452 224.196C237.452 243.436 253.117 259.085 272.358 259.085C291.598 259.085 307.247 243.436 307.247 224.196V190.268C307.247 171.012 291.614 155.363 272.358 155.363C253.101 155.363 237.452 171.028 237.452 190.268V224.196Z" fill="#3C008A"/>
<path d="M272.362 158.57C289.839 158.57 304.045 172.792 304.045 190.252V224.18C304.045 241.657 289.823 255.863 272.346 255.863C254.869 255.863 240.647 241.641 240.647 224.18V190.252C240.647 172.776 254.869 158.57 272.346 158.57M272.346 152.156C251.31 152.156 234.234 169.216 234.234 190.252V224.18C234.234 245.232 251.294 262.276 272.346 262.276C293.382 262.276 310.442 245.216 310.442 224.18V190.252C310.442 169.2 293.382 152.156 272.346 152.156Z" fill="#3C008A"/>
<path d="M286.469 185.04C286.469 177.248 280.152 170.931 272.36 170.931C264.567 170.931 258.25 177.248 258.25 185.04V207.873C258.25 215.665 264.567 221.982 272.36 221.982C280.152 221.982 286.469 215.665 286.469 207.873V185.04Z" fill="#1C1C1C"/>
<path d="M285.702 176.431C285.702 172.31 282.351 168.959 278.23 168.959C274.109 168.959 270.758 172.31 270.758 176.431C270.758 180.552 274.109 183.903 278.23 183.903C282.351 183.903 285.702 180.552 285.702 176.431Z" fill="white"/>
<path d="M167.035 259.085C147.794 259.085 132.129 243.436 132.129 224.195V190.268C132.129 171.027 147.778 155.362 167.035 155.362C186.291 155.362 201.924 171.011 201.924 190.268V224.195C201.924 243.436 186.275 259.085 167.035 259.085Z" fill="white"/>
<path fill-rule="evenodd" clip-rule="evenodd" d="M167.043 267.182C143.335 267.182 124.041 247.913 124.041 224.196V190.268C124.041 166.558 143.312 147.266 167.043 147.266C190.776 147.266 210.029 166.545 210.029 190.268V224.196C210.029 247.908 190.755 267.182 167.043 267.182ZM132.137 224.196C132.137 243.436 147.802 259.085 167.043 259.085C186.283 259.085 201.932 243.436 201.932 224.196V190.268C201.932 171.012 186.299 155.363 167.043 155.363C147.786 155.363 132.137 171.028 132.137 190.268V224.196Z" fill="#3C008A"/>
<path d="M167.039 158.57C184.516 158.57 198.722 172.792 198.722 190.252V224.18C198.722 241.657 184.5 255.863 167.023 255.863C149.547 255.863 135.325 241.641 135.325 224.18V190.252C135.325 172.776 149.547 158.57 167.023 158.57M167.023 152.156C145.987 152.156 128.911 169.216 128.911 190.252V224.18C128.911 245.232 145.971 262.276 167.023 262.276C188.06 262.276 205.12 245.216 205.12 224.18V190.252C205.12 169.2 188.06 152.156 167.023 152.156Z" fill="#3C008A"/>
<path d="M181.154 185.04C181.154 177.248 174.837 170.931 167.045 170.931C159.252 170.931 152.935 177.248 152.935 185.04V207.873C152.935 215.665 159.252 221.982 167.045 221.982C174.837 221.982 181.154 215.665 181.154 207.873V185.04Z" fill="#1C1C1C"/>
<path d="M180.383 176.431C180.383 172.31 177.032 168.959 172.911 168.959C168.791 168.959 165.439 172.31 165.439 176.431C165.439 180.552 168.791 183.903 172.911 183.903C177.032 183.903 180.383 180.552 180.383 176.431Z" fill="white"/>
<path d="M90.3953 109.685C97.0546 109.685 102.453 104.287 102.453 97.6275C102.453 90.9681 97.0546 85.5696 90.3953 85.5696C83.7359 85.5696 78.3374 90.9681 78.3374 97.6275C78.3374 104.287 83.7359 109.685 90.3953 109.685Z" fill="#FEE702"/>
<path d="M120.83 99.0806C125.818 99.0806 129.861 95.0372 129.861 90.0493C129.861 85.0615 125.818 81.0181 120.83 81.0181C115.842 81.0181 111.799 85.0615 111.799 90.0493C111.799 95.0372 115.842 99.0806 120.83 99.0806Z" fill="#FEE702"/>
<path d="M104.536 73.802C108.053 73.802 110.904 70.9509 110.904 67.4341C110.904 63.9172 108.053 61.0662 104.536 61.0662C101.019 61.0662 98.1685 63.9172 98.1685 67.4341C98.1685 70.9509 101.019 73.802 104.536 73.802Z" fill="#FEE702"/>
<path fill-rule="evenodd" clip-rule="evenodd" d="M266.562 125.802C264.923 128.664 261.287 129.699 258.381 128.109C255.438 126.5 254.357 122.81 255.967 119.868L261.294 122.782C255.967 119.868 255.968 119.865 255.97 119.862L255.973 119.856L255.98 119.843L255.995 119.816L256.031 119.753C256.057 119.707 256.088 119.654 256.123 119.595C256.193 119.477 256.283 119.332 256.392 119.164C256.61 118.829 256.909 118.4 257.296 117.909C258.068 116.932 259.209 115.686 260.78 114.456C263.984 111.945 268.833 109.622 275.507 109.649M266.562 125.802C266.565 125.799 266.568 125.794 266.571 125.789C266.606 125.736 266.691 125.61 266.829 125.436C267.107 125.083 267.581 124.556 268.27 124.016C269.584 122.987 271.83 121.779 275.46 121.794L275.463 121.794C280.013 121.811 282.15 123.139 283.057 123.906C283.56 124.331 283.839 124.715 283.968 124.919C284.001 124.972 284.024 125.013 284.038 125.038C285.238 128.044 288.608 129.594 291.69 128.511C294.854 127.398 296.517 123.932 295.405 120.768L289.676 122.782C295.405 120.768 295.403 120.764 295.402 120.759L295.399 120.751L295.392 120.733L295.379 120.696L295.348 120.612C295.325 120.553 295.299 120.486 295.27 120.413C295.21 120.266 295.134 120.092 295.041 119.894C294.855 119.499 294.596 119.006 294.247 118.45C293.546 117.337 292.476 115.964 290.897 114.629C287.64 111.877 282.682 109.676 275.51 109.649" fill="#3C008A"/>
<path fill-rule="evenodd" clip-rule="evenodd" d="M158.238 97.5286C156.599 100.39 152.963 101.425 150.056 99.8356C147.114 98.2263 146.033 94.5364 147.642 91.5939L152.97 94.5077C147.642 91.5939 147.644 91.591 147.646 91.588L147.649 91.5819L147.656 91.5692L147.671 91.5418L147.707 91.4787C147.733 91.4332 147.763 91.3806 147.799 91.3213C147.869 91.203 147.958 91.0579 148.068 90.8902C148.286 90.5551 148.585 90.126 148.972 89.6356C149.744 88.6582 150.885 87.412 152.455 86.1818C155.66 83.6708 160.509 81.3485 167.183 81.3753M158.238 97.5286C158.241 97.5248 158.243 97.5204 158.247 97.5151C158.281 97.4619 158.366 97.3365 158.504 97.1617C158.783 96.8087 159.257 96.2819 159.946 95.7419C161.26 94.7127 163.505 93.5054 167.136 93.5204L167.139 93.5204C171.689 93.5369 173.826 94.8655 174.733 95.6319C175.236 96.0568 175.515 96.4408 175.643 96.645C175.677 96.6986 175.7 96.7394 175.714 96.7645C176.914 99.7699 180.283 101.32 183.365 100.237C186.529 99.1245 188.193 95.658 187.081 92.4939L181.352 94.5077C187.081 92.4939 187.079 92.4898 187.078 92.4855L187.075 92.477L187.068 92.4593L187.055 92.4218L187.024 92.3384C187.001 92.2791 186.975 92.2125 186.945 92.1391C186.886 91.9925 186.81 91.8181 186.717 91.6202C186.531 91.2249 186.272 90.732 185.922 90.1762C185.222 89.0633 184.152 87.6904 182.572 86.3556C179.315 83.603 174.358 81.4019 167.186 81.3753" fill="#3C008A"/>
</svg>
