<svg width="350" height="303" viewBox="0 0 350 303" fill="none" xmlns="http://www.w3.org/2000/svg">
<path d="M189.538 0.341064C119.156 0.341064 62.0206 57.8976 62.0206 128.798V352.551H317.069L317.069 128.812C317.069 57.912 259.919 0.341064 189.538 0.341064Z" fill="#7000FF"/>
<mask id="mask0_2240_4664" style="mask-type:luminance" maskUnits="userSpaceOnUse" x="132" y="30" width="148" height="147">
<path d="M206.001 176.947C246.351 176.947 279.06 144.237 279.06 103.888C279.06 63.5383 246.351 30.8286 206.001 30.8286C165.652 30.8286 132.942 63.5383 132.942 103.888C132.942 144.237 165.652 176.947 206.001 176.947Z" fill="white"/>
</mask>
<g mask="url(#mask0_2240_4664)">
<path d="M77.1055 291.228V115.669C77.1055 54.2909 126.864 4.53223 188.242 4.53223C249.62 4.53223 299.378 54.2909 299.378 115.669V291.228" fill="#20105B"/>
<path d="M77.1055 291.228V115.669C77.1055 54.2909 126.864 4.53223 188.242 4.53223C249.62 4.53223 299.378 54.2909 299.378 115.669V291.228" stroke="#3A179D" stroke-width="7.48813" stroke-linecap="round" stroke-linejoin="round"/>
<path d="M256.408 96.0619C256.295 95.2007 256.133 94.3646 255.933 93.5159C263.796 83.1448 266.829 74.0343 263.359 68.0562C259.178 60.8052 244.739 59.4823 224.633 64.4495C224.196 63.8754 223.697 63.3387 223.173 62.8021C245.001 57.2609 260.264 58.8084 265.044 67.0828C269.05 74.0468 265.556 84.4178 256.408 96.0619Z" fill="#FF4C4C"/>
<path d="M225.245 67.9068C227.712 67.9068 229.713 65.9064 229.713 63.4389C229.713 60.9713 227.712 58.9709 225.245 58.9709C222.777 58.9709 220.777 60.9713 220.777 63.4389C220.777 65.9064 222.777 67.9068 225.245 67.9068Z" fill="#E0C10B"/>
<path d="M174.774 106.682H174.749C174.749 106.682 174.674 106.682 174.649 106.682H174.637C174.637 106.682 174.55 106.682 174.512 106.682L175.398 106.707C175.298 106.707 175.186 106.695 175.074 106.695C174.974 106.695 174.874 106.695 174.774 106.695V106.682Z" fill="#FFB3B3"/>
<path d="M183.535 66.6211C183.223 66.2467 182.874 65.8723 182.512 65.5228C182.05 65.0735 181.563 64.6492 181.064 64.2373C180.216 63.5634 179.305 62.9394 178.356 62.4152C177.632 62.0034 176.871 61.6415 176.097 61.3419C171.592 59.5697 166.799 59.5947 162.344 61.2047C159.561 64.487 157.489 68.3933 156.091 72.4868C154.893 76.0187 154.182 79.6754 153.783 83.382C154.893 84.1683 154.519 85.6659 153.545 86.2774C153.171 86.5145 152.709 86.6269 152.198 86.5145C150.038 86.0403 147.555 85.4163 144.984 84.9296C144.173 84.7673 143.349 84.63 142.525 84.5052C137.571 83.7689 132.541 83.8687 129.047 86.8016C127.262 89.2727 126.913 92.5674 127.462 95.5752C128.011 98.6079 129.371 101.416 130.744 104.162C131.031 104.748 131.468 105.385 131.992 105.659C132.204 105.622 132.404 105.672 132.554 105.784C133.003 106.108 133.153 106.895 132.554 107.319C131.193 108.268 130.17 109.528 129.284 110.901C128.722 111.75 128.223 112.648 127.749 113.547C127.549 113.921 127.349 114.296 127.15 114.67C125.852 117.091 124.679 119.612 124.254 122.345C123.418 127.624 125.115 133.028 128.036 137.409C129.284 139.293 130.744 140.916 132.366 142.326C132.366 142.326 132.366 142.326 132.379 142.326C135.437 144.211 139.655 144.023 143 142.463C144.834 141.615 146.606 140.279 147.28 138.37C147.617 137.421 147.655 136.386 147.555 135.387C147.33 133.203 146.457 131.094 145.084 129.397C142.787 129.209 140.441 128.585 138.394 127.974C137.945 127.837 137.658 127.562 137.521 127.25C137.109 126.326 137.833 124.991 139.131 125.278C139.355 125.328 139.568 125.378 139.792 125.415C145.496 120.186 148.566 112.111 147.517 104.411C148.404 104.449 149.277 104.411 150.151 104.299C149.14 103.85 148.191 103.35 147.006 103.275C145.371 103.151 143.711 103.662 142.276 104.436C141.14 105.048 139.78 103.463 140.841 102.577C142.725 101.054 144.472 100.056 147.006 100.056C149.19 100.056 151.923 100.817 153.109 102.776C153.271 103.051 153.321 103.338 153.283 103.612C156.803 102.514 160.01 100.355 162.431 97.5595C165.788 93.6782 167.673 88.6736 168.247 83.5692C168.222 83.5318 168.197 83.4943 168.16 83.4444C167.511 82.5334 166.812 81.6722 166.038 80.8485C164.827 79.5631 166.712 77.6661 167.985 78.9016C169.196 80.0747 170.256 81.3602 171.205 82.7081C173.863 81.6098 176.209 79.4507 178.306 77.3915C179.841 75.8689 181.401 74.3214 182.462 72.4369C183.46 70.6896 183.985 68.5805 183.548 66.6211H183.535ZM203.741 56.2375C196.702 54.7149 190.474 57.0862 185.07 60.9675C184.546 61.3419 184.509 62.1282 185.008 62.5525C187.604 64.7865 189.713 67.5696 190.524 70.7146C190.786 71.7005 190.262 72.4743 189.538 72.8237C189.95 73.2481 190.424 73.61 190.999 73.8596C192.471 74.5086 194.181 74.2839 195.778 74.0343C197.65 73.7473 199.597 73.4353 201.282 72.5991C201.357 72.0874 201.457 71.5757 201.607 71.0765C201.944 69.8784 203.678 69.8909 204.015 71.0765C204.153 71.5632 204.24 72.05 204.277 72.5492C207.123 73.8097 210.755 73.0484 213.201 71.0141C215.547 69.0672 216.932 66.1843 217.581 63.1765C213.688 59.9941 208.621 57.2859 203.728 56.225L203.741 56.2375ZM149.602 129.559C149.677 130.407 149.764 130.695 149.964 131.481C149.814 130.832 149.689 130.195 149.602 129.559ZM149.514 128.822C149.365 128.997 149.152 129.122 148.89 129.184C149.152 129.122 149.439 129.696 149.602 129.521C149.577 129.297 149.539 129.06 149.527 128.822H149.514Z" fill="#FFB3B3"/>
<path d="M223.235 72.4495C217.918 73.9596 212.839 76.9424 208.745 80.5118C208.471 80.7489 208.084 80.8238 207.735 80.699C207.073 80.4618 206.412 80.2497 205.775 80.0749C205.064 79.8753 204.34 79.713 203.616 79.5757C202.955 79.4509 202.605 78.7271 202.917 78.128C203.853 76.3558 204.402 74.4214 204.265 72.5619C207.111 73.8224 210.742 73.0611 213.188 71.0268C215.535 69.0799 216.92 66.1969 217.569 63.1892C217.731 63.3265 217.906 63.4638 218.056 63.6011C220.514 65.6853 222.586 68.2187 223.859 71.1017C224.096 71.6508 223.797 72.2873 223.223 72.462L223.235 72.4495Z" fill="#E8809B"/>
<path d="M201.282 72.599C201.045 74.0592 200.97 75.5444 200.433 76.9796C200.246 77.4913 200.021 78.003 199.772 78.4897C199.597 78.8391 199.235 79.0513 198.836 79.0513C195.116 78.9515 191.36 79.5755 187.903 80.9233C182.724 82.9451 178.418 86.4895 175.435 90.895C175.423 90.8451 175.41 90.8077 175.385 90.7577C174.299 87.8998 172.939 85.1666 171.192 82.6955C173.85 81.5973 176.196 79.4382 178.293 77.3789C179.828 75.8564 181.388 74.3088 182.449 72.4243C183.447 70.6771 183.972 68.5679 183.535 66.6085C184.97 68.3058 185.956 70.1779 187.154 72.1248C187.728 73.0483 188.764 73.1856 189.55 72.8112C189.962 73.2355 190.436 73.5974 191.01 73.847C192.483 74.496 194.193 74.2714 195.79 74.0218C197.662 73.7347 199.609 73.4227 201.294 72.5865L201.282 72.599Z" fill="#E8809B"/>
<path d="M162.331 61.1925C159.548 64.4748 157.476 68.3811 156.079 72.4746C154.881 76.0065 154.169 79.6632 153.77 83.3699C153.707 83.3199 153.633 83.27 153.558 83.2326C151.486 82.0844 149.04 81.5477 146.644 81.1733C146.057 81.086 145.683 80.4994 145.832 79.9253C147.842 72.4372 152.959 65.7478 159.898 62.2533C160.696 61.854 161.508 61.5045 162.331 61.205V61.1925Z" fill="#E8809B"/>
<path d="M173.039 95.3131C172.215 97.2351 171.629 99.2444 171.292 101.329C171.229 101.753 170.905 102.077 170.481 102.165C164.415 103.375 158.961 107.069 155.13 111.887C151.785 116.105 149.539 121.322 149.439 126.676C149.289 126.551 149.102 126.464 148.89 126.414C145.895 125.84 142.812 125.965 139.779 125.378C145.483 120.149 148.341 110.489 147.292 102.801C148.178 102.839 149.576 103.176 150.45 103.063C150.887 103.263 151.548 103.001 152.022 103.151C152.884 103.413 153.158 104.386 153.258 103.6C156.777 102.502 159.985 100.343 162.406 97.5471C165.763 93.6657 167.648 88.6612 168.222 83.5568C169.819 85.8157 171.03 88.3367 171.966 90.9575C172.403 92.1806 172.814 93.4286 173.089 94.7141C173.139 94.9138 173.101 95.1259 173.027 95.3131H173.039Z" fill="#E8809B"/>
<path d="M153.196 138.919C152.397 142.339 152.235 145.908 152.734 149.39C152.834 150.064 152.235 150.638 151.561 150.526C144.585 149.228 137.658 146.919 132.379 142.301C135.437 144.186 139.655 143.998 143 142.438C144.834 141.59 146.606 140.254 147.28 138.345C147.617 137.396 147.655 136.36 147.555 135.362C147.33 133.178 146.457 131.069 145.084 129.372C146.394 129.484 147.692 129.446 148.915 129.172C149.177 129.109 149.464 129.684 149.627 129.509C149.627 129.521 149.627 129.534 149.627 129.559C149.701 130.407 149.789 130.694 149.989 131.481C150.001 131.531 150.013 131.593 150.026 131.643C150.6 133.939 151.623 136.173 153.034 138.095C153.208 138.332 153.283 138.632 153.208 138.931L153.196 138.919Z" fill="#E8809B"/>
<path d="M226.729 118.165C226.43 118.04 226.118 117.927 225.806 117.803C228.451 119.225 231.135 120.71 233.506 122.52C233.818 122.757 234.23 122.795 234.592 122.607C234.667 122.57 234.741 122.533 234.829 122.495C232.308 120.748 229.587 119.288 226.742 118.152L226.729 118.165ZM238.461 77.3667C235.64 75.607 232.507 74.983 229.338 75.0578C229.113 75.0578 228.901 75.0703 228.676 75.0828C228.489 75.0828 228.314 75.1078 228.127 75.1202C228.027 75.1202 227.915 75.1327 227.815 75.1452C227.64 75.1577 227.453 75.1702 227.278 75.1951C227.104 75.2076 226.929 75.2326 226.767 75.2575C226.43 75.3074 226.105 75.3449 225.781 75.4073C225.606 75.4322 225.419 75.4697 225.232 75.5071C220.751 78.2403 217.806 83.4071 217.843 88.6613C217.856 88.6987 217.881 88.7362 217.893 88.7861C217.906 88.811 217.918 88.8485 217.943 88.8859C217.993 88.9858 218.03 89.0856 218.068 89.1854C218.093 89.2603 218.13 89.3352 218.155 89.4226C218.218 89.5973 218.28 89.7845 218.317 89.9717C218.342 90.0591 218.367 90.1464 218.38 90.2338C218.405 90.3087 218.417 90.3835 218.43 90.4584C218.455 90.5333 218.467 90.6207 218.48 90.6956C218.505 90.8079 218.517 90.9202 218.53 91.0325C218.729 92.4802 216.47 93.3663 215.572 92.2556C213.962 90.2213 212.889 88.0997 210.754 86.5022C209.681 85.7035 208.521 85.0295 207.31 84.4929C206.698 84.2183 206.074 83.9687 205.438 83.7566C205.014 83.6068 204.577 83.4695 204.152 83.3572C202.642 82.9329 201.082 82.6833 199.51 82.5959C198.624 82.546 197.725 82.5335 196.827 82.5959C194.081 82.7457 191.36 83.3572 188.839 84.3681C183.448 86.5396 179.329 90.6706 176.746 95.6502C175.947 97.1978 175.286 98.8327 174.786 100.517C174.599 101.142 175.049 101.766 175.685 101.803C175.772 101.803 175.86 101.815 175.96 101.815C178.718 102.015 181.438 102.789 183.997 103.875C185.869 104.661 187.641 105.497 189.214 106.783C190.786 108.068 192.171 109.516 193.657 110.901C194.655 111.837 193.369 113.085 192.321 112.636C189.413 111.4 186.468 110.439 183.622 109.066C182.973 108.754 182.324 108.467 181.651 108.193C181.488 108.13 181.314 108.056 181.151 107.993C181.002 107.931 180.839 107.881 180.69 107.818C180.203 107.644 179.729 107.494 179.229 107.357C179.105 107.332 178.992 107.294 178.88 107.269C178.78 107.244 178.68 107.219 178.58 107.194C178.406 107.144 178.231 107.107 178.056 107.07C177.357 106.92 176.646 106.808 175.935 106.733C175.76 106.72 175.585 106.708 175.41 106.695L174.524 106.67C173.152 106.733 171.23 107.095 170.219 107.307C170.119 107.307 170.007 107.307 169.894 107.344C169.782 107.382 169.67 107.407 169.557 107.444C169.557 107.444 169.545 107.444 169.532 107.444H169.507C169.295 107.519 169.083 107.581 168.871 107.656C168.871 107.656 168.871 107.656 168.858 107.656C168.634 107.731 168.422 107.818 168.197 107.906C167.997 107.981 167.798 108.068 167.598 108.155C167.548 108.18 167.498 108.205 167.448 108.23C167.273 108.305 167.099 108.393 166.924 108.48C166.911 108.48 166.886 108.492 166.874 108.505C166.674 108.605 166.487 108.705 166.287 108.804C166.275 108.804 166.262 108.817 166.238 108.829C166.038 108.929 165.851 109.041 165.651 109.154C165.638 109.166 165.613 109.179 165.601 109.179C165.426 109.279 165.239 109.391 165.064 109.503C165.014 109.528 164.977 109.566 164.927 109.591C164.752 109.703 164.59 109.815 164.415 109.928C164.216 110.065 164.016 110.202 163.829 110.339C163.629 110.477 163.442 110.626 163.242 110.764C163.055 110.914 162.868 111.051 162.681 111.213C162.518 111.35 162.356 111.475 162.194 111.612C162.044 111.75 161.882 111.874 161.732 112.012C161.146 112.536 160.584 113.085 160.06 113.659C156.266 117.765 153.782 123.394 154.419 129.06C154.481 129.571 154.568 130.096 154.681 130.595C154.88 131.481 156.041 131.656 156.515 130.882C157.264 129.659 158.125 128.486 159.086 127.387C160.709 125.528 163.966 128.036 162.518 130.033C160.709 132.504 159.411 135.2 158.612 137.983C158.2 139.406 157.938 140.841 157.788 142.289C157.776 142.439 157.763 142.588 157.751 142.738C157.738 142.888 157.726 143.038 157.726 143.187C157.726 143.287 157.714 143.387 157.714 143.487C157.701 143.687 157.701 143.874 157.689 144.073C157.689 144.523 157.689 144.96 157.689 145.409C157.689 145.609 157.701 145.821 157.714 146.02V146.045C157.726 146.27 157.738 146.507 157.763 146.732C157.776 146.931 157.801 147.131 157.826 147.331C157.826 147.356 157.826 147.393 157.826 147.418C157.851 147.63 157.876 147.83 157.913 148.042C157.938 148.254 157.976 148.454 158.013 148.654C158.05 148.841 158.088 149.028 158.113 149.228C158.113 149.253 158.113 149.29 158.125 149.315C158.175 149.54 158.213 149.752 158.263 149.964C160.322 152.972 163.13 155.468 166.375 157.14C168.347 158.164 170.481 158.887 172.64 159.399C184.671 162.282 198.087 158.463 206.798 149.677C207.06 149.415 207.547 149.452 207.784 149.153C207.822 149.103 207.834 149.066 207.822 149.016C208.982 149.627 210.268 150.051 211.553 150.276C214.461 150.813 217.469 150.513 220.402 150.064C221.774 149.852 223.135 149.615 224.445 149.19C226.767 148.454 228.876 147.181 230.96 145.921C233.369 144.46 235.915 142.825 237.612 140.666C237.737 140.08 237.824 139.493 237.886 138.894C238.186 135.899 237.649 132.841 236.177 129.946C235.578 128.748 234.804 127.662 233.905 126.651C233.219 125.865 232.458 125.128 231.634 124.442C228.426 121.684 224.445 119.562 221.101 117.416C220.439 116.991 220.551 116.205 220.988 115.806C219.291 115.007 217.731 114.021 216.52 112.598C215.759 111.712 215.16 110.489 215.572 109.391C215.821 108.729 216.408 108.243 216.982 107.831C217.344 107.569 217.718 107.319 218.093 107.082C217.918 107.082 217.731 107.095 217.556 107.107C215.609 107.169 213.687 106.92 211.965 106.383C210.53 105.921 211.154 103.987 212.564 104.187C215.098 104.549 217.831 104.399 220.277 103.663C222.785 102.914 224.583 101.491 226.704 100.056C227.091 99.7936 227.465 99.7437 227.79 99.8311C227.84 99.8436 227.877 99.856 227.927 99.881C228.788 98.9949 229.787 98.2586 230.885 97.7094C233.169 96.5737 235.902 96.3117 238.311 97.1728C238.723 97.3226 239.122 97.4973 239.521 97.672C239.509 97.048 239.908 96.4489 240.757 96.4864C243.777 96.5862 246.972 97.0105 250.067 97.8218C250.729 97.9965 251.378 97.4598 251.315 96.7734C250.591 88.9358 245.287 81.5725 238.473 77.3168L238.461 77.3667ZM211.628 125.99C212.577 127.5 213.013 129.322 212.876 131.094C215.734 132.779 218.355 134.876 221.175 136.66C222.698 137.621 222.274 140.704 220.152 140.417C216.445 139.93 213.775 136.723 210.717 134.551C207.622 134.389 204.464 135.063 201.419 135.961C200.745 136.685 200.009 137.359 199.223 137.971C196.04 140.454 191.972 142.002 187.891 142.326C185.869 143.624 183.984 145.097 182.325 146.832C181.975 146.832 181.638 146.782 181.301 146.669C180.939 147.78 180.627 148.903 180.328 150.051C180.153 150.75 178.93 150.85 178.818 150.051C178.593 148.392 178.643 146.757 178.942 145.159C178.917 145.134 178.892 145.109 178.88 145.097C176.771 143.038 175.323 140.354 174.674 137.484C173.726 136.386 172.927 135.088 172.315 133.59C171.854 132.454 173.576 131.406 174.4 132.242C174.425 132.043 174.449 131.83 174.487 131.631C179.878 134.364 186.381 134.851 192.121 132.966C194.568 132.167 196.951 130.882 198.536 128.86C199.522 127.6 200.159 126.114 200.795 124.642C201.419 123.182 202.043 121.734 202.667 120.286C202.53 119.325 202.305 118.377 202.006 117.441C201.369 115.481 200.209 113.834 199.323 111.999C198.299 109.89 200.82 107.793 202.605 109.466C205.887 112.561 206.973 117.803 206.836 122.383C208.795 122.944 210.542 124.255 211.628 125.99ZM264.008 116.08C263.983 115.906 263.945 115.743 263.908 115.569C263.895 115.494 263.883 115.431 263.858 115.369C263.783 115.044 263.708 114.732 263.621 114.42C263.608 114.358 263.596 114.283 263.571 114.221C263.558 114.158 263.546 114.108 263.521 114.059C263.496 113.959 263.458 113.859 263.433 113.771C263.396 113.634 263.346 113.497 263.296 113.372C263.234 113.172 263.159 112.985 263.084 112.798C262.997 112.573 262.909 112.361 262.809 112.137C262.722 111.937 262.635 111.737 262.535 111.538C262.51 111.5 262.497 111.463 262.472 111.413C262.385 111.226 262.285 111.038 262.185 110.851L262.173 110.826C262.073 110.639 261.961 110.452 261.848 110.252C261.836 110.227 261.824 110.202 261.799 110.177C261.686 109.977 261.561 109.79 261.437 109.603C261.299 109.403 261.162 109.191 261.025 109.004C259.639 107.057 257.842 105.597 255.833 104.399C254.934 103.862 253.998 103.375 253.025 102.926C252.376 102.627 251.715 102.327 251.041 102.053C247.746 100.667 244.176 99.5315 240.707 99.1197C240.545 99.1072 240.395 99.0573 240.27 98.9949C238.024 100.517 235.927 102.227 234.417 104.449C232.283 107.594 231.609 112.062 233.868 115.119C234.766 116.342 236.039 117.229 237.3 118.09C238.411 118.863 239.509 119.625 240.632 120.398C242.592 119.924 244.626 119.687 246.635 119.737C248.694 119.799 251.403 119.812 252.813 121.522C253.524 122.383 253.262 123.543 252.176 123.918C250.379 124.554 248.47 123.731 246.635 123.618C244.738 123.506 242.791 123.606 240.919 123.968C239.908 124.168 238.91 124.43 237.936 124.767C237.287 124.991 237.063 125.79 237.487 126.327C238.286 127.313 238.985 128.386 239.546 129.584C239.634 129.759 239.709 129.946 239.796 130.121C239.858 130.27 239.933 130.433 239.996 130.582C240.07 130.757 240.133 130.919 240.195 131.094C240.245 131.244 240.295 131.381 240.345 131.531C240.382 131.631 240.407 131.731 240.445 131.83C240.457 131.868 240.47 131.905 240.482 131.943C240.52 132.055 240.557 132.18 240.582 132.292C240.62 132.417 240.657 132.554 240.695 132.679C240.744 132.854 240.794 133.028 240.832 133.216C240.894 133.453 240.944 133.69 240.994 133.94C240.994 133.952 240.994 133.977 241.007 133.989C241.081 134.339 241.144 134.688 241.181 135.025C241.206 135.188 241.231 135.337 241.244 135.5C241.256 135.649 241.281 135.787 241.294 135.936C241.306 136.049 241.319 136.173 241.331 136.286C241.331 136.323 241.331 136.373 241.331 136.411C241.331 136.473 241.331 136.535 241.343 136.598C247.197 136.373 252.95 133.89 257.131 129.771C260.838 126.127 263.271 121.222 264.008 116.093C264.008 116.093 264.008 116.093 264.008 116.08ZM264.332 119.101C264.345 119.587 264.345 120.074 264.332 120.561C264.357 120.074 264.357 119.587 264.332 119.101Z" fill="#FFB3B3"/>
<path d="M220.165 140.429C216.458 139.943 213.787 136.735 210.729 134.564C207.634 134.401 204.477 135.075 201.432 135.974C200.758 136.698 200.021 137.372 199.235 137.983C196.053 140.467 191.984 142.014 187.903 142.339C185.881 143.637 183.997 145.109 182.337 146.844C181.988 146.844 181.651 146.794 181.314 146.682C180.952 147.793 180.64 148.916 180.34 150.064C180.165 150.763 178.942 150.863 178.83 150.064C178.605 148.404 178.655 146.769 178.955 145.172C178.93 145.147 178.905 145.122 178.892 145.109C176.783 143.05 175.336 140.367 174.687 137.496C173.738 136.398 172.939 135.1 172.328 133.603C171.866 132.467 173.588 131.419 174.412 132.255C174.437 132.055 174.462 131.843 174.499 131.643C179.891 134.376 186.393 134.863 192.134 132.979C194.58 132.18 196.964 130.894 198.549 128.873C199.535 127.612 200.171 126.127 200.808 124.654C201.432 123.194 202.056 121.746 202.68 120.299C202.542 119.338 202.318 118.389 202.018 117.453C201.382 115.494 200.221 113.846 199.335 112.012C198.312 109.903 200.833 107.806 202.617 109.478C205.9 112.573 206.985 117.815 206.848 122.395C208.808 122.957 210.555 124.267 211.641 126.002C212.589 127.512 213.026 129.334 212.889 131.107C215.747 132.791 218.367 134.888 221.188 136.673C222.71 137.634 222.286 140.716 220.165 140.429Z" fill="#E8809B"/>
<path d="M240.645 120.386C240.42 120.436 240.208 120.498 239.996 120.548C238.411 120.985 235.553 122.32 233.806 123.206C231.285 121.459 228.514 120.011 226.505 118.401C226.243 118.202 226.118 117.927 225.793 117.802C225.793 117.802 225.793 117.802 225.781 117.802C224.52 117.128 223.26 116.455 222.062 115.781C221.625 115.543 221.226 115.631 220.951 115.893C219.254 115.094 217.694 114.108 216.483 112.685C215.722 111.799 215.123 110.576 215.535 109.478C215.784 108.817 216.371 108.33 216.945 107.918C217.307 107.656 217.681 107.406 218.056 107.169C218.18 107.169 218.305 107.157 218.43 107.144C218.555 107.144 218.68 107.119 218.804 107.107C218.992 107.094 219.179 107.069 219.366 107.044C219.603 107.019 219.828 106.982 220.065 106.945C220.202 106.92 220.352 106.895 220.489 106.87C220.489 106.87 220.489 106.87 220.502 106.87C220.527 106.87 220.564 106.87 220.589 106.857C220.651 106.845 220.714 106.832 220.789 106.82C220.789 106.82 220.789 106.82 220.801 106.82C220.889 106.807 220.976 106.782 221.076 106.757C221.313 106.707 221.562 106.645 221.787 106.583C221.962 106.533 222.149 106.483 222.324 106.42C222.536 106.358 222.736 106.283 222.948 106.208C223.123 106.146 223.297 106.083 223.472 106.009C223.622 105.946 223.759 105.884 223.909 105.821C223.971 105.796 224.046 105.759 224.108 105.734C224.308 105.647 224.508 105.559 224.695 105.447C224.845 105.372 224.995 105.297 225.144 105.21C225.606 104.948 226.055 104.673 226.48 104.361C226.642 104.249 226.804 104.124 226.954 103.999C227.516 103.55 228.04 103.051 228.501 102.502C228.789 102.165 228.888 101.74 228.851 101.341C228.851 101.291 228.851 101.266 228.838 101.216V101.204C228.838 101.179 228.838 101.141 228.826 101.116C228.826 101.091 228.826 101.066 228.813 101.041C228.813 101.016 228.801 100.979 228.789 100.954C228.789 100.942 228.789 100.929 228.776 100.917C228.776 100.892 228.764 100.867 228.751 100.842C228.751 100.817 228.739 100.792 228.726 100.779C228.714 100.742 228.701 100.704 228.676 100.68C228.664 100.642 228.639 100.605 228.614 100.58C228.601 100.555 228.576 100.517 228.551 100.48C228.501 100.417 228.452 100.355 228.402 100.305C228.389 100.28 228.352 100.255 228.327 100.23C228.302 100.205 228.277 100.18 228.252 100.168C228.227 100.143 228.189 100.118 228.165 100.105C228.09 100.055 228.015 100.018 227.94 99.9806C228.801 99.0945 229.799 98.3582 230.898 97.8091C233.182 96.6734 235.915 96.4113 238.323 97.2724C238.735 97.4222 239.135 97.5969 239.534 97.7716C239.534 98.2708 239.809 98.7825 240.32 99.0196C238.074 100.542 235.977 102.252 234.467 104.473C232.333 107.619 231.659 112.086 233.918 115.144C234.816 116.367 236.089 117.253 237.35 118.114C238.461 118.888 239.559 119.649 240.682 120.423L240.645 120.386Z" fill="#E8809B"/>
<path d="M264.332 120.573C264.332 120.835 264.307 121.097 264.282 121.372C264.269 121.634 264.232 121.896 264.207 122.171C264.182 122.433 264.145 122.695 264.107 122.957C264.107 122.982 264.107 123.019 264.095 123.044C264.082 123.169 264.057 123.281 264.045 123.394C264.045 123.419 264.045 123.456 264.032 123.481C264.007 123.656 263.97 123.831 263.945 124.005C263.945 124.043 263.932 124.068 263.932 124.105C263.907 124.205 263.882 124.317 263.858 124.417C263.77 124.854 263.658 125.291 263.546 125.715C263.483 125.94 263.421 126.164 263.346 126.377C263.271 126.601 263.209 126.838 263.121 127.063C263.009 127.4 262.884 127.724 262.759 128.061C261.499 131.281 259.564 134.489 257.231 137.06C254.997 139.506 251.627 139.868 248.457 140.042C246.398 140.155 244.326 140.092 242.279 139.83C241.78 139.768 241.406 139.319 241.418 138.819C241.443 138.083 241.418 137.359 241.368 136.623C247.221 136.373 252.975 133.902 257.156 129.784C260.862 126.139 263.296 121.235 264.032 116.105C264.07 116.28 264.095 116.455 264.12 116.617C264.145 116.742 264.157 116.867 264.182 116.991C264.207 117.204 264.244 117.428 264.257 117.653C264.282 117.878 264.307 118.102 264.319 118.327C264.332 118.551 264.344 118.764 264.344 118.988C264.344 119.026 264.344 119.063 264.344 119.101C264.357 119.587 264.357 120.074 264.344 120.561L264.332 120.573Z" fill="#E8809B"/>
<path d="M207.497 149.09C207.697 149.066 207.884 149.09 208.071 149.178C209.157 149.714 210.318 150.139 211.516 150.351C214.424 150.888 217.431 150.588 220.364 150.139C221.737 149.927 223.098 149.69 224.408 149.265C226.729 148.529 228.838 147.256 230.923 145.995C233.331 144.535 235.877 142.9 237.575 140.741C237.537 140.916 237.5 141.091 237.462 141.265C237.4 141.503 237.337 141.752 237.275 141.989C237.213 142.226 237.138 142.463 237.05 142.701C236.901 143.175 236.713 143.637 236.514 144.098C236.414 144.336 236.302 144.573 236.189 144.81C235.802 145.621 235.341 146.42 234.829 147.193C231.721 151.836 225.818 155.967 220.177 156.541C216.745 156.891 213.463 155.767 210.43 154.282C209.719 153.933 208.995 153.496 208.271 153.047C207.709 152.71 207.16 152.373 206.586 152.061C206.149 151.824 205.6 151.948 205.301 152.348C204.365 153.608 203.429 154.869 202.493 156.129C201.369 157.639 200.246 159.137 199.073 160.61C197.875 162.107 196.677 163.617 194.93 164.479C193.357 165.252 191.572 165.639 189.888 166.089C182.574 168.035 175.386 168.21 168.696 164.254C164.415 161.72 161.37 158.139 159.573 154.058C159.261 153.359 158.999 152.66 158.762 151.948C158.55 151.312 158.375 150.675 158.238 150.039C160.297 153.047 163.105 155.543 166.35 157.215C168.322 158.238 170.456 158.962 172.615 159.474C184.546 162.332 198.249 158.001 206.973 149.378C207.123 149.228 207.31 149.128 207.522 149.103L207.497 149.09Z" fill="#E8809B"/>
<path d="M225.244 75.5195C220.764 78.2527 217.819 83.4195 217.856 88.6737C217.794 88.5114 217.719 88.3617 217.632 88.2119C217.632 88.1994 217.619 88.187 217.607 88.162C217.532 88.0247 217.457 87.8874 217.382 87.7501C217.32 87.6378 217.245 87.5255 217.17 87.4132C217.132 87.3508 217.095 87.3009 217.057 87.2509C216.995 87.1511 216.92 87.0388 216.845 86.9389C216.658 86.6768 216.446 86.4148 216.234 86.1652C216.096 86.0029 215.959 85.8407 215.809 85.6909C215.647 85.5162 215.472 85.3415 215.285 85.1667C214.973 84.8672 214.649 84.5802 214.324 84.3181C214.112 84.1434 213.9 83.9811 213.688 83.8189C213.488 83.6816 213.301 83.5318 213.101 83.407C212.702 83.1325 212.29 82.8829 211.878 82.6333C211.242 82.2589 211.217 81.3478 211.828 80.9359C214.674 79.0514 217.794 77.5912 221.101 76.5554C222.411 76.1435 223.759 75.7941 225.12 75.5445C225.157 75.5445 225.195 75.532 225.244 75.5195Z" fill="#E8809B"/>
<path d="M153.27 103.6C153.171 104.386 152.384 105.073 151.523 104.811C151.036 104.673 150.587 104.474 150.15 104.274C149.139 103.825 148.191 103.325 147.005 103.251C145.37 103.126 143.711 103.637 142.275 104.411C141.14 105.023 139.779 103.438 140.84 102.552C142.725 101.029 144.472 100.031 147.005 100.031C149.189 100.031 151.923 100.792 153.108 102.751C153.27 103.026 153.32 103.313 153.283 103.588L153.27 103.6Z" fill="#841347"/>
<path d="M220.165 140.429C216.458 139.943 213.787 136.735 210.729 134.564C210.13 134.139 209.506 133.752 208.857 133.428C207.934 132.979 206.96 132.604 205.95 132.305C205.063 132.043 204.115 132.417 203.616 133.191C202.979 134.177 202.255 135.113 201.432 135.974C200.758 136.698 200.021 137.372 199.235 137.983C196.053 140.467 191.984 142.014 187.903 142.339C186.767 142.426 185.644 142.426 184.533 142.326C183.66 142.251 182.836 142.738 182.487 143.537C182.037 144.56 181.663 145.621 181.326 146.682C180.964 147.793 180.652 148.916 180.353 150.064C180.178 150.763 178.955 150.863 178.843 150.064C178.618 148.404 178.668 146.769 178.967 145.172C179.105 144.435 179.292 143.699 179.529 142.988C179.841 142.039 179.404 141.028 178.518 140.567C177.083 139.805 175.785 138.794 174.687 137.496C173.738 136.398 172.939 135.1 172.328 133.603C171.866 132.467 173.588 131.419 174.412 132.255C174.437 132.28 174.462 132.317 174.487 132.342C175.922 134.189 177.27 135.999 179.367 137.147C180.165 137.584 180.989 137.933 181.85 138.195C182.961 138.545 184.109 138.744 185.282 138.807C185.557 138.819 185.844 138.832 186.118 138.832C190.15 138.844 194.168 137.309 197.213 134.688C198.299 133.752 199.26 132.692 200.059 131.518C200.858 130.37 201.494 129.122 201.968 127.812C202.418 126.526 202.717 125.178 202.817 123.793C202.904 122.62 202.854 121.447 202.68 120.286C202.542 119.325 202.318 118.377 202.018 117.441C201.382 115.481 200.221 113.834 199.335 111.999C198.312 109.89 200.833 107.794 202.617 109.466C205.9 112.561 206.985 117.803 206.848 122.383C206.823 123.207 206.761 124.018 206.673 124.792C206.611 125.328 206.524 125.865 206.411 126.402C206.199 127.462 206.823 128.511 207.859 128.823H207.872C209.669 129.372 211.316 130.171 212.889 131.094C215.747 132.779 218.367 134.876 221.188 136.66C222.71 137.621 222.286 140.704 220.165 140.417V140.429Z" fill="#841347"/>
<path d="M228.501 102.489C228.04 103.038 227.515 103.525 226.954 103.987C226.804 104.112 226.642 104.224 226.48 104.349C226.055 104.661 225.606 104.935 225.144 105.198C224.994 105.272 224.845 105.36 224.695 105.435C224.495 105.534 224.308 105.634 224.108 105.722C224.046 105.747 223.971 105.784 223.909 105.809C223.759 105.871 223.622 105.934 223.472 105.996C223.297 106.071 223.122 106.134 222.948 106.196C222.748 106.271 222.536 106.333 222.324 106.408C222.149 106.47 221.962 106.52 221.787 106.57C221.55 106.633 221.313 106.695 221.076 106.745C220.988 106.77 220.901 106.795 220.801 106.807C220.801 106.807 220.801 106.807 220.789 106.807C220.726 106.82 220.651 106.832 220.589 106.845C220.564 106.845 220.527 106.857 220.502 106.857C220.502 106.857 220.502 106.857 220.489 106.857C220.352 106.882 220.202 106.92 220.065 106.932C219.84 106.982 219.603 107.007 219.366 107.032C219.179 107.057 218.991 107.082 218.804 107.094C218.679 107.107 218.555 107.119 218.43 107.132C218.305 107.144 218.18 107.157 218.055 107.157C217.881 107.157 217.694 107.169 217.519 107.182C215.572 107.244 213.65 106.995 211.928 106.458C210.492 105.996 211.116 104.062 212.527 104.261C215.06 104.623 217.793 104.474 220.239 103.737C222.748 102.988 224.545 101.566 226.667 100.131C227.054 99.8684 227.428 99.8185 227.753 99.9059C227.802 99.9184 227.84 99.9308 227.89 99.9558C227.965 99.9808 228.052 100.031 228.115 100.081C228.152 100.093 228.177 100.131 228.202 100.143C228.227 100.168 228.252 100.18 228.277 100.205C228.302 100.23 228.327 100.255 228.352 100.28C228.414 100.343 228.464 100.405 228.501 100.455C228.526 100.48 228.539 100.517 228.564 100.555C228.589 100.592 228.601 100.63 228.626 100.655C228.639 100.692 228.664 100.73 228.676 100.755C228.689 100.78 228.701 100.804 228.701 100.817C228.701 100.842 228.714 100.867 228.726 100.892C228.726 100.904 228.739 100.917 228.739 100.929C228.751 100.954 228.763 100.992 228.763 101.017C228.763 101.042 228.776 101.067 228.776 101.092C228.776 101.116 228.788 101.154 228.788 101.179V101.191C228.788 101.229 228.801 101.266 228.801 101.316C228.838 101.716 228.738 102.127 228.451 102.477L228.501 102.489Z" fill="#841347"/>
<path d="M175.411 106.695L174.525 106.67C174.612 106.67 174.687 106.67 174.762 106.67H174.787C175.024 106.67 175.236 106.67 175.423 106.695H175.411Z" fill="#B0136E"/>
<path d="M262.423 104.162C260.851 102.751 259.054 101.541 257.132 100.542C256.782 100.355 256.57 100.006 256.582 99.6063C256.62 98.4206 256.558 97.2475 256.408 96.0619C256.295 95.2007 256.133 94.3646 255.934 93.5159C254.036 85.5785 248.221 78.3524 241.194 74.1591C237.475 71.9501 233.394 71.1638 229.263 71.3885C228.826 71.4134 228.415 71.1514 228.252 70.7395C227.404 68.4681 226.181 66.334 224.633 64.437C224.196 63.8629 223.697 63.3263 223.173 62.7896C222.736 62.3278 222.262 61.8786 221.788 61.4542C217.257 57.4231 211.03 54.0909 205.089 52.7805C196.665 50.9334 188.091 53.8413 181.614 59.2827C181.289 59.5448 180.84 59.5947 180.466 59.3825C179.654 58.9457 178.856 58.5463 178.069 58.2094C171.929 55.5885 165.352 55.7882 159.274 58.5089C150.526 62.4027 144.647 70.6147 143 79.7377C142.913 80.2494 142.426 80.6114 141.914 80.549C139.718 80.3118 137.484 80.1746 135.3 80.3118C130.12 80.6363 125.752 83.1948 123.294 87.8125C119.05 95.7624 121.634 103.949 126.077 110.988C126.289 111.325 126.289 111.725 126.089 112.049C126.052 112.099 126.027 112.161 125.989 112.199C124.292 114.957 122.595 117.753 121.821 120.935C121.696 121.497 121.571 122.071 121.497 122.632V122.682C121.497 122.682 121.484 122.732 121.484 122.757C121.334 123.78 121.247 124.816 121.259 125.852V125.915C121.297 130.07 122.545 134.214 124.554 137.833C130.42 148.366 142.176 153.458 153.708 155.193C154.07 155.243 154.357 155.48 154.482 155.805C154.856 156.716 155.293 157.614 155.767 158.475C156.079 159.062 156.429 159.636 156.803 160.185C157.177 160.759 157.577 161.333 158.014 161.87C161.833 166.762 167.386 170.469 173.427 171.967C180.366 173.676 187.929 172.391 194.531 169.882C198.25 168.472 200.621 166.201 202.793 162.918C203.704 161.571 204.54 160.21 205.326 158.825C205.588 158.388 206.137 158.201 206.599 158.413C207.76 158.925 208.883 159.337 209.832 159.699C213.613 161.134 217.582 161.845 221.613 161.184C228.614 160.023 234.942 155.343 238.511 149.278C239.085 148.317 239.559 147.306 239.971 146.257C240.121 145.833 240.57 145.583 241.02 145.633C242.28 145.783 243.553 145.883 244.801 145.908C248.133 145.983 251.74 145.721 254.948 144.772C258.018 143.861 260.152 141.939 262.024 139.431C269.475 129.509 272.794 113.447 262.461 104.112L262.423 104.162ZM149.452 126.676C149.315 126.551 149.128 126.451 148.903 126.414C145.895 125.84 142.813 125.964 139.793 125.378C139.568 125.34 139.356 125.303 139.131 125.253C137.833 124.954 137.097 126.289 137.509 127.213C137.646 127.537 137.933 127.812 138.395 127.936C140.429 128.548 142.788 129.184 145.084 129.359C146.395 129.459 147.693 129.422 148.916 129.159C149.178 129.11 149.465 129.671 149.614 129.496V129.534C149.677 130.283 149.752 130.582 149.914 131.181C149.926 131.256 149.951 131.356 149.976 131.456C149.989 131.518 150.001 131.568 150.014 131.631C150.588 133.927 151.611 136.161 153.022 138.083C153.209 138.332 153.271 138.632 153.209 138.919C152.398 142.351 152.248 145.908 152.747 149.402C152.847 150.076 152.248 150.65 151.574 150.538C144.585 149.24 137.658 146.931 132.379 142.301H132.367C130.757 140.891 129.297 139.268 128.049 137.384C125.141 133.003 123.443 127.599 124.267 122.32C124.691 119.575 125.865 117.066 127.163 114.645C127.362 114.271 127.562 113.896 127.762 113.509C128.236 112.611 128.735 111.712 129.309 110.876C130.195 109.503 131.219 108.243 132.579 107.294C133.178 106.87 133.028 106.071 132.579 105.747C132.429 105.647 132.23 105.572 132.005 105.634C131.905 105.647 131.78 105.684 131.668 105.759C130.732 106.358 129.921 107.057 129.172 107.831C128.71 108.355 127.849 108.218 127.549 107.581C124.879 102.077 123.443 96.0868 126.339 90.2835C127.063 88.7984 127.986 87.6502 129.047 86.7641C132.542 83.8313 137.559 83.7439 142.526 84.4678C143.349 84.5801 144.173 84.7298 144.984 84.8921C147.555 85.3913 150.039 86.0028 152.185 86.4771C152.71 86.5894 153.159 86.4896 153.533 86.2399C154.519 85.6284 154.881 84.1308 153.783 83.3445C153.72 83.2946 153.646 83.2572 153.571 83.2073C151.499 82.0591 149.04 81.5224 146.644 81.1605C146.045 81.0731 145.671 80.4866 145.82 79.9C147.817 72.4243 152.947 65.7225 159.886 62.228C160.672 61.8286 161.496 61.4792 162.319 61.1797C166.787 59.5697 171.58 59.5448 176.085 61.3169C176.859 61.6165 177.62 61.9784 178.356 62.3902C179.305 62.9269 180.216 63.5509 181.052 64.2248C181.564 64.6242 182.038 65.061 182.487 65.4978C182.862 65.8597 183.199 66.2217 183.511 66.5961C184.946 68.2934 185.944 70.1654 187.13 72.1123C187.704 73.0359 188.74 73.1607 189.526 72.7863C190.25 72.4368 190.762 71.6755 190.512 70.6771C189.688 67.5321 187.592 64.749 184.996 62.515C184.497 62.1032 184.534 61.3169 185.046 60.9425C190.45 57.0487 196.677 54.6899 203.716 56.2001C208.596 57.2484 213.663 59.9691 217.569 63.1515C217.719 63.2888 217.894 63.4261 218.044 63.5634C220.515 65.6476 222.574 68.1686 223.847 71.064C224.096 71.6131 223.784 72.2621 223.21 72.4119C217.881 73.9344 212.814 76.9047 208.721 80.4741C208.434 80.7237 208.059 80.7861 207.71 80.6613C207.048 80.4242 206.387 80.212 205.751 80.0373C205.052 79.8376 204.328 79.6753 203.604 79.5256C202.942 79.4008 202.593 78.6769 202.905 78.0904C203.841 76.3057 204.39 74.3962 204.253 72.5242C204.215 72.025 204.128 71.5258 203.978 71.039C203.641 69.8534 201.919 69.8409 201.582 71.039C201.432 71.5507 201.333 72.0499 201.258 72.5616C201.021 74.0343 200.946 75.507 200.397 76.9547C200.209 77.4788 199.985 77.978 199.735 78.4772C199.548 78.8267 199.186 79.0389 198.799 79.0389C195.067 78.939 191.336 79.563 187.866 80.9109C182.687 82.9327 178.369 86.4771 175.399 90.8826C175.386 90.8451 175.374 90.7952 175.349 90.7578C174.275 87.8998 172.903 85.1666 171.155 82.6956C170.207 81.3477 169.146 80.0622 167.935 78.8891C166.662 77.6411 164.765 79.5381 165.989 80.836C166.75 81.6597 167.474 82.5208 168.11 83.4319C168.148 83.4693 168.173 83.5068 168.198 83.5442C169.795 85.8031 171.006 88.3241 171.942 90.945C172.366 92.168 172.79 93.4286 173.077 94.7015C173.115 94.9012 173.09 95.1134 173.015 95.3006C172.191 97.2225 171.605 99.2319 171.268 101.316C171.205 101.74 170.881 102.077 170.456 102.165C164.391 103.375 158.937 107.069 155.106 111.887C151.774 116.105 149.515 121.322 149.415 126.676H149.452ZM264.345 120.573C264.333 120.835 264.32 121.097 264.295 121.359C264.283 121.621 264.258 121.896 264.233 122.146C264.195 122.408 264.17 122.67 264.133 122.932C264.133 122.957 264.121 122.982 264.121 123.019C264.108 123.131 264.083 123.256 264.071 123.369C264.058 123.394 264.058 123.419 264.046 123.443C264.021 123.631 263.996 123.793 263.958 123.968C263.958 124.005 263.946 124.03 263.946 124.067C263.921 124.167 263.896 124.28 263.871 124.392C263.796 124.816 263.671 125.266 263.559 125.69L263.359 126.351C263.284 126.589 263.222 126.813 263.135 127.038C263.022 127.375 262.897 127.712 262.773 128.036C261.5 131.256 259.565 134.464 257.244 137.034C255.01 139.481 251.64 139.842 248.47 140.017C246.411 140.13 244.339 140.067 242.305 139.805C241.793 139.743 241.419 139.293 241.431 138.794C241.456 138.07 241.444 137.321 241.394 136.598C241.382 136.523 241.382 136.46 241.369 136.385V136.261C241.357 136.148 241.344 136.024 241.332 135.911C241.319 135.774 241.307 135.624 241.282 135.474C241.269 135.325 241.244 135.162 241.219 135.013C241.169 134.663 241.119 134.314 241.032 133.964C241.032 133.939 241.032 133.927 241.02 133.914C240.97 133.665 240.92 133.44 240.87 133.191C240.832 133.003 240.783 132.841 240.733 132.654C240.708 132.529 240.67 132.392 240.633 132.279C240.608 132.167 240.57 132.042 240.533 131.93C240.52 131.893 240.508 131.855 240.495 131.818C240.471 131.718 240.433 131.618 240.408 131.531C240.358 131.381 240.308 131.231 240.258 131.094C240.196 130.919 240.134 130.757 240.046 130.57C239.996 130.432 239.934 130.27 239.846 130.12C239.772 129.933 239.697 129.758 239.597 129.571C239.035 128.386 238.336 127.312 237.55 126.326C237.126 125.79 237.35 124.991 237.999 124.766C238.973 124.429 239.971 124.155 240.982 123.955C242.854 123.581 244.789 123.493 246.698 123.593C248.533 123.706 250.442 124.529 252.227 123.893C253.3 123.518 253.562 122.345 252.863 121.497C251.466 119.787 248.745 119.774 246.698 119.712C244.689 119.649 242.642 119.899 240.683 120.361C240.458 120.411 240.258 120.473 240.034 120.536C239.934 120.561 239.809 120.598 239.709 120.623C238.199 121.06 236.489 121.671 234.867 122.483C234.792 122.52 234.717 122.557 234.63 122.595C234.28 122.782 233.868 122.745 233.544 122.507C232.683 121.846 231.784 121.234 230.848 120.648C230.249 120.274 229.638 119.912 229.026 119.562C228.04 118.988 227.054 118.451 226.056 117.915C225.993 117.877 225.919 117.84 225.844 117.802H225.831C224.571 117.116 223.31 116.455 222.112 115.768C221.675 115.531 221.263 115.631 221.001 115.88C220.565 116.267 220.452 117.066 221.101 117.478C222.948 118.676 224.983 119.849 226.979 121.135C227.566 121.497 228.153 121.883 228.714 122.295C229.725 122.994 230.711 123.718 231.635 124.517C232.446 125.203 233.207 125.94 233.893 126.726C234.792 127.737 235.553 128.835 236.165 130.021C237.637 132.916 238.162 135.986 237.875 138.969C237.812 139.568 237.725 140.154 237.6 140.729H237.588C237.563 140.916 237.525 141.078 237.488 141.265C237.425 141.502 237.363 141.739 237.288 141.977C237.213 142.214 237.151 142.451 237.063 142.688C236.914 143.15 236.726 143.624 236.527 144.086C236.427 144.323 236.315 144.548 236.202 144.785C235.815 145.608 235.354 146.395 234.842 147.168C231.734 151.811 225.831 155.929 220.19 156.504C216.758 156.866 213.463 155.742 210.443 154.245C209.732 153.895 209.008 153.471 208.272 153.009C207.71 152.672 207.161 152.335 206.587 152.023C206.15 151.786 205.601 151.911 205.301 152.31C204.365 153.571 203.429 154.844 202.493 156.104C201.382 157.614 200.247 159.112 199.061 160.585C197.863 162.082 196.677 163.58 194.918 164.453C193.345 165.227 191.561 165.614 189.876 166.063C182.55 168.01 175.361 168.185 168.684 164.229C166.026 162.656 163.842 160.672 162.145 158.426H162.132C161.733 157.876 161.358 157.34 160.996 156.766C160.447 155.88 159.973 154.969 159.561 154.02C159.249 153.334 158.987 152.635 158.75 151.911C158.538 151.274 158.363 150.638 158.213 149.989C158.163 149.777 158.126 149.565 158.076 149.34C158.076 149.315 158.064 149.278 158.064 149.253C158.026 149.065 157.989 148.878 157.964 148.691C157.926 148.479 157.901 148.279 157.864 148.067C157.839 147.855 157.814 147.655 157.789 147.443C157.777 147.418 157.777 147.393 157.777 147.368C157.752 147.156 157.739 146.969 157.727 146.769C157.702 146.532 157.689 146.307 157.677 146.083V146.045C157.664 145.845 157.652 145.646 157.652 145.434C157.627 144.997 157.627 144.548 157.639 144.111C157.652 143.911 157.652 143.711 157.664 143.512C157.664 143.412 157.677 143.312 157.677 143.212C157.689 143.075 157.702 142.913 157.714 142.775C157.727 142.626 157.739 142.476 157.752 142.326C157.889 140.891 158.163 139.443 158.575 138.02C159.362 135.237 160.684 132.542 162.482 130.058C163.942 128.074 160.672 125.565 159.05 127.425C158.089 128.51 157.227 129.684 156.466 130.919C156.004 131.68 154.831 131.518 154.632 130.632C154.519 130.108 154.419 129.609 154.369 129.085C153.733 123.406 156.217 117.79 160.011 113.684C160.547 113.11 161.096 112.548 161.683 112.037C161.82 111.899 161.982 111.762 162.132 111.637C162.282 111.5 162.457 111.363 162.631 111.238C162.819 111.088 162.993 110.938 163.193 110.801C163.393 110.651 163.58 110.501 163.78 110.377C163.979 110.239 164.166 110.09 164.366 109.965C164.541 109.853 164.703 109.74 164.89 109.628C164.928 109.603 164.978 109.578 165.015 109.553C165.202 109.441 165.377 109.328 165.564 109.229C165.577 109.216 165.589 109.204 165.614 109.191C165.814 109.091 166.001 108.979 166.188 108.879C166.213 108.867 166.226 108.854 166.238 108.854C166.45 108.742 166.625 108.642 166.837 108.555C166.85 108.53 166.862 108.53 166.887 108.517C167.062 108.442 167.237 108.342 167.424 108.268C167.474 108.243 167.524 108.218 167.574 108.205C167.773 108.118 167.96 108.018 168.173 107.943C168.397 107.856 168.609 107.768 168.834 107.693C168.834 107.693 168.847 107.693 168.847 107.681C169.059 107.606 169.271 107.544 169.483 107.469C169.495 107.456 169.508 107.456 169.52 107.456H169.533C169.645 107.419 169.758 107.381 169.87 107.344C169.97 107.319 170.095 107.307 170.194 107.319H170.207C171.218 107.094 173.14 106.745 174.513 106.683C174.55 106.67 174.587 106.67 174.625 106.67H174.775C174.862 106.67 174.974 106.683 175.074 106.683C175.174 106.683 175.286 106.695 175.386 106.695H175.399C175.586 106.708 175.748 106.72 175.935 106.745C176.647 106.807 177.346 106.92 178.057 107.069C178.244 107.107 178.419 107.144 178.594 107.194C178.681 107.207 178.793 107.232 178.893 107.257C179.005 107.282 179.13 107.319 179.243 107.344C179.742 107.481 180.216 107.644 180.703 107.806C180.852 107.868 181.015 107.918 181.164 107.98C181.339 108.043 181.501 108.105 181.676 108.18C182.338 108.455 182.999 108.742 183.636 109.054C186.494 110.427 189.426 111.388 192.347 112.623C193.395 113.072 194.681 111.812 193.682 110.888C192.197 109.516 190.799 108.055 189.239 106.782C187.667 105.497 185.882 104.648 184.022 103.874C181.464 102.789 178.756 102.015 175.985 101.815C175.898 101.815 175.798 101.803 175.711 101.803C175.074 101.753 174.625 101.129 174.812 100.505C175.311 98.8325 175.973 97.1976 176.759 95.65C179.355 90.6704 183.473 86.5395 188.865 84.3679C191.398 83.3445 194.106 82.733 196.865 82.5832C197.763 82.5333 198.662 82.5333 199.535 82.5832C201.108 82.6706 202.668 82.9327 204.166 83.3445C204.602 83.4569 205.039 83.6066 205.463 83.7439C206.1 83.9561 206.712 84.2057 207.323 84.4802C208.546 85.0294 209.707 85.6908 210.78 86.4895C212.927 88.087 214 90.2087 215.61 92.2429C216.496 93.3537 218.755 92.4676 218.555 91.0199C218.543 90.9076 218.53 90.7827 218.505 90.6829C218.493 90.608 218.48 90.5331 218.455 90.4333C218.443 90.3709 218.43 90.296 218.405 90.2087C218.393 90.1213 218.368 90.0339 218.343 89.9466C218.306 89.7594 218.243 89.5722 218.168 89.3974C218.143 89.3101 218.118 89.2227 218.093 89.1603C218.056 89.0605 218.019 88.9482 217.969 88.8483C217.956 88.8233 217.944 88.7859 217.931 88.7609C217.919 88.7235 217.906 88.6986 217.881 88.6611V88.6361C217.819 88.4864 217.744 88.3241 217.657 88.1744C217.657 88.1619 217.644 88.1494 217.632 88.1369C217.557 87.9997 217.494 87.8624 217.407 87.7251C217.332 87.6253 217.27 87.5005 217.195 87.4006C217.157 87.3382 217.12 87.2883 217.083 87.2259C217.02 87.126 216.958 87.0137 216.87 86.9139C216.671 86.6393 216.471 86.3772 216.259 86.1401C216.122 85.9654 215.972 85.8156 215.835 85.6659C215.66 85.4911 215.485 85.3164 215.298 85.1417C214.998 84.8422 214.674 84.5551 214.337 84.293C214.125 84.1183 213.925 83.9561 213.7 83.7938C213.501 83.6565 213.314 83.5068 213.114 83.382C212.714 83.1074 212.303 82.8453 211.891 82.6207C211.254 82.2463 211.217 81.3227 211.841 80.9234C214.686 79.0264 217.819 77.5787 221.114 76.5428C222.424 76.131 223.772 75.7815 225.145 75.5194C225.182 75.5194 225.22 75.507 225.257 75.507C225.444 75.4695 225.619 75.4446 225.806 75.4071C226.131 75.3572 226.468 75.3073 226.792 75.2698C226.967 75.2449 227.129 75.2199 227.316 75.2074C227.491 75.1825 227.666 75.17 227.853 75.1575C227.94 75.145 228.053 75.1325 228.153 75.1325C228.352 75.1201 228.527 75.1076 228.714 75.0951C228.939 75.0826 229.151 75.0701 229.376 75.0701C232.546 74.9953 235.678 75.6068 238.486 77.3665C245.3 81.6223 250.617 88.9856 251.328 96.8357C251.391 97.5221 250.742 98.0587 250.08 97.884C246.973 97.0603 243.778 96.6485 240.758 96.5486C239.921 96.5237 239.522 97.1227 239.534 97.7467C239.534 98.2459 239.809 98.7576 240.308 98.9947C240.446 99.0571 240.595 99.1071 240.745 99.1195C243.603 99.4565 246.523 100.293 249.307 101.341C249.918 101.566 250.517 101.803 251.104 102.052C251.154 102.077 251.203 102.09 251.253 102.115C251.877 102.377 252.489 102.651 253.076 102.926C254.037 103.375 254.985 103.862 255.884 104.411C257.88 105.609 259.69 107.057 261.075 109.004C261.213 109.204 261.362 109.403 261.475 109.615C261.6 109.803 261.724 109.99 261.837 110.189C261.862 110.214 261.874 110.239 261.887 110.264C261.999 110.464 262.111 110.651 262.211 110.838C262.211 110.851 262.224 110.863 262.224 110.876C262.323 111.063 262.423 111.238 262.511 111.438C262.536 111.475 262.548 111.512 262.573 111.55C262.66 111.762 262.76 111.949 262.835 112.149C262.935 112.374 263.035 112.586 263.11 112.81C263.185 113.01 263.247 113.185 263.334 113.384C263.372 113.522 263.422 113.659 263.459 113.784C263.484 113.884 263.509 113.983 263.546 114.083C263.559 114.133 263.584 114.183 263.596 114.258C263.609 114.308 263.634 114.37 263.646 114.458C263.734 114.77 263.821 115.082 263.883 115.406C263.908 115.469 263.921 115.531 263.933 115.606C263.958 115.781 263.996 115.943 264.021 116.118H264.033V116.143C264.058 116.317 264.096 116.492 264.108 116.667C264.133 116.779 264.145 116.916 264.17 117.041C264.195 117.253 264.22 117.465 264.245 117.69C264.27 117.927 264.283 118.139 264.295 118.364C264.32 118.589 264.32 118.801 264.333 119.025V119.138C264.345 119.637 264.345 120.111 264.333 120.61L264.345 120.573Z" fill="#841347"/>
<path d="M158.325 124.03C159.448 123.756 159.748 122.158 160.272 121.285C160.921 120.186 161.919 119.325 162.356 118.127C162.606 117.428 161.932 116.505 161.183 116.579C159.273 116.779 157.975 118.514 157.351 120.236C157.027 121.11 156.341 124.529 158.337 124.03H158.325Z" fill="#FFDCD8"/>
<path d="M167.361 116.629C168.846 115.893 170.219 115.019 171.829 114.57C173.439 114.121 175.111 114.308 176.609 113.684C178.106 113.06 178.755 110.901 177.096 109.965C173.476 107.931 167.286 110.352 164.877 113.409C163.467 115.207 165.177 117.715 167.361 116.629Z" fill="#FFDCD8"/>
<path d="M167.711 153.034C170.307 159.249 179.604 160.535 185.358 158.625C186.394 158.276 187.167 157.365 187.167 156.242C187.167 155.767 187.08 155.405 186.83 154.994C186.419 154.307 185.545 153.683 184.696 153.77C182.026 154.045 179.48 154.07 176.859 153.446C174.388 152.859 172.303 151.399 169.807 150.925C168.697 150.713 167.162 151.711 167.711 153.022V153.034Z" fill="#FFDCD8"/>
<path d="M225.98 128.598C227.191 130.258 228.09 132.08 228.464 134.102C228.751 135.624 229.038 138.145 231.26 137.509C231.871 137.334 232.57 136.773 232.657 136.111C233.219 132.33 231.21 128.523 227.952 126.614C226.779 125.927 225.082 127.375 225.968 128.598H225.98Z" fill="#FFDCD8"/>
<path d="M246.124 109.141C248.283 110.102 250.592 111.063 252.451 112.548C254.311 114.033 254.798 116.055 256.27 117.678C257.369 118.888 259.203 118.139 259.677 116.779C260.688 113.909 258.417 110.913 256.345 109.116C253.912 107.007 250.929 105.909 247.921 104.873C245.45 104.024 243.69 108.068 246.124 109.141Z" fill="#FFDCD8"/>
<path d="M227.915 82.0218C228.427 81.8471 229.001 81.8471 229.463 81.9095C230.236 82.0218 231.035 82.2465 231.647 82.2215C232.595 82.1716 233.169 81.3729 232.994 80.4618C232.732 79.1389 231.41 78.2902 230.124 78.0906C228.839 77.8909 227.653 78.153 226.555 78.8144C224.895 79.8128 225.968 82.6708 227.915 82.0218Z" fill="#FFDCD8"/>
<path d="M236.289 85.9159C239.597 86.5648 239.821 91.1201 243.141 91.9064C243.728 92.0437 244.339 91.8065 244.664 91.2824C246.049 88.9735 244.751 86.2653 243.191 84.4307C241.631 82.5961 239.347 81.5104 236.888 81.4729C234.43 81.4355 233.743 85.4042 236.289 85.9034V85.9159Z" fill="#FFDCD8"/>
<path d="M195.267 91.0573C198.711 88.8483 202.281 90.9575 205.463 92.555C208.321 93.9902 210.642 90.0464 207.972 88.2743C203.479 85.304 197.201 83.8687 193.095 88.2493C191.747 89.6845 193.495 92.193 195.267 91.0573Z" fill="#FFDCD8"/>
<path d="M131.48 133.565C131.555 135.649 133.464 138.045 134.962 139.393C136.784 141.04 138.993 142.164 141.489 141.565C143.024 141.19 143.561 138.632 141.963 137.933C140.366 137.234 138.831 136.647 137.495 135.512C136.16 134.376 134.987 132.754 133.34 132.155C132.453 131.83 131.455 132.679 131.48 133.565Z" fill="#FFDCD8"/>
<path d="M136.934 121.234C138.919 122.108 140.741 120.373 141.689 118.738C142.75 116.904 143.399 114.545 141.452 113.085C140.878 112.648 140.054 112.798 139.468 113.085C137.983 113.809 138.057 115.643 137.321 116.891C136.997 117.44 136.61 117.99 136.323 118.564C135.911 119.362 135.948 120.798 136.934 121.234Z" fill="#FFDCD8"/>
<path d="M135.286 94.2524C137.233 93.7407 139.442 93.5535 141.452 93.6908C143.461 93.8281 145.133 94.6643 146.893 93.6034C147.854 93.0293 148.004 91.9436 147.579 90.9826C146.556 88.6488 143.286 88.499 141.065 88.499C138.344 88.499 136.073 89.2603 133.701 90.5083C131.617 91.6066 133.065 94.8265 135.274 94.2524H135.286Z" fill="#FFDCD8"/>
<path d="M166.075 68.6054C167.897 68.0063 169.894 67.9065 171.766 68.3308C173.638 68.7551 175.073 70.0531 177.02 70.2403C178.43 70.3651 179.853 68.6054 179.292 67.2575C177.045 61.8411 168.708 62.5026 164.577 65.0485C162.768 66.1717 163.916 69.3168 166.075 68.6054Z" fill="#FFDCD8"/>
<path d="M192.633 64.4245C193.382 63.8005 194.555 63.7256 195.154 62.8395C195.404 62.4776 195.291 61.9534 195.004 61.6664C194.455 61.0923 193.382 61.0424 192.683 61.292C191.909 61.5541 191.273 61.9409 190.636 62.4402C190.037 62.9144 190.15 63.9378 190.636 64.4245C191.21 64.9986 192.034 64.9112 192.621 64.4245H192.633Z" fill="#FFDCD8"/>
<path d="M200.745 62.9394C205.388 63.4885 209.145 65.9221 213.563 67.0828C214.611 67.3574 215.809 66.0969 215.085 65.1109C211.903 60.7678 205.812 59.6321 200.745 59.6196C198.549 59.6196 198.674 62.7022 200.745 62.9519V62.9394Z" fill="#FFDCD8"/>
<path d="M265.044 157.964C262.099 163.069 255.41 165.677 245.725 165.677C241.232 165.677 236.103 165.115 230.399 163.992C227.005 163.318 223.498 162.457 219.866 161.434C214.412 159.874 208.709 157.914 202.88 155.605H202.868C202.106 155.306 201.345 154.994 200.584 154.669C200.497 154.644 200.397 154.607 200.297 154.557C195.704 152.673 191.037 150.576 186.344 148.267C185.608 147.905 184.859 147.543 184.135 147.169C183.673 146.944 183.199 146.72 182.75 146.47C182.375 146.283 182.001 146.096 181.614 145.883C180.765 145.459 179.929 145.022 179.093 144.573C178.644 144.336 178.182 144.111 177.745 143.849C175.349 142.576 172.953 141.241 170.569 139.868C167.037 137.834 163.617 135.749 160.31 133.64C158.975 132.792 157.664 131.943 156.366 131.069C155.717 130.657 155.081 130.221 154.457 129.796C152.76 128.636 151.087 127.488 149.452 126.327C147.256 124.767 145.147 123.194 143.088 121.634C143.063 121.597 143.025 121.572 143 121.559C141.665 120.524 140.354 119.5 139.081 118.452C135.724 115.756 132.567 113.035 129.659 110.352C126.963 107.856 124.467 105.398 122.183 102.951C108.754 88.5617 102.851 75.3951 107.644 67.1082C112.648 58.4594 128.748 57.124 151.849 63.4515C151.299 63.9632 150.775 64.4873 150.276 65.0365C128.96 59.3705 113.697 60.5061 109.328 68.0816C105.26 75.108 110.14 86.4276 121.297 99.0576C122.782 100.73 124.38 102.427 126.077 104.149C127.163 105.26 128.323 106.396 129.521 107.507C129.971 107.931 130.433 108.368 130.894 108.792C133.727 111.413 136.773 114.046 140.03 116.705C141.328 117.74 142.651 118.789 144.011 119.85C144.061 119.887 144.111 119.924 144.186 119.974C145.97 121.335 147.793 122.695 149.677 124.055C151.175 125.141 152.697 126.227 154.257 127.288C155.306 128.012 156.379 128.748 157.465 129.459C158.713 130.296 159.973 131.119 161.259 131.93C164.578 134.065 168.011 136.149 171.542 138.183C172.928 138.994 174.313 139.768 175.698 140.517C176.996 141.241 178.294 141.952 179.592 142.651C180.503 143.125 181.402 143.599 182.288 144.049C182.949 144.398 183.611 144.735 184.272 145.06C184.959 145.422 185.645 145.771 186.331 146.096C187.068 146.47 187.817 146.832 188.54 147.169C193.158 149.415 197.751 151.45 202.256 153.272C202.344 153.309 202.443 153.347 202.531 153.371C203.055 153.584 203.554 153.783 204.066 153.995C211.08 156.754 217.869 158.963 224.284 160.61C226.505 161.184 228.664 161.671 230.774 162.095C247.684 165.44 259.553 163.593 263.347 157.003C265.581 153.134 264.894 147.032 261.45 140.155C261.637 139.943 261.799 139.731 261.974 139.506C262.249 139.157 262.511 138.795 262.748 138.42C266.866 146.258 267.69 153.371 265.032 157.989L265.044 157.964Z" fill="#FF4C4C"/>
<path d="M150.738 132.792C154.839 132.792 158.163 129.467 158.163 125.366C158.163 121.265 154.839 117.94 150.738 117.94C146.637 117.94 143.312 121.265 143.312 125.366C143.312 129.467 146.637 132.792 150.738 132.792Z" fill="#FEE702"/>
<path d="M256.408 96.0617C254.848 98.0461 253.126 100.068 251.241 102.115C246.836 106.92 241.581 111.874 235.591 116.829C234.193 117.989 232.745 119.15 231.273 120.311C231.123 120.423 230.961 120.548 230.811 120.673C230.674 120.773 230.524 120.897 230.387 121.01C229.825 121.434 229.276 121.871 228.702 122.308C224.309 125.627 219.616 128.935 214.624 132.192C213.376 133.003 212.103 133.814 210.805 134.626C207.997 136.41 205.102 138.145 202.131 139.855C197.614 142.463 193.071 144.909 188.565 147.168C187.829 147.543 187.08 147.905 186.356 148.266C181.614 150.575 176.909 152.709 172.279 154.594C170.17 155.48 168.098 156.291 166.039 157.053C164.728 157.564 163.443 158.026 162.157 158.463H162.145C160.335 159.099 158.575 159.686 156.803 160.247C151.761 161.82 146.906 163.093 142.289 164.004C136.585 165.14 131.456 165.689 126.963 165.689C117.278 165.689 110.589 163.08 107.644 157.976C103.538 150.875 108.979 137.059 121.484 122.682V122.732C121.484 122.732 121.472 122.782 121.472 122.807L121.247 125.902V125.964C110.651 138.794 105.871 151.025 109.328 156.99C113.135 163.567 125.004 165.427 141.902 162.082C146.32 161.196 150.95 160.01 155.755 158.525C157.477 157.976 159.237 157.414 160.997 156.803C161.97 156.466 162.944 156.129 163.917 155.767C166.026 155.006 168.123 154.195 170.269 153.321H170.282C173.09 152.185 175.935 150.975 178.793 149.664C179.43 149.39 180.054 149.103 180.69 148.791C181.839 148.266 182.974 147.73 184.135 147.168C184.871 146.819 185.608 146.469 186.344 146.095C191.261 143.661 196.216 141.015 201.145 138.17C203.08 137.059 205.002 135.911 206.874 134.763C207.573 134.339 208.247 133.902 208.933 133.477H208.946C210.231 132.666 211.517 131.867 212.765 131.044C212.802 131.019 212.839 130.994 212.877 130.969C217.832 127.749 222.537 124.467 226.942 121.147C227.504 120.723 228.04 120.298 228.589 119.886C228.714 119.774 228.852 119.674 228.976 119.574C229.089 119.487 229.213 119.387 229.326 119.3C230.986 118.014 232.596 116.729 234.156 115.431C239.922 110.676 245.013 105.921 249.282 101.328C251.778 98.6701 253.999 96.0492 255.921 93.5157C256.133 94.3644 256.283 95.2006 256.395 96.0617H256.408Z" fill="#FF4C4C"/>
</g>
<path d="M206.001 176.947C246.351 176.947 279.06 144.237 279.06 103.888C279.06 63.5383 246.351 30.8286 206.001 30.8286C165.652 30.8286 132.942 63.5383 132.942 103.888C132.942 144.237 165.652 176.947 206.001 176.947Z" stroke="#3C008A" stroke-width="7.7003" stroke-miterlimit="10"/>
<path fill-rule="evenodd" clip-rule="evenodd" d="M74.1657 128.798C74.1657 64.521 125.948 12.4862 189.538 12.4862C253.128 12.4862 304.924 64.5355 304.924 128.812V340.406H74.1657V128.798ZM62.0206 128.798C62.0206 57.8976 119.156 0.341064 189.538 0.341064C259.919 0.341064 317.069 57.912 317.069 128.812V352.551H62.0206V128.798Z" fill="#3C008A"/>
<path d="M72.3861 259.085C91.6266 259.085 107.292 243.436 107.292 224.195V190.268C107.292 171.027 91.6426 155.362 72.3861 155.362C53.1295 155.362 37.4966 171.011 37.4966 190.268V224.195C37.4966 243.436 53.1456 259.085 72.3861 259.085Z" fill="white"/>
<path fill-rule="evenodd" clip-rule="evenodd" d="M72.3855 267.182C96.0929 267.182 115.388 247.913 115.388 224.196V190.268C115.388 166.558 96.1161 147.266 72.3855 147.266C48.6524 147.266 29.3992 166.545 29.3992 190.268V224.196C29.3992 247.908 48.6732 267.182 72.3855 267.182ZM107.291 224.196C107.291 243.436 91.626 259.085 72.3855 259.085C53.145 259.085 37.496 243.436 37.496 224.196V190.268C37.496 171.012 53.1289 155.363 72.3855 155.363C91.642 155.363 107.291 171.028 107.291 190.268V224.196Z" fill="#3C008A"/>
<path d="M72.381 158.57C54.9043 158.57 40.6983 172.792 40.6983 190.252V224.18C40.6983 241.656 54.9203 255.862 72.3971 255.862C89.8739 255.862 104.096 241.64 104.096 224.18V190.252C104.096 172.776 89.8739 158.57 72.3971 158.57M72.3971 152.156C93.4334 152.156 110.509 169.216 110.509 190.252V224.18C110.509 245.232 93.4494 262.276 72.3971 262.276C51.3608 262.276 34.3009 245.216 34.3009 224.18V190.252C34.3009 169.2 51.3608 152.156 72.3971 152.156Z" fill="#3C008A"/>
<path d="M58.2738 185.04C58.2738 177.248 64.5909 170.931 72.3835 170.931C80.1761 170.931 86.4932 177.248 86.4932 185.04V207.872C86.4932 215.665 80.1761 221.982 72.3835 221.982C64.5909 221.982 58.2738 215.665 58.2738 207.872V185.04Z" fill="#1C1C1C"/>
<path d="M59.0414 176.431C59.0414 172.31 62.3925 168.959 66.5131 168.959C70.6338 168.959 73.9849 172.31 73.9849 176.431C73.9849 180.551 70.6338 183.902 66.5131 183.902C62.3925 183.902 59.0414 180.551 59.0414 176.431Z" fill="white"/>
<path d="M177.708 259.085C196.949 259.085 212.614 243.436 212.614 224.195V190.268C212.614 171.027 196.965 155.362 177.708 155.362C158.452 155.362 142.819 171.011 142.819 190.268V224.195C142.819 243.436 158.468 259.085 177.708 259.085Z" fill="white"/>
<path fill-rule="evenodd" clip-rule="evenodd" d="M177.7 267.182C201.408 267.182 220.703 247.913 220.703 224.196V190.268C220.703 166.558 201.431 147.266 177.7 147.266C153.967 147.266 134.714 166.545 134.714 190.268V224.196C134.714 247.908 153.988 267.182 177.7 267.182ZM212.606 224.196C212.606 243.436 196.941 259.085 177.7 259.085C158.46 259.085 142.811 243.436 142.811 224.196V190.268C142.811 171.012 158.444 155.363 177.7 155.363C196.957 155.363 212.606 171.028 212.606 190.268V224.196Z" fill="#3C008A"/>
<path d="M177.704 158.57C160.227 158.57 146.021 172.792 146.021 190.252V224.18C146.021 241.656 160.243 255.862 177.72 255.862C195.197 255.862 209.419 241.64 209.419 224.18V190.252C209.419 172.776 195.197 158.57 177.72 158.57M177.72 152.156C198.756 152.156 215.832 169.216 215.832 190.252V224.18C215.832 245.232 198.772 262.276 177.72 262.276C156.684 262.276 139.624 245.216 139.624 224.18V190.252C139.624 169.2 156.684 152.156 177.72 152.156Z" fill="#3C008A"/>
<path d="M163.589 185.04C163.589 177.248 169.906 170.931 177.698 170.931C185.491 170.931 191.808 177.248 191.808 185.04V207.872C191.808 215.665 185.491 221.982 177.698 221.982C169.906 221.982 163.589 215.665 163.589 207.872V185.04Z" fill="#1C1C1C"/>
<path d="M164.36 176.431C164.36 172.31 167.711 168.959 171.832 168.959C175.953 168.959 179.304 172.31 179.304 176.431C179.304 180.551 175.953 183.902 171.832 183.902C167.711 183.902 164.36 180.551 164.36 176.431Z" fill="white"/>
<path fill-rule="evenodd" clip-rule="evenodd" d="M83.2706 125.802C84.91 128.664 88.5459 129.699 91.4524 128.109C94.3949 126.5 95.4757 122.81 93.8664 119.868L88.5386 122.781C93.8664 119.868 93.8648 119.865 93.8632 119.862L93.8598 119.856L93.8528 119.843L93.8376 119.815L93.802 119.752C93.776 119.707 93.7455 119.654 93.7102 119.595C93.6397 119.477 93.5503 119.332 93.4411 119.164C93.2231 118.829 92.9239 118.4 92.5367 117.909C91.765 116.932 90.6236 115.686 89.0534 114.456C85.8487 111.945 81.0001 109.622 74.3259 109.649M83.2706 125.802C83.2683 125.799 83.2654 125.794 83.262 125.789C83.2273 125.736 83.1425 125.61 83.0045 125.435C82.7258 125.082 82.252 124.556 81.5628 124.016C80.2492 122.986 78.0035 121.779 74.3729 121.794L74.3699 121.794C69.8198 121.811 67.6826 123.139 66.7758 123.906C66.273 124.331 65.9939 124.715 65.8654 124.919C65.8317 124.972 65.8086 125.013 65.795 125.038C64.5945 128.044 61.2255 129.594 58.1435 128.51C54.9794 127.398 53.3161 123.932 54.4283 120.768L60.1572 122.781C54.4283 120.768 54.4298 120.764 54.4312 120.759L54.4343 120.751L54.4406 120.733L54.4542 120.696L54.4852 120.612C54.5076 120.553 54.5336 120.486 54.5635 120.413C54.6232 120.266 54.6985 120.092 54.7917 119.894C54.9777 119.499 55.2365 119.006 55.5863 118.45C56.2867 117.337 57.357 115.964 58.9364 114.629C62.1935 111.877 67.1506 109.676 74.3228 109.649" fill="#3C008A"/>
<path fill-rule="evenodd" clip-rule="evenodd" d="M118.053 268.562C116.413 265.701 112.777 264.666 109.871 266.255C106.928 267.865 105.848 271.555 107.457 274.497L112.785 271.583C107.457 274.497 107.458 274.5 107.46 274.503L107.463 274.509L107.47 274.522L107.486 274.549L107.521 274.612C107.547 274.658 107.578 274.71 107.613 274.77C107.684 274.888 107.773 275.033 107.882 275.201C108.1 275.536 108.399 275.965 108.787 276.455C109.558 277.433 110.7 278.679 112.27 279.909C115.475 282.42 120.323 284.743 126.997 284.716M118.053 268.562C118.055 268.566 118.058 268.571 118.061 268.576C118.096 268.629 118.181 268.755 118.319 268.929C118.597 269.282 119.071 269.809 119.76 270.349C121.074 271.378 123.32 272.586 126.95 272.571L126.953 272.571C131.503 272.554 133.641 271.225 134.547 270.459C135.05 270.034 135.329 269.65 135.458 269.446C135.492 269.392 135.515 269.352 135.528 269.326C136.729 266.321 140.098 264.771 143.18 265.854C146.344 266.966 148.007 270.433 146.895 273.597L141.166 271.583C146.895 273.597 146.893 273.601 146.892 273.605L146.889 273.614L146.883 273.632L146.869 273.669L146.838 273.753C146.816 273.812 146.79 273.878 146.76 273.952C146.7 274.099 146.625 274.273 146.532 274.471C146.346 274.866 146.087 275.359 145.737 275.915C145.037 277.028 143.966 278.401 142.387 279.735C139.13 282.488 134.173 284.689 127 284.716" fill="#3C008A"/>
</svg>
