<svg width="310" height="292" viewBox="0 0 310 292" fill="none" xmlns="http://www.w3.org/2000/svg">
<path d="M212.218 286.342V378.799C212.218 421.15 177.834 455.603 135.568 455.603C121.536 455.603 110.165 444.209 110.165 430.148C110.165 416.087 121.536 404.694 135.568 404.694C149.82 404.694 161.411 393.08 161.411 378.799V286.342" fill="#7000FF"/>
<path fill-rule="evenodd" clip-rule="evenodd" d="M212.215 280.794C209.158 280.794 206.68 283.278 206.68 286.341V378.798C206.68 418.086 174.774 450.055 135.565 450.055C124.59 450.055 115.697 441.145 115.697 430.147C115.697 419.149 124.59 410.239 135.565 410.239C152.875 410.239 166.943 396.142 166.943 378.798V286.341C166.943 283.278 164.465 280.794 161.408 280.794C158.351 280.794 155.873 283.278 155.873 286.341V378.798C155.873 390.016 146.761 399.146 135.565 399.146C118.476 399.146 104.627 413.023 104.627 430.147C104.627 447.271 118.476 461.148 135.565 461.148C180.888 461.148 217.75 424.212 217.75 378.798V286.341C217.75 283.278 215.272 280.794 212.215 280.794Z" fill="#3C008A"/>
<path d="M143.149 0.000244141C207.299 0.000244141 259.376 52.5666 259.376 117.319V321.673H26.9082L26.9082 117.333C26.9082 52.5798 78.9985 0.000244141 143.149 0.000244141Z" fill="#7000FF"/>
<path fill-rule="evenodd" clip-rule="evenodd" d="M248.306 117.319C248.306 58.6157 201.109 11.0924 143.149 11.0924C85.1887 11.0924 37.9781 58.6289 37.9781 117.333V310.581H248.306V117.319ZM259.376 117.319C259.376 52.5666 207.299 0.000244141 143.149 0.000244141C78.9985 0.000244141 26.9082 52.5798 26.9082 117.333V321.673H259.376V117.319Z" fill="#3C008A"/>
<path d="M249.926 236.308C232.389 236.308 218.111 222.016 218.111 204.443V173.457C218.111 155.885 232.375 141.578 249.926 141.578C267.478 141.578 281.727 155.871 281.727 173.457V204.443C281.727 222.016 267.463 236.308 249.926 236.308Z" fill="white"/>
<path fill-rule="evenodd" clip-rule="evenodd" d="M249.927 243.706C228.319 243.706 210.732 226.107 210.732 204.446V173.46C210.732 151.806 228.298 134.187 249.927 134.187C271.559 134.187 289.108 151.794 289.108 173.46V204.446C289.108 226.103 271.54 243.706 249.927 243.706ZM218.112 204.446C218.112 222.019 232.39 236.311 249.927 236.311C267.464 236.311 281.728 222.019 281.728 204.446V173.46C281.728 155.873 267.479 141.581 249.927 141.581C232.376 141.581 218.112 155.888 218.112 173.46V204.446Z" fill="#3C008A"/>
<path d="M249.93 144.509C265.859 144.509 278.807 157.497 278.807 173.444V204.43C278.807 220.392 265.845 233.366 249.915 233.366C233.986 233.366 221.023 220.377 221.023 204.43V173.444C221.023 157.483 233.986 144.509 249.915 144.509M249.915 138.651C230.741 138.651 215.177 154.232 215.177 173.444V204.43C215.177 223.657 230.727 239.223 249.915 239.223C269.089 239.223 284.639 223.643 284.639 204.43V173.444C284.639 154.217 269.089 138.651 249.915 138.651Z" fill="#3C008A"/>
<path d="M267.611 169.583C267.611 162.466 261.853 156.696 254.75 156.696C247.647 156.696 241.89 162.466 241.89 169.583V190.435C241.89 197.552 247.647 203.322 254.75 203.322C261.853 203.322 267.611 197.552 267.611 190.435V169.583Z" fill="#1C1C1C"/>
<path d="M266.91 161.717C266.91 157.954 263.856 154.894 260.1 154.894C256.344 154.894 253.29 157.954 253.29 161.717C253.29 165.481 256.344 168.541 260.1 168.541C263.856 168.541 266.91 165.481 266.91 161.717Z" fill="white"/>
<path d="M153.931 236.308C136.394 236.308 122.116 222.016 122.116 204.443V173.457C122.116 155.885 136.38 141.578 153.931 141.578C171.483 141.578 185.732 155.871 185.732 173.457V204.443C185.732 222.016 171.468 236.308 153.931 236.308Z" fill="white"/>
<path fill-rule="evenodd" clip-rule="evenodd" d="M153.937 243.706C132.328 243.706 114.742 226.107 114.742 204.446V173.46C114.742 151.806 132.307 134.187 153.937 134.187C175.569 134.187 193.117 151.794 193.117 173.46V204.446C193.117 226.103 175.55 243.706 153.937 243.706ZM122.122 204.446C122.122 222.019 136.4 236.311 153.937 236.311C171.474 236.311 185.737 222.019 185.737 204.446V173.46C185.737 155.873 171.488 141.581 153.937 141.581C136.385 141.581 122.122 155.888 122.122 173.46V204.446Z" fill="#3C008A"/>
<path d="M153.933 144.509C169.862 144.509 182.81 157.497 182.81 173.444V204.43C182.81 220.392 169.848 233.366 153.918 233.366C137.989 233.366 125.026 220.377 125.026 204.43V173.444C125.026 157.483 137.989 144.509 153.918 144.509M153.918 138.651C134.744 138.651 119.18 154.232 119.18 173.444V204.43C119.18 223.657 134.73 239.223 153.918 239.223C173.092 239.223 188.641 223.643 188.641 204.43V173.444C188.641 154.217 173.092 138.651 153.918 138.651Z" fill="#3C008A"/>
<path d="M171.624 169.582C171.624 162.465 165.866 156.696 158.763 156.696C151.661 156.696 145.903 162.465 145.903 169.582V190.435C145.903 197.552 151.661 203.321 158.763 203.321C165.866 203.321 171.624 197.552 171.624 190.435V169.582Z" fill="#1C1C1C"/>
<path d="M170.924 161.717C170.924 157.954 167.869 154.893 164.113 154.893C160.358 154.893 157.303 157.954 157.303 161.717C157.303 165.481 160.358 168.541 164.113 168.541C167.869 168.541 170.924 165.481 170.924 161.717Z" fill="white"/>
<path d="M84.0763 99.8608C90.146 99.8608 95.0665 94.9303 95.0665 88.8483C95.0665 82.7664 90.146 77.8359 84.0763 77.8359C78.0065 77.8359 73.0859 82.7664 73.0859 88.8483C73.0859 94.9303 78.0065 99.8608 84.0763 99.8608Z" fill="#FEE702"/>
<path d="M111.818 90.1762C116.364 90.1762 120.05 86.4833 120.05 81.9279C120.05 77.3726 116.364 73.6797 111.818 73.6797C107.272 73.6797 103.586 77.3726 103.586 81.9279C103.586 86.4833 107.272 90.1762 111.818 90.1762Z" fill="#FEE702"/>
<path d="M96.9648 67.0916C100.17 67.0916 102.769 64.4877 102.769 61.2757C102.769 58.0638 100.17 55.46 96.9648 55.46C93.7592 55.46 91.1606 58.0638 91.1606 61.2757C91.1606 64.4877 93.7592 67.0916 96.9648 67.0916Z" fill="#FEE702"/>
<path fill-rule="evenodd" clip-rule="evenodd" d="M240.01 119.369C238.516 121.982 235.202 122.928 232.552 121.476C229.871 120.006 228.885 116.636 230.352 113.949L235.208 116.61C230.352 113.949 230.354 113.946 230.355 113.943L230.358 113.938L230.365 113.926L230.378 113.901L230.411 113.844C230.435 113.802 230.462 113.754 230.495 113.7C230.559 113.592 230.64 113.459 230.74 113.306C230.939 113 231.211 112.608 231.564 112.16C232.268 111.268 233.308 110.13 234.739 109.006C237.66 106.713 242.079 104.592 248.163 104.616M240.01 119.369C240.012 119.366 240.015 119.361 240.018 119.357C240.049 119.308 240.127 119.193 240.252 119.034C240.507 118.711 240.938 118.23 241.567 117.737C242.764 116.797 244.811 115.695 248.12 115.708L248.123 115.708C252.27 115.723 254.218 116.937 255.044 117.637C255.503 118.025 255.757 118.376 255.874 118.562C255.905 118.611 255.926 118.648 255.938 118.671C257.033 121.416 260.103 122.832 262.912 121.842C265.796 120.827 267.312 117.661 266.299 114.771L261.077 116.61C266.299 114.771 266.297 114.767 266.296 114.763L266.293 114.755L266.287 114.739L266.275 114.705L266.247 114.629C266.226 114.575 266.203 114.514 266.175 114.447C266.121 114.313 266.052 114.154 265.967 113.973C265.798 113.612 265.562 113.162 265.243 112.654C264.605 111.638 263.629 110.384 262.19 109.165C259.221 106.651 254.703 104.641 248.166 104.616" fill="#3C008A"/>
<path fill-rule="evenodd" clip-rule="evenodd" d="M145.91 110.598C144.416 113.212 141.102 114.157 138.453 112.705C135.771 111.235 134.786 107.865 136.253 105.178L141.109 107.839C136.253 105.178 136.254 105.175 136.256 105.173L136.259 105.167L136.265 105.156L136.279 105.13L136.311 105.073C136.335 105.031 136.363 104.983 136.395 104.929C136.459 104.821 136.541 104.689 136.64 104.535C136.839 104.229 137.112 103.837 137.465 103.39C138.168 102.497 139.208 101.359 140.639 100.235C143.56 97.9419 147.98 95.8209 154.063 95.8454M145.91 110.598C145.912 110.595 145.915 110.591 145.918 110.586C145.95 110.537 146.027 110.423 146.153 110.263C146.407 109.941 146.839 109.46 147.467 108.966C148.664 108.026 150.711 106.924 154.02 106.938L154.023 106.938C158.17 106.953 160.118 108.166 160.945 108.866C161.403 109.254 161.657 109.605 161.775 109.791C161.805 109.84 161.826 109.877 161.839 109.9C162.933 112.645 166.004 114.061 168.813 113.072C171.697 112.056 173.213 108.89 172.199 106L166.977 107.839C172.199 106 172.198 105.996 172.196 105.992L172.194 105.985L172.188 105.968L172.176 105.934L172.147 105.858C172.127 105.804 172.103 105.743 172.076 105.676C172.021 105.542 171.953 105.383 171.868 105.202C171.698 104.841 171.462 104.391 171.144 103.883C170.505 102.867 169.53 101.613 168.09 100.394C165.121 97.88 160.603 95.8698 154.066 95.8454" fill="#3C008A"/>
<path fill-rule="evenodd" clip-rule="evenodd" d="M210.434 250.79C211.928 248.176 215.242 247.231 217.891 248.683C220.573 250.152 221.558 253.522 220.092 256.21L215.235 253.549C220.092 256.21 220.09 256.213 220.089 256.215L220.086 256.221L220.079 256.232L220.065 256.257L220.033 256.315C220.009 256.357 219.981 256.405 219.949 256.459C219.885 256.567 219.804 256.699 219.704 256.853C219.505 257.159 219.233 257.55 218.88 257.998C218.176 258.891 217.136 260.029 215.705 261.153C212.784 263.446 208.364 265.567 202.281 265.543M210.434 250.79C210.432 250.793 210.429 250.797 210.426 250.802C210.394 250.851 210.317 250.965 210.191 251.125C209.937 251.447 209.506 251.928 208.877 252.422C207.68 253.362 205.633 254.464 202.324 254.45L202.321 254.45C198.174 254.435 196.226 253.222 195.399 252.522C194.941 252.134 194.687 251.783 194.57 251.597C194.539 251.548 194.518 251.511 194.506 251.488C193.411 248.743 190.341 247.327 187.531 248.316C184.648 249.332 183.131 252.498 184.145 255.388L189.367 253.549C184.145 255.388 184.146 255.392 184.148 255.396L184.151 255.403L184.156 255.42L184.169 255.454L184.197 255.53C184.217 255.584 184.241 255.645 184.268 255.712C184.323 255.846 184.391 256.005 184.476 256.186C184.646 256.547 184.882 256.997 185.201 257.505C185.839 258.521 186.815 259.775 188.254 260.994C191.223 263.508 195.741 265.518 202.278 265.543" fill="#3C008A"/>
<path d="M202.303 290.78V383.237C202.303 425.588 236.687 460.041 278.952 460.041C292.985 460.041 304.356 448.647 304.356 434.587C304.356 420.526 292.985 409.132 278.952 409.132C264.7 409.132 253.11 397.518 253.11 383.237V290.78" fill="#7000FF"/>
<path fill-rule="evenodd" clip-rule="evenodd" d="M202.302 285.233C205.358 285.233 207.837 287.716 207.837 290.779V383.237C207.837 422.525 239.742 454.494 278.951 454.494C289.927 454.494 298.82 445.584 298.82 434.586C298.82 423.588 289.927 414.678 278.951 414.678C261.642 414.678 247.573 400.581 247.573 383.237V290.779C247.573 287.716 250.052 285.233 253.108 285.233C256.165 285.233 258.643 287.716 258.643 290.779V383.237C258.643 394.455 267.756 403.585 278.951 403.585C296.041 403.585 309.89 417.462 309.89 434.586C309.89 451.71 296.041 465.587 278.951 465.587C233.628 465.587 196.767 428.651 196.767 383.237V290.779C196.767 287.716 199.245 285.233 202.302 285.233Z" fill="#3C008A"/>
<path d="M159.442 283.712L159.442 376.169C159.442 418.52 193.826 452.973 236.092 452.973C250.125 452.973 261.495 441.579 261.495 427.518C261.495 413.457 250.125 402.064 236.092 402.064C221.84 402.064 210.249 390.45 210.249 376.169L210.249 283.712" fill="#7000FF"/>
<path fill-rule="evenodd" clip-rule="evenodd" d="M159.448 278.162C162.504 278.162 164.983 280.645 164.983 283.708L164.983 376.166C164.983 415.453 196.888 447.423 236.097 447.423C247.073 447.423 255.966 438.513 255.966 427.515C255.966 416.517 247.073 407.607 236.097 407.607C218.788 407.607 204.719 393.51 204.719 376.166L204.719 283.708C204.719 280.645 207.198 278.162 210.254 278.162C213.311 278.162 215.789 280.645 215.789 283.708L215.789 376.166C215.789 387.384 224.902 396.514 236.097 396.514C253.187 396.514 267.036 410.391 267.036 427.515C267.036 444.639 253.187 458.516 236.097 458.516C190.774 458.516 153.913 421.58 153.913 376.166L153.913 283.708C153.913 280.645 156.391 278.162 159.448 278.162Z" fill="#3C008A"/>
<path d="M84.6162 288.398V382.447C84.6162 425.523 49.6381 460.572 6.63573 460.572C-7.6424 460.572 -19.207 448.984 -19.207 434.677C-19.207 420.37 -7.6424 408.782 6.63573 408.782C21.1335 408.782 32.9307 396.961 32.9307 382.447V288.398" fill="#7000FF"/>
<path fill-rule="evenodd" clip-rule="evenodd" d="M33.431 284.572C36.4137 284.572 38.8316 287.007 38.8316 290.011V382.245C38.8316 399.485 24.901 413.511 7.77403 413.511C-3.17493 413.511 -12.041 422.44 -12.041 433.467C-12.041 444.494 -3.17493 453.423 7.77403 453.423C46.7508 453.423 78.4617 421.485 78.4617 382.245V290.011H89.263V382.245C89.263 427.494 52.715 464.301 7.77403 464.301C-9.14032 464.301 -22.8423 450.502 -22.8423 433.467C-22.8423 416.432 -9.14032 402.633 7.77403 402.633C18.9391 402.633 28.0303 393.474 28.0303 382.245V290.011C28.0303 287.007 30.4483 284.572 33.431 284.572Z" fill="#3C008A"/>
<path d="M105.748 286.342V380.391C105.748 423.467 70.7704 458.516 27.768 458.516C13.4899 458.516 1.92529 446.928 1.92529 432.621C1.92529 418.314 13.4899 406.726 27.768 406.726C42.2658 406.726 54.063 394.905 54.063 380.391V286.342" fill="#7000FF"/>
<path fill-rule="evenodd" clip-rule="evenodd" d="M54.0579 280.794C57.1148 280.794 59.5929 283.278 59.5929 286.341V380.39C59.5929 397.969 45.3159 412.271 27.763 412.271C16.5417 412.271 7.45516 421.376 7.45516 432.62C7.45516 443.864 16.5417 452.969 27.763 452.969C67.709 452.969 100.209 420.403 100.209 380.39V286.341C100.209 283.278 102.687 280.794 105.743 280.794C108.8 280.794 111.278 283.278 111.278 286.341V380.39C111.278 426.53 73.8216 464.061 27.763 464.061C10.428 464.061 -3.61475 449.99 -3.61475 432.62C-3.61475 415.25 10.428 401.179 27.763 401.179C39.2056 401.179 48.523 391.839 48.523 380.39V286.341C48.523 283.278 51.0011 280.794 54.0579 280.794Z" fill="#3C008A"/>
<path d="M159.847 286.342V378.799C159.847 421.15 125.463 455.603 83.1976 455.603C69.165 455.603 57.7942 444.209 57.7942 430.148C57.7942 416.087 69.165 404.694 83.1976 404.694C97.4498 404.694 109.04 393.08 109.04 378.799V286.342" fill="#7000FF"/>
<path fill-rule="evenodd" clip-rule="evenodd" d="M159.844 280.794C156.788 280.794 154.309 283.278 154.309 286.341V378.798C154.309 418.086 122.404 450.055 83.1948 450.055C72.2191 450.055 63.3263 441.145 63.3263 430.147C63.3263 419.149 72.2191 410.239 83.1948 410.239C100.504 410.239 114.573 396.142 114.573 378.798V286.341C114.573 283.278 112.094 280.794 109.038 280.794C105.981 280.794 103.503 283.278 103.503 286.341V378.798C103.503 390.016 94.3902 399.146 83.1948 399.146C66.1053 399.146 52.2564 413.023 52.2564 430.147C52.2564 447.271 66.1053 461.148 83.1948 461.148C128.518 461.148 165.379 424.212 165.379 378.798V286.341C165.379 283.278 162.901 280.794 159.844 280.794Z" fill="#3C008A"/>
<path d="M41.2468 223.809C43.6338 224.148 45.8328 222.492 46.1698 220.102C47.3637 211.636 55.2243 205.716 63.6796 206.916L140.123 217.766C142.51 218.104 144.709 216.449 145.046 214.058C145.383 211.668 143.728 209.466 141.341 209.127L64.8979 198.278C51.6828 196.402 39.4078 205.645 37.5419 218.877C37.2049 221.267 38.8597 223.47 41.2468 223.809Z" fill="#3C008A"/>
<g opacity="0.43">
<path d="M170.078 252.502L170.064 252.5C151.185 249.815 138.037 232.32 140.696 213.424L140.698 213.41C143.357 194.513 160.817 181.372 179.696 184.056L179.71 184.058C198.588 186.743 211.737 204.238 209.078 223.134L209.076 223.149C206.416 242.045 188.957 255.187 170.078 252.502Z" fill="#FEE702"/>
</g>
<path d="M180.303 179.737C201.538 182.757 216.382 202.508 213.393 223.748C210.404 244.988 190.69 259.84 169.455 256.82C148.221 253.8 133.376 234.048 136.367 212.794C139.358 191.54 159.083 176.719 180.303 179.737ZM170.671 248.18C187.144 250.523 202.441 239.009 204.761 222.521C207.081 206.033 195.56 190.719 179.087 188.377C162.615 186.034 147.32 197.534 144.999 214.022C142.679 230.51 154.199 245.837 170.671 248.18Z" fill="#3C008A"/>
<g opacity="0.43">
<path d="M259.754 252.502L259.74 252.5C240.862 249.815 227.713 232.32 230.373 213.424L230.375 213.409C233.034 194.513 250.493 181.371 269.372 184.056L269.386 184.058C288.265 186.743 301.413 204.238 298.754 223.134L298.752 223.148C296.093 242.045 278.633 255.186 259.754 252.502Z" fill="#FDC500"/>
</g>
<path d="M230.392 213.395C233.046 194.539 250.538 181.375 269.394 184.056C288.25 186.737 301.409 204.26 298.755 223.116C301.409 204.26 288.236 186.735 269.38 184.054C250.524 181.373 233.032 194.537 230.378 213.393L230.392 213.395Z" fill="#7000FF"/>
<path d="M269.98 179.736C291.214 182.756 306.059 202.508 303.07 223.748C300.081 244.988 280.367 259.84 259.132 256.82C237.898 253.8 223.053 234.048 226.044 212.794C229.035 191.539 248.76 176.719 269.98 179.736ZM260.348 248.18C276.821 250.523 292.118 239.009 294.438 222.521C296.758 206.032 285.237 190.719 268.764 188.376C252.291 186.034 236.996 197.533 234.676 214.021C232.356 230.509 243.875 245.837 260.348 248.18Z" fill="#3C008A"/>
<g opacity="0.7">
<path d="M280.785 213.367C281.893 213.525 283.059 213.265 284.013 212.534C285.933 211.088 286.318 208.352 284.872 206.428L281.745 202.267C280.299 200.343 277.566 199.954 275.645 201.4C273.725 202.845 273.34 205.581 274.786 207.505L277.913 211.666C278.642 212.637 279.677 213.21 280.785 213.367Z" fill="white"/>
</g>
<g opacity="0.7">
<path d="M191.107 213.368C192.215 213.526 193.382 213.266 194.336 212.534C196.256 211.089 196.641 208.352 195.196 206.428L192.069 202.267C190.624 200.343 187.891 199.955 185.97 201.4C184.05 202.846 183.664 205.583 185.11 207.507L188.236 211.668C188.965 212.638 190 213.211 191.107 213.368Z" fill="white"/>
</g>
</svg>
