<svg width="287" height="304" viewBox="0 0 287 304" fill="none" xmlns="http://www.w3.org/2000/svg">
<path d="M104.68 0.896683C175.061 0.896683 232.197 58.4533 232.197 129.353V353.107H-22.8516L-22.8516 129.368C-22.8516 58.4677 34.2985 0.896683 104.68 0.896683Z" fill="#7000FF"/>
<circle cx="170.752" cy="277.443" r="13.9699" fill="#3C008A"/>
<path fill-rule="evenodd" clip-rule="evenodd" d="M220.052 129.353C220.052 65.0767 168.27 13.0419 104.68 13.0419C41.09 13.0419 -10.7064 65.0911 -10.7064 129.368V340.962H220.052V129.353ZM232.197 129.353C232.197 58.4533 175.061 0.896683 104.68 0.896683C34.2985 0.896683 -22.8516 58.4677 -22.8516 129.368V353.107H232.197V129.353Z" fill="#3C008A"/>
<path d="M221.832 259.64C202.591 259.64 186.927 243.991 186.927 224.751V190.823C186.927 171.583 202.575 155.918 221.832 155.918C241.088 155.918 256.721 171.567 256.721 190.823V224.751C256.721 243.991 241.072 259.64 221.832 259.64Z" fill="white"/>
<path fill-rule="evenodd" clip-rule="evenodd" d="M221.833 267.737C198.125 267.737 178.83 248.468 178.83 224.751V190.824C178.83 167.114 198.102 147.821 221.833 147.821C245.566 147.821 264.819 167.1 264.819 190.824V224.751C264.819 248.463 245.545 267.737 221.833 267.737ZM186.927 224.751C186.927 243.992 202.592 259.641 221.833 259.641C241.073 259.641 256.722 243.992 256.722 224.751V190.824C256.722 171.567 241.089 155.918 221.833 155.918C202.576 155.918 186.927 171.583 186.927 190.824V224.751Z" fill="#3C008A"/>
<path d="M221.837 159.125C239.314 159.125 253.52 173.347 253.52 190.808V224.735C253.52 242.212 239.298 256.418 221.821 256.418C204.344 256.418 190.122 242.196 190.122 224.735V190.808C190.122 173.331 204.344 159.125 221.821 159.125M221.821 152.712C200.785 152.712 183.709 169.772 183.709 190.808V224.735C183.709 245.788 200.769 262.831 221.821 262.831C242.857 262.831 259.917 245.772 259.917 224.735V190.808C259.917 169.756 242.857 152.712 221.821 152.712Z" fill="#3C008A"/>
<path d="M235.944 185.596C235.944 177.803 229.627 171.486 221.835 171.486C214.042 171.486 207.725 177.803 207.725 185.596V208.428C207.725 216.221 214.042 222.538 221.835 222.538C229.627 222.538 235.944 216.221 235.944 208.428V185.596Z" fill="#1C1C1C"/>
<path d="M235.177 176.986C235.177 172.866 231.826 169.515 227.705 169.515C223.584 169.515 220.233 172.866 220.233 176.986C220.233 181.107 223.584 184.458 227.705 184.458C231.826 184.458 235.177 181.107 235.177 176.986Z" fill="white"/>
<path d="M116.509 259.64C97.269 259.64 81.604 243.991 81.604 224.751V190.823C81.604 171.583 97.2529 155.918 116.509 155.918C135.766 155.918 151.399 171.567 151.399 190.823V224.751C151.399 243.991 135.75 259.64 116.509 259.64Z" fill="white"/>
<path fill-rule="evenodd" clip-rule="evenodd" d="M116.518 267.737C92.8102 267.737 73.5154 248.468 73.5154 224.751V190.824C73.5154 167.114 92.7869 147.821 116.518 147.821C140.251 147.821 159.504 167.1 159.504 190.824V224.751C159.504 248.463 140.23 267.737 116.518 267.737ZM81.6122 224.751C81.6122 243.992 97.2771 259.641 116.518 259.641C135.758 259.641 151.407 243.992 151.407 224.751V190.824C151.407 171.567 135.774 155.918 116.518 155.918C97.2611 155.918 81.6122 171.583 81.6122 190.824V224.751Z" fill="#3C008A"/>
<path d="M116.514 159.125C133.991 159.125 148.197 173.347 148.197 190.808V224.735C148.197 242.212 133.975 256.418 116.498 256.418C99.0214 256.418 84.7995 242.196 84.7995 224.735V190.808C84.7995 173.331 99.0214 159.125 116.498 159.125M116.498 152.712C95.4619 152.712 78.386 169.772 78.386 190.808V224.735C78.386 245.788 95.4459 262.831 116.498 262.831C137.534 262.831 154.594 245.772 154.594 224.735V190.808C154.594 169.756 137.534 152.712 116.498 152.712Z" fill="#3C008A"/>
<path d="M130.63 185.596C130.63 177.803 124.312 171.486 116.52 171.486C108.727 171.486 102.41 177.803 102.41 185.596V208.428C102.41 216.221 108.727 222.538 116.52 222.538C124.312 222.538 130.63 216.221 130.63 208.428V185.596Z" fill="#1C1C1C"/>
<path d="M129.858 176.986C129.858 172.866 126.507 169.515 122.386 169.515C118.266 169.515 114.915 172.866 114.915 176.986C114.915 181.107 118.266 184.458 122.386 184.458C126.507 184.458 129.858 181.107 129.858 176.986Z" fill="white"/>
<path d="M39.8701 110.241C46.5295 110.241 51.9279 104.842 51.9279 98.183C51.9279 91.5236 46.5295 86.1252 39.8701 86.1252C33.2108 86.1252 27.8123 91.5236 27.8123 98.183C27.8123 104.842 33.2108 110.241 39.8701 110.241Z" fill="#FEE702"/>
<path d="M70.305 99.6361C75.2928 99.6361 79.3362 95.5927 79.3362 90.6049C79.3362 85.617 75.2928 81.5736 70.305 81.5736C65.3171 81.5736 61.2737 85.617 61.2737 90.6049C61.2737 95.5927 65.3171 99.6361 70.305 99.6361Z" fill="#FEE702"/>
<path d="M54.0115 74.3575C57.5284 74.3575 60.3794 71.5065 60.3794 67.9896C60.3794 64.4727 57.5284 61.6217 54.0115 61.6217C50.4946 61.6217 47.6436 64.4727 47.6436 67.9896C47.6436 71.5065 50.4946 74.3575 54.0115 74.3575Z" fill="#FEE702"/>
<path fill-rule="evenodd" clip-rule="evenodd" d="M216.037 126.358C214.398 129.219 210.762 130.255 207.855 128.665C204.913 127.056 203.832 123.366 205.441 120.423L210.769 123.337C205.441 120.423 205.443 120.42 205.444 120.417L205.448 120.411L205.455 120.399L205.47 120.371L205.506 120.308C205.532 120.263 205.562 120.21 205.597 120.151C205.668 120.032 205.757 119.887 205.867 119.72C206.085 119.384 206.384 118.955 206.771 118.465C207.543 117.488 208.684 116.241 210.254 115.011C213.459 112.5 218.308 110.178 224.982 110.205M216.037 126.358C216.039 126.354 216.042 126.35 216.046 126.344C216.08 126.291 216.165 126.166 216.303 125.991C216.582 125.638 217.056 125.111 217.745 124.571C219.058 123.542 221.304 122.335 224.935 122.35L224.938 122.35C229.488 122.366 231.625 123.695 232.532 124.461C233.035 124.886 233.314 125.27 233.442 125.474C233.476 125.528 233.499 125.569 233.513 125.594C234.713 128.599 238.082 130.149 241.164 129.066C244.328 127.954 245.992 124.487 244.879 121.323L239.15 123.337C244.879 121.323 244.878 121.319 244.876 121.315L244.873 121.306L244.867 121.289L244.853 121.251L244.822 121.168C244.8 121.108 244.774 121.042 244.744 120.969C244.684 120.822 244.609 120.647 244.516 120.45C244.33 120.054 244.071 119.561 243.721 119.006C243.021 117.893 241.951 116.52 240.371 115.185C237.114 112.432 232.157 110.231 224.985 110.205" fill="#3C008A"/>
<path fill-rule="evenodd" clip-rule="evenodd" d="M107.713 98.084C106.073 100.946 102.437 101.981 99.5307 100.391C96.5883 98.7818 95.5075 95.0919 97.1167 92.1494L102.445 95.0632C97.1167 92.1494 97.1184 92.1464 97.12 92.1435L97.1233 92.1374L97.1303 92.1247L97.1456 92.0972L97.1811 92.0342C97.2071 91.9887 97.2377 91.936 97.273 91.8768C97.3434 91.7585 97.4328 91.6134 97.542 91.4456C97.7601 91.1106 98.0592 90.6815 98.4464 90.1911C99.2181 89.2137 100.36 87.9675 101.93 86.7373C105.134 84.2263 109.983 81.9039 116.657 81.9308M107.713 98.084C107.715 98.0803 107.718 98.0758 107.721 98.0706C107.756 98.0174 107.841 97.8919 107.979 97.7172C108.257 97.3642 108.731 96.8374 109.42 96.2974C110.734 95.2682 112.98 94.0609 116.61 94.0759L116.613 94.0759C121.163 94.0924 123.301 95.421 124.207 96.1873C124.71 96.6123 124.989 96.9963 125.118 97.2005C125.151 97.2541 125.175 97.2949 125.188 97.32C126.389 100.325 129.758 101.876 132.84 100.792C136.004 99.68 137.667 96.2135 136.555 93.0494L130.826 95.0632C136.555 93.0494 136.553 93.0452 136.552 93.041L136.549 93.0325L136.543 93.0148L136.529 92.9773L136.498 92.8938C136.476 92.8346 136.45 92.768 136.42 92.6946C136.36 92.548 136.285 92.3736 136.191 92.1757C136.005 91.7804 135.747 91.2875 135.397 90.7317C134.696 89.6188 133.626 88.2458 132.047 86.9111C128.79 84.1585 123.833 81.9574 116.66 81.9308" fill="#3C008A"/>
</svg>
