<svg width="390" height="464" viewBox="0 0 390 464" fill="none" xmlns="http://www.w3.org/2000/svg">
<mask id="mask0_2093_29363" style="mask-type:alpha" maskUnits="userSpaceOnUse" x="0" y="0" width="390" height="464">
<rect y="0.0244141" width="390" height="463.477" fill="#7000FF"/>
</mask>
<g mask="url(#mask0_2093_29363)">
<path d="M-60.7374 77.4125C-65.6941 75.2263 -71.1488 79.2574 -70.514 84.6375L-59.676 176.488C-59.275 179.886 -61.3892 183.076 -64.6748 184.03L-153.49 209.833C-158.692 211.345 -160.28 217.939 -156.335 221.652L-88.9925 285.047C-86.5012 287.392 -86.0703 291.195 -87.9737 294.038L-139.424 370.894C-142.438 375.396 -139.415 381.468 -134.006 381.777L-41.6695 387.053C-38.2536 387.248 -35.4794 389.884 -35.1098 393.285L-25.1211 485.232C-24.536 490.618 -18.3177 493.326 -13.9758 490.086L60.1499 434.775C62.8921 432.729 66.7117 432.965 69.1812 435.333L135.935 499.348C139.845 503.097 146.35 501.175 147.593 495.902L168.823 405.884C169.609 402.554 172.686 400.28 176.1 400.506L268.385 406.636C273.79 406.995 277.537 401.341 275.1 396.503L233.501 313.899C231.962 310.843 232.858 307.122 235.619 305.101L310.253 250.478C314.624 247.278 313.861 240.539 308.884 238.398L223.92 201.859C220.777 200.507 219.072 197.082 219.888 193.759L241.949 103.941C243.241 98.6801 238.324 94.0082 233.136 95.5677L144.563 122.191C141.287 123.176 137.778 121.647 136.268 118.577L95.4337 35.5923C93.0419 30.7315 86.2722 30.3133 83.3003 34.8427L32.5624 112.171C30.6854 115.031 27.0155 116.116 23.885 114.735L-60.7374 77.4125Z" fill="#FEE702"/>
<path d="M64.1287 161.059C134.51 161.059 191.646 218.616 191.646 289.516V513.27H-63.4028L-63.4028 289.53C-63.4028 218.63 -6.25278 161.059 64.1287 161.059Z" fill="#7000FF"/>
<path fill-rule="evenodd" clip-rule="evenodd" d="M179.501 289.516C179.501 225.239 127.719 173.205 64.1287 173.205C0.538689 173.205 -51.2577 225.254 -51.2577 289.53V501.124H179.501V289.516ZM191.646 289.516C191.646 218.616 134.51 161.059 64.1287 161.059C-6.25278 161.059 -63.4028 218.63 -63.4028 289.53V513.27H191.646V289.516Z" fill="#3C008A"/>
<path d="M181.281 419.803C162.04 419.803 146.375 404.154 146.375 384.913V350.986C146.375 331.746 162.024 316.081 181.281 316.081C200.537 316.081 216.17 331.729 216.17 350.986V384.913C216.17 404.154 200.521 419.803 181.281 419.803Z" fill="white"/>
<path fill-rule="evenodd" clip-rule="evenodd" d="M181.281 427.9C157.574 427.9 138.279 408.631 138.279 384.914V350.986C138.279 327.277 157.551 307.984 181.281 307.984C205.014 307.984 224.268 327.263 224.268 350.986V384.914C224.268 408.626 204.994 427.9 181.281 427.9ZM146.376 384.914C146.376 404.154 162.041 419.803 181.281 419.803C200.522 419.803 216.171 404.154 216.171 384.914V350.986C216.171 331.73 200.538 316.081 181.281 316.081C162.025 316.081 146.376 331.746 146.376 350.986V384.914Z" fill="#3C008A"/>
<path d="M181.286 319.288C198.762 319.288 212.968 333.51 212.968 350.971V384.898C212.968 402.375 198.746 416.581 181.27 416.581C163.793 416.581 149.571 402.359 149.571 384.898V350.971C149.571 333.494 163.793 319.288 181.27 319.288M181.27 312.875C160.233 312.875 143.157 329.934 143.157 350.971V384.898C143.157 405.95 160.217 422.994 181.27 422.994C202.306 422.994 219.366 405.934 219.366 384.898V350.971C219.366 329.918 202.306 312.875 181.27 312.875Z" fill="#3C008A"/>
<path d="M195.393 345.759C195.393 337.966 189.076 331.649 181.283 331.649C173.491 331.649 167.174 337.966 167.174 345.759V368.591C167.174 376.383 173.491 382.7 181.283 382.7C189.076 382.7 195.393 376.383 195.393 368.591V345.759Z" fill="#1C1C1C"/>
<path d="M194.625 337.149C194.625 333.028 191.274 329.677 187.154 329.677C183.033 329.677 179.682 333.028 179.682 337.149C179.682 341.27 183.033 344.621 187.154 344.621C191.274 344.621 194.625 341.27 194.625 337.149Z" fill="white"/>
<path d="M75.9582 419.803C56.7177 419.803 41.0527 404.154 41.0527 384.913V350.986C41.0527 331.746 56.7017 316.081 75.9582 316.081C95.2147 316.081 110.848 331.729 110.848 350.986V384.913C110.848 404.154 95.1987 419.803 75.9582 419.803Z" fill="white"/>
<path fill-rule="evenodd" clip-rule="evenodd" d="M75.9664 427.9C52.259 427.9 32.9641 408.631 32.9641 384.914V350.986C32.9641 327.277 52.2357 307.984 75.9664 307.984C99.6995 307.984 118.953 327.263 118.953 350.986V384.914C118.953 408.626 99.6786 427.9 75.9664 427.9ZM41.0609 384.914C41.0609 404.154 56.7259 419.803 75.9664 419.803C95.2069 419.803 110.856 404.154 110.856 384.914V350.986C110.856 331.73 95.2229 316.081 75.9664 316.081C56.7098 316.081 41.0609 331.746 41.0609 350.986V384.914Z" fill="#3C008A"/>
<path d="M75.963 319.288C93.4397 319.288 107.646 333.51 107.646 350.971V384.898C107.646 402.375 93.4237 416.581 75.9469 416.581C58.4701 416.581 44.2482 402.359 44.2482 384.898V350.971C44.2482 333.494 58.4701 319.288 75.9469 319.288M75.9469 312.875C54.9106 312.875 37.8347 329.934 37.8347 350.971V384.898C37.8347 405.95 54.8946 422.994 75.9469 422.994C96.9832 422.994 114.043 405.934 114.043 384.898V350.971C114.043 329.918 96.9832 312.875 75.9469 312.875Z" fill="#3C008A"/>
<path d="M90.0782 345.759C90.0782 337.966 83.7611 331.649 75.9686 331.649C68.176 331.649 61.8589 337.966 61.8589 345.759V368.591C61.8589 376.383 68.176 382.7 75.9686 382.7C83.7611 382.7 90.0782 376.383 90.0782 368.591V345.759Z" fill="#1C1C1C"/>
<path d="M89.3067 337.149C89.3067 333.028 85.9557 329.677 81.835 329.677C77.7143 329.677 74.3633 333.028 74.3633 337.149C74.3633 341.27 77.7143 344.621 81.835 344.621C85.9557 344.621 89.3067 341.27 89.3067 337.149Z" fill="white"/>
<path d="M-0.681142 270.404C5.97822 270.404 11.3767 265.005 11.3767 258.346C11.3767 251.686 5.97822 246.288 -0.681142 246.288C-7.34051 246.288 -12.739 251.686 -12.739 258.346C-12.739 265.005 -7.34051 270.404 -0.681142 270.404Z" fill="#FEE702"/>
<path d="M29.7537 259.799C34.7416 259.799 38.7849 255.755 38.7849 250.768C38.7849 245.78 34.7416 241.736 29.7537 241.736C24.7659 241.736 20.7224 245.78 20.7224 250.768C20.7224 255.755 24.7659 259.799 29.7537 259.799Z" fill="#FEE702"/>
<path d="M13.4602 234.52C16.9771 234.52 19.8281 231.669 19.8281 228.152C19.8281 224.635 16.9771 221.784 13.4602 221.784C9.9433 221.784 7.09229 224.635 7.09229 228.152C7.09229 231.669 9.9433 234.52 13.4602 234.52Z" fill="#FEE702"/>
<path fill-rule="evenodd" clip-rule="evenodd" d="M170.396 286.521C168.757 289.382 165.121 290.417 162.214 288.828C159.272 287.218 158.191 283.529 159.8 280.586L165.128 283.5C159.8 280.586 159.802 280.583 159.804 280.58L159.807 280.574L159.814 280.561L159.829 280.534L159.865 280.471C159.891 280.425 159.921 280.373 159.957 280.313C160.027 280.195 160.116 280.05 160.226 279.882C160.444 279.547 160.743 279.118 161.13 278.628C161.902 277.65 163.043 276.404 164.613 275.174C167.818 272.663 172.667 270.341 179.341 270.367M170.396 286.521C170.398 286.517 170.401 286.512 170.405 286.507C170.439 286.454 170.524 286.329 170.662 286.154C170.941 285.801 171.415 285.274 172.104 284.734C173.418 283.705 175.663 282.498 179.294 282.513L179.297 282.513C183.847 282.529 185.984 283.858 186.891 284.624C187.394 285.049 187.673 285.433 187.801 285.637C187.835 285.691 187.858 285.732 187.872 285.757C189.072 288.762 192.441 290.312 195.523 289.229C198.687 288.117 200.351 284.65 199.238 281.486L193.509 283.5C199.238 281.486 199.237 281.482 199.236 281.478L199.232 281.469L199.226 281.451L199.213 281.414L199.182 281.33C199.159 281.271 199.133 281.205 199.103 281.131C199.044 280.985 198.968 280.81 198.875 280.612C198.689 280.217 198.43 279.724 198.08 279.168C197.38 278.055 196.31 276.682 194.73 275.348C191.473 272.595 186.516 270.394 179.344 270.367" fill="#3C008A"/>
<path fill-rule="evenodd" clip-rule="evenodd" d="M67.1613 288.544C65.5219 291.405 61.886 292.44 58.9795 290.851C56.037 289.241 54.9562 285.551 56.5655 282.609L61.8933 285.523C56.5655 282.609 56.5671 282.606 56.5687 282.603L56.5721 282.597L56.579 282.584L56.5943 282.557L56.6299 282.494C56.6559 282.448 56.6864 282.396 56.7217 282.336C56.7921 282.218 56.8816 282.073 56.9908 281.905C57.2088 281.57 57.508 281.141 57.8952 280.651C58.6669 279.673 59.8083 278.427 61.3785 277.197C64.5832 274.686 69.4318 272.364 76.106 272.39M67.1613 288.544C67.1636 288.54 67.1665 288.535 67.1699 288.53C67.2046 288.477 67.2894 288.352 67.4274 288.177C67.7061 287.824 68.1799 287.297 68.8691 286.757C70.1827 285.728 72.4284 284.52 76.0589 284.535L76.062 284.535C80.6121 284.552 82.7493 285.881 83.6561 286.647C84.1589 287.072 84.438 287.456 84.5665 287.66C84.6002 287.714 84.6233 287.754 84.6369 287.78C85.8374 290.785 89.2064 292.335 92.2884 291.252C95.4524 290.14 97.1158 286.673 96.0036 283.509L90.2746 285.523C96.0036 283.509 96.0021 283.505 96.0006 283.501L95.9976 283.492L95.9913 283.474L95.9777 283.437L95.9467 283.353C95.9243 283.294 95.8983 283.228 95.8684 283.154C95.8087 283.008 95.7334 282.833 95.6402 282.635C95.4542 282.24 95.1953 281.747 94.8456 281.191C94.1452 280.078 93.0749 278.705 91.4955 277.371C88.2384 274.618 83.2812 272.417 76.1091 272.39" fill="#3C008A"/>
<path fill-rule="evenodd" clip-rule="evenodd" d="M135.614 429.281C137.253 426.419 140.889 425.384 143.795 426.974C146.738 428.583 147.819 432.273 146.209 435.215L140.882 432.301C146.209 435.215 146.208 435.218 146.206 435.221L146.203 435.227L146.196 435.24L146.181 435.267L146.145 435.33C146.119 435.376 146.088 435.429 146.053 435.488C145.983 435.606 145.893 435.751 145.784 435.919C145.566 436.254 145.267 436.683 144.88 437.174C144.108 438.151 142.967 439.397 141.396 440.627C138.192 443.138 133.343 445.461 126.669 445.434M135.614 429.281C135.611 429.284 135.608 429.289 135.605 429.294C135.57 429.347 135.485 429.473 135.348 429.647C135.069 430 134.595 430.527 133.906 431.067C132.592 432.096 130.346 433.304 126.716 433.289L126.713 433.289C122.163 433.272 120.026 431.944 119.119 431.177C118.616 430.752 118.337 430.368 118.208 430.164C118.175 430.111 118.152 430.07 118.138 430.045C116.938 427.039 113.568 425.489 110.486 426.572C107.322 427.685 105.659 431.151 106.771 434.315L112.5 432.301C106.771 434.315 106.773 434.319 106.774 434.324L106.777 434.332L106.784 434.35L106.797 434.387L106.828 434.471C106.851 434.53 106.877 434.597 106.906 434.67C106.966 434.817 107.042 434.991 107.135 435.189C107.321 435.584 107.58 436.077 107.929 436.633C108.63 437.746 109.7 439.119 111.279 440.454C114.536 443.206 119.494 445.407 126.666 445.434" fill="#3C008A"/>
</g>
</svg>
