<svg width="21" height="22" viewBox="0 0 21 22" fill="none" xmlns="http://www.w3.org/2000/svg">
<g clip-path="url(#clip0_257_9494)">
<path d="M20.0601 2.76116H0.0600586C0.0920586 1.80808 0.868058 1.04077 1.82006 1.04077H18.3001C19.2521 1.04077 20.0281 1.80808 20.0601 2.76116Z" fill="#7101FF"/>
<path d="M19.5601 3.26123V19.2012C19.5601 19.7015 19.0606 20.2292 18.3001 20.2292H1.82006C1.05951 20.2292 0.560059 19.7015 0.560059 19.2012V3.26123H19.5601Z" fill="white" stroke="#7101FF"/>
<path d="M2.85986 0.636963V4.08385" stroke="#27005A" stroke-width="1.5" stroke-miterlimit="10" stroke-linecap="round"/>
<path d="M10.0601 0.636963V4.08385" stroke="#27005A" stroke-width="1.5" stroke-miterlimit="10" stroke-linecap="round"/>
<path d="M17.2603 0.636963V4.08385" stroke="#27005A" stroke-width="1.5" stroke-miterlimit="10" stroke-linecap="round"/>
<path d="M16.4922 14.0669H14.8282C14.1831 14.0669 13.6602 14.5949 13.6602 15.2461V16.9261C13.6602 17.5774 14.1831 18.1054 14.8282 18.1054H16.4922C17.1372 18.1054 17.6602 17.5774 17.6602 16.9261V15.2461C17.6602 14.5949 17.1372 14.0669 16.4922 14.0669Z" stroke="#7000FF" stroke-miterlimit="10" stroke-linecap="round"/>
<path opacity="0.5" d="M10.8921 14.0669H9.22806C8.58299 14.0669 8.06006 14.5949 8.06006 15.2461V16.9261C8.06006 17.5774 8.58299 18.1054 9.22806 18.1054H10.8921C11.5371 18.1054 12.0601 17.5774 12.0601 16.9261V15.2461C12.0601 14.5949 11.5371 14.0669 10.8921 14.0669Z" stroke="#C1C1C1" stroke-miterlimit="10" stroke-linecap="round"/>
<path opacity="0.5" d="M5.29196 14.0669H3.62796C2.98289 14.0669 2.45996 14.5949 2.45996 15.2461V16.9261C2.45996 17.5774 2.98289 18.1054 3.62796 18.1054H5.29196C5.93703 18.1054 6.45996 17.5774 6.45996 16.9261V15.2461C6.45996 14.5949 5.93703 14.0669 5.29196 14.0669Z" stroke="#C1C1C1" stroke-miterlimit="10" stroke-linecap="round"/>
<path opacity="0.5" d="M16.4922 8.31201H14.8282C14.1831 8.31201 13.6602 8.83997 13.6602 9.49124V11.1712C13.6602 11.8225 14.1831 12.3505 14.8282 12.3505H16.4922C17.1372 12.3505 17.6602 11.8225 17.6602 11.1712V9.49124C17.6602 8.83997 17.1372 8.31201 16.4922 8.31201Z" stroke="#C1C1C1" stroke-miterlimit="10" stroke-linecap="round"/>
<path opacity="0.5" d="M10.8921 8.31201H9.22806C8.58299 8.31201 8.06006 8.83997 8.06006 9.49124V11.1712C8.06006 11.8225 8.58299 12.3505 9.22806 12.3505H10.8921C11.5371 12.3505 12.0601 11.8225 12.0601 11.1712V9.49124C12.0601 8.83997 11.5371 8.31201 10.8921 8.31201Z" stroke="#C1C1C1" stroke-miterlimit="10" stroke-linecap="round"/>
<path opacity="0.5" d="M5.29196 8.31201H3.62796C2.98289 8.31201 2.45996 8.83997 2.45996 9.49124V11.1712C2.45996 11.8225 2.98289 12.3505 3.62796 12.3505H5.29196C5.93703 12.3505 6.45996 11.8225 6.45996 11.1712V9.49124C6.45996 8.83997 5.93703 8.31201 5.29196 8.31201Z" stroke="#C1C1C1" stroke-miterlimit="10" stroke-linecap="round"/>
</g>
<defs>
<clipPath id="clip0_257_9494">
<rect width="20" height="21" fill="white" transform="translate(0.0600586 0.03125)"/>
</clipPath>
</defs>
</svg>
