<svg width="513" height="455" viewBox="0 0 513 455" fill="none" xmlns="http://www.w3.org/2000/svg">
<mask id="mask0_2358_3748" style="mask-type:alpha" maskUnits="userSpaceOnUse" x="0" y="0" width="513" height="455">
<rect x="0.494141" y="0.0343323" width="512.186" height="454.749" fill="#7000FF"/>
</mask>
<g mask="url(#mask0_2358_3748)">
<path d="M122.056 68.6944C117.099 66.5082 111.645 70.5393 112.279 75.9194L123.117 167.77C123.518 171.168 121.404 174.357 118.119 175.312L29.3035 201.115C24.1012 202.627 22.5138 209.221 26.4584 212.934L93.801 276.329C96.2923 278.674 96.7232 282.477 94.8198 285.32L43.3695 362.176C40.3558 366.678 43.3785 372.749 48.7871 373.058L141.124 378.335C144.54 378.53 147.314 381.166 147.684 384.567L157.672 476.514C158.257 481.9 164.476 484.608 168.818 481.368L242.943 426.057C245.686 424.011 249.505 424.247 251.975 426.615L318.729 490.629C322.639 494.379 329.143 492.457 330.387 487.184L351.617 397.166C352.402 393.836 355.48 391.562 358.894 391.788L451.178 397.918C456.583 398.277 460.331 392.623 457.894 387.785L416.295 305.18C414.756 302.125 415.652 298.404 418.413 296.383L493.046 241.76C497.418 238.56 496.654 231.821 491.678 229.68L406.714 193.141C403.571 191.789 401.865 188.364 402.681 185.041L424.743 95.223C426.035 89.962 421.118 85.2902 415.93 86.8496L327.357 113.473C324.08 114.457 320.572 112.929 319.061 109.859L278.227 26.8742C275.835 22.0134 269.066 21.5952 266.094 26.1247L215.356 103.453C213.479 106.313 209.809 107.398 206.678 106.017L122.056 68.6944Z" fill="#FEE702"/>
<path d="M246.922 152.341C317.304 152.341 374.439 209.898 374.439 280.798V504.551H119.391L119.391 280.812C119.391 209.912 176.541 152.341 246.922 152.341Z" fill="#7000FF"/>
<path fill-rule="evenodd" clip-rule="evenodd" d="M362.294 280.798C362.294 216.521 310.512 164.486 246.922 164.486C183.332 164.486 131.536 216.536 131.536 280.812V492.406H362.294V280.798ZM374.439 280.798C374.439 209.898 317.304 152.341 246.922 152.341C176.541 152.341 119.391 209.912 119.391 280.812V504.551H374.439V280.798Z" fill="#3C008A"/>
<path d="M364.074 411.085C344.834 411.085 329.169 395.436 329.169 376.195V342.268C329.169 323.027 344.818 307.362 364.074 307.362C383.331 307.362 398.964 323.011 398.964 342.268V376.195C398.964 395.436 383.315 411.085 364.074 411.085Z" fill="white"/>
<path fill-rule="evenodd" clip-rule="evenodd" d="M364.075 419.182C340.367 419.182 321.072 399.913 321.072 376.196V342.268C321.072 318.558 340.344 299.266 364.075 299.266C387.808 299.266 407.061 318.545 407.061 342.268V376.196C407.061 399.908 387.787 419.182 364.075 419.182ZM329.169 376.196C329.169 395.436 344.834 411.085 364.075 411.085C383.315 411.085 398.964 395.436 398.964 376.196V342.268C398.964 323.012 383.331 307.363 364.075 307.363C344.818 307.363 329.169 323.028 329.169 342.268V376.196Z" fill="#3C008A"/>
<path d="M364.078 310.57C381.555 310.57 395.761 324.792 395.761 342.252V376.18C395.761 393.657 381.539 407.862 364.062 407.862C346.586 407.862 332.364 393.641 332.364 376.18V342.252C332.364 324.776 346.586 310.57 364.062 310.57M364.062 304.156C343.026 304.156 325.95 321.216 325.95 342.252V376.18C325.95 397.232 343.01 414.276 364.062 414.276C385.099 414.276 402.159 397.216 402.159 376.18V342.252C402.159 321.2 385.099 304.156 364.062 304.156Z" fill="#3C008A"/>
<path d="M378.186 337.04C378.186 329.248 371.869 322.931 364.076 322.931C356.284 322.931 349.967 329.248 349.967 337.04V359.873C349.967 367.665 356.284 373.982 364.076 373.982C371.869 373.982 378.186 367.665 378.186 359.873V337.04Z" fill="#1C1C1C"/>
<path d="M377.418 328.431C377.418 324.31 374.067 320.959 369.946 320.959C365.826 320.959 362.475 324.31 362.475 328.431C362.475 332.551 365.826 335.903 369.946 335.903C374.067 335.903 377.418 332.551 377.418 328.431Z" fill="white"/>
<path d="M258.752 411.085C239.512 411.085 223.847 395.436 223.847 376.195V342.268C223.847 323.027 239.496 307.362 258.752 307.362C278.009 307.362 293.642 323.011 293.642 342.268V376.195C293.642 395.436 277.993 411.085 258.752 411.085Z" fill="white"/>
<path fill-rule="evenodd" clip-rule="evenodd" d="M258.76 419.182C235.053 419.182 215.758 399.913 215.758 376.196V342.268C215.758 318.558 235.029 299.266 258.76 299.266C282.493 299.266 301.746 318.545 301.746 342.268V376.196C301.746 399.908 282.472 419.182 258.76 419.182ZM223.855 376.196C223.855 395.436 239.52 411.085 258.76 411.085C278.001 411.085 293.65 395.436 293.65 376.196V342.268C293.65 323.012 278.017 307.363 258.76 307.363C239.504 307.363 223.855 323.028 223.855 342.268V376.196Z" fill="#3C008A"/>
<path d="M258.756 310.57C276.233 310.57 290.439 324.792 290.439 342.252V376.18C290.439 393.657 276.217 407.862 258.74 407.862C241.263 407.862 227.041 393.641 227.041 376.18V342.252C227.041 324.776 241.263 310.57 258.74 310.57M258.74 304.156C237.704 304.156 220.628 321.216 220.628 342.252V376.18C220.628 397.232 237.688 414.276 258.74 414.276C279.776 414.276 296.836 397.216 296.836 376.18V342.252C296.836 321.2 279.776 304.156 258.74 304.156Z" fill="#3C008A"/>
<path d="M272.872 337.04C272.872 329.248 266.555 322.931 258.762 322.931C250.969 322.931 244.652 329.248 244.652 337.04V359.873C244.652 367.665 250.969 373.982 258.762 373.982C266.555 373.982 272.872 367.665 272.872 359.873V337.04Z" fill="#1C1C1C"/>
<path d="M272.1 328.431C272.1 324.31 268.749 320.959 264.628 320.959C260.507 320.959 257.156 324.31 257.156 328.431C257.156 332.551 260.507 335.903 264.628 335.903C268.749 335.903 272.1 332.551 272.1 328.431Z" fill="white"/>
<path d="M182.113 261.685C188.772 261.685 194.17 256.287 194.17 249.627C194.17 242.968 188.772 237.57 182.113 237.57C175.453 237.57 170.055 242.968 170.055 249.627C170.055 256.287 175.453 261.685 182.113 261.685Z" fill="#FEE702"/>
<path d="M212.548 251.081C217.536 251.081 221.579 247.037 221.579 242.049C221.579 237.061 217.536 233.018 212.548 233.018C207.56 233.018 203.517 237.061 203.517 242.049C203.517 247.037 207.56 251.081 212.548 251.081Z" fill="#FEE702"/>
<path d="M196.254 225.802C199.771 225.802 202.622 222.951 202.622 219.434C202.622 215.917 199.771 213.066 196.254 213.066C192.737 213.066 189.886 215.917 189.886 219.434C189.886 222.951 192.737 225.802 196.254 225.802Z" fill="#FEE702"/>
<path fill-rule="evenodd" clip-rule="evenodd" d="M353.189 277.802C351.55 280.664 347.914 281.699 345.008 280.109C342.065 278.5 340.984 274.81 342.594 271.868L347.921 274.782C342.594 271.868 342.595 271.865 342.597 271.862L342.6 271.856L342.607 271.843L342.622 271.816L342.658 271.753C342.684 271.707 342.715 271.654 342.75 271.595C342.82 271.477 342.91 271.332 343.019 271.164C343.237 270.829 343.536 270.4 343.923 269.909C344.695 268.932 345.836 267.686 347.407 266.456C350.611 263.945 355.46 261.622 362.134 261.649M353.189 277.802C353.192 277.799 353.195 277.794 353.198 277.789C353.233 277.736 353.317 277.61 353.455 277.436C353.734 277.083 354.208 276.556 354.897 276.016C356.211 274.987 358.456 273.779 362.087 273.794L362.09 273.794C366.64 273.811 368.777 275.139 369.684 275.906C370.187 276.331 370.466 276.715 370.595 276.919C370.628 276.972 370.651 277.013 370.665 277.038C371.865 280.044 375.234 281.594 378.317 280.511C381.481 279.398 383.144 275.932 382.032 272.768L376.303 274.782C382.032 272.768 382.03 272.764 382.029 272.759L382.026 272.751L382.019 272.733L382.006 272.696L381.975 272.612C381.952 272.553 381.926 272.486 381.896 272.413C381.837 272.266 381.761 272.092 381.668 271.894C381.482 271.499 381.223 271.006 380.874 270.45C380.173 269.337 379.103 267.964 377.524 266.629C374.266 263.877 369.309 261.676 362.137 261.649" fill="#3C008A"/>
<path fill-rule="evenodd" clip-rule="evenodd" d="M249.955 279.826C248.316 282.687 244.68 283.722 241.773 282.133C238.831 280.523 237.75 276.833 239.359 273.891L244.687 276.805C239.359 273.891 239.361 273.888 239.362 273.885L239.366 273.879L239.373 273.866L239.388 273.839L239.424 273.776C239.45 273.73 239.48 273.678 239.515 273.618C239.586 273.5 239.675 273.355 239.784 273.187C240.003 272.852 240.302 272.423 240.689 271.933C241.461 270.955 242.602 269.709 244.172 268.479C247.377 265.968 252.226 263.645 258.9 263.672M249.955 279.826C249.957 279.822 249.96 279.817 249.964 279.812C249.998 279.759 250.083 279.633 250.221 279.459C250.5 279.106 250.974 278.579 251.663 278.039C252.976 277.01 255.222 275.802 258.853 275.817L258.856 275.817C263.406 275.834 265.543 277.163 266.45 277.929C266.953 278.354 267.232 278.738 267.36 278.942C267.394 278.996 267.417 279.036 267.431 279.061C268.631 282.067 272 283.617 275.082 282.534C278.246 281.421 279.909 277.955 278.797 274.791L273.068 276.805C278.797 274.791 278.796 274.787 278.794 274.783L278.791 274.774L278.785 274.756L278.771 274.719L278.74 274.635C278.718 274.576 278.692 274.509 278.662 274.436C278.602 274.289 278.527 274.115 278.434 273.917C278.248 273.522 277.989 273.029 277.639 272.473C276.939 271.36 275.869 269.987 274.289 268.653C271.032 265.9 266.075 263.699 258.903 263.672" fill="#3C008A"/>
<path fill-rule="evenodd" clip-rule="evenodd" d="M318.407 420.563C320.047 417.701 323.683 416.666 326.589 418.255C329.532 419.865 330.612 423.555 329.003 426.497L323.675 423.583C329.003 426.497 329.002 426.5 329 426.503L328.997 426.509L328.99 426.522L328.974 426.549L328.939 426.612C328.913 426.658 328.882 426.711 328.847 426.77C328.776 426.888 328.687 427.033 328.578 427.201C328.36 427.536 328.061 427.965 327.673 428.455C326.902 429.433 325.76 430.679 324.19 431.909C320.985 434.42 316.137 436.743 309.463 436.716M318.407 420.563C318.405 420.566 318.402 420.571 318.399 420.576C318.364 420.629 318.279 420.755 318.141 420.929C317.863 421.282 317.389 421.809 316.7 422.349C315.386 423.378 313.14 424.586 309.51 424.571L309.507 424.571C304.956 424.554 302.819 423.226 301.913 422.459C301.41 422.034 301.131 421.65 301.002 421.446C300.968 421.392 300.945 421.352 300.932 421.327C299.731 418.321 296.362 416.771 293.28 417.854C290.116 418.967 288.453 422.433 289.565 425.597L295.294 423.583C289.565 425.597 289.566 425.601 289.568 425.606L289.571 425.614L289.577 425.632L289.591 425.669L289.622 425.753C289.644 425.812 289.67 425.879 289.7 425.952C289.76 426.099 289.835 426.273 289.928 426.471C290.114 426.866 290.373 427.359 290.723 427.915C291.423 429.028 292.494 430.401 294.073 431.735C297.33 434.488 302.287 436.689 309.46 436.716" fill="#3C008A"/>
</g>
</svg>
