<svg width="344" height="303" viewBox="0 0 344 303" fill="none" xmlns="http://www.w3.org/2000/svg">
<path d="M183.538 0.341064C113.156 0.341064 56.0206 57.8976 56.0206 128.798V352.551H311.069L311.069 128.812C311.069 57.912 253.919 0.341064 183.538 0.341064Z" fill="#7000FF"/>
<mask id="mask0_2240_4667" style="mask-type:luminance" maskUnits="userSpaceOnUse" x="126" y="30" width="148" height="147">
<path d="M200.001 176.947C240.351 176.947 273.06 144.237 273.06 103.888C273.06 63.5383 240.351 30.8286 200.001 30.8286C159.652 30.8286 126.942 63.5383 126.942 103.888C126.942 144.237 159.652 176.947 200.001 176.947Z" fill="white"/>
</mask>
<g mask="url(#mask0_2240_4667)">
<path d="M71.1055 291.228V115.669C71.1055 54.2909 120.864 4.53223 182.242 4.53223C243.62 4.53223 293.378 54.2909 293.378 115.669V291.228" fill="#20105B"/>
<path d="M71.1055 291.228V115.669C71.1055 54.2909 120.864 4.53223 182.242 4.53223C243.62 4.53223 293.378 54.2909 293.378 115.669V291.228" stroke="#3A179D" stroke-width="7.48813" stroke-linecap="round" stroke-linejoin="round"/>
<path d="M250.408 96.0619C250.295 95.2007 250.133 94.3646 249.933 93.5159C257.796 83.1448 260.829 74.0343 257.359 68.0562C253.178 60.8052 238.739 59.4823 218.633 64.4495C218.196 63.8754 217.697 63.3387 217.173 62.8021C239.001 57.2609 254.264 58.8084 259.044 67.0828C263.05 74.0468 259.556 84.4178 250.408 96.0619Z" fill="#FF4C4C"/>
<path d="M219.245 67.9068C221.712 67.9068 223.713 65.9064 223.713 63.4389C223.713 60.9713 221.712 58.9709 219.245 58.9709C216.777 58.9709 214.777 60.9713 214.777 63.4389C214.777 65.9064 216.777 67.9068 219.245 67.9068Z" fill="#E0C10B"/>
<path d="M168.774 106.682H168.749C168.749 106.682 168.674 106.682 168.649 106.682H168.637C168.637 106.682 168.55 106.682 168.512 106.682L169.398 106.707C169.298 106.707 169.186 106.695 169.074 106.695C168.974 106.695 168.874 106.695 168.774 106.695V106.682Z" fill="#FFB3B3"/>
<path d="M177.535 66.6211C177.223 66.2467 176.874 65.8723 176.512 65.5228C176.05 65.0735 175.563 64.6492 175.064 64.2373C174.216 63.5634 173.305 62.9394 172.356 62.4152C171.632 62.0034 170.871 61.6415 170.097 61.3419C165.592 59.5697 160.799 59.5947 156.344 61.2047C153.561 64.487 151.489 68.3933 150.091 72.4868C148.893 76.0187 148.182 79.6754 147.783 83.382C148.893 84.1683 148.519 85.6659 147.545 86.2774C147.171 86.5145 146.709 86.6269 146.198 86.5145C144.038 86.0403 141.555 85.4163 138.984 84.9296C138.173 84.7673 137.349 84.63 136.525 84.5052C131.571 83.7689 126.541 83.8687 123.047 86.8016C121.262 89.2727 120.913 92.5674 121.462 95.5752C122.011 98.6079 123.371 101.416 124.744 104.162C125.031 104.748 125.468 105.385 125.992 105.659C126.204 105.622 126.404 105.672 126.554 105.784C127.003 106.108 127.153 106.895 126.554 107.319C125.193 108.268 124.17 109.528 123.284 110.901C122.722 111.75 122.223 112.648 121.749 113.547C121.549 113.921 121.349 114.296 121.15 114.67C119.852 117.091 118.679 119.612 118.254 122.345C117.418 127.624 119.115 133.028 122.036 137.409C123.284 139.293 124.744 140.916 126.366 142.326C126.366 142.326 126.366 142.326 126.379 142.326C129.437 144.211 133.655 144.023 137 142.463C138.834 141.615 140.606 140.279 141.28 138.37C141.617 137.421 141.655 136.386 141.555 135.387C141.33 133.203 140.457 131.094 139.084 129.397C136.787 129.209 134.441 128.585 132.394 127.974C131.945 127.837 131.658 127.562 131.521 127.25C131.109 126.326 131.833 124.991 133.131 125.278C133.355 125.328 133.568 125.378 133.792 125.415C139.496 120.186 142.566 112.111 141.517 104.411C142.404 104.449 143.277 104.411 144.151 104.299C143.14 103.85 142.191 103.35 141.006 103.275C139.371 103.151 137.711 103.662 136.276 104.436C135.14 105.048 133.78 103.463 134.841 102.577C136.725 101.054 138.472 100.056 141.006 100.056C143.19 100.056 145.923 100.817 147.109 102.776C147.271 103.051 147.321 103.338 147.283 103.612C150.803 102.514 154.01 100.355 156.431 97.5595C159.788 93.6782 161.673 88.6736 162.247 83.5692C162.222 83.5318 162.197 83.4943 162.16 83.4444C161.511 82.5334 160.812 81.6722 160.038 80.8485C158.827 79.5631 160.712 77.6661 161.985 78.9016C163.196 80.0747 164.256 81.3602 165.205 82.7081C167.863 81.6098 170.209 79.4507 172.306 77.3915C173.841 75.8689 175.401 74.3214 176.462 72.4369C177.46 70.6896 177.985 68.5805 177.548 66.6211H177.535ZM197.741 56.2375C190.702 54.7149 184.474 57.0862 179.07 60.9675C178.546 61.3419 178.509 62.1282 179.008 62.5525C181.604 64.7865 183.713 67.5696 184.524 70.7146C184.786 71.7005 184.262 72.4743 183.538 72.8237C183.95 73.2481 184.424 73.61 184.999 73.8596C186.471 74.5086 188.181 74.2839 189.778 74.0343C191.65 73.7473 193.597 73.4353 195.282 72.5991C195.357 72.0874 195.457 71.5757 195.607 71.0765C195.944 69.8784 197.678 69.8909 198.015 71.0765C198.153 71.5632 198.24 72.05 198.277 72.5492C201.123 73.8097 204.755 73.0484 207.201 71.0141C209.547 69.0672 210.932 66.1843 211.581 63.1765C207.688 59.9941 202.621 57.2859 197.728 56.225L197.741 56.2375ZM143.602 129.559C143.677 130.407 143.764 130.695 143.964 131.481C143.814 130.832 143.689 130.195 143.602 129.559ZM143.514 128.822C143.365 128.997 143.152 129.122 142.89 129.184C143.152 129.122 143.439 129.696 143.602 129.521C143.577 129.297 143.539 129.06 143.527 128.822H143.514Z" fill="#FFB3B3"/>
<path d="M217.235 72.4495C211.918 73.9596 206.839 76.9424 202.745 80.5118C202.471 80.7489 202.084 80.8238 201.735 80.699C201.073 80.4618 200.412 80.2497 199.775 80.0749C199.064 79.8753 198.34 79.713 197.616 79.5757C196.955 79.4509 196.605 78.7271 196.917 78.128C197.853 76.3558 198.402 74.4214 198.265 72.5619C201.111 73.8224 204.742 73.0611 207.188 71.0268C209.535 69.0799 210.92 66.1969 211.569 63.1892C211.731 63.3265 211.906 63.4638 212.056 63.6011C214.514 65.6853 216.586 68.2187 217.859 71.1017C218.096 71.6508 217.797 72.2873 217.223 72.462L217.235 72.4495Z" fill="#E8809B"/>
<path d="M195.282 72.599C195.045 74.0592 194.97 75.5444 194.433 76.9796C194.246 77.4913 194.021 78.003 193.772 78.4897C193.597 78.8391 193.235 79.0513 192.836 79.0513C189.116 78.9515 185.36 79.5755 181.903 80.9233C176.724 82.9451 172.418 86.4895 169.435 90.895C169.423 90.8451 169.41 90.8077 169.385 90.7577C168.299 87.8998 166.939 85.1666 165.192 82.6955C167.85 81.5973 170.196 79.4382 172.293 77.3789C173.828 75.8564 175.388 74.3088 176.449 72.4243C177.447 70.6771 177.972 68.5679 177.535 66.6085C178.97 68.3058 179.956 70.1779 181.154 72.1248C181.728 73.0483 182.764 73.1856 183.55 72.8112C183.962 73.2355 184.436 73.5974 185.01 73.847C186.483 74.496 188.193 74.2714 189.79 74.0218C191.662 73.7347 193.609 73.4227 195.294 72.5865L195.282 72.599Z" fill="#E8809B"/>
<path d="M156.331 61.1925C153.548 64.4748 151.476 68.3811 150.079 72.4746C148.881 76.0065 148.169 79.6632 147.77 83.3699C147.707 83.3199 147.633 83.27 147.558 83.2326C145.486 82.0844 143.04 81.5477 140.644 81.1733C140.057 81.086 139.683 80.4994 139.832 79.9253C141.842 72.4372 146.959 65.7478 153.898 62.2533C154.696 61.854 155.508 61.5045 156.331 61.205V61.1925Z" fill="#E8809B"/>
<path d="M167.039 95.3131C166.215 97.2351 165.629 99.2444 165.292 101.329C165.229 101.753 164.905 102.077 164.481 102.165C158.415 103.375 152.961 107.069 149.13 111.887C145.785 116.105 143.539 121.322 143.439 126.676C143.289 126.551 143.102 126.464 142.89 126.414C139.895 125.84 136.812 125.965 133.779 125.378C139.483 120.149 142.341 110.489 141.292 102.801C142.178 102.839 143.576 103.176 144.45 103.063C144.887 103.263 145.548 103.001 146.022 103.151C146.884 103.413 147.158 104.386 147.258 103.6C150.777 102.502 153.985 100.343 156.406 97.5471C159.763 93.6657 161.648 88.6612 162.222 83.5568C163.819 85.8157 165.03 88.3367 165.966 90.9575C166.403 92.1806 166.814 93.4286 167.089 94.7141C167.139 94.9138 167.101 95.1259 167.027 95.3131H167.039Z" fill="#E8809B"/>
<path d="M147.196 138.919C146.397 142.339 146.235 145.908 146.734 149.39C146.834 150.064 146.235 150.638 145.561 150.526C138.585 149.228 131.658 146.919 126.379 142.301C129.437 144.186 133.655 143.998 137 142.438C138.834 141.59 140.606 140.254 141.28 138.345C141.617 137.396 141.655 136.36 141.555 135.362C141.33 133.178 140.457 131.069 139.084 129.372C140.394 129.484 141.692 129.446 142.915 129.172C143.177 129.109 143.464 129.684 143.627 129.509C143.627 129.521 143.627 129.534 143.627 129.559C143.701 130.407 143.789 130.694 143.989 131.481C144.001 131.531 144.013 131.593 144.026 131.643C144.6 133.939 145.623 136.173 147.034 138.095C147.208 138.332 147.283 138.632 147.208 138.931L147.196 138.919Z" fill="#E8809B"/>
<path d="M220.729 118.165C220.43 118.04 220.118 117.927 219.806 117.803C222.451 119.225 225.135 120.71 227.506 122.52C227.818 122.757 228.23 122.795 228.592 122.607C228.667 122.57 228.741 122.533 228.829 122.495C226.308 120.748 223.587 119.288 220.742 118.152L220.729 118.165ZM232.461 77.3667C229.64 75.607 226.507 74.983 223.338 75.0578C223.113 75.0578 222.901 75.0703 222.676 75.0828C222.489 75.0828 222.314 75.1078 222.127 75.1202C222.027 75.1202 221.915 75.1327 221.815 75.1452C221.64 75.1577 221.453 75.1702 221.278 75.1951C221.104 75.2076 220.929 75.2326 220.767 75.2575C220.43 75.3074 220.105 75.3449 219.781 75.4073C219.606 75.4322 219.419 75.4697 219.232 75.5071C214.751 78.2403 211.806 83.4071 211.843 88.6613C211.856 88.6987 211.881 88.7362 211.893 88.7861C211.906 88.811 211.918 88.8485 211.943 88.8859C211.993 88.9858 212.03 89.0856 212.068 89.1854C212.093 89.2603 212.13 89.3352 212.155 89.4226C212.218 89.5973 212.28 89.7845 212.317 89.9717C212.342 90.0591 212.367 90.1464 212.38 90.2338C212.405 90.3087 212.417 90.3835 212.43 90.4584C212.455 90.5333 212.467 90.6207 212.48 90.6956C212.505 90.8079 212.517 90.9202 212.53 91.0325C212.729 92.4802 210.47 93.3663 209.572 92.2556C207.962 90.2213 206.889 88.0997 204.754 86.5022C203.681 85.7035 202.521 85.0295 201.31 84.4929C200.698 84.2183 200.074 83.9687 199.438 83.7566C199.014 83.6068 198.577 83.4695 198.152 83.3572C196.642 82.9329 195.082 82.6833 193.51 82.5959C192.624 82.546 191.725 82.5335 190.827 82.5959C188.081 82.7457 185.36 83.3572 182.839 84.3681C177.448 86.5396 173.329 90.6706 170.746 95.6502C169.947 97.1978 169.286 98.8327 168.786 100.517C168.599 101.142 169.049 101.766 169.685 101.803C169.772 101.803 169.86 101.815 169.96 101.815C172.718 102.015 175.438 102.789 177.997 103.875C179.869 104.661 181.641 105.497 183.214 106.783C184.786 108.068 186.171 109.516 187.657 110.901C188.655 111.837 187.369 113.085 186.321 112.636C183.413 111.4 180.468 110.439 177.622 109.066C176.973 108.754 176.324 108.467 175.651 108.193C175.488 108.13 175.314 108.056 175.151 107.993C175.002 107.931 174.839 107.881 174.69 107.818C174.203 107.644 173.729 107.494 173.229 107.357C173.105 107.332 172.992 107.294 172.88 107.269C172.78 107.244 172.68 107.219 172.58 107.194C172.406 107.144 172.231 107.107 172.056 107.07C171.357 106.92 170.646 106.808 169.935 106.733C169.76 106.72 169.585 106.708 169.41 106.695L168.524 106.67C167.152 106.733 165.23 107.095 164.219 107.307C164.119 107.307 164.007 107.307 163.894 107.344C163.782 107.382 163.67 107.407 163.557 107.444C163.557 107.444 163.545 107.444 163.532 107.444H163.507C163.295 107.519 163.083 107.581 162.871 107.656C162.871 107.656 162.871 107.656 162.858 107.656C162.634 107.731 162.422 107.818 162.197 107.906C161.997 107.981 161.798 108.068 161.598 108.155C161.548 108.18 161.498 108.205 161.448 108.23C161.273 108.305 161.099 108.393 160.924 108.48C160.911 108.48 160.886 108.492 160.874 108.505C160.674 108.605 160.487 108.705 160.287 108.804C160.275 108.804 160.262 108.817 160.238 108.829C160.038 108.929 159.851 109.041 159.651 109.154C159.638 109.166 159.613 109.179 159.601 109.179C159.426 109.279 159.239 109.391 159.064 109.503C159.014 109.528 158.977 109.566 158.927 109.591C158.752 109.703 158.59 109.815 158.415 109.928C158.216 110.065 158.016 110.202 157.829 110.339C157.629 110.477 157.442 110.626 157.242 110.764C157.055 110.914 156.868 111.051 156.681 111.213C156.518 111.35 156.356 111.475 156.194 111.612C156.044 111.75 155.882 111.874 155.732 112.012C155.146 112.536 154.584 113.085 154.06 113.659C150.266 117.765 147.782 123.394 148.419 129.06C148.481 129.571 148.568 130.096 148.681 130.595C148.88 131.481 150.041 131.656 150.515 130.882C151.264 129.659 152.125 128.486 153.086 127.387C154.709 125.528 157.966 128.036 156.518 130.033C154.709 132.504 153.411 135.2 152.612 137.983C152.2 139.406 151.938 140.841 151.788 142.289C151.776 142.439 151.763 142.588 151.751 142.738C151.738 142.888 151.726 143.038 151.726 143.187C151.726 143.287 151.714 143.387 151.714 143.487C151.701 143.687 151.701 143.874 151.689 144.073C151.689 144.523 151.689 144.96 151.689 145.409C151.689 145.609 151.701 145.821 151.714 146.02V146.045C151.726 146.27 151.738 146.507 151.763 146.732C151.776 146.931 151.801 147.131 151.826 147.331C151.826 147.356 151.826 147.393 151.826 147.418C151.851 147.63 151.876 147.83 151.913 148.042C151.938 148.254 151.976 148.454 152.013 148.654C152.05 148.841 152.088 149.028 152.113 149.228C152.113 149.253 152.113 149.29 152.125 149.315C152.175 149.54 152.213 149.752 152.263 149.964C154.322 152.972 157.13 155.468 160.375 157.14C162.347 158.164 164.481 158.887 166.64 159.399C178.671 162.282 192.087 158.463 200.798 149.677C201.06 149.415 201.547 149.452 201.784 149.153C201.822 149.103 201.834 149.066 201.822 149.016C202.982 149.627 204.268 150.051 205.553 150.276C208.461 150.813 211.469 150.513 214.402 150.064C215.774 149.852 217.135 149.615 218.445 149.19C220.767 148.454 222.876 147.181 224.96 145.921C227.369 144.46 229.915 142.825 231.612 140.666C231.737 140.08 231.824 139.493 231.886 138.894C232.186 135.899 231.649 132.841 230.177 129.946C229.578 128.748 228.804 127.662 227.905 126.651C227.219 125.865 226.458 125.128 225.634 124.442C222.426 121.684 218.445 119.562 215.101 117.416C214.439 116.991 214.551 116.205 214.988 115.806C213.291 115.007 211.731 114.021 210.52 112.598C209.759 111.712 209.16 110.489 209.572 109.391C209.821 108.729 210.408 108.243 210.982 107.831C211.344 107.569 211.718 107.319 212.093 107.082C211.918 107.082 211.731 107.095 211.556 107.107C209.609 107.169 207.687 106.92 205.965 106.383C204.53 105.921 205.154 103.987 206.564 104.187C209.098 104.549 211.831 104.399 214.277 103.663C216.785 102.914 218.583 101.491 220.704 100.056C221.091 99.7936 221.465 99.7437 221.79 99.8311C221.84 99.8436 221.877 99.856 221.927 99.881C222.788 98.9949 223.787 98.2586 224.885 97.7094C227.169 96.5737 229.902 96.3117 232.311 97.1728C232.723 97.3226 233.122 97.4973 233.521 97.672C233.509 97.048 233.908 96.4489 234.757 96.4864C237.777 96.5862 240.972 97.0105 244.067 97.8218C244.729 97.9965 245.378 97.4598 245.315 96.7734C244.591 88.9358 239.287 81.5725 232.473 77.3168L232.461 77.3667ZM205.628 125.99C206.577 127.5 207.013 129.322 206.876 131.094C209.734 132.779 212.355 134.876 215.175 136.66C216.698 137.621 216.274 140.704 214.152 140.417C210.445 139.93 207.775 136.723 204.717 134.551C201.622 134.389 198.464 135.063 195.419 135.961C194.745 136.685 194.009 137.359 193.223 137.971C190.04 140.454 185.972 142.002 181.891 142.326C179.869 143.624 177.984 145.097 176.325 146.832C175.975 146.832 175.638 146.782 175.301 146.669C174.939 147.78 174.627 148.903 174.328 150.051C174.153 150.75 172.93 150.85 172.818 150.051C172.593 148.392 172.643 146.757 172.942 145.159C172.917 145.134 172.892 145.109 172.88 145.097C170.771 143.038 169.323 140.354 168.674 137.484C167.726 136.386 166.927 135.088 166.315 133.59C165.854 132.454 167.576 131.406 168.4 132.242C168.425 132.043 168.449 131.83 168.487 131.631C173.878 134.364 180.381 134.851 186.121 132.966C188.568 132.167 190.951 130.882 192.536 128.86C193.522 127.6 194.159 126.114 194.795 124.642C195.419 123.182 196.043 121.734 196.667 120.286C196.53 119.325 196.305 118.377 196.006 117.441C195.369 115.481 194.209 113.834 193.323 111.999C192.299 109.89 194.82 107.793 196.605 109.466C199.887 112.561 200.973 117.803 200.836 122.383C202.795 122.944 204.542 124.255 205.628 125.99ZM258.008 116.08C257.983 115.906 257.945 115.743 257.908 115.569C257.895 115.494 257.883 115.431 257.858 115.369C257.783 115.044 257.708 114.732 257.621 114.42C257.608 114.358 257.596 114.283 257.571 114.221C257.558 114.158 257.546 114.108 257.521 114.059C257.496 113.959 257.458 113.859 257.433 113.771C257.396 113.634 257.346 113.497 257.296 113.372C257.234 113.172 257.159 112.985 257.084 112.798C256.997 112.573 256.909 112.361 256.809 112.137C256.722 111.937 256.635 111.737 256.535 111.538C256.51 111.5 256.497 111.463 256.472 111.413C256.385 111.226 256.285 111.038 256.185 110.851L256.173 110.826C256.073 110.639 255.961 110.452 255.848 110.252C255.836 110.227 255.824 110.202 255.799 110.177C255.686 109.977 255.561 109.79 255.437 109.603C255.299 109.403 255.162 109.191 255.025 109.004C253.639 107.057 251.842 105.597 249.833 104.399C248.934 103.862 247.998 103.375 247.025 102.926C246.376 102.627 245.715 102.327 245.041 102.053C241.746 100.667 238.176 99.5315 234.707 99.1197C234.545 99.1072 234.395 99.0573 234.27 98.9949C232.024 100.517 229.927 102.227 228.417 104.449C226.283 107.594 225.609 112.062 227.868 115.119C228.766 116.342 230.039 117.229 231.3 118.09C232.411 118.863 233.509 119.625 234.632 120.398C236.592 119.924 238.626 119.687 240.635 119.737C242.694 119.799 245.403 119.812 246.813 121.522C247.524 122.383 247.262 123.543 246.176 123.918C244.379 124.554 242.47 123.731 240.635 123.618C238.738 123.506 236.791 123.606 234.919 123.968C233.908 124.168 232.91 124.43 231.936 124.767C231.287 124.991 231.063 125.79 231.487 126.327C232.286 127.313 232.985 128.386 233.546 129.584C233.634 129.759 233.709 129.946 233.796 130.121C233.858 130.27 233.933 130.433 233.996 130.582C234.07 130.757 234.133 130.919 234.195 131.094C234.245 131.244 234.295 131.381 234.345 131.531C234.382 131.631 234.407 131.731 234.445 131.83C234.457 131.868 234.47 131.905 234.482 131.943C234.52 132.055 234.557 132.18 234.582 132.292C234.62 132.417 234.657 132.554 234.695 132.679C234.744 132.854 234.794 133.028 234.832 133.216C234.894 133.453 234.944 133.69 234.994 133.94C234.994 133.952 234.994 133.977 235.007 133.989C235.081 134.339 235.144 134.688 235.181 135.025C235.206 135.188 235.231 135.337 235.244 135.5C235.256 135.649 235.281 135.787 235.294 135.936C235.306 136.049 235.319 136.173 235.331 136.286C235.331 136.323 235.331 136.373 235.331 136.411C235.331 136.473 235.331 136.535 235.343 136.598C241.197 136.373 246.95 133.89 251.131 129.771C254.838 126.127 257.271 121.222 258.008 116.093C258.008 116.093 258.008 116.093 258.008 116.08ZM258.332 119.101C258.345 119.587 258.345 120.074 258.332 120.561C258.357 120.074 258.357 119.587 258.332 119.101Z" fill="#FFB3B3"/>
<path d="M214.165 140.429C210.458 139.943 207.787 136.735 204.729 134.564C201.634 134.401 198.477 135.075 195.432 135.974C194.758 136.698 194.021 137.372 193.235 137.983C190.053 140.467 185.984 142.014 181.903 142.339C179.881 143.637 177.997 145.109 176.337 146.844C175.988 146.844 175.651 146.794 175.314 146.682C174.952 147.793 174.64 148.916 174.34 150.064C174.165 150.763 172.942 150.863 172.83 150.064C172.605 148.404 172.655 146.769 172.955 145.172C172.93 145.147 172.905 145.122 172.892 145.109C170.783 143.05 169.336 140.367 168.687 137.496C167.738 136.398 166.939 135.1 166.328 133.603C165.866 132.467 167.588 131.419 168.412 132.255C168.437 132.055 168.462 131.843 168.499 131.643C173.891 134.376 180.393 134.863 186.134 132.979C188.58 132.18 190.964 130.894 192.549 128.873C193.535 127.612 194.171 126.127 194.808 124.654C195.432 123.194 196.056 121.746 196.68 120.299C196.542 119.338 196.318 118.389 196.018 117.453C195.382 115.494 194.221 113.846 193.335 112.012C192.312 109.903 194.833 107.806 196.617 109.478C199.9 112.573 200.985 117.815 200.848 122.395C202.808 122.957 204.555 124.267 205.641 126.002C206.589 127.512 207.026 129.334 206.889 131.107C209.747 132.791 212.367 134.888 215.188 136.673C216.71 137.634 216.286 140.716 214.165 140.429Z" fill="#E8809B"/>
<path d="M234.645 120.386C234.42 120.436 234.208 120.498 233.996 120.548C232.411 120.985 229.553 122.32 227.806 123.206C225.285 121.459 222.514 120.011 220.505 118.401C220.243 118.202 220.118 117.927 219.793 117.802C219.793 117.802 219.793 117.802 219.781 117.802C218.52 117.128 217.26 116.455 216.062 115.781C215.625 115.543 215.226 115.631 214.951 115.893C213.254 115.094 211.694 114.108 210.483 112.685C209.722 111.799 209.123 110.576 209.535 109.478C209.784 108.817 210.371 108.33 210.945 107.918C211.307 107.656 211.681 107.406 212.056 107.169C212.18 107.169 212.305 107.157 212.43 107.144C212.555 107.144 212.68 107.119 212.804 107.107C212.992 107.094 213.179 107.069 213.366 107.044C213.603 107.019 213.828 106.982 214.065 106.945C214.202 106.92 214.352 106.895 214.489 106.87C214.489 106.87 214.489 106.87 214.502 106.87C214.527 106.87 214.564 106.87 214.589 106.857C214.651 106.845 214.714 106.832 214.789 106.82C214.789 106.82 214.789 106.82 214.801 106.82C214.889 106.807 214.976 106.782 215.076 106.757C215.313 106.707 215.562 106.645 215.787 106.583C215.962 106.533 216.149 106.483 216.324 106.42C216.536 106.358 216.736 106.283 216.948 106.208C217.123 106.146 217.297 106.083 217.472 106.009C217.622 105.946 217.759 105.884 217.909 105.821C217.971 105.796 218.046 105.759 218.108 105.734C218.308 105.647 218.508 105.559 218.695 105.447C218.845 105.372 218.995 105.297 219.144 105.21C219.606 104.948 220.055 104.673 220.48 104.361C220.642 104.249 220.804 104.124 220.954 103.999C221.516 103.55 222.04 103.051 222.501 102.502C222.789 102.165 222.888 101.74 222.851 101.341C222.851 101.291 222.851 101.266 222.838 101.216V101.204C222.838 101.179 222.838 101.141 222.826 101.116C222.826 101.091 222.826 101.066 222.813 101.041C222.813 101.016 222.801 100.979 222.789 100.954C222.789 100.942 222.789 100.929 222.776 100.917C222.776 100.892 222.764 100.867 222.751 100.842C222.751 100.817 222.739 100.792 222.726 100.779C222.714 100.742 222.701 100.704 222.676 100.68C222.664 100.642 222.639 100.605 222.614 100.58C222.601 100.555 222.576 100.517 222.551 100.48C222.501 100.417 222.452 100.355 222.402 100.305C222.389 100.28 222.352 100.255 222.327 100.23C222.302 100.205 222.277 100.18 222.252 100.168C222.227 100.143 222.189 100.118 222.165 100.105C222.09 100.055 222.015 100.018 221.94 99.9806C222.801 99.0945 223.799 98.3582 224.898 97.8091C227.182 96.6734 229.915 96.4113 232.323 97.2724C232.735 97.4222 233.135 97.5969 233.534 97.7716C233.534 98.2708 233.809 98.7825 234.32 99.0196C232.074 100.542 229.977 102.252 228.467 104.473C226.333 107.619 225.659 112.086 227.918 115.144C228.816 116.367 230.089 117.253 231.35 118.114C232.461 118.888 233.559 119.649 234.682 120.423L234.645 120.386Z" fill="#E8809B"/>
<path d="M258.332 120.573C258.332 120.835 258.307 121.097 258.282 121.372C258.269 121.634 258.232 121.896 258.207 122.171C258.182 122.433 258.145 122.695 258.107 122.957C258.107 122.982 258.107 123.019 258.095 123.044C258.082 123.169 258.057 123.281 258.045 123.394C258.045 123.419 258.045 123.456 258.032 123.481C258.007 123.656 257.97 123.831 257.945 124.005C257.945 124.043 257.932 124.068 257.932 124.105C257.907 124.205 257.882 124.317 257.858 124.417C257.77 124.854 257.658 125.291 257.546 125.715C257.483 125.94 257.421 126.164 257.346 126.377C257.271 126.601 257.209 126.838 257.121 127.063C257.009 127.4 256.884 127.724 256.759 128.061C255.499 131.281 253.564 134.489 251.231 137.06C248.997 139.506 245.627 139.868 242.457 140.042C240.398 140.155 238.326 140.092 236.279 139.83C235.78 139.768 235.406 139.319 235.418 138.819C235.443 138.083 235.418 137.359 235.368 136.623C241.221 136.373 246.975 133.902 251.156 129.784C254.862 126.139 257.296 121.235 258.032 116.105C258.07 116.28 258.095 116.455 258.12 116.617C258.145 116.742 258.157 116.867 258.182 116.991C258.207 117.204 258.244 117.428 258.257 117.653C258.282 117.878 258.307 118.102 258.319 118.327C258.332 118.551 258.344 118.764 258.344 118.988C258.344 119.026 258.344 119.063 258.344 119.101C258.357 119.587 258.357 120.074 258.344 120.561L258.332 120.573Z" fill="#E8809B"/>
<path d="M201.497 149.09C201.697 149.066 201.884 149.09 202.071 149.178C203.157 149.714 204.318 150.139 205.516 150.351C208.424 150.888 211.431 150.588 214.364 150.139C215.737 149.927 217.098 149.69 218.408 149.265C220.729 148.529 222.838 147.256 224.923 145.995C227.331 144.535 229.877 142.9 231.575 140.741C231.537 140.916 231.5 141.091 231.462 141.265C231.4 141.503 231.337 141.752 231.275 141.989C231.213 142.226 231.138 142.463 231.05 142.701C230.901 143.175 230.713 143.637 230.514 144.098C230.414 144.336 230.302 144.573 230.189 144.81C229.802 145.621 229.341 146.42 228.829 147.193C225.721 151.836 219.818 155.967 214.177 156.541C210.745 156.891 207.463 155.767 204.43 154.282C203.719 153.933 202.995 153.496 202.271 153.047C201.709 152.71 201.16 152.373 200.586 152.061C200.149 151.824 199.6 151.948 199.301 152.348C198.365 153.608 197.429 154.869 196.493 156.129C195.369 157.639 194.246 159.137 193.073 160.61C191.875 162.107 190.677 163.617 188.93 164.479C187.357 165.252 185.572 165.639 183.888 166.089C176.574 168.035 169.386 168.21 162.696 164.254C158.415 161.72 155.37 158.139 153.573 154.058C153.261 153.359 152.999 152.66 152.762 151.948C152.55 151.312 152.375 150.675 152.238 150.039C154.297 153.047 157.105 155.543 160.35 157.215C162.322 158.238 164.456 158.962 166.615 159.474C178.546 162.332 192.249 158.001 200.973 149.378C201.123 149.228 201.31 149.128 201.522 149.103L201.497 149.09Z" fill="#E8809B"/>
<path d="M219.244 75.5195C214.764 78.2527 211.819 83.4195 211.856 88.6737C211.794 88.5114 211.719 88.3617 211.632 88.2119C211.632 88.1994 211.619 88.187 211.607 88.162C211.532 88.0247 211.457 87.8874 211.382 87.7501C211.32 87.6378 211.245 87.5255 211.17 87.4132C211.132 87.3508 211.095 87.3009 211.057 87.2509C210.995 87.1511 210.92 87.0388 210.845 86.9389C210.658 86.6768 210.446 86.4148 210.234 86.1652C210.096 86.0029 209.959 85.8407 209.809 85.6909C209.647 85.5162 209.472 85.3415 209.285 85.1667C208.973 84.8672 208.649 84.5802 208.324 84.3181C208.112 84.1434 207.9 83.9811 207.688 83.8189C207.488 83.6816 207.301 83.5318 207.101 83.407C206.702 83.1325 206.29 82.8829 205.878 82.6333C205.242 82.2589 205.217 81.3478 205.828 80.9359C208.674 79.0514 211.794 77.5912 215.101 76.5554C216.411 76.1435 217.759 75.7941 219.12 75.5445C219.157 75.5445 219.195 75.532 219.244 75.5195Z" fill="#E8809B"/>
<path d="M147.27 103.6C147.171 104.386 146.384 105.073 145.523 104.811C145.036 104.673 144.587 104.474 144.15 104.274C143.139 103.825 142.191 103.325 141.005 103.251C139.37 103.126 137.711 103.637 136.275 104.411C135.14 105.023 133.779 103.438 134.84 102.552C136.725 101.029 138.472 100.031 141.005 100.031C143.189 100.031 145.923 100.792 147.108 102.751C147.27 103.026 147.32 103.313 147.283 103.588L147.27 103.6Z" fill="#841347"/>
<path d="M214.165 140.429C210.458 139.943 207.787 136.735 204.729 134.564C204.13 134.139 203.506 133.752 202.857 133.428C201.934 132.979 200.96 132.604 199.95 132.305C199.063 132.043 198.115 132.417 197.616 133.191C196.979 134.177 196.255 135.113 195.432 135.974C194.758 136.698 194.021 137.372 193.235 137.983C190.053 140.467 185.984 142.014 181.903 142.339C180.767 142.426 179.644 142.426 178.533 142.326C177.66 142.251 176.836 142.738 176.487 143.537C176.037 144.56 175.663 145.621 175.326 146.682C174.964 147.793 174.652 148.916 174.353 150.064C174.178 150.763 172.955 150.863 172.843 150.064C172.618 148.404 172.668 146.769 172.967 145.172C173.105 144.435 173.292 143.699 173.529 142.988C173.841 142.039 173.404 141.028 172.518 140.567C171.083 139.805 169.785 138.794 168.687 137.496C167.738 136.398 166.939 135.1 166.328 133.603C165.866 132.467 167.588 131.419 168.412 132.255C168.437 132.28 168.462 132.317 168.487 132.342C169.922 134.189 171.27 135.999 173.367 137.147C174.165 137.584 174.989 137.933 175.85 138.195C176.961 138.545 178.109 138.744 179.282 138.807C179.557 138.819 179.844 138.832 180.118 138.832C184.15 138.844 188.168 137.309 191.213 134.688C192.299 133.752 193.26 132.692 194.059 131.518C194.858 130.37 195.494 129.122 195.968 127.812C196.418 126.526 196.717 125.178 196.817 123.793C196.904 122.62 196.854 121.447 196.68 120.286C196.542 119.325 196.318 118.377 196.018 117.441C195.382 115.481 194.221 113.834 193.335 111.999C192.312 109.89 194.833 107.794 196.617 109.466C199.9 112.561 200.985 117.803 200.848 122.383C200.823 123.207 200.761 124.018 200.673 124.792C200.611 125.328 200.524 125.865 200.411 126.402C200.199 127.462 200.823 128.511 201.859 128.823H201.872C203.669 129.372 205.316 130.171 206.889 131.094C209.747 132.779 212.367 134.876 215.188 136.66C216.71 137.621 216.286 140.704 214.165 140.417V140.429Z" fill="#841347"/>
<path d="M222.501 102.489C222.04 103.038 221.515 103.525 220.954 103.987C220.804 104.112 220.642 104.224 220.48 104.349C220.055 104.661 219.606 104.935 219.144 105.198C218.994 105.272 218.845 105.36 218.695 105.435C218.495 105.534 218.308 105.634 218.108 105.722C218.046 105.747 217.971 105.784 217.909 105.809C217.759 105.871 217.622 105.934 217.472 105.996C217.297 106.071 217.122 106.134 216.948 106.196C216.748 106.271 216.536 106.333 216.324 106.408C216.149 106.47 215.962 106.52 215.787 106.57C215.55 106.633 215.313 106.695 215.076 106.745C214.988 106.77 214.901 106.795 214.801 106.807C214.801 106.807 214.801 106.807 214.789 106.807C214.726 106.82 214.651 106.832 214.589 106.845C214.564 106.845 214.527 106.857 214.502 106.857C214.502 106.857 214.502 106.857 214.489 106.857C214.352 106.882 214.202 106.92 214.065 106.932C213.84 106.982 213.603 107.007 213.366 107.032C213.179 107.057 212.991 107.082 212.804 107.094C212.679 107.107 212.555 107.119 212.43 107.132C212.305 107.144 212.18 107.157 212.055 107.157C211.881 107.157 211.694 107.169 211.519 107.182C209.572 107.244 207.65 106.995 205.928 106.458C204.492 105.996 205.116 104.062 206.527 104.261C209.06 104.623 211.793 104.474 214.239 103.737C216.748 102.988 218.545 101.566 220.667 100.131C221.054 99.8684 221.428 99.8185 221.753 99.9059C221.802 99.9184 221.84 99.9308 221.89 99.9558C221.965 99.9808 222.052 100.031 222.115 100.081C222.152 100.093 222.177 100.131 222.202 100.143C222.227 100.168 222.252 100.18 222.277 100.205C222.302 100.23 222.327 100.255 222.352 100.28C222.414 100.343 222.464 100.405 222.501 100.455C222.526 100.48 222.539 100.517 222.564 100.555C222.589 100.592 222.601 100.63 222.626 100.655C222.639 100.692 222.664 100.73 222.676 100.755C222.689 100.78 222.701 100.804 222.701 100.817C222.701 100.842 222.714 100.867 222.726 100.892C222.726 100.904 222.739 100.917 222.739 100.929C222.751 100.954 222.763 100.992 222.763 101.017C222.763 101.042 222.776 101.067 222.776 101.092C222.776 101.116 222.788 101.154 222.788 101.179V101.191C222.788 101.229 222.801 101.266 222.801 101.316C222.838 101.716 222.738 102.127 222.451 102.477L222.501 102.489Z" fill="#841347"/>
<path d="M169.411 106.695L168.525 106.67C168.612 106.67 168.687 106.67 168.762 106.67H168.787C169.024 106.67 169.236 106.67 169.423 106.695H169.411Z" fill="#B0136E"/>
<path d="M256.423 104.162C254.851 102.751 253.054 101.541 251.132 100.542C250.782 100.355 250.57 100.006 250.582 99.6063C250.62 98.4206 250.558 97.2475 250.408 96.0619C250.295 95.2007 250.133 94.3646 249.934 93.5159C248.036 85.5785 242.221 78.3524 235.194 74.1591C231.475 71.9501 227.394 71.1638 223.263 71.3885C222.826 71.4134 222.415 71.1514 222.252 70.7395C221.404 68.4681 220.181 66.334 218.633 64.437C218.196 63.8629 217.697 63.3263 217.173 62.7896C216.736 62.3278 216.262 61.8786 215.788 61.4542C211.257 57.4231 205.03 54.0909 199.089 52.7805C190.665 50.9334 182.091 53.8413 175.614 59.2827C175.289 59.5448 174.84 59.5947 174.466 59.3825C173.654 58.9457 172.856 58.5463 172.069 58.2094C165.929 55.5885 159.352 55.7882 153.274 58.5089C144.526 62.4027 138.647 70.6147 137 79.7377C136.913 80.2494 136.426 80.6114 135.914 80.549C133.718 80.3118 131.484 80.1746 129.3 80.3118C124.12 80.6363 119.752 83.1948 117.294 87.8125C113.05 95.7624 115.634 103.949 120.077 110.988C120.289 111.325 120.289 111.725 120.089 112.049C120.052 112.099 120.027 112.161 119.989 112.199C118.292 114.957 116.595 117.753 115.821 120.935C115.696 121.497 115.571 122.071 115.497 122.632V122.682C115.497 122.682 115.484 122.732 115.484 122.757C115.334 123.78 115.247 124.816 115.259 125.852V125.915C115.297 130.07 116.545 134.214 118.554 137.833C124.42 148.366 136.176 153.458 147.708 155.193C148.07 155.243 148.357 155.48 148.482 155.805C148.856 156.716 149.293 157.614 149.767 158.475C150.079 159.062 150.429 159.636 150.803 160.185C151.177 160.759 151.577 161.333 152.014 161.87C155.833 166.762 161.386 170.469 167.427 171.967C174.366 173.676 181.929 172.391 188.531 169.882C192.25 168.472 194.621 166.201 196.793 162.918C197.704 161.571 198.54 160.21 199.326 158.825C199.588 158.388 200.137 158.201 200.599 158.413C201.76 158.925 202.883 159.337 203.832 159.699C207.613 161.134 211.582 161.845 215.613 161.184C222.614 160.023 228.942 155.343 232.511 149.278C233.085 148.317 233.559 147.306 233.971 146.257C234.121 145.833 234.57 145.583 235.02 145.633C236.28 145.783 237.553 145.883 238.801 145.908C242.133 145.983 245.74 145.721 248.948 144.772C252.018 143.861 254.152 141.939 256.024 139.431C263.475 129.509 266.794 113.447 256.461 104.112L256.423 104.162ZM143.452 126.676C143.315 126.551 143.128 126.451 142.903 126.414C139.895 125.84 136.813 125.964 133.793 125.378C133.568 125.34 133.356 125.303 133.131 125.253C131.833 124.954 131.097 126.289 131.509 127.213C131.646 127.537 131.933 127.812 132.395 127.936C134.429 128.548 136.788 129.184 139.084 129.359C140.395 129.459 141.693 129.422 142.916 129.159C143.178 129.11 143.465 129.671 143.614 129.496V129.534C143.677 130.283 143.752 130.582 143.914 131.181C143.926 131.256 143.951 131.356 143.976 131.456C143.989 131.518 144.001 131.568 144.014 131.631C144.588 133.927 145.611 136.161 147.022 138.083C147.209 138.332 147.271 138.632 147.209 138.919C146.398 142.351 146.248 145.908 146.747 149.402C146.847 150.076 146.248 150.65 145.574 150.538C138.585 149.24 131.658 146.931 126.379 142.301H126.367C124.757 140.891 123.297 139.268 122.049 137.384C119.141 133.003 117.443 127.599 118.267 122.32C118.691 119.575 119.865 117.066 121.163 114.645C121.362 114.271 121.562 113.896 121.762 113.509C122.236 112.611 122.735 111.712 123.309 110.876C124.195 109.503 125.219 108.243 126.579 107.294C127.178 106.87 127.028 106.071 126.579 105.747C126.429 105.647 126.23 105.572 126.005 105.634C125.905 105.647 125.78 105.684 125.668 105.759C124.732 106.358 123.921 107.057 123.172 107.831C122.71 108.355 121.849 108.218 121.549 107.581C118.879 102.077 117.443 96.0868 120.339 90.2835C121.063 88.7984 121.986 87.6502 123.047 86.7641C126.542 83.8313 131.559 83.7439 136.526 84.4678C137.349 84.5801 138.173 84.7298 138.984 84.8921C141.555 85.3913 144.039 86.0028 146.185 86.4771C146.71 86.5894 147.159 86.4896 147.533 86.2399C148.519 85.6284 148.881 84.1308 147.783 83.3445C147.72 83.2946 147.646 83.2572 147.571 83.2073C145.499 82.0591 143.04 81.5224 140.644 81.1605C140.045 81.0731 139.671 80.4866 139.82 79.9C141.817 72.4243 146.947 65.7225 153.886 62.228C154.672 61.8286 155.496 61.4792 156.319 61.1797C160.787 59.5697 165.58 59.5448 170.085 61.3169C170.859 61.6165 171.62 61.9784 172.356 62.3902C173.305 62.9269 174.216 63.5509 175.052 64.2248C175.564 64.6242 176.038 65.061 176.487 65.4978C176.862 65.8597 177.199 66.2217 177.511 66.5961C178.946 68.2934 179.944 70.1654 181.13 72.1123C181.704 73.0359 182.74 73.1607 183.526 72.7863C184.25 72.4368 184.762 71.6755 184.512 70.6771C183.688 67.5321 181.592 64.749 178.996 62.515C178.497 62.1032 178.534 61.3169 179.046 60.9425C184.45 57.0487 190.677 54.6899 197.716 56.2001C202.596 57.2484 207.663 59.9691 211.569 63.1515C211.719 63.2888 211.894 63.4261 212.044 63.5634C214.515 65.6476 216.574 68.1686 217.847 71.064C218.096 71.6131 217.784 72.2621 217.21 72.4119C211.881 73.9344 206.814 76.9047 202.721 80.4741C202.434 80.7237 202.059 80.7861 201.71 80.6613C201.048 80.4242 200.387 80.212 199.751 80.0373C199.052 79.8376 198.328 79.6753 197.604 79.5256C196.942 79.4008 196.593 78.6769 196.905 78.0904C197.841 76.3057 198.39 74.3962 198.253 72.5242C198.215 72.025 198.128 71.5258 197.978 71.039C197.641 69.8534 195.919 69.8409 195.582 71.039C195.432 71.5507 195.333 72.0499 195.258 72.5616C195.021 74.0343 194.946 75.507 194.397 76.9547C194.209 77.4788 193.985 77.978 193.735 78.4772C193.548 78.8267 193.186 79.0389 192.799 79.0389C189.067 78.939 185.336 79.563 181.866 80.9109C176.687 82.9327 172.369 86.4771 169.399 90.8826C169.386 90.8451 169.374 90.7952 169.349 90.7578C168.275 87.8998 166.903 85.1666 165.155 82.6956C164.207 81.3477 163.146 80.0622 161.935 78.8891C160.662 77.6411 158.765 79.5381 159.989 80.836C160.75 81.6597 161.474 82.5208 162.11 83.4319C162.148 83.4693 162.173 83.5068 162.198 83.5442C163.795 85.8031 165.006 88.3241 165.942 90.945C166.366 92.168 166.79 93.4286 167.077 94.7015C167.115 94.9012 167.09 95.1134 167.015 95.3006C166.191 97.2225 165.605 99.2319 165.268 101.316C165.205 101.74 164.881 102.077 164.456 102.165C158.391 103.375 152.937 107.069 149.106 111.887C145.774 116.105 143.515 121.322 143.415 126.676H143.452ZM258.345 120.573C258.333 120.835 258.32 121.097 258.295 121.359C258.283 121.621 258.258 121.896 258.233 122.146C258.195 122.408 258.17 122.67 258.133 122.932C258.133 122.957 258.121 122.982 258.121 123.019C258.108 123.131 258.083 123.256 258.071 123.369C258.058 123.394 258.058 123.419 258.046 123.443C258.021 123.631 257.996 123.793 257.958 123.968C257.958 124.005 257.946 124.03 257.946 124.067C257.921 124.167 257.896 124.28 257.871 124.392C257.796 124.816 257.671 125.266 257.559 125.69L257.359 126.351C257.284 126.589 257.222 126.813 257.135 127.038C257.022 127.375 256.897 127.712 256.773 128.036C255.5 131.256 253.565 134.464 251.244 137.034C249.01 139.481 245.64 139.842 242.47 140.017C240.411 140.13 238.339 140.067 236.305 139.805C235.793 139.743 235.419 139.293 235.431 138.794C235.456 138.07 235.444 137.321 235.394 136.598C235.382 136.523 235.382 136.46 235.369 136.385V136.261C235.357 136.148 235.344 136.024 235.332 135.911C235.319 135.774 235.307 135.624 235.282 135.474C235.269 135.325 235.244 135.162 235.219 135.013C235.169 134.663 235.119 134.314 235.032 133.964C235.032 133.939 235.032 133.927 235.02 133.914C234.97 133.665 234.92 133.44 234.87 133.191C234.832 133.003 234.783 132.841 234.733 132.654C234.708 132.529 234.67 132.392 234.633 132.279C234.608 132.167 234.57 132.042 234.533 131.93C234.52 131.893 234.508 131.855 234.495 131.818C234.471 131.718 234.433 131.618 234.408 131.531C234.358 131.381 234.308 131.231 234.258 131.094C234.196 130.919 234.134 130.757 234.046 130.57C233.996 130.432 233.934 130.27 233.846 130.12C233.772 129.933 233.697 129.758 233.597 129.571C233.035 128.386 232.336 127.312 231.55 126.326C231.126 125.79 231.35 124.991 231.999 124.766C232.973 124.429 233.971 124.155 234.982 123.955C236.854 123.581 238.789 123.493 240.698 123.593C242.533 123.706 244.442 124.529 246.227 123.893C247.3 123.518 247.562 122.345 246.863 121.497C245.466 119.787 242.745 119.774 240.698 119.712C238.689 119.649 236.642 119.899 234.683 120.361C234.458 120.411 234.258 120.473 234.034 120.536C233.934 120.561 233.809 120.598 233.709 120.623C232.199 121.06 230.489 121.671 228.867 122.483C228.792 122.52 228.717 122.557 228.63 122.595C228.28 122.782 227.868 122.745 227.544 122.507C226.683 121.846 225.784 121.234 224.848 120.648C224.249 120.274 223.638 119.912 223.026 119.562C222.04 118.988 221.054 118.451 220.056 117.915C219.993 117.877 219.919 117.84 219.844 117.802H219.831C218.571 117.116 217.31 116.455 216.112 115.768C215.675 115.531 215.263 115.631 215.001 115.88C214.565 116.267 214.452 117.066 215.101 117.478C216.948 118.676 218.983 119.849 220.979 121.135C221.566 121.497 222.153 121.883 222.714 122.295C223.725 122.994 224.711 123.718 225.635 124.517C226.446 125.203 227.207 125.94 227.893 126.726C228.792 127.737 229.553 128.835 230.165 130.021C231.637 132.916 232.162 135.986 231.875 138.969C231.812 139.568 231.725 140.154 231.6 140.729H231.588C231.563 140.916 231.525 141.078 231.488 141.265C231.425 141.502 231.363 141.739 231.288 141.977C231.213 142.214 231.151 142.451 231.063 142.688C230.914 143.15 230.726 143.624 230.527 144.086C230.427 144.323 230.315 144.548 230.202 144.785C229.815 145.608 229.354 146.395 228.842 147.168C225.734 151.811 219.831 155.929 214.19 156.504C210.758 156.866 207.463 155.742 204.443 154.245C203.732 153.895 203.008 153.471 202.272 153.009C201.71 152.672 201.161 152.335 200.587 152.023C200.15 151.786 199.601 151.911 199.301 152.31C198.365 153.571 197.429 154.844 196.493 156.104C195.382 157.614 194.247 159.112 193.061 160.585C191.863 162.082 190.677 163.58 188.918 164.453C187.345 165.227 185.561 165.614 183.876 166.063C176.55 168.01 169.361 168.185 162.684 164.229C160.026 162.656 157.842 160.672 156.145 158.426H156.132C155.733 157.876 155.358 157.34 154.996 156.766C154.447 155.88 153.973 154.969 153.561 154.02C153.249 153.334 152.987 152.635 152.75 151.911C152.538 151.274 152.363 150.638 152.213 149.989C152.163 149.777 152.126 149.565 152.076 149.34C152.076 149.315 152.064 149.278 152.064 149.253C152.026 149.065 151.989 148.878 151.964 148.691C151.926 148.479 151.901 148.279 151.864 148.067C151.839 147.855 151.814 147.655 151.789 147.443C151.777 147.418 151.777 147.393 151.777 147.368C151.752 147.156 151.739 146.969 151.727 146.769C151.702 146.532 151.689 146.307 151.677 146.083V146.045C151.664 145.845 151.652 145.646 151.652 145.434C151.627 144.997 151.627 144.548 151.639 144.111C151.652 143.911 151.652 143.711 151.664 143.512C151.664 143.412 151.677 143.312 151.677 143.212C151.689 143.075 151.702 142.913 151.714 142.775C151.727 142.626 151.739 142.476 151.752 142.326C151.889 140.891 152.163 139.443 152.575 138.02C153.362 135.237 154.684 132.542 156.482 130.058C157.942 128.074 154.672 125.565 153.05 127.425C152.089 128.51 151.227 129.684 150.466 130.919C150.004 131.68 148.831 131.518 148.632 130.632C148.519 130.108 148.419 129.609 148.369 129.085C147.733 123.406 150.217 117.79 154.011 113.684C154.547 113.11 155.096 112.548 155.683 112.037C155.82 111.899 155.982 111.762 156.132 111.637C156.282 111.5 156.457 111.363 156.631 111.238C156.819 111.088 156.993 110.938 157.193 110.801C157.393 110.651 157.58 110.501 157.78 110.377C157.979 110.239 158.166 110.09 158.366 109.965C158.541 109.853 158.703 109.74 158.89 109.628C158.928 109.603 158.978 109.578 159.015 109.553C159.202 109.441 159.377 109.328 159.564 109.229C159.577 109.216 159.589 109.204 159.614 109.191C159.814 109.091 160.001 108.979 160.188 108.879C160.213 108.867 160.226 108.854 160.238 108.854C160.45 108.742 160.625 108.642 160.837 108.555C160.85 108.53 160.862 108.53 160.887 108.517C161.062 108.442 161.237 108.342 161.424 108.268C161.474 108.243 161.524 108.218 161.574 108.205C161.773 108.118 161.96 108.018 162.173 107.943C162.397 107.856 162.609 107.768 162.834 107.693C162.834 107.693 162.847 107.693 162.847 107.681C163.059 107.606 163.271 107.544 163.483 107.469C163.495 107.456 163.508 107.456 163.52 107.456H163.533C163.645 107.419 163.758 107.381 163.87 107.344C163.97 107.319 164.095 107.307 164.194 107.319H164.207C165.218 107.094 167.14 106.745 168.513 106.683C168.55 106.67 168.587 106.67 168.625 106.67H168.775C168.862 106.67 168.974 106.683 169.074 106.683C169.174 106.683 169.286 106.695 169.386 106.695H169.399C169.586 106.708 169.748 106.72 169.935 106.745C170.647 106.807 171.346 106.92 172.057 107.069C172.244 107.107 172.419 107.144 172.594 107.194C172.681 107.207 172.793 107.232 172.893 107.257C173.005 107.282 173.13 107.319 173.243 107.344C173.742 107.481 174.216 107.644 174.703 107.806C174.852 107.868 175.015 107.918 175.164 107.98C175.339 108.043 175.501 108.105 175.676 108.18C176.338 108.455 176.999 108.742 177.636 109.054C180.494 110.427 183.426 111.388 186.347 112.623C187.395 113.072 188.681 111.812 187.682 110.888C186.197 109.516 184.799 108.055 183.239 106.782C181.667 105.497 179.882 104.648 178.022 103.874C175.464 102.789 172.756 102.015 169.985 101.815C169.898 101.815 169.798 101.803 169.711 101.803C169.074 101.753 168.625 101.129 168.812 100.505C169.311 98.8325 169.973 97.1976 170.759 95.65C173.355 90.6704 177.473 86.5395 182.865 84.3679C185.398 83.3445 188.106 82.733 190.865 82.5832C191.763 82.5333 192.662 82.5333 193.535 82.5832C195.108 82.6706 196.668 82.9327 198.166 83.3445C198.602 83.4569 199.039 83.6066 199.463 83.7439C200.1 83.9561 200.712 84.2057 201.323 84.4802C202.546 85.0294 203.707 85.6908 204.78 86.4895C206.927 88.087 208 90.2087 209.61 92.2429C210.496 93.3537 212.755 92.4676 212.555 91.0199C212.543 90.9076 212.53 90.7827 212.505 90.6829C212.493 90.608 212.48 90.5331 212.455 90.4333C212.443 90.3709 212.43 90.296 212.405 90.2087C212.393 90.1213 212.368 90.0339 212.343 89.9466C212.306 89.7594 212.243 89.5722 212.168 89.3974C212.143 89.3101 212.118 89.2227 212.093 89.1603C212.056 89.0605 212.019 88.9482 211.969 88.8483C211.956 88.8233 211.944 88.7859 211.931 88.7609C211.919 88.7235 211.906 88.6986 211.881 88.6611V88.6361C211.819 88.4864 211.744 88.3241 211.657 88.1744C211.657 88.1619 211.644 88.1494 211.632 88.1369C211.557 87.9997 211.494 87.8624 211.407 87.7251C211.332 87.6253 211.27 87.5005 211.195 87.4006C211.157 87.3382 211.12 87.2883 211.083 87.2259C211.02 87.126 210.958 87.0137 210.87 86.9139C210.671 86.6393 210.471 86.3772 210.259 86.1401C210.122 85.9654 209.972 85.8156 209.835 85.6659C209.66 85.4911 209.485 85.3164 209.298 85.1417C208.998 84.8422 208.674 84.5551 208.337 84.293C208.125 84.1183 207.925 83.9561 207.7 83.7938C207.501 83.6565 207.314 83.5068 207.114 83.382C206.714 83.1074 206.303 82.8453 205.891 82.6207C205.254 82.2463 205.217 81.3227 205.841 80.9234C208.686 79.0264 211.819 77.5787 215.114 76.5428C216.424 76.131 217.772 75.7815 219.145 75.5194C219.182 75.5194 219.22 75.507 219.257 75.507C219.444 75.4695 219.619 75.4446 219.806 75.4071C220.131 75.3572 220.468 75.3073 220.792 75.2698C220.967 75.2449 221.129 75.2199 221.316 75.2074C221.491 75.1825 221.666 75.17 221.853 75.1575C221.94 75.145 222.053 75.1325 222.153 75.1325C222.352 75.1201 222.527 75.1076 222.714 75.0951C222.939 75.0826 223.151 75.0701 223.376 75.0701C226.546 74.9953 229.678 75.6068 232.486 77.3665C239.3 81.6223 244.617 88.9856 245.328 96.8357C245.391 97.5221 244.742 98.0587 244.08 97.884C240.973 97.0603 237.778 96.6485 234.758 96.5486C233.921 96.5237 233.522 97.1227 233.534 97.7467C233.534 98.2459 233.809 98.7576 234.308 98.9947C234.446 99.0571 234.595 99.1071 234.745 99.1195C237.603 99.4565 240.523 100.293 243.307 101.341C243.918 101.566 244.517 101.803 245.104 102.052C245.154 102.077 245.203 102.09 245.253 102.115C245.877 102.377 246.489 102.651 247.076 102.926C248.037 103.375 248.985 103.862 249.884 104.411C251.88 105.609 253.69 107.057 255.075 109.004C255.213 109.204 255.362 109.403 255.475 109.615C255.6 109.803 255.724 109.99 255.837 110.189C255.862 110.214 255.874 110.239 255.887 110.264C255.999 110.464 256.111 110.651 256.211 110.838C256.211 110.851 256.224 110.863 256.224 110.876C256.323 111.063 256.423 111.238 256.511 111.438C256.536 111.475 256.548 111.512 256.573 111.55C256.66 111.762 256.76 111.949 256.835 112.149C256.935 112.374 257.035 112.586 257.11 112.81C257.185 113.01 257.247 113.185 257.334 113.384C257.372 113.522 257.422 113.659 257.459 113.784C257.484 113.884 257.509 113.983 257.546 114.083C257.559 114.133 257.584 114.183 257.596 114.258C257.609 114.308 257.634 114.37 257.646 114.458C257.734 114.77 257.821 115.082 257.883 115.406C257.908 115.469 257.921 115.531 257.933 115.606C257.958 115.781 257.996 115.943 258.021 116.118H258.033V116.143C258.058 116.317 258.096 116.492 258.108 116.667C258.133 116.779 258.145 116.916 258.17 117.041C258.195 117.253 258.22 117.465 258.245 117.69C258.27 117.927 258.283 118.139 258.295 118.364C258.32 118.589 258.32 118.801 258.333 119.025V119.138C258.345 119.637 258.345 120.111 258.333 120.61L258.345 120.573Z" fill="#841347"/>
<path d="M152.325 124.03C153.448 123.756 153.748 122.158 154.272 121.285C154.921 120.186 155.919 119.325 156.356 118.127C156.606 117.428 155.932 116.505 155.183 116.579C153.273 116.779 151.975 118.514 151.351 120.236C151.027 121.11 150.341 124.529 152.337 124.03H152.325Z" fill="#FFDCD8"/>
<path d="M161.361 116.629C162.846 115.893 164.219 115.019 165.829 114.57C167.439 114.121 169.111 114.308 170.609 113.684C172.106 113.06 172.755 110.901 171.096 109.965C167.476 107.931 161.286 110.352 158.877 113.409C157.467 115.207 159.177 117.715 161.361 116.629Z" fill="#FFDCD8"/>
<path d="M161.711 153.034C164.307 159.249 173.604 160.535 179.358 158.625C180.394 158.276 181.167 157.365 181.167 156.242C181.167 155.767 181.08 155.405 180.83 154.994C180.419 154.307 179.545 153.683 178.696 153.77C176.026 154.045 173.48 154.07 170.859 153.446C168.388 152.859 166.303 151.399 163.807 150.925C162.697 150.713 161.162 151.711 161.711 153.022V153.034Z" fill="#FFDCD8"/>
<path d="M219.98 128.598C221.191 130.258 222.09 132.08 222.464 134.102C222.751 135.624 223.038 138.145 225.26 137.509C225.871 137.334 226.57 136.773 226.657 136.111C227.219 132.33 225.21 128.523 221.952 126.614C220.779 125.927 219.082 127.375 219.968 128.598H219.98Z" fill="#FFDCD8"/>
<path d="M240.124 109.141C242.283 110.102 244.592 111.063 246.451 112.548C248.311 114.033 248.798 116.055 250.27 117.678C251.369 118.888 253.203 118.139 253.677 116.779C254.688 113.909 252.417 110.913 250.345 109.116C247.912 107.007 244.929 105.909 241.921 104.873C239.45 104.024 237.69 108.068 240.124 109.141Z" fill="#FFDCD8"/>
<path d="M221.915 82.0218C222.427 81.8471 223.001 81.8471 223.463 81.9095C224.236 82.0218 225.035 82.2465 225.647 82.2215C226.595 82.1716 227.169 81.3729 226.994 80.4618C226.732 79.1389 225.41 78.2902 224.124 78.0906C222.839 77.8909 221.653 78.153 220.555 78.8144C218.895 79.8128 219.968 82.6708 221.915 82.0218Z" fill="#FFDCD8"/>
<path d="M230.289 85.9159C233.597 86.5648 233.821 91.1201 237.141 91.9064C237.728 92.0437 238.339 91.8065 238.664 91.2824C240.049 88.9735 238.751 86.2653 237.191 84.4307C235.631 82.5961 233.347 81.5104 230.888 81.4729C228.43 81.4355 227.743 85.4042 230.289 85.9034V85.9159Z" fill="#FFDCD8"/>
<path d="M189.267 91.0573C192.711 88.8483 196.281 90.9575 199.463 92.555C202.321 93.9902 204.642 90.0464 201.972 88.2743C197.479 85.304 191.201 83.8687 187.095 88.2493C185.747 89.6845 187.495 92.193 189.267 91.0573Z" fill="#FFDCD8"/>
<path d="M125.48 133.565C125.555 135.649 127.464 138.045 128.962 139.393C130.784 141.04 132.993 142.164 135.489 141.565C137.024 141.19 137.561 138.632 135.963 137.933C134.366 137.234 132.831 136.647 131.495 135.512C130.16 134.376 128.987 132.754 127.34 132.155C126.453 131.83 125.455 132.679 125.48 133.565Z" fill="#FFDCD8"/>
<path d="M130.934 121.234C132.919 122.108 134.741 120.373 135.689 118.738C136.75 116.904 137.399 114.545 135.452 113.085C134.878 112.648 134.054 112.798 133.468 113.085C131.983 113.809 132.057 115.643 131.321 116.891C130.997 117.44 130.61 117.99 130.323 118.564C129.911 119.362 129.948 120.798 130.934 121.234Z" fill="#FFDCD8"/>
<path d="M129.286 94.2524C131.233 93.7407 133.442 93.5535 135.452 93.6908C137.461 93.8281 139.133 94.6643 140.893 93.6034C141.854 93.0293 142.004 91.9436 141.579 90.9826C140.556 88.6488 137.286 88.499 135.065 88.499C132.344 88.499 130.073 89.2603 127.701 90.5083C125.617 91.6066 127.065 94.8265 129.274 94.2524H129.286Z" fill="#FFDCD8"/>
<path d="M160.075 68.6054C161.897 68.0063 163.894 67.9065 165.766 68.3308C167.638 68.7551 169.073 70.0531 171.02 70.2403C172.43 70.3651 173.853 68.6054 173.292 67.2575C171.045 61.8411 162.708 62.5026 158.577 65.0485C156.768 66.1717 157.916 69.3168 160.075 68.6054Z" fill="#FFDCD8"/>
<path d="M186.633 64.4245C187.382 63.8005 188.555 63.7256 189.154 62.8395C189.404 62.4776 189.291 61.9534 189.004 61.6664C188.455 61.0923 187.382 61.0424 186.683 61.292C185.909 61.5541 185.273 61.9409 184.636 62.4402C184.037 62.9144 184.15 63.9378 184.636 64.4245C185.21 64.9986 186.034 64.9112 186.621 64.4245H186.633Z" fill="#FFDCD8"/>
<path d="M194.745 62.9394C199.388 63.4885 203.145 65.9221 207.563 67.0828C208.611 67.3574 209.809 66.0969 209.085 65.1109C205.903 60.7678 199.812 59.6321 194.745 59.6196C192.549 59.6196 192.674 62.7022 194.745 62.9519V62.9394Z" fill="#FFDCD8"/>
<path d="M259.044 157.964C256.099 163.069 249.41 165.677 239.725 165.677C235.232 165.677 230.103 165.115 224.399 163.992C221.005 163.318 217.498 162.457 213.866 161.434C208.412 159.874 202.709 157.914 196.88 155.605H196.868C196.106 155.306 195.345 154.994 194.584 154.669C194.497 154.644 194.397 154.607 194.297 154.557C189.704 152.673 185.037 150.576 180.344 148.267C179.608 147.905 178.859 147.543 178.135 147.169C177.673 146.944 177.199 146.72 176.75 146.47C176.375 146.283 176.001 146.096 175.614 145.883C174.765 145.459 173.929 145.022 173.093 144.573C172.644 144.336 172.182 144.111 171.745 143.849C169.349 142.576 166.953 141.241 164.569 139.868C161.037 137.834 157.617 135.749 154.31 133.64C152.975 132.792 151.664 131.943 150.366 131.069C149.717 130.657 149.081 130.221 148.457 129.796C146.76 128.636 145.087 127.488 143.452 126.327C141.256 124.767 139.147 123.194 137.088 121.634C137.063 121.597 137.025 121.572 137 121.559C135.665 120.524 134.354 119.5 133.081 118.452C129.724 115.756 126.567 113.035 123.659 110.352C120.963 107.856 118.467 105.398 116.183 102.951C102.754 88.5617 96.8513 75.3951 101.644 67.1082C106.648 58.4594 122.748 57.124 145.849 63.4515C145.299 63.9632 144.775 64.4873 144.276 65.0365C122.96 59.3705 107.697 60.5061 103.328 68.0816C99.2599 75.108 104.14 86.4276 115.297 99.0576C116.782 100.73 118.38 102.427 120.077 104.149C121.163 105.26 122.323 106.396 123.521 107.507C123.971 107.931 124.433 108.368 124.894 108.792C127.727 111.413 130.773 114.046 134.03 116.705C135.328 117.74 136.651 118.789 138.011 119.85C138.061 119.887 138.111 119.924 138.186 119.974C139.97 121.335 141.793 122.695 143.677 124.055C145.175 125.141 146.697 126.227 148.257 127.288C149.306 128.012 150.379 128.748 151.465 129.459C152.713 130.296 153.973 131.119 155.259 131.93C158.578 134.065 162.011 136.149 165.542 138.183C166.928 138.994 168.313 139.768 169.698 140.517C170.996 141.241 172.294 141.952 173.592 142.651C174.503 143.125 175.402 143.599 176.288 144.049C176.949 144.398 177.611 144.735 178.272 145.06C178.959 145.422 179.645 145.771 180.331 146.096C181.068 146.47 181.817 146.832 182.54 147.169C187.158 149.415 191.751 151.45 196.256 153.272C196.344 153.309 196.443 153.347 196.531 153.371C197.055 153.584 197.554 153.783 198.066 153.995C205.08 156.754 211.869 158.963 218.284 160.61C220.505 161.184 222.664 161.671 224.774 162.095C241.684 165.44 253.553 163.593 257.347 157.003C259.581 153.134 258.894 147.032 255.45 140.155C255.637 139.943 255.799 139.731 255.974 139.506C256.249 139.157 256.511 138.795 256.748 138.42C260.866 146.258 261.69 153.371 259.032 157.989L259.044 157.964Z" fill="#FF4C4C"/>
<path d="M144.738 132.792C148.839 132.792 152.163 129.467 152.163 125.366C152.163 121.265 148.839 117.94 144.738 117.94C140.637 117.94 137.312 121.265 137.312 125.366C137.312 129.467 140.637 132.792 144.738 132.792Z" fill="#FEE702"/>
<path d="M250.408 96.0617C248.848 98.0461 247.126 100.068 245.241 102.115C240.836 106.92 235.581 111.874 229.591 116.829C228.193 117.989 226.745 119.15 225.273 120.311C225.123 120.423 224.961 120.548 224.811 120.673C224.674 120.773 224.524 120.897 224.387 121.01C223.825 121.434 223.276 121.871 222.702 122.308C218.309 125.627 213.616 128.935 208.624 132.192C207.376 133.003 206.103 133.814 204.805 134.626C201.997 136.41 199.102 138.145 196.131 139.855C191.614 142.463 187.071 144.909 182.565 147.168C181.829 147.543 181.08 147.905 180.356 148.266C175.614 150.575 170.909 152.709 166.279 154.594C164.17 155.48 162.098 156.291 160.039 157.053C158.728 157.564 157.443 158.026 156.157 158.463H156.145C154.335 159.099 152.575 159.686 150.803 160.247C145.761 161.82 140.906 163.093 136.289 164.004C130.585 165.14 125.456 165.689 120.963 165.689C111.278 165.689 104.589 163.08 101.644 157.976C97.5376 150.875 102.979 137.059 115.484 122.682V122.732C115.484 122.732 115.472 122.782 115.472 122.807L115.247 125.902V125.964C104.651 138.794 99.8714 151.025 103.328 156.99C107.135 163.567 119.004 165.427 135.902 162.082C140.32 161.196 144.95 160.01 149.755 158.525C151.477 157.976 153.237 157.414 154.997 156.803C155.97 156.466 156.944 156.129 157.917 155.767C160.026 155.006 162.123 154.195 164.269 153.321H164.282C167.09 152.185 169.935 150.975 172.793 149.664C173.43 149.39 174.054 149.103 174.69 148.791C175.839 148.266 176.974 147.73 178.135 147.168C178.871 146.819 179.608 146.469 180.344 146.095C185.261 143.661 190.216 141.015 195.145 138.17C197.08 137.059 199.002 135.911 200.874 134.763C201.573 134.339 202.247 133.902 202.933 133.477H202.946C204.231 132.666 205.517 131.867 206.765 131.044C206.802 131.019 206.839 130.994 206.877 130.969C211.832 127.749 216.537 124.467 220.942 121.147C221.504 120.723 222.04 120.298 222.589 119.886C222.714 119.774 222.852 119.674 222.976 119.574C223.089 119.487 223.213 119.387 223.326 119.3C224.986 118.014 226.596 116.729 228.156 115.431C233.922 110.676 239.013 105.921 243.282 101.328C245.778 98.6701 247.999 96.0492 249.921 93.5157C250.133 94.3644 250.283 95.2006 250.395 96.0617H250.408Z" fill="#FF4C4C"/>
</g>
<path d="M200.001 176.947C240.351 176.947 273.06 144.237 273.06 103.888C273.06 63.5383 240.351 30.8286 200.001 30.8286C159.652 30.8286 126.942 63.5383 126.942 103.888C126.942 144.237 159.652 176.947 200.001 176.947Z" stroke="#3C008A" stroke-width="7.7003" stroke-miterlimit="10"/>
<path fill-rule="evenodd" clip-rule="evenodd" d="M68.1657 128.798C68.1657 64.521 119.948 12.4862 183.538 12.4862C247.128 12.4862 298.924 64.5355 298.924 128.812V340.406H68.1657V128.798ZM56.0206 128.798C56.0206 57.8976 113.156 0.341064 183.538 0.341064C253.919 0.341064 311.069 57.912 311.069 128.812V352.551H56.0206V128.798Z" fill="#3C008A"/>
<path d="M66.3861 259.085C85.6266 259.085 101.292 243.436 101.292 224.195V190.268C101.292 171.027 85.6426 155.362 66.3861 155.362C47.1295 155.362 31.4966 171.011 31.4966 190.268V224.195C31.4966 243.436 47.1456 259.085 66.3861 259.085Z" fill="white"/>
<path fill-rule="evenodd" clip-rule="evenodd" d="M66.3855 267.182C90.0929 267.182 109.388 247.913 109.388 224.196V190.268C109.388 166.558 90.1161 147.266 66.3855 147.266C42.6524 147.266 23.3992 166.545 23.3992 190.268V224.196C23.3992 247.908 42.6732 267.182 66.3855 267.182ZM101.291 224.196C101.291 243.436 85.626 259.085 66.3855 259.085C47.145 259.085 31.496 243.436 31.496 224.196V190.268C31.496 171.012 47.1289 155.363 66.3855 155.363C85.642 155.363 101.291 171.028 101.291 190.268V224.196Z" fill="#3C008A"/>
<path d="M66.381 158.57C48.9043 158.57 34.6983 172.792 34.6983 190.252V224.18C34.6983 241.656 48.9203 255.862 66.3971 255.862C83.8739 255.862 98.0958 241.64 98.0958 224.18V190.252C98.0958 172.776 83.8739 158.57 66.3971 158.57M66.3971 152.156C87.4334 152.156 104.509 169.216 104.509 190.252V224.18C104.509 245.232 87.4494 262.276 66.3971 262.276C45.3608 262.276 28.3009 245.216 28.3009 224.18V190.252C28.3009 169.2 45.3608 152.156 66.3971 152.156Z" fill="#3C008A"/>
<path d="M52.2738 185.04C52.2738 177.248 58.5909 170.931 66.3835 170.931C74.1761 170.931 80.4932 177.248 80.4932 185.04V207.872C80.4932 215.665 74.1761 221.982 66.3835 221.982C58.5909 221.982 52.2738 215.665 52.2738 207.872V185.04Z" fill="#1C1C1C"/>
<path d="M53.0414 176.431C53.0414 172.31 56.3925 168.959 60.5131 168.959C64.6338 168.959 67.9849 172.31 67.9849 176.431C67.9849 180.551 64.6338 183.902 60.5131 183.902C56.3925 183.902 53.0414 180.551 53.0414 176.431Z" fill="white"/>
<path d="M171.708 259.085C190.949 259.085 206.614 243.436 206.614 224.195V190.268C206.614 171.027 190.965 155.362 171.708 155.362C152.452 155.362 136.819 171.011 136.819 190.268V224.195C136.819 243.436 152.468 259.085 171.708 259.085Z" fill="white"/>
<path fill-rule="evenodd" clip-rule="evenodd" d="M171.7 267.182C195.408 267.182 214.703 247.913 214.703 224.196V190.268C214.703 166.558 195.431 147.266 171.7 147.266C147.967 147.266 128.714 166.545 128.714 190.268V224.196C128.714 247.908 147.988 267.182 171.7 267.182ZM206.606 224.196C206.606 243.436 190.941 259.085 171.7 259.085C152.46 259.085 136.811 243.436 136.811 224.196V190.268C136.811 171.012 152.444 155.363 171.7 155.363C190.957 155.363 206.606 171.028 206.606 190.268V224.196Z" fill="#3C008A"/>
<path d="M171.704 158.57C154.227 158.57 140.021 172.792 140.021 190.252V224.18C140.021 241.656 154.243 255.862 171.72 255.862C189.197 255.862 203.419 241.64 203.419 224.18V190.252C203.419 172.776 189.197 158.57 171.72 158.57M171.72 152.156C192.756 152.156 209.832 169.216 209.832 190.252V224.18C209.832 245.232 192.772 262.276 171.72 262.276C150.684 262.276 133.624 245.216 133.624 224.18V190.252C133.624 169.2 150.684 152.156 171.72 152.156Z" fill="#3C008A"/>
<path d="M157.589 185.04C157.589 177.248 163.906 170.931 171.698 170.931C179.491 170.931 185.808 177.248 185.808 185.04V207.872C185.808 215.665 179.491 221.982 171.698 221.982C163.906 221.982 157.589 215.665 157.589 207.872V185.04Z" fill="#1C1C1C"/>
<path d="M158.36 176.431C158.36 172.31 161.711 168.959 165.832 168.959C169.953 168.959 173.304 172.31 173.304 176.431C173.304 180.551 169.953 183.902 165.832 183.902C161.711 183.902 158.36 180.551 158.36 176.431Z" fill="white"/>
<path fill-rule="evenodd" clip-rule="evenodd" d="M77.2706 125.802C78.91 128.664 82.5459 129.699 85.4524 128.109C88.3949 126.5 89.4757 122.81 87.8664 119.868L82.5386 122.781C87.8664 119.868 87.8648 119.865 87.8632 119.862L87.8598 119.856L87.8528 119.843L87.8376 119.815L87.802 119.752C87.776 119.707 87.7455 119.654 87.7102 119.595C87.6397 119.477 87.5503 119.332 87.4411 119.164C87.2231 118.829 86.9239 118.4 86.5367 117.909C85.765 116.932 84.6236 115.686 83.0534 114.456C79.8487 111.945 75.0001 109.622 68.3259 109.649M77.2706 125.802C77.2683 125.799 77.2654 125.794 77.262 125.789C77.2273 125.736 77.1425 125.61 77.0045 125.435C76.7258 125.082 76.252 124.556 75.5628 124.016C74.2492 122.986 72.0035 121.779 68.3729 121.794L68.3699 121.794C63.8198 121.811 61.6826 123.139 60.7758 123.906C60.273 124.331 59.9939 124.715 59.8654 124.919C59.8317 124.972 59.8086 125.013 59.795 125.038C58.5945 128.044 55.2255 129.594 52.1435 128.51C48.9794 127.398 47.3161 123.932 48.4283 120.768L54.1572 122.781C48.4283 120.768 48.4298 120.764 48.4312 120.759L48.4343 120.751L48.4406 120.733L48.4542 120.696L48.4852 120.612C48.5076 120.553 48.5336 120.486 48.5635 120.413C48.6232 120.266 48.6985 120.092 48.7917 119.894C48.9777 119.499 49.2365 119.006 49.5863 118.45C50.2867 117.337 51.357 115.964 52.9364 114.629C56.1935 111.877 61.1506 109.676 68.3228 109.649" fill="#3C008A"/>
<path fill-rule="evenodd" clip-rule="evenodd" d="M112.053 268.562C110.413 265.701 106.777 264.666 103.871 266.255C100.928 267.865 99.8476 271.555 101.457 274.497L106.785 271.583C101.457 274.497 101.458 274.5 101.46 274.503L101.463 274.509L101.47 274.522L101.486 274.549L101.521 274.612C101.547 274.658 101.578 274.71 101.613 274.77C101.684 274.888 101.773 275.033 101.882 275.201C102.1 275.536 102.399 275.965 102.787 276.455C103.558 277.433 104.7 278.679 106.27 279.909C109.475 282.42 114.323 284.743 120.997 284.716M112.053 268.562C112.055 268.566 112.058 268.571 112.061 268.576C112.096 268.629 112.181 268.755 112.319 268.929C112.597 269.282 113.071 269.809 113.76 270.349C115.074 271.378 117.32 272.586 120.95 272.571L120.953 272.571C125.503 272.554 127.641 271.225 128.547 270.459C129.05 270.034 129.329 269.65 129.458 269.446C129.492 269.392 129.515 269.352 129.528 269.326C130.729 266.321 134.098 264.771 137.18 265.854C140.344 266.966 142.007 270.433 140.895 273.597L135.166 271.583C140.895 273.597 140.893 273.601 140.892 273.605L140.889 273.614L140.883 273.632L140.869 273.669L140.838 273.753C140.816 273.812 140.79 273.878 140.76 273.952C140.7 274.099 140.625 274.273 140.532 274.471C140.346 274.866 140.087 275.359 139.737 275.915C139.037 277.028 137.966 278.401 136.387 279.735C133.13 282.488 128.173 284.689 121 284.716" fill="#3C008A"/>
</svg>
