<?xml version="1.0" encoding="utf-8"?>
<!-- Generator: Adobe Illustrator 27.5.0, SVG Export Plug-In . SVG Version: 6.00 Build 0)  -->
<svg version="1.1" xmlns="http://www.w3.org/2000/svg" xmlns:xlink="http://www.w3.org/1999/xlink" x="0px" y="0px"
	 viewBox="0 0 500 500" style="enable-background:new 0 0 500 500;" xml:space="preserve">
<g id="Background_Simple">
	<g>
		<path style="fill:#C6FF00;" d="M436.937,419.903H64.988c0,0-11.794-19.958-19.958-59.875
			c-8.165-39.917,30.845-25.401,40.824-59.875c9.979-34.473-33.566-27.216-29.937-74.39c3.629-47.174,63.504-48.081,92.534-41.731
			c29.03,6.35,25.402-15.422,58.968-51.71c33.566-36.288,84.369-32.659,109.77-4.536c25.402,28.123,17.237,57.153,48.989,57.153
			s60.782,6.35,79.833,67.132c19.051,60.782-15.772,88.559-15.144,115.948C431.494,395.409,436.937,419.903,436.937,419.903z"/>
		<path style="opacity:0.7;fill:#FFFFFF;" d="M436.937,419.903H64.988c0,0-11.794-19.958-19.958-59.875
			c-8.165-39.917,30.845-25.401,40.824-59.875c9.979-34.473-33.566-27.216-29.937-74.39c3.629-47.174,63.504-48.081,92.534-41.731
			c29.03,6.35,25.402-15.422,58.968-51.71c33.566-36.288,84.369-32.659,109.77-4.536c25.402,28.123,17.237,57.153,48.989,57.153
			s60.782,6.35,79.833,67.132c19.051,60.782-15.772,88.559-15.144,115.948C431.494,395.409,436.937,419.903,436.937,419.903z"/>
	</g>
</g>
<g id="Bulb">
	<path style="fill:#263238;stroke:#263238;stroke-linecap:round;stroke-linejoin:round;stroke-miterlimit:10;" d="M215.414,419.903
		c-9.116-13.875-48.043-72.191-59.38-73.751c-11.095-1.526-50.505,57.45-61.167,73.751H215.414z"/>
	<g>
		<g>
			
				<line style="fill:none;stroke:#263238;stroke-width:3;stroke-linecap:round;stroke-linejoin:round;stroke-miterlimit:10;" x1="265.284" y1="79.128" x2="265.284" y2="213.622"/>
			
				<line style="fill:none;stroke:#263238;stroke-width:3;stroke-linecap:round;stroke-linejoin:round;stroke-miterlimit:10;" x1="281.259" y1="82.735" x2="281.259" y2="213.622"/>
			
				<line style="fill:none;stroke:#263238;stroke-width:3;stroke-linecap:round;stroke-linejoin:round;stroke-miterlimit:10;" x1="298.779" y1="154.363" x2="298.779" y2="281.127"/>
			
				<line style="fill:none;stroke:#263238;stroke-width:3;stroke-linecap:round;stroke-linejoin:round;stroke-miterlimit:10;" x1="317.33" y1="82.735" x2="317.33" y2="281.127"/>
			
				<line style="fill:none;stroke:#263238;stroke-width:3;stroke-linecap:round;stroke-linejoin:round;stroke-miterlimit:10;" x1="335.881" y1="82.735" x2="335.881" y2="217.23"/>
			
				<line style="fill:none;stroke:#263238;stroke-width:3;stroke-linecap:round;stroke-linejoin:round;stroke-miterlimit:10;" x1="251.371" y1="97.164" x2="336.396" y2="97.164"/>
			
				<line style="fill:none;stroke:#263238;stroke-width:3;stroke-linecap:round;stroke-linejoin:round;stroke-miterlimit:10;" x1="251.371" y1="127.051" x2="343.583" y2="127.051"/>
			
				<line style="fill:none;stroke:#263238;stroke-width:3;stroke-linecap:round;stroke-linejoin:round;stroke-miterlimit:10;" x1="249.825" y1="154.363" x2="352.371" y2="154.363"/>
			
				<line style="fill:none;stroke:#263238;stroke-width:3;stroke-linecap:round;stroke-linejoin:round;stroke-miterlimit:10;" x1="248.279" y1="184.766" x2="352.371" y2="184.766"/>
			
				<line style="fill:none;stroke:#263238;stroke-width:3;stroke-linecap:round;stroke-linejoin:round;stroke-miterlimit:10;" x1="267.861" y1="217.745" x2="346.702" y2="217.745"/>
			
				<line style="fill:none;stroke:#263238;stroke-width:3;stroke-linecap:round;stroke-linejoin:round;stroke-miterlimit:10;" x1="288.473" y1="249.694" x2="340.003" y2="249.694"/>
		</g>
		<g>
			
				<line style="fill:none;stroke:#263238;stroke-width:2;stroke-linecap:round;stroke-linejoin:round;stroke-miterlimit:10;" x1="152.807" y1="91.904" x2="170.999" y2="106.141"/>
			
				<line style="fill:none;stroke:#263238;stroke-width:2;stroke-linecap:round;stroke-linejoin:round;stroke-miterlimit:10;" x1="189.191" y1="76.876" x2="195.518" y2="86.367"/>
			
				<line style="fill:none;stroke:#263238;stroke-width:2;stroke-linecap:round;stroke-linejoin:round;stroke-miterlimit:10;" x1="221.62" y1="53.938" x2="227.156" y2="71.339"/>
		</g>
		<g>
			<path style="fill:#C6FF00;stroke:#263238;stroke-width:2;stroke-linecap:round;stroke-linejoin:round;stroke-miterlimit:10;" d="
				M325.396,277.539h-30.03v-71.333h-40.667V79.885c-54.767,0.537-99,45.093-99,99.987c0,16.885,4.191,32.788,11.58,46.737
				c3.259,7.587,10.925,26.182,18.596,50.218c7.081,22.188,10.789,44.504,10.789,47.876c0,0.326-0.006,0.67-0.018,1.027
				c-0.135,4.228,3.24,7.739,7.47,7.739h45.306h12.649h45.306c4.23,0,7.605-3.511,7.47-7.739c-0.011-0.357-0.018-0.701-0.018-1.027
				C314.83,321.368,318.461,299.49,325.396,277.539z"/>
			<path style="fill:none;stroke:#263238;stroke-width:2;stroke-linecap:round;stroke-linejoin:round;stroke-miterlimit:10;" d="
				M220.806,95.963c2.865-1.285,5.839-2.439,8.896-3.398"/>
			<path style="fill:none;stroke:#263238;stroke-width:2;stroke-linecap:round;stroke-linejoin:round;stroke-miterlimit:10;" d="
				M187.506,121.335c0,0,8.152-12.947,26.063-21.749"/>
			<path style="fill:none;stroke:#263238;stroke-width:2;stroke-linecap:round;stroke-linejoin:round;stroke-miterlimit:10;" d="
				M189.651,265.263c3.713,12.121,8.617,28.906,10.322,38.283c2.877,15.824,0.959,23.975,7.193,25.414"/>
			<path style="fill:none;stroke:#263238;stroke-width:2;stroke-linecap:round;stroke-linejoin:round;stroke-miterlimit:10;" d="
				M185.109,250.801c0,0,1.055,3.249,2.614,8.234"/>
			<path style="fill:none;stroke:#263238;stroke-width:2;stroke-linecap:round;stroke-linejoin:round;stroke-miterlimit:10;" d="
				M249.422,332.469v-95.597c0,0,3.943-25-9.057-25s-12,13,3,27s38,1,41-10s-5-16-10-7s0,111,0,111"/>
		</g>
		<g>
			
				<rect x="202.079" y="332.859" style="fill:#FFFFFF;stroke:#263238;stroke-width:2;stroke-linecap:round;stroke-linejoin:round;stroke-miterlimit:10;" width="107.911" height="25.04"/>
			
				<rect x="202.079" y="363.861" style="fill:#FFFFFF;stroke:#263238;stroke-width:2;stroke-linecap:round;stroke-linejoin:round;stroke-miterlimit:10;" width="107.911" height="25.04"/>
			
				<rect x="202.079" y="357.899" style="fill:#263238;stroke:#263238;stroke-linecap:round;stroke-linejoin:round;stroke-miterlimit:10;" width="107.911" height="5.962"/>
			
				<rect x="202.079" y="394.863" style="fill:#FFFFFF;stroke:#263238;stroke-width:2;stroke-linecap:round;stroke-linejoin:round;stroke-miterlimit:10;" width="107.911" height="25.04"/>
			
				<line style="fill:none;stroke:#263238;stroke-linecap:round;stroke-linejoin:round;stroke-miterlimit:10;" x1="298.698" y1="354.552" x2="306.72" y2="354.552"/>
			
				<line style="fill:none;stroke:#263238;stroke-linecap:round;stroke-linejoin:round;stroke-miterlimit:10;" x1="206.32" y1="354.552" x2="294.836" y2="354.552"/>
			
				<line style="fill:none;stroke:#263238;stroke-linecap:round;stroke-linejoin:round;stroke-miterlimit:10;" x1="277.901" y1="386.045" x2="303.749" y2="386.045"/>
			
				<line style="fill:none;stroke:#263238;stroke-linecap:round;stroke-linejoin:round;stroke-miterlimit:10;" x1="222.344" y1="386.045" x2="274.93" y2="386.045"/>
			
				<line style="fill:none;stroke:#263238;stroke-linecap:round;stroke-linejoin:round;stroke-miterlimit:10;" x1="213.728" y1="386.045" x2="218.185" y2="386.045"/>
			
				<rect x="202.079" y="388.901" style="fill:#263238;stroke:#263238;stroke-linecap:round;stroke-linejoin:round;stroke-miterlimit:10;" width="107.911" height="5.962"/>
			
				<rect x="216.126" y="400.349" style="fill:#C6FF00;stroke:#263238;stroke-linecap:round;stroke-linejoin:round;stroke-miterlimit:10;" width="36.943" height="19.231"/>
			
				<rect x="264.203" y="400.349" style="fill:#C6FF00;stroke:#263238;stroke-linecap:round;stroke-linejoin:round;stroke-miterlimit:10;" width="36.943" height="19.231"/>
		</g>
	</g>
</g>
<g id="Ground">
	<path style="fill:#263238;stroke:#263238;stroke-linecap:round;stroke-linejoin:round;stroke-miterlimit:10;" d="M334.365,419.903
		c-7.078-6.212-37.304-32.32-46.106-33.018c-8.615-0.683-39.215,25.72-47.494,33.018H334.365z"/>
	<g>
		
			<line style="fill:#FFFFFF;stroke:#263238;stroke-linecap:round;stroke-linejoin:round;stroke-miterlimit:10;" x1="451.08" y1="419.903" x2="459.76" y2="419.903"/>
		
			<line style="fill:#FFFFFF;stroke:#263238;stroke-linecap:round;stroke-linejoin:round;stroke-miterlimit:10;" x1="53.742" y1="419.903" x2="442.4" y2="419.903"/>
		
			<line style="fill:#FFFFFF;stroke:#263238;stroke-linecap:round;stroke-linejoin:round;stroke-miterlimit:10;" x1="40.24" y1="419.903" x2="46.991" y2="419.903"/>
	</g>
</g>
<g id="Trucks">
	<g>
		<polygon style="fill:#263238;stroke:#263238;stroke-linecap:round;stroke-linejoin:round;stroke-miterlimit:10;" points="
			433.613,362.831 407.662,362.831 407.662,399.225 418.414,399.225 433.613,399.225 444.365,399.225 444.365,381.028 		"/>
		
			<rect x="432.475" y="399.225" style="fill:#FFFFFF;stroke:#263238;stroke-linecap:round;stroke-linejoin:round;stroke-miterlimit:10;" width="11.89" height="8.271"/>
		<path style="fill:#C6FF00;stroke:#263238;stroke-linecap:round;stroke-linejoin:round;stroke-miterlimit:10;" d="M388.365,398.817
			c0,0,13-7,8.5-42l-16.5-9l-28.5-4.5l-25.5,1v14.5c0,0,14.5,12.5,16,16.5s1.5,8.5,1.5,8.5v14L388.365,398.817z"/>
		
			<line style="fill:none;stroke:#263238;stroke-linecap:round;stroke-linejoin:round;stroke-miterlimit:10;" x1="396.865" y1="356.817" x2="388.365" y2="398.817"/>
		
			<line style="fill:none;stroke:#263238;stroke-linecap:round;stroke-linejoin:round;stroke-miterlimit:10;" x1="380.365" y1="347.817" x2="370.865" y2="398.817"/>
		
			<line style="fill:none;stroke:#263238;stroke-linecap:round;stroke-linejoin:round;stroke-miterlimit:10;" x1="351.865" y1="343.317" x2="344.865" y2="381.317"/>
		<path style="fill:none;stroke:#263238;stroke-linecap:round;stroke-linejoin:round;stroke-miterlimit:10;" d="M327.365,356.817
			c0,0,16.5,7,23,11.5s5.5,14,5.5,14"/>
		
			<rect x="330.363" y="399.493" style="fill:#FFFFFF;stroke:#263238;stroke-linecap:round;stroke-linejoin:round;stroke-miterlimit:10;" width="77.531" height="6.504"/>
		<g>
			<polygon style="fill:#FFFFFF;stroke:#263238;stroke-linecap:round;stroke-linejoin:round;stroke-miterlimit:10;" points="
				423.365,382.817 439.559,382.817 430.865,367.817 423.365,367.817 			"/>
			
				<rect x="413.865" y="367.817" style="fill:#FFFFFF;stroke:#263238;stroke-linecap:round;stroke-linejoin:round;stroke-miterlimit:10;" width="7" height="15"/>
		</g>
		
			<rect x="330.767" y="399.225" style="fill:#FFFFFF;stroke:#263238;stroke-linecap:round;stroke-linejoin:round;stroke-miterlimit:10;" width="47.197" height="11.271"/>
		<g>
			
				<ellipse transform="matrix(0.9841 -0.1777 0.1777 0.9841 -66.1575 81.3227)" style="fill:#263238;stroke:#263238;stroke-linecap:round;stroke-linejoin:round;stroke-miterlimit:10;" cx="420.896" cy="409.978" rx="9.926" ry="9.926"/>
			
				<circle style="fill:#FFFFFF;stroke:#263238;stroke-linecap:round;stroke-linejoin:round;stroke-miterlimit:10;" cx="420.896" cy="409.978" r="5.79"/>
		</g>
		<g>
			
				<ellipse transform="matrix(0.9847 -0.1743 0.1743 0.9847 -66.1816 66.297)" style="fill:#263238;stroke:#263238;stroke-linecap:round;stroke-linejoin:round;stroke-miterlimit:10;" cx="344.396" cy="409.978" rx="9.926" ry="9.926"/>
			
				<circle style="fill:#FFFFFF;stroke:#263238;stroke-linecap:round;stroke-linejoin:round;stroke-miterlimit:10;" cx="344.396" cy="409.978" r="5.79"/>
		</g>
		<g>
			
				<ellipse transform="matrix(0.7366 -0.6763 0.6763 0.7366 -180.2506 357.1065)" style="fill:#263238;stroke:#263238;stroke-linecap:round;stroke-linejoin:round;stroke-miterlimit:10;" cx="368.365" cy="409.978" rx="9.926" ry="9.926"/>
			
				<circle style="fill:#FFFFFF;stroke:#263238;stroke-linecap:round;stroke-linejoin:round;stroke-miterlimit:10;" cx="368.365" cy="409.978" r="5.79"/>
		</g>
		<path style="fill:#263238;stroke:#263238;stroke-linecap:round;stroke-linejoin:round;stroke-miterlimit:10;" d="M365.115,381.817
			h-25c-1.795,0-3.25,1.455-3.25,3.25v10.5c0,1.795,1.455,3.25,3.25,3.25h25c1.795,0,3.25-1.455,3.25-3.25v-10.5
			C368.365,383.272,366.91,381.817,365.115,381.817z"/>
		<polyline style="fill:none;stroke:#263238;stroke-linecap:round;stroke-linejoin:round;stroke-miterlimit:10;" points="
			324.365,398.817 324.365,349.372 334.365,349.372 334.365,398.817 		"/>
		
			<line style="fill:none;stroke:#263238;stroke-linecap:round;stroke-linejoin:round;stroke-miterlimit:10;" x1="324.437" y1="355.923" x2="334.263" y2="355.923"/>
		
			<line style="fill:none;stroke:#263238;stroke-linecap:round;stroke-linejoin:round;stroke-miterlimit:10;" x1="324.437" y1="363.644" x2="334.263" y2="363.644"/>
		
			<line style="fill:none;stroke:#263238;stroke-linecap:round;stroke-linejoin:round;stroke-miterlimit:10;" x1="324.437" y1="371.365" x2="334.263" y2="371.365"/>
		
			<line style="fill:none;stroke:#263238;stroke-linecap:round;stroke-linejoin:round;stroke-miterlimit:10;" x1="324.437" y1="379.086" x2="334.263" y2="379.086"/>
		
			<line style="fill:none;stroke:#263238;stroke-linecap:round;stroke-linejoin:round;stroke-miterlimit:10;" x1="324.437" y1="386.807" x2="334.263" y2="386.807"/>
		
			<line style="fill:none;stroke:#263238;stroke-linecap:round;stroke-linejoin:round;stroke-miterlimit:10;" x1="324.437" y1="394.528" x2="334.263" y2="394.528"/>
	</g>
	<g>
		<polygon style="fill:none;stroke:#263238;stroke-linecap:round;stroke-linejoin:round;stroke-miterlimit:10;" points="
			124.365,420.872 106.365,420.872 106.365,106.872 124.365,127.803 		"/>
		<polygon style="fill:none;stroke:#263238;stroke-linecap:round;stroke-linejoin:round;stroke-miterlimit:10;" points="
			106.536,354.872 124.195,354.872 106.536,337.803 124.195,337.803 		"/>
		<polygon style="fill:none;stroke:#263238;stroke-linecap:round;stroke-linejoin:round;stroke-miterlimit:10;" points="
			106.536,337.372 124.195,337.372 106.536,320.303 124.195,320.303 		"/>
		<polygon style="fill:none;stroke:#263238;stroke-linecap:round;stroke-linejoin:round;stroke-miterlimit:10;" points="
			106.536,319.872 124.195,319.872 106.536,302.803 124.195,302.803 		"/>
		<polygon style="fill:none;stroke:#263238;stroke-linecap:round;stroke-linejoin:round;stroke-miterlimit:10;" points="
			106.536,302.372 124.195,302.372 106.536,285.303 124.195,285.303 		"/>
		<polygon style="fill:none;stroke:#263238;stroke-linecap:round;stroke-linejoin:round;stroke-miterlimit:10;" points="
			106.536,284.872 124.195,284.872 106.536,267.803 124.195,267.803 		"/>
		<polygon style="fill:none;stroke:#263238;stroke-linecap:round;stroke-linejoin:round;stroke-miterlimit:10;" points="
			106.536,267.372 124.195,267.372 106.536,250.303 124.195,250.303 		"/>
		<polygon style="fill:none;stroke:#263238;stroke-linecap:round;stroke-linejoin:round;stroke-miterlimit:10;" points="
			106.536,249.872 124.195,249.872 106.536,232.803 124.195,232.803 		"/>
		<polygon style="fill:none;stroke:#263238;stroke-linecap:round;stroke-linejoin:round;stroke-miterlimit:10;" points="
			106.536,232.372 124.195,232.372 106.536,215.303 124.195,215.303 		"/>
		<polygon style="fill:none;stroke:#263238;stroke-linecap:round;stroke-linejoin:round;stroke-miterlimit:10;" points="
			106.536,214.872 124.195,214.872 106.536,197.803 124.195,197.803 		"/>
		<polygon style="fill:none;stroke:#263238;stroke-linecap:round;stroke-linejoin:round;stroke-miterlimit:10;" points="
			106.536,197.372 124.195,197.372 106.536,180.303 124.195,180.303 		"/>
		<polygon style="fill:none;stroke:#263238;stroke-linecap:round;stroke-linejoin:round;stroke-miterlimit:10;" points="
			106.536,179.872 124.195,179.872 106.536,162.803 124.195,162.803 		"/>
		<polygon style="fill:none;stroke:#263238;stroke-linecap:round;stroke-linejoin:round;stroke-miterlimit:10;" points="
			106.536,162.372 124.195,162.372 106.536,145.303 124.195,145.303 		"/>
		<polygon style="fill:none;stroke:#263238;stroke-linecap:round;stroke-linejoin:round;stroke-miterlimit:10;" points="
			106.536,144.872 124.195,144.872 106.536,127.803 124.195,127.803 		"/>
		<polygon style="fill:none;stroke:#263238;stroke-linecap:round;stroke-linejoin:round;stroke-miterlimit:10;" points="
			207.928,145.34 199.209,139.849 136.984,139.849 129.382,145.34 		"/>
		
			<rect x="57.365" y="144.872" style="fill:#263238;stroke:#263238;stroke-linecap:round;stroke-linejoin:round;stroke-miterlimit:10;" width="152" height="4"/>
		<polyline style="fill:none;stroke:#263238;stroke-linecap:round;stroke-linejoin:round;stroke-miterlimit:10;" points="
			199.209,139.849 106.365,106.872 136.984,139.849 		"/>
		
			<line style="fill:none;stroke:#263238;stroke-linecap:round;stroke-linejoin:round;stroke-miterlimit:10;" x1="106.365" y1="106.872" x2="57.365" y2="144.872"/>
		
			<rect x="99.865" y="153.372" style="fill:#263238;stroke:#263238;stroke-linecap:round;stroke-linejoin:round;stroke-miterlimit:10;" width="37.5" height="24"/>
		
			<rect x="107.678" y="158.372" style="fill:#FFFFFF;stroke:#263238;stroke-linecap:round;stroke-linejoin:round;stroke-miterlimit:10;" width="21.875" height="7"/>
		
			<line style="fill:#FFFFFF;stroke:#263238;stroke-linecap:round;stroke-linejoin:round;stroke-miterlimit:10;" x1="209.365" y1="148.872" x2="209.365" y2="191.994"/>
		<g>
			
				<rect x="203.964" y="206.717" style="fill:#263238;stroke:#263238;stroke-linecap:round;stroke-linejoin:round;stroke-miterlimit:10;" width="11.113" height="12.594"/>
			<polyline style="fill:none;stroke:#263238;stroke-linecap:round;stroke-linejoin:round;stroke-miterlimit:10;" points="
				203.964,206.717 209.52,191.17 215.077,206.717 			"/>
		</g>
	</g>
	<g>
		<path style="fill:#C6FF00;stroke:#263238;stroke-linecap:round;stroke-linejoin:round;stroke-miterlimit:10;" d="M179.397,358.653
			l24.055,37.933l6.035-4.389l-17.656-35.312c-1.62-3.24-4.932-5.287-8.554-5.287l0,0
			C179.655,351.598,177.457,355.594,179.397,358.653z"/>
		<path style="fill:#263238;stroke:#FFFFFF;stroke-linecap:round;stroke-linejoin:round;stroke-miterlimit:10;" d="M207.293,387.259
			l-24.689,17.556c0,0,2.195,9.327,16.459,8.778c14.265-0.549,13.716-15.362,13.716-15.362L207.293,387.259z"/>
		<path style="fill:#C6FF00;stroke:#263238;stroke-linecap:round;stroke-linejoin:round;stroke-miterlimit:10;" d="M138.713,375.738
			l44.721-20.149c3.036-1.368,6.616-0.43,8.591,2.251l0,0c2.355,3.196,1.616,7.704-1.636,9.98l-48.933,34.253L138.713,375.738z"/>
		
			<rect x="86.044" y="400.427" style="fill:#FFFFFF;stroke:#263238;stroke-linecap:round;stroke-linejoin:round;stroke-miterlimit:10;" width="46.085" height="7.132"/>
		
			<rect x="69.585" y="380.127" style="fill:#263238;stroke:#263238;stroke-linecap:round;stroke-linejoin:round;stroke-miterlimit:10;" width="40.05" height="16.459"/>
		<path style="fill:#C6FF00;stroke:#263238;stroke-linecap:round;stroke-linejoin:round;stroke-miterlimit:10;" d="M101.406,396.586
			h40.05v-32.095c0-1.667-1.351-3.017-3.018-3.017h-34.016c-1.666,0-3.017,1.351-3.017,3.017V396.586z"/>
		<path style="fill:#263238;stroke:#263238;stroke-linecap:round;stroke-linejoin:round;stroke-miterlimit:10;" d="M69.173,419.903
			h65.562c4.318,0,7.818-3.5,7.818-7.818l0,0c0-4.318-3.5-7.818-7.818-7.818H69.173c-4.318,0-7.818,3.5-7.818,7.818l0,0
			C61.355,416.403,64.856,419.903,69.173,419.903z"/>
		<path style="fill:#FFFFFF;stroke:#263238;stroke-linecap:round;stroke-linejoin:round;stroke-miterlimit:10;" d="M79.049,419.903
			h65.562c4.318,0,7.818-3.5,7.818-7.818l0,0c0-4.318-3.5-7.818-7.818-7.818H79.049c-4.318,0-7.818,3.5-7.818,7.818l0,0
			C71.231,416.403,74.731,419.903,79.049,419.903z"/>
		
			<rect x="69.585" y="396.586" style="fill:#FFFFFF;stroke:#263238;stroke-linecap:round;stroke-linejoin:round;stroke-miterlimit:10;" width="71.871" height="5.486"/>
		<path style="fill:#263238;stroke:#263238;stroke-linecap:round;stroke-linejoin:round;stroke-miterlimit:10;" d="M84.398,412.085
			c0,2.727-2.211,4.938-4.938,4.938c-2.727,0-4.938-2.211-4.938-4.938s2.211-4.938,4.938-4.938
			C82.187,407.148,84.398,409.358,84.398,412.085z"/>
		
			<circle style="fill:#263238;stroke:#263238;stroke-linecap:round;stroke-linejoin:round;stroke-miterlimit:10;" cx="92.628" cy="412.085" r="4.938"/>
		
			<circle style="fill:#263238;stroke:#263238;stroke-linecap:round;stroke-linejoin:round;stroke-miterlimit:10;" cx="105.795" cy="412.085" r="4.938"/>
		<path style="fill:#263238;stroke:#263238;stroke-linecap:round;stroke-linejoin:round;stroke-miterlimit:10;" d="M123.9,412.085
			c0,2.727-2.211,4.938-4.938,4.938c-2.727,0-4.938-2.211-4.938-4.938s2.211-4.938,4.938-4.938
			C121.689,407.148,123.9,409.358,123.9,412.085z"/>
		<path style="fill:#263238;stroke:#263238;stroke-linecap:round;stroke-linejoin:round;stroke-miterlimit:10;" d="M137.067,412.085
			c0,2.727-2.211,4.938-4.938,4.938c-2.727,0-4.938-2.211-4.938-4.938s2.211-4.938,4.938-4.938
			C134.856,407.148,137.067,409.358,137.067,412.085z"/>
		<path style="fill:#263238;stroke:#263238;stroke-linecap:round;stroke-linejoin:round;stroke-miterlimit:10;" d="M150.234,412.085
			c0,2.727-2.211,4.938-4.938,4.938c-2.727,0-4.938-2.211-4.938-4.938s2.211-4.938,4.938-4.938
			C148.024,407.148,150.234,409.358,150.234,412.085z"/>
		<path style="fill:#263238;stroke:#263238;stroke-linecap:round;stroke-linejoin:round;stroke-miterlimit:10;" d="M188.639,361.474
			c0-1.515-1.228-2.743-2.743-2.743c-1.515,0-2.743,1.228-2.743,2.743c0,1.515,1.228,2.743,2.743,2.743
			C187.411,364.217,188.639,362.989,188.639,361.474z"/>
		
			<rect x="106.343" y="365.863" style="fill:#FFFFFF;stroke:#263238;stroke-linecap:round;stroke-linejoin:round;stroke-miterlimit:10;" width="29.078" height="17.556"/>
		
			<rect x="119.511" y="365.863" style="fill:#FFFFFF;stroke:#263238;stroke-linecap:round;stroke-linejoin:round;stroke-miterlimit:10;" width="15.91" height="17.556"/>
	</g>
</g>
</svg>
