<svg width="35" height="35" viewBox="0 0 35 35" fill="none" xmlns="http://www.w3.org/2000/svg">
<mask id="mask0_2083_28999" style="mask-type:luminance" maskUnits="userSpaceOnUse" x="0" y="0" width="35" height="35">
<path d="M32.8338 0H1.91395C0.856904 0 0 0.856655 0 1.91339V32.8243C0 33.881 0.856904 34.7377 1.91395 34.7377H32.8338C33.8908 34.7377 34.7477 33.881 34.7477 32.8243V1.91339C34.7477 0.856655 33.8908 0 32.8338 0Z" fill="white"/>
</mask>
<g mask="url(#mask0_2083_28999)">
<path d="M34.7477 0H0V34.7377H34.7477V0Z" fill="#FEE702"/>
<path d="M6.16309 33.5799V13.5945C6.16309 7.39511 11.2159 2.34375 17.4171 2.34375C23.6183 2.34375 28.6711 7.39511 28.6711 13.5945V33.5799H6.16309Z" fill="#7000FF"/>
<path d="M17.4171 2.71697C23.4173 2.71697 28.2883 7.59613 28.2883 13.585V33.1973H6.54585V13.5946C6.54585 7.59613 11.4264 2.72654 17.4171 2.72654M17.4171 1.97075C10.9958 1.97075 5.78027 7.17518 5.78027 13.6042V33.9723H29.0443V13.5946C29.0443 7.17518 23.8384 1.96118 17.4075 1.96118L17.4171 1.97075Z" fill="#3A179D"/>
<path d="M8.6129 25.9456C8.9723 25.9456 9.26364 25.6544 9.26364 25.2951C9.26364 24.9358 8.9723 24.6445 8.6129 24.6445C8.25351 24.6445 7.96216 24.9358 7.96216 25.2951C7.96216 25.6544 8.25351 25.9456 8.6129 25.9456Z" fill="#2B147F"/>
<path d="M10.2207 26.8066C10.4903 26.8066 10.7088 26.5882 10.7088 26.3187C10.7088 26.0493 10.4903 25.8308 10.2207 25.8308C9.95118 25.8308 9.73267 26.0493 9.73267 26.3187C9.73267 26.5882 9.95118 26.8066 10.2207 26.8066Z" fill="#2B147F"/>
<path d="M8.78519 27.3424C8.97545 27.3424 9.1297 27.1882 9.1297 26.998C9.1297 26.8078 8.97545 26.6536 8.78519 26.6536C8.59492 26.6536 8.44067 26.8078 8.44067 26.998C8.44067 27.1882 8.59492 27.3424 8.78519 27.3424Z" fill="#2B147F"/>
<path d="M11.3977 32.3841V39.081C11.3977 43.4244 7.86643 46.9642 3.5122 46.9642C2.06717 46.9642 0.899658 45.797 0.899658 44.3524C0.899658 42.9078 2.06717 41.7406 3.5122 41.7406C4.95723 41.7406 6.17259 40.5448 6.17259 39.081V29.5906" fill="#7000FF"/>
<path d="M3.52175 47.3563C1.86618 47.3563 0.516846 46.0074 0.516846 44.3523C0.516846 42.6972 1.86618 41.3483 3.52175 41.3483C4.77538 41.3483 5.78977 40.3342 5.78977 39.0809V29.5905C5.78977 29.3704 5.96203 29.1982 6.18213 29.1982C6.40224 29.1982 6.57449 29.3704 6.57449 29.5905V39.0809C6.57449 40.7647 5.20602 42.1328 3.52175 42.1328C2.29682 42.1328 1.30156 43.1277 1.30156 44.3523C1.30156 45.5769 2.29682 46.5719 3.52175 46.5719C7.65587 46.5719 11.0149 43.2139 11.0149 39.0809V32.384C11.0149 32.164 11.1871 31.9918 11.4072 31.9918C11.6273 31.9918 11.7996 32.164 11.7996 32.384V39.0809C11.7996 43.6444 8.08651 47.3563 3.52175 47.3563Z" fill="#3A179D"/>
<path d="M23.5225 30.9493V38.9186C23.5225 43.1854 26.9963 46.6678 31.274 46.6678C32.6903 46.6678 33.8386 45.5198 33.8386 44.1039C33.8386 42.688 32.6903 41.5399 31.274 41.5399C29.8576 41.5399 28.6614 40.3727 28.6614 38.9281V29.6003" fill="#7000FF"/>
<path d="M31.274 47.06C26.7858 47.06 23.1301 43.4054 23.1301 38.9185V30.9492C23.1301 30.7292 23.3024 30.557 23.5225 30.557C23.7426 30.557 23.9148 30.7292 23.9148 30.9492V38.9185C23.9148 42.9749 27.2164 46.2755 31.274 46.2755C32.4702 46.2755 33.4463 45.2996 33.4463 44.1038C33.4463 42.9079 32.4702 41.9321 31.274 41.9321C29.6184 41.9321 28.2691 40.5831 28.2691 38.928V29.6003C28.2691 29.3802 28.4413 29.208 28.6614 29.208C28.8815 29.208 29.0538 29.3802 29.0538 29.6003V38.928C29.0538 40.1526 30.0491 41.1476 31.274 41.1476C32.9104 41.1476 34.231 42.4774 34.231 44.1038C34.231 45.7302 32.9008 47.06 31.274 47.06Z" fill="#3A179D"/>
<path d="M20.9387 30.9493V38.9186C20.9387 43.1854 24.4125 46.6678 28.6902 46.6678C30.1065 46.6678 31.2549 45.5198 31.2549 44.1039C31.2549 42.688 30.1065 41.5399 28.6902 41.5399C27.2739 41.5399 26.0777 40.3727 26.0777 38.9281V29.6003" fill="#7000FF"/>
<path d="M28.6902 47.06C24.202 47.06 20.5464 43.4054 20.5464 38.9185V30.9492C20.5464 30.7292 20.7186 30.557 20.9387 30.557C21.1589 30.557 21.3311 30.7292 21.3311 30.9492V38.9185C21.3311 42.9749 24.6327 46.2755 28.6902 46.2755C29.8865 46.2755 30.8626 45.2996 30.8626 44.1038C30.8626 42.9079 29.8865 41.9321 28.6902 41.9321C27.0347 41.9321 25.6853 40.5831 25.6853 38.928V29.6003C25.6853 29.3802 25.8576 29.208 26.0777 29.208C26.2978 29.208 26.4701 29.3802 26.4701 29.6003V38.928C26.4701 40.1526 27.4653 41.1476 28.6902 41.1476C30.3267 41.1476 31.6473 42.4774 31.6473 44.1038C31.6473 45.7302 30.3171 47.06 28.6902 47.06Z" fill="#3A179D"/>
<path d="M14.1538 31.6092V39.0905C14.1538 43.4339 10.6225 46.9737 6.2683 46.9737C4.82327 46.9737 3.65576 45.8065 3.65576 44.3619C3.65576 42.9173 4.82327 41.7501 6.2683 41.7501C7.71333 41.7501 8.92869 40.5543 8.92869 39.0905V29.6001" fill="#7000FF"/>
<path d="M6.26833 47.3563C4.61276 47.3563 3.26343 46.0074 3.26343 44.3523C3.26343 42.6972 4.61276 41.3483 6.26833 41.3483C7.52196 41.3483 8.53636 40.3342 8.53636 39.0809V29.5905C8.53636 29.3704 8.70861 29.1982 8.92872 29.1982C9.14882 29.1982 9.32108 29.3704 9.32108 29.5905V39.0809C9.32108 40.7647 7.9526 42.1328 6.26833 42.1328C5.0434 42.1328 4.04815 43.1277 4.04815 44.3523C4.04815 45.5769 5.0434 46.5719 6.26833 46.5719C10.4025 46.5719 13.7614 43.2139 13.7614 39.0809V31.5995C13.7614 31.3795 13.9337 31.2073 14.1538 31.2073C14.3739 31.2073 14.5462 31.3795 14.5462 31.5995V39.0809C14.5462 43.6444 10.8331 47.3563 6.26833 47.3563Z" fill="#3A179D"/>
<path d="M21.5319 13.7956C21.4649 13.7956 21.4075 13.7765 21.3405 13.7478C21.1491 13.6426 21.0821 13.4034 21.1874 13.2121C21.2065 13.1738 21.6659 12.3606 22.8334 12.3606H22.843C23.4841 12.3606 23.8956 12.5615 24.1445 12.7815C24.3741 12.9729 24.3071 13.346 24.02 13.4512C23.8861 13.4991 23.7425 13.4704 23.6373 13.3747C23.5033 13.2695 23.264 13.1451 22.8334 13.1451C22.1348 13.1451 21.8764 13.5852 21.8669 13.5947C21.7999 13.7287 21.6659 13.7956 21.5223 13.7956H21.5319Z" fill="#3A179D"/>
<path d="M13.3786 13.8625C13.4456 13.8625 13.503 13.8434 13.57 13.8147C13.7614 13.7095 13.8284 13.4703 13.7232 13.279C13.704 13.2407 13.2447 12.4275 12.0772 12.4275H12.0676C11.4264 12.4275 11.0149 12.6284 10.7661 12.8484C10.5364 13.0398 10.6034 13.4129 10.8905 13.5181C11.0245 13.566 11.168 13.5373 11.2733 13.4416C11.4073 13.3364 11.6465 13.212 12.0772 13.212C12.7662 13.212 13.0341 13.6521 13.0341 13.6616C13.1011 13.7956 13.2351 13.8625 13.3786 13.8625Z" fill="#3A179D"/>
<path d="M17.4266 26.7493C16.4218 26.7493 15.6084 25.9361 15.6084 24.9316C15.6084 24.7115 15.7807 24.5393 16.0008 24.5393C16.2209 24.5393 16.3931 24.7115 16.3931 24.9316C16.3931 25.5056 16.862 25.9744 17.4362 25.9744C18.0104 25.9744 18.4793 25.5056 18.4793 24.9316C18.4793 24.7115 18.6516 24.5393 18.8717 24.5393C19.0918 24.5393 19.264 24.7115 19.264 24.9316C19.264 25.9361 18.4506 26.7493 17.4458 26.7493H17.4266Z" fill="#3A179D"/>
<path d="M8.57446 18.4453V21.4972C8.57446 23.3914 10.1056 24.9222 12.0004 24.9222C13.8952 24.9222 15.4264 23.3914 15.4264 21.4972V18.4453" fill="white"/>
<path d="M12.0005 25.3048C9.89511 25.3048 8.18213 23.5923 8.18213 21.4876V18.4357C8.18213 18.2157 8.35438 18.0435 8.57449 18.0435C8.79459 18.0435 8.96685 18.2157 8.96685 18.4357V21.4876C8.96685 23.1618 10.3258 24.5203 12.0005 24.5203C13.6752 24.5203 15.0341 23.1618 15.0341 21.4876V18.4357C15.0341 18.2157 15.2063 18.0435 15.4264 18.0435C15.6465 18.0435 15.8188 18.2157 15.8188 18.4357V21.4876C15.8188 23.5923 14.1058 25.3048 12.0005 25.3048Z" fill="#3A179D"/>
<path d="M15.4169 18.4452C15.4169 16.551 13.8857 15.0203 11.9909 15.0203C10.0961 15.0203 8.56494 16.551 8.56494 18.4452" fill="white"/>
<path d="M15.4169 18.8374C15.1968 18.8374 15.0245 18.6652 15.0245 18.4451C15.0245 16.7709 13.6656 15.4124 11.9909 15.4124C10.3162 15.4124 8.95733 16.7709 8.95733 18.4451C8.95733 18.6652 8.78507 18.8374 8.56497 18.8374C8.34486 18.8374 8.17261 18.6652 8.17261 18.4451C8.17261 16.3404 9.88559 14.6279 11.9909 14.6279C14.0963 14.6279 15.8093 16.3404 15.8093 18.4451C15.8093 18.6652 15.637 18.8374 15.4169 18.8374Z" fill="#3A179D"/>
<path d="M12.3736 18.541H12.2683C11.5971 18.541 11.053 19.085 11.053 19.756V21.9086C11.053 22.5796 11.5971 23.1236 12.2683 23.1236H12.3736C13.0448 23.1236 13.589 22.5796 13.589 21.9086V19.756C13.589 19.085 13.0448 18.541 12.3736 18.541Z" fill="#1C1C1C"/>
<path d="M12.852 19.6985C13.222 19.6985 13.5219 19.3987 13.5219 19.0288C13.5219 18.659 13.222 18.3591 12.852 18.3591C12.482 18.3591 12.1821 18.659 12.1821 19.0288C12.1821 19.3987 12.482 19.6985 12.852 19.6985Z" fill="white"/>
<path d="M22.9961 15.02H22.6898C20.8823 15.02 19.417 16.4849 19.417 18.2919V21.6404C19.417 23.4474 20.8823 24.9123 22.6898 24.9123H22.9961C24.8036 24.9123 26.2689 23.4474 26.2689 21.6404V18.2919C26.2689 16.4849 24.8036 15.02 22.9961 15.02Z" fill="white"/>
<path d="M22.8335 25.3045C20.7281 25.3045 19.0151 23.592 19.0151 21.4872V18.4354C19.0151 16.3307 20.7281 14.6182 22.8335 14.6182C24.9388 14.6182 26.6518 16.3307 26.6518 18.4354V21.4872C26.6518 23.592 24.9388 25.3045 22.8335 25.3045ZM22.8335 15.4122C21.1588 15.4122 19.7999 16.7707 19.7999 18.445V21.4968C19.7999 23.171 21.1588 24.5295 22.8335 24.5295C24.5082 24.5295 25.8671 23.171 25.8671 21.4968V18.445C25.8671 16.7707 24.5082 15.4122 22.8335 15.4122Z" fill="#3A179D"/>
<path d="M23.2161 18.5408H23.1109C22.4396 18.5408 21.8955 19.0847 21.8955 19.7558V21.9083C21.8955 22.5794 22.4396 23.1234 23.1109 23.1234H23.2161C23.8874 23.1234 24.4315 22.5794 24.4315 21.9083V19.7558C24.4315 19.0847 23.8874 18.5408 23.2161 18.5408Z" fill="#1C1C1C"/>
<path d="M23.6945 19.6983C24.0645 19.6983 24.3644 19.3984 24.3644 19.0286C24.3644 18.6587 24.0645 18.3589 23.6945 18.3589C23.3246 18.3589 23.0247 18.6587 23.0247 19.0286C23.0247 19.3984 23.3246 19.6983 23.6945 19.6983Z" fill="white"/>
<path d="M34.2405 22.9128L17.369 32.652L0.497559 22.9128C0.631535 22.9128 0.775081 22.9128 0.909058 22.9128C7.29208 22.9128 13.7708 26.8066 16.9479 31.9345C16.9479 31.9536 16.9671 31.9632 16.9767 31.9823C17.0628 32.1067 17.2063 32.1928 17.369 32.1928C17.5317 32.1928 17.6752 32.1067 17.7614 31.9823C17.7709 31.9632 17.7805 31.9536 17.7901 31.9345C20.9672 26.8162 27.446 22.9128 33.829 22.9128C33.963 22.9128 34.1065 22.9128 34.2405 22.9128Z" fill="#F7F7F7"/>
<path d="M35.609 23.2285C35.609 23.4581 35.4846 23.6686 35.2932 23.7834L34.2405 24.3861L17.6849 33.934C17.4839 34.0488 17.2447 34.0488 17.0437 33.934L0.497624 24.3957L-0.555048 23.793C-0.756013 23.6782 -0.87085 23.4677 -0.87085 23.2381C-0.87085 22.7406 -0.334944 22.4345 0.0956946 22.6832L0.497624 22.9224L17.0533 32.4702C17.2542 32.585 17.4935 32.585 17.6945 32.4702L34.2501 22.9224L34.652 22.6832C35.0827 22.4345 35.6186 22.7406 35.6186 23.2381L35.609 23.2285Z" fill="#B23838"/>
<path d="M35.609 23.2476V56.3684C35.609 56.4736 35.5516 56.5789 35.4559 56.6363L31.1399 59.1237L17.5222 66.9877C17.4265 67.0451 17.3117 67.0451 17.216 66.9877L3.59822 59.1237L-0.717734 56.6363C-0.813431 56.5789 -0.87085 56.4832 -0.87085 56.3684V23.2476L0.497624 24.0416L16.4695 33.2546C17.0246 33.5799 17.7136 33.5799 18.2782 33.2546L34.2501 24.0416L35.6186 23.2476H35.609Z" fill="#FF4C4C"/>
</g>
</svg>
