<svg width="251" height="39" viewBox="0 0 251 39" fill="none" xmlns="http://www.w3.org/2000/svg">
<mask id="mask0_2078_6092" style="mask-type:luminance" maskUnits="userSpaceOnUse" x="0" y="2" width="35" height="35">
<path d="M32.8338 2.12646H1.91395C0.856904 2.12646 0 2.98312 0 4.03986V34.9507C0 36.0075 0.856904 36.8641 1.91395 36.8641H32.8338C33.8908 36.8641 34.7477 36.0075 34.7477 34.9507V4.03986C34.7477 2.98312 33.8908 2.12646 32.8338 2.12646Z" fill="white"/>
</mask>
<g mask="url(#mask0_2078_6092)">
<path d="M34.7477 2.12646H0V36.8641H34.7477V2.12646Z" fill="#FEE702"/>
<path d="M6.16296 35.7064V15.721C6.16296 9.52157 11.2158 4.47021 17.417 4.47021C23.6182 4.47021 28.671 9.52157 28.671 15.721V35.7064H6.16296Z" fill="#7000FF"/>
<path d="M17.417 4.84344C23.4172 4.84344 28.2882 9.72259 28.2882 15.7115V35.3238H6.54573V15.7211C6.54573 9.72259 11.4263 4.853 17.417 4.853M17.417 4.09721C10.9957 4.09721 5.78015 9.30164 5.78015 15.7306V36.0987H29.0442V15.7211C29.0442 9.30164 23.8383 4.08765 17.4074 4.08765L17.417 4.09721Z" fill="#3A179D"/>
<path d="M8.61278 28.0721C8.97217 28.0721 9.26352 27.7808 9.26352 27.4216C9.26352 27.0623 8.97217 26.771 8.61278 26.771C8.25338 26.771 7.96204 27.0623 7.96204 27.4216C7.96204 27.7808 8.25338 28.0721 8.61278 28.0721Z" fill="#2B147F"/>
<path d="M10.2205 28.9331C10.49 28.9331 10.7085 28.7147 10.7085 28.4452C10.7085 28.1757 10.49 27.9573 10.2205 27.9573C9.95093 27.9573 9.73242 28.1757 9.73242 28.4452C9.73242 28.7147 9.95093 28.9331 10.2205 28.9331Z" fill="#2B147F"/>
<path d="M8.78506 29.4689C8.97533 29.4689 9.12957 29.3147 9.12957 29.1244C9.12957 28.9342 8.97533 28.78 8.78506 28.78C8.5948 28.78 8.44055 28.9342 8.44055 29.1244C8.44055 29.3147 8.5948 29.4689 8.78506 29.4689Z" fill="#2B147F"/>
<path d="M11.3976 34.5106V41.2075C11.3976 45.5509 7.86637 49.0907 3.51214 49.0907C2.06711 49.0907 0.899597 47.9235 0.899597 46.4789C0.899597 45.0343 2.06711 43.8671 3.51214 43.8671C4.95717 43.8671 6.17253 42.6712 6.17253 41.2075V31.717" fill="#7000FF"/>
<path d="M3.52168 49.4828C1.86612 49.4828 0.516785 48.1339 0.516785 46.4788C0.516785 44.8237 1.86612 43.4748 3.52168 43.4748C4.77532 43.4748 5.78971 42.4607 5.78971 41.2074V31.717C5.78971 31.4969 5.96197 31.3247 6.18207 31.3247C6.40218 31.3247 6.57443 31.4969 6.57443 31.717V41.2074C6.57443 42.8912 5.20596 44.2592 3.52168 44.2592C2.29676 44.2592 1.3015 45.2542 1.3015 46.4788C1.3015 47.7034 2.29676 48.6983 3.52168 48.6983C7.65581 48.6983 11.0148 45.3403 11.0148 41.2074V34.5105C11.0148 34.2905 11.187 34.1183 11.4072 34.1183C11.6273 34.1183 11.7995 34.2905 11.7995 34.5105V41.2074C11.7995 45.7708 8.08645 49.4828 3.52168 49.4828Z" fill="#3A179D"/>
<path d="M23.5224 33.0757V41.045C23.5224 45.3119 26.9962 48.7943 31.2739 48.7943C32.6902 48.7943 33.8386 47.6462 33.8386 46.2303C33.8386 44.8144 32.6902 43.6664 31.2739 43.6664C29.8576 43.6664 28.6614 42.4992 28.6614 41.0546V31.7268" fill="#7000FF"/>
<path d="M31.2739 49.1864C26.7857 49.1864 23.1301 45.5319 23.1301 41.0449V33.0757C23.1301 32.8556 23.3023 32.6834 23.5224 32.6834C23.7425 32.6834 23.9148 32.8556 23.9148 33.0757V41.0449C23.9148 45.1013 27.2163 48.4019 31.2739 48.4019C32.4701 48.4019 33.4463 47.4261 33.4463 46.2302C33.4463 45.0344 32.4701 44.0585 31.2739 44.0585C29.6184 44.0585 28.269 42.7096 28.269 41.0545V31.7267C28.269 31.5067 28.4413 31.3345 28.6614 31.3345C28.8815 31.3345 29.0537 31.5067 29.0537 31.7267V41.0545C29.0537 42.2791 30.049 43.274 31.2739 43.274C32.9103 43.274 34.231 44.6039 34.231 46.2302C34.231 47.8566 32.9008 49.1864 31.2739 49.1864Z" fill="#3A179D"/>
<path d="M20.9386 33.0757V41.045C20.9386 45.3119 24.4124 48.7943 28.6901 48.7943C30.1064 48.7943 31.2548 47.6462 31.2548 46.2303C31.2548 44.8144 30.1064 43.6664 28.6901 43.6664C27.2738 43.6664 26.0776 42.4992 26.0776 41.0546V31.7268" fill="#7000FF"/>
<path d="M28.6901 49.1864C24.2019 49.1864 20.5463 45.5319 20.5463 41.0449V33.0757C20.5463 32.8556 20.7185 32.6834 20.9386 32.6834C21.1587 32.6834 21.331 32.8556 21.331 33.0757V41.0449C21.331 45.1013 24.6325 48.4019 28.6901 48.4019C29.8863 48.4019 30.8625 47.4261 30.8625 46.2302C30.8625 45.0344 29.8863 44.0585 28.6901 44.0585C27.0346 44.0585 25.6852 42.7096 25.6852 41.0545V31.7267C25.6852 31.5067 25.8575 31.3345 26.0776 31.3345C26.2977 31.3345 26.4699 31.5067 26.4699 31.7267V41.0545C26.4699 42.2791 27.4652 43.274 28.6901 43.274C30.3265 43.274 31.6472 44.6039 31.6472 46.2302C31.6472 47.8566 30.317 49.1864 28.6901 49.1864Z" fill="#3A179D"/>
<path d="M14.1536 33.7356V41.217C14.1536 45.5604 10.6224 49.1002 6.26818 49.1002C4.82315 49.1002 3.65564 47.933 3.65564 46.4884C3.65564 45.0438 4.82315 43.8766 6.26818 43.8766C7.71321 43.8766 8.92857 42.6807 8.92857 41.217V31.7266" fill="#7000FF"/>
<path d="M6.26821 49.4828C4.61264 49.4828 3.26331 48.1339 3.26331 46.4788C3.26331 44.8237 4.61264 43.4748 6.26821 43.4748C7.52184 43.4748 8.53623 42.4607 8.53623 41.2074V31.717C8.53623 31.4969 8.70849 31.3247 8.92859 31.3247C9.1487 31.3247 9.32095 31.4969 9.32095 31.717V41.2074C9.32095 42.8912 7.95248 44.2592 6.26821 44.2592C5.04328 44.2592 4.04802 45.2542 4.04802 46.4788C4.04802 47.7034 5.04328 48.6983 6.26821 48.6983C10.4023 48.6983 13.7613 45.3403 13.7613 41.2074V33.726C13.7613 33.506 13.9336 33.3338 14.1537 33.3338C14.3738 33.3338 14.546 33.506 14.546 33.726V41.2074C14.546 45.7708 10.833 49.4828 6.26821 49.4828Z" fill="#3A179D"/>
<path d="M21.5319 15.9221C21.4649 15.9221 21.4075 15.903 21.3405 15.8743C21.1491 15.769 21.0821 15.5299 21.1874 15.3385C21.2065 15.3003 21.6659 14.4871 22.8334 14.4871H22.843C23.4841 14.4871 23.8956 14.688 24.1445 14.908C24.3741 15.0993 24.3071 15.4725 24.02 15.5777C23.8861 15.6255 23.7425 15.5968 23.6373 15.5012C23.5033 15.3959 23.264 15.2716 22.8334 15.2716C22.1348 15.2716 21.8764 15.7116 21.8669 15.7212C21.7999 15.8551 21.6659 15.9221 21.5223 15.9221H21.5319Z" fill="#3A179D"/>
<path d="M13.3785 15.989C13.4455 15.989 13.5029 15.9699 13.5699 15.9412C13.7613 15.8359 13.8283 15.5968 13.723 15.4054C13.7039 15.3671 13.2445 14.554 12.077 14.554H12.0675C11.4263 14.554 11.0148 14.7549 10.766 14.9749C10.5363 15.1662 10.6033 15.5394 10.8904 15.6446C11.0244 15.6924 11.1679 15.6637 11.2732 15.5681C11.4072 15.4628 11.6464 15.3384 12.077 15.3384C12.7661 15.3384 13.034 15.7785 13.034 15.7881C13.101 15.922 13.235 15.989 13.3785 15.989Z" fill="#3A179D"/>
<path d="M17.4265 28.8757C16.4217 28.8757 15.6083 28.0625 15.6083 27.058C15.6083 26.838 15.7805 26.6658 16.0006 26.6658C16.2207 26.6658 16.393 26.838 16.393 27.058C16.393 27.632 16.8619 28.1008 17.4361 28.1008C18.0103 28.1008 18.4792 27.632 18.4792 27.058C18.4792 26.838 18.6515 26.6658 18.8716 26.6658C19.0917 26.6658 19.2639 26.838 19.2639 27.058C19.2639 28.0625 18.4505 28.8757 17.4457 28.8757H17.4265Z" fill="#3A179D"/>
<path d="M8.57452 20.5718V23.6236C8.57452 25.5179 10.1057 27.0486 12.0005 27.0486C13.8953 27.0486 15.4265 25.5179 15.4265 23.6236V20.5718" fill="white"/>
<path d="M12.0005 27.4313C9.89517 27.4313 8.18219 25.7188 8.18219 23.614V20.5622C8.18219 20.3421 8.35445 20.1699 8.57455 20.1699C8.79465 20.1699 8.96691 20.3421 8.96691 20.5622V23.614C8.96691 25.2882 10.3258 26.6468 12.0005 26.6468C13.6752 26.6468 15.0341 25.2882 15.0341 23.614V20.5622C15.0341 20.3421 15.2064 20.1699 15.4265 20.1699C15.6466 20.1699 15.8188 20.3421 15.8188 20.5622V23.614C15.8188 25.7188 14.1059 27.4313 12.0005 27.4313Z" fill="#3A179D"/>
<path d="M15.4169 20.5717C15.4169 18.6774 13.8857 17.1467 11.9909 17.1467C10.0961 17.1467 8.56494 18.6774 8.56494 20.5717" fill="white"/>
<path d="M15.4169 20.9639C15.1968 20.9639 15.0245 20.7917 15.0245 20.5716C15.0245 18.8974 13.6656 17.5389 11.9909 17.5389C10.3162 17.5389 8.95733 18.8974 8.95733 20.5716C8.95733 20.7917 8.78507 20.9639 8.56497 20.9639C8.34486 20.9639 8.17261 20.7917 8.17261 20.5716C8.17261 18.4669 9.88559 16.7544 11.9909 16.7544C14.0963 16.7544 15.8093 18.4669 15.8093 20.5716C15.8093 20.7917 15.637 20.9639 15.4169 20.9639Z" fill="#3A179D"/>
<path d="M12.3737 20.6675H12.2685C11.5972 20.6675 11.0531 21.2115 11.0531 21.8825V24.0351C11.0531 24.7061 11.5972 25.2501 12.2685 25.2501H12.3737C13.0449 25.2501 13.5891 24.7061 13.5891 24.0351V21.8825C13.5891 21.2115 13.0449 20.6675 12.3737 20.6675Z" fill="#1C1C1C"/>
<path d="M12.8522 21.825C13.2222 21.825 13.5221 21.5251 13.5221 21.1553C13.5221 20.7854 13.2222 20.4856 12.8522 20.4856C12.4822 20.4856 12.1823 20.7854 12.1823 21.1553C12.1823 21.5251 12.4822 21.825 12.8522 21.825Z" fill="white"/>
<path d="M22.9961 17.1465H22.6898C20.8823 17.1465 19.417 18.6114 19.417 20.4184V23.7668C19.417 25.5738 20.8823 27.0387 22.6898 27.0387H22.9961C24.8036 27.0387 26.2689 25.5738 26.2689 23.7668V20.4184C26.2689 18.6114 24.8036 17.1465 22.9961 17.1465Z" fill="white"/>
<path d="M22.8334 27.4309C20.7281 27.4309 19.0151 25.7184 19.0151 23.6137V20.5618C19.0151 18.4571 20.7281 16.7446 22.8334 16.7446C24.9387 16.7446 26.6517 18.4571 26.6517 20.5618V23.6137C26.6517 25.7184 24.9387 27.4309 22.8334 27.4309ZM22.8334 17.5387C21.1587 17.5387 19.7998 18.8972 19.7998 20.5714V23.6233C19.7998 25.2975 21.1587 26.656 22.8334 26.656C24.5081 26.656 25.867 25.2975 25.867 23.6233V20.5714C25.867 18.8972 24.5081 17.5387 22.8334 17.5387Z" fill="#3A179D"/>
<path d="M23.2162 20.6672H23.1109C22.4397 20.6672 21.8956 21.2112 21.8956 21.8822V24.0348C21.8956 24.7058 22.4397 25.2498 23.1109 25.2498H23.2162C23.8874 25.2498 24.4316 24.7058 24.4316 24.0348V21.8822C24.4316 21.2112 23.8874 20.6672 23.2162 20.6672Z" fill="#1C1C1C"/>
<path d="M23.6947 21.8247C24.0646 21.8247 24.3645 21.5249 24.3645 21.155C24.3645 20.7852 24.0646 20.4854 23.6947 20.4854C23.3247 20.4854 23.0248 20.7852 23.0248 21.155C23.0248 21.5249 23.3247 21.8247 23.6947 21.8247Z" fill="white"/>
<path d="M34.2405 25.0393L17.3691 34.7785L0.49762 25.0393C0.631596 25.0393 0.775142 25.0393 0.909119 25.0393C7.29214 25.0393 13.7709 28.9331 16.948 34.061C16.948 34.0801 16.9671 34.0897 16.9767 34.1088C17.0628 34.2332 17.2064 34.3193 17.3691 34.3193C17.5318 34.3193 17.6753 34.2332 17.7614 34.1088C17.771 34.0897 17.7806 34.0801 17.7901 34.061C20.9673 28.9426 27.446 25.0393 33.829 25.0393C33.963 25.0393 34.1066 25.0393 34.2405 25.0393Z" fill="#F7F7F7"/>
<path d="M35.609 25.355C35.609 25.5846 35.4846 25.7951 35.2932 25.9099L34.2405 26.5126L17.6849 36.0604C17.4839 36.1752 17.2447 36.1752 17.0437 36.0604L0.497624 26.5222L-0.555048 25.9195C-0.756013 25.8047 -0.87085 25.5942 -0.87085 25.3646C-0.87085 24.8671 -0.334944 24.5609 0.0956946 24.8097L0.497624 25.0489L17.0533 34.5967C17.2542 34.7115 17.4935 34.7115 17.6945 34.5967L34.2501 25.0489L34.652 24.8097C35.0827 24.5609 35.6186 24.8671 35.6186 25.3646L35.609 25.355Z" fill="#B23838"/>
<path d="M35.609 25.374V58.4949C35.609 58.6001 35.5516 58.7053 35.4559 58.7627L31.1399 61.2502L17.5222 69.1142C17.4265 69.1716 17.3117 69.1716 17.216 69.1142L3.59822 61.2502L-0.717734 58.7627C-0.813431 58.7053 -0.87085 58.6097 -0.87085 58.4949V25.374L0.497624 26.1681L16.4695 35.3811C17.0246 35.7063 17.7136 35.7063 18.2782 35.3811L34.2501 26.1681L35.6186 25.374H35.609Z" fill="#FF4C4C"/>
</g>
<path d="M66.5576 31.3153V37.1415C66.5576 37.5242 66.2418 37.8399 65.859 37.8399H46.0688C45.686 37.8399 45.3702 37.5242 45.3702 37.1415V3.70498C45.3702 3.3223 45.686 3.00659 46.0688 3.00659H52.1456C52.5283 3.00659 52.8442 3.3223 52.8442 3.70498V29.928C52.8442 30.3107 53.16 30.6264 53.5427 30.6264H65.859C66.2418 30.6264 66.5576 30.9421 66.5576 31.3248V31.3153Z" fill="#7000FF"/>
<path d="M92.3385 18.6294C91.3145 16.6682 89.8695 15.1088 87.9938 13.9511C86.1181 12.7935 83.8979 12.21 81.3428 12.21C78.7877 12.21 76.6632 12.7648 74.7684 13.8746C72.8736 14.9844 71.4094 16.5247 70.3663 18.505C69.3232 20.4854 68.8065 22.7623 68.8065 25.355C68.8065 27.9476 69.3232 30.2628 70.3663 32.2049C71.4094 34.147 72.8736 35.649 74.7684 36.7014C76.6632 37.7538 78.8547 38.2895 81.3428 38.2895C84.0702 38.2895 86.4244 37.7346 88.4053 36.6249C90.1757 35.6395 91.592 34.281 92.6447 32.5685C92.8552 32.2336 92.7308 31.7935 92.3863 31.6022L88.4818 29.4305C88.1756 29.2583 87.8024 29.3444 87.5919 29.6218C87.0177 30.3681 86.3382 31.0091 85.5631 31.5352C84.6252 32.1858 83.3525 32.5111 81.7543 32.5111C79.8404 32.5111 78.3571 31.9945 77.2757 30.9517C76.5675 30.2724 76.0986 29.4018 75.8498 28.359C75.7445 27.9189 76.0795 27.5075 76.5292 27.5075H93.104C93.4581 27.5075 93.7644 27.2397 93.7931 26.8761C93.8026 26.7709 93.8122 26.6561 93.8218 26.5317C93.86 26.1203 93.8696 25.6994 93.8696 25.2497C93.8696 22.791 93.3528 20.5906 92.3385 18.6294ZM76.7685 22.1883C76.2804 22.1883 75.9359 21.6908 76.1177 21.2412C76.3761 20.6193 76.7398 20.0644 77.2183 19.5765C78.2614 18.5242 79.649 17.9884 81.3811 17.9884C83.3238 17.9884 84.7688 18.5816 85.7066 19.7774C86.0511 20.2175 86.3287 20.6959 86.5488 21.2316C86.7402 21.6908 86.3956 22.1883 85.9076 22.1883H76.7685Z" fill="#7000FF"/>
<path d="M117.488 16.9169C116.722 15.4149 115.555 14.2573 113.985 13.4345C112.416 12.6213 110.473 12.21 108.157 12.21C106.349 12.21 104.588 12.43 102.865 12.8701C101.363 13.2528 99.9464 13.7598 98.6163 14.3817C98.2813 14.5347 98.1378 14.9174 98.2717 15.2618L99.956 19.3374C100.1 19.6913 100.511 19.854 100.856 19.7009C101.899 19.2417 102.913 18.926 103.908 18.7442C105.105 18.5242 106.157 18.4094 107.076 18.4094C108.511 18.4094 109.545 18.7538 110.196 19.433C110.846 20.1123 111.172 20.9159 111.172 21.8343V22.0735C111.172 22.5806 110.645 22.9058 110.186 22.6762C108.837 22.0065 107.2 21.6717 105.286 21.6717C103.583 21.6717 102.042 22.0161 100.655 22.6954C99.2766 23.3746 98.176 24.3409 97.353 25.5846C96.53 26.8283 96.1281 28.3399 96.1281 30.1098C96.1281 31.784 96.5013 33.2477 97.2573 34.5106C98.0038 35.7734 99.0756 36.7492 100.454 37.4476C101.832 38.146 103.43 38.5 105.239 38.5C107.727 38.5 109.736 37.9164 111.277 36.7588C111.65 36.4718 112.196 36.6536 112.33 37.1032L112.406 37.352C112.492 37.639 112.76 37.8303 113.057 37.8303H117.966C118.339 37.8303 118.646 37.5242 118.646 37.1511V22.1309C118.646 20.1505 118.263 18.4189 117.497 16.9169H117.488ZM110.224 32.3102C109.564 32.8937 108.664 33.1808 107.535 33.1808C106.406 33.1808 105.526 32.8937 104.875 32.3102C104.224 31.7266 103.908 30.9995 103.908 30.1098C103.908 29.1531 104.234 28.4068 104.875 27.8615C105.526 27.3162 106.406 27.0388 107.535 27.0388C108.664 27.0388 109.554 27.3162 110.224 27.8615C110.885 28.4068 111.22 29.1626 111.22 30.1098C111.22 30.9995 110.885 31.7266 110.224 32.3102Z" fill="#7000FF"/>
<path d="M138.838 12.9274V19.0503C138.838 19.2895 138.646 19.4712 138.417 19.4712H137.154C134.972 19.4712 133.259 19.8252 132.015 20.5236C131.728 20.6862 131.46 20.868 131.211 21.0785C131.115 21.155 131.067 21.2794 131.067 21.4038V37.4189C131.067 37.658 130.876 37.8398 130.646 37.8398H124.033C123.794 37.8398 123.612 37.6485 123.612 37.4189V13.2527C123.612 13.0135 123.804 12.8318 124.033 12.8318H128.809C129 12.8318 129.163 12.9561 129.22 13.1379L129.67 14.7452C129.756 15.0609 130.149 15.1565 130.378 14.9365C131.144 14.1903 132.053 13.5493 133.086 13.0135C134.13 12.4874 135.192 12.2195 136.283 12.2195C136.828 12.2195 137.326 12.2577 137.766 12.3247C138.091 12.3726 138.369 12.4491 138.599 12.5543C138.752 12.6213 138.838 12.7744 138.838 12.937V12.9274Z" fill="#7000FF"/>
<path d="M165.7 22.5901V37.1319C165.7 37.5146 165.384 37.8303 165.002 37.8303H158.925C158.542 37.8303 158.226 37.5146 158.226 37.1319V22.9919C158.226 21.5569 157.968 20.6193 157.461 20.1505C156.944 19.6913 156.264 19.4617 155.413 19.4617C154.695 19.4617 153.958 19.6052 153.193 19.8922C152.427 20.1792 151.68 20.5811 150.963 21.0977C150.647 21.3273 150.341 21.5665 150.063 21.8152C149.92 21.9491 149.843 22.1309 149.843 22.3318V37.1319C149.843 37.5146 149.527 37.8303 149.145 37.8303H143.068C142.685 37.8303 142.369 37.5146 142.369 37.1319V13.5206C142.369 13.138 142.685 12.8222 143.068 12.8222H147.384C147.69 12.8222 147.958 13.0232 148.044 13.3102L148.494 14.7548C148.637 15.214 149.192 15.3958 149.575 15.1088C149.68 15.0322 149.786 14.9461 149.891 14.8696C151.02 14.0468 152.245 13.4058 153.575 12.9275C154.905 12.4491 156.303 12.21 157.767 12.21C159.442 12.21 160.8 12.4874 161.863 13.0519C162.925 13.6163 163.729 14.3912 164.293 15.3766C164.858 16.362 165.231 17.4814 165.423 18.7251C165.604 19.9688 165.7 21.2603 165.7 22.5806V22.5901Z" fill="#7000FF"/>
<path d="M170.093 4.94864C170.093 3.61883 170.495 2.54733 171.298 1.72457C172.102 0.901813 173.165 0.5 174.495 0.5C175.825 0.5 176.887 0.91138 177.691 1.72457C178.495 2.54733 178.897 3.61883 178.897 4.94864C178.897 6.27845 178.495 7.29255 177.691 8.09617C176.887 8.8998 175.825 9.30161 174.495 9.30161C173.165 9.30161 172.102 8.8998 171.298 8.09617C170.495 7.29255 170.093 6.24975 170.093 4.94864ZM177.528 37.8303H171.452C171.069 37.8303 170.753 37.5146 170.753 37.1319V13.5206C170.753 13.138 171.069 12.8223 171.452 12.8223H177.528C177.911 12.8223 178.227 13.138 178.227 13.5206V37.1415C178.227 37.5242 177.911 37.8399 177.528 37.8399V37.8303Z" fill="#7000FF"/>
<path d="M206.668 13.5207V37.1415C206.668 37.5242 206.352 37.8399 205.97 37.8399H201.606C201.3 37.8399 201.032 37.639 200.945 37.352L200.524 35.9935C200.381 35.5247 199.816 35.3525 199.433 35.6586C199.386 35.6969 199.338 35.7352 199.28 35.7734C198.209 36.6057 197.07 37.2659 195.883 37.7442C194.687 38.2226 193.424 38.4617 192.093 38.4617C190.256 38.4617 188.763 38.1939 187.615 37.639C186.476 37.0937 185.586 36.3379 184.954 35.362C184.323 34.3958 183.892 33.286 183.672 32.0423C183.452 30.7986 183.337 29.4784 183.337 28.0816V13.5398C183.337 13.1571 183.653 12.8414 184.036 12.8414H190.113C190.495 12.8414 190.811 13.1571 190.811 13.5398V27.6702C190.811 29.067 191.098 29.995 191.682 30.4542C192.266 30.9134 192.983 31.143 193.835 31.143C194.582 31.143 195.318 31.0186 196.036 30.7603C196.754 30.502 197.453 30.1289 198.132 29.6314C198.409 29.4305 198.677 29.2105 198.936 28.9713C199.079 28.8374 199.166 28.6556 199.166 28.4547V13.5207C199.166 13.138 199.481 12.8223 199.864 12.8223H205.989C206.372 12.8223 206.687 13.138 206.687 13.5207H206.668Z" fill="#7000FF"/>
<path d="M250 22.5902V37.4668C250 37.6677 249.837 37.8303 249.636 37.8303H242.842C242.641 37.8303 242.478 37.6677 242.478 37.4668V23.0015C242.478 21.5665 242.229 20.6194 241.741 20.1602C241.244 19.7009 240.622 19.4713 239.875 19.4713C238.784 19.4713 237.722 19.787 236.708 20.4185C236.038 20.8394 235.406 21.3273 234.822 21.9013C234.746 21.9683 234.708 22.0736 234.717 22.1692C234.717 22.3127 234.717 22.4562 234.717 22.5997V37.4764C234.717 37.6773 234.554 37.8399 234.353 37.8399H227.616C227.415 37.8399 227.253 37.6773 227.253 37.4764V23.0111C227.253 21.5761 226.994 20.6289 226.487 20.1697C225.98 19.7105 225.348 19.4809 224.592 19.4809C223.53 19.4809 222.497 19.7966 221.473 20.428C220.803 20.8394 220.171 21.3369 219.587 21.9109C219.52 21.9779 219.482 22.0736 219.482 22.1692V37.4764C219.482 37.6773 219.319 37.8399 219.118 37.8399H212.381C212.18 37.8399 212.018 37.6773 212.018 37.4764V13.1858C212.018 12.9849 212.18 12.8223 212.381 12.8223H217.271C217.434 12.8223 217.568 12.9275 217.616 13.0806L218.257 15.1566C218.334 15.4054 218.63 15.4915 218.831 15.3288C219.032 15.1662 219.224 15.0131 219.425 14.8696C220.516 14.0469 221.712 13.4059 223.004 12.9275C224.305 12.4492 225.645 12.21 227.042 12.21C228.717 12.21 230.057 12.4874 231.061 13.0519C232.066 13.6164 232.832 14.3913 233.368 15.3767C233.473 15.5871 233.751 15.635 233.932 15.4915C234.191 15.281 234.459 15.0705 234.727 14.8601C235.818 14.0373 237.004 13.3963 238.287 12.918C239.569 12.4396 240.899 12.2004 242.306 12.2004C243.981 12.2004 245.32 12.4779 246.344 13.0423C247.368 13.6068 248.134 14.3817 248.651 15.3671C249.158 16.3525 249.522 17.4718 249.723 18.7155C249.923 19.9593 250.029 21.2412 250.029 22.5806L250 22.5902Z" fill="#7000FF"/>
</svg>
