<svg width="31" height="41" viewBox="0 0 31 41" fill="none" xmlns="http://www.w3.org/2000/svg">
<path d="M3.84563 0V40.4803H3.99406C1.78113 40.4803 0 38.6992 0 36.4862V4.00755C0 1.79463 1.78113 0.0134934 3.99406 0.0134934H3.84563V0Z" fill="#FF4C4C"/>
<path d="M30.9 4.00755V36.4997C30.9 38.7127 29.1189 40.4938 26.906 40.4938H3.8457V0H26.906C29.1189 0 30.9 1.78113 30.9 3.99406V4.00755Z" fill="#DDDDDD"/>
<path d="M1.87572 4.45286C2.15145 4.45286 2.37498 4.22933 2.37498 3.9536C2.37498 3.67787 2.15145 3.45435 1.87572 3.45435C1.59999 3.45435 1.37646 3.67787 1.37646 3.9536C1.37646 4.22933 1.59999 4.45286 1.87572 4.45286Z" fill="white"/>
<path d="M1.87572 36.5403C2.15145 36.5403 2.37498 36.3167 2.37498 36.041C2.37498 35.7653 2.15145 35.5417 1.87572 35.5417C1.59999 35.5417 1.37646 35.7653 1.37646 36.041C1.37646 36.3167 1.59999 36.5403 1.87572 36.5403Z" fill="white"/>
<path d="M23.4921 21.0092H9.41843C8.6763 21.0092 8.06909 20.402 8.06909 19.6599C8.06909 18.9178 8.6763 18.3105 9.41843 18.3105H23.4921C24.2342 18.3105 24.8414 18.9178 24.8414 19.6599C24.8414 20.402 24.2342 21.0092 23.4921 21.0092Z" fill="#5B5B5B"/>
<path d="M23.4921 28.3765H9.41843C8.6763 28.3765 8.06909 27.7693 8.06909 27.0272C8.06909 26.2851 8.6763 25.6779 9.41843 25.6779H23.4921C24.2342 25.6779 24.8414 26.2851 24.8414 27.0272C24.8414 27.7693 24.2342 28.3765 23.4921 28.3765Z" fill="#5B5B5B"/>
<path d="M23.4921 35.7305H9.41843C8.6763 35.7305 8.06909 35.1233 8.06909 34.3812C8.06909 33.6391 8.6763 33.0319 9.41843 33.0319H23.4921C24.2342 33.0319 24.8414 33.6391 24.8414 34.3812C24.8414 35.1233 24.2342 35.7305 23.4921 35.7305Z" fill="#5B5B5B"/>
<path d="M18.3375 14.0735H14.2086C13.8173 14.0735 13.4934 13.7496 13.4934 13.3583V5.99091C13.4934 5.5996 13.8173 5.27576 14.2086 5.27576H15.1126C15.5039 5.27576 15.8278 5.5996 15.8278 5.99091V12.8995L15.0991 11.8066H18.3241C18.7154 11.8066 19.0392 12.1304 19.0392 12.5217V13.3718C19.0392 13.7631 18.7154 14.087 18.3241 14.087L18.3375 14.0735Z" fill="#5B5B5B"/>
</svg>
