<svg width="35" height="42" viewBox="0 0 35 42" fill="none" xmlns="http://www.w3.org/2000/svg">
<path d="M19.6533 3.56726H13.7034V9.51715H19.6533V3.56726Z" fill="#A0A0A0"/>
<path d="M17.2574 41.0435C26.7884 41.0435 34.5148 33.3171 34.5148 23.7861C34.5148 14.2551 26.7884 6.52875 17.2574 6.52875C7.72639 6.52875 0 14.2551 0 23.7861C0 33.3171 7.72639 41.0435 17.2574 41.0435Z" fill="#E8E8E8"/>
<path d="M17.2572 36.278C24.1564 36.278 29.7493 30.6851 29.7493 23.7859C29.7493 16.8867 24.1564 11.2938 17.2572 11.2938C10.358 11.2938 4.76514 16.8867 4.76514 23.7859C4.76514 30.6851 10.358 36.278 17.2572 36.278Z" fill="white"/>
<path d="M19.6533 -6.10352e-05H13.7035C12.3875 -6.10352e-05 11.3208 1.06669 11.3208 2.38259C11.3208 3.69849 12.3875 4.76524 13.7035 4.76524H19.6533C20.9692 4.76524 22.036 3.69849 22.036 2.38259C22.036 1.06669 20.9692 -6.10352e-05 19.6533 -6.10352e-05Z" fill="#FF4C4C"/>
<path d="M17.257 25.7244C18.3276 25.7244 19.1955 24.8565 19.1955 23.7859C19.1955 22.7154 18.3276 21.8475 17.257 21.8475C16.1865 21.8475 15.3186 22.7154 15.3186 23.7859C15.3186 24.8565 16.1865 25.7244 17.257 25.7244Z" fill="#A0A0A0"/>
<path d="M12.6536 18.8996L17.5535 23.7995H20.838" stroke="#383838" stroke-width="0.897532" stroke-linecap="round" stroke-linejoin="round"/>
<path d="M7.79395 23.7859H8.85739" stroke="#E8E8E8" stroke-width="0.897532" stroke-linecap="round" stroke-linejoin="round"/>
<path d="M25.6436 23.7859H26.707" stroke="#E8E8E8" stroke-width="0.897532" stroke-linecap="round" stroke-linejoin="round"/>
<path d="M17.2571 14.3229V15.3863" stroke="#E8E8E8" stroke-width="0.897532" stroke-linecap="round" stroke-linejoin="round"/>
<path d="M17.2571 32.1726V33.236" stroke="#E8E8E8" stroke-width="0.897532" stroke-linecap="round" stroke-linejoin="round"/>
</svg>
