<svg width="29" height="42" viewBox="0 0 29 42" fill="none" xmlns="http://www.w3.org/2000/svg">
<path d="M15.6695 33.2156L15.499 33.5328L15.3286 33.8225C15.4335 33.6156 15.5515 33.4087 15.6695 33.2156Z" fill="#FCCD06"/>
<path d="M19.5372 31.5605C19.5372 34.7468 16.9151 37.2848 13.808 36.9124C11.6055 36.6365 9.75694 34.8295 9.38985 32.526C9.18009 31.2156 9.40296 29.9604 9.95359 28.9259L10.0191 28.8156L10.0847 28.7052L13.1787 23.0774C13.7293 22.0567 15.119 22.0567 15.6828 23.0774L18.7899 28.7466L18.9079 28.9397C19.3274 29.7121 19.5503 30.6087 19.5503 31.5743L19.5372 31.5605Z" fill="#FCCD06"/>
<path d="M19.5372 31.5605C19.5372 34.7468 16.9151 37.2848 13.808 36.9124C11.6055 36.6365 9.75694 34.8295 9.38985 32.526C9.18009 31.2156 9.40296 29.9604 9.95359 28.9259L10.0191 28.8156L10.0847 28.7052L13.1787 23.0774C13.7293 22.0567 15.119 22.0567 15.6828 23.0774L18.7899 28.7466L18.9079 28.9397C19.3274 29.7121 19.5503 30.6087 19.5503 31.5743L19.5372 31.5605Z" fill="#FF4C4C"/>
<path d="M26.6821 19.9738L26.3806 19.4359L16.8495 2.06981C15.7744 0.0973346 13.0606 0.0973346 11.9856 2.06981L6.74146 11.6425C6.54481 12.0012 6.09906 12.1115 5.7713 11.877L4.7487 11.1598C3.83099 10.5115 2.5724 11.1598 2.50685 12.3184L2.08732 18.8428V19.0635C2.0611 19.1738 2.0611 19.2842 2.0611 19.3945C2.0611 19.8635 1.96933 20.3187 1.77268 20.7325C0.828741 22.7877 0.317442 25.1188 0.369883 27.5741C0.553426 35.2433 6.49237 41.6297 13.7817 41.9608C21.8313 42.3332 28.4651 35.5744 28.4651 27.2017C28.4651 24.5809 27.8096 22.1118 26.669 19.9738H26.6821ZM13.8079 36.9123C11.6054 36.6365 9.75682 34.8295 9.38973 32.526C9.17997 31.2156 9.40284 29.9604 9.95347 28.9259L10.019 28.8155L10.0846 28.7052L13.1786 23.0774C13.7292 22.0567 15.1189 22.0567 15.6826 23.0774L18.7898 28.7465L18.9078 28.9397C19.3273 29.7121 19.5502 30.6087 19.5502 31.5742C19.5502 34.7605 16.9281 37.2986 13.821 36.9261L13.8079 36.9123Z" fill="#FCCD06"/>
<g opacity="0.6">
<path d="M10.9237 16.8013C10.6353 16.8013 10.3469 16.7186 10.0846 16.5669C9.27181 16.0703 8.98339 14.9806 9.45536 14.1254L11.7103 9.97353C12.1823 9.11833 13.218 8.81487 14.0308 9.31144C14.8437 9.80801 15.1321 10.8977 14.6601 11.7529L12.4052 15.9048C12.0905 16.4841 11.5137 16.8151 10.9237 16.8151V16.8013Z" fill="white"/>
</g>
</svg>
