<svg width="20" height="20" viewBox="0 0 20 20" fill="none" xmlns="http://www.w3.org/2000/svg">
<path d="M19.1124 3.46297C19.1124 2.01709 17.9368 0.841553 16.4909 0.841553H3.38387C1.93799 0.841553 0.762451 2.01709 0.762451 3.46297V16.57C0.762451 18.0159 1.93799 19.1915 3.38387 19.1915H16.4909C17.9368 19.1915 19.1124 18.0159 19.1124 16.57V3.46297ZM11.6495 16.2301C11.6495 16.1564 11.6495 15.9843 11.6536 15.7549C11.6577 15.288 11.6577 14.5753 11.6577 13.965C11.6577 13.326 11.4447 12.9205 11.1949 12.7076C12.7104 12.5396 14.3078 12.3307 14.3078 9.71341C14.3078 8.96794 14.0416 8.59521 13.6074 8.11598C13.677 7.93985 13.9105 7.21487 13.5378 6.2728C12.9684 6.09667 11.6659 7.00597 11.6659 7.00597C11.1252 6.85442 10.5395 6.7766 9.96198 6.7766C9.38445 6.7766 8.79873 6.85442 8.25806 7.00597C8.25806 7.00597 6.95554 6.09667 6.38621 6.2728C6.01347 7.21077 6.24285 7.93576 6.31658 8.11598C5.8824 8.59521 5.67761 8.96794 5.67761 9.71341C5.67761 12.3184 7.2054 12.5396 8.7209 12.7076C8.5243 12.8837 8.34817 13.1868 8.28673 13.621C7.89762 13.7971 6.9023 14.1002 6.30838 13.0516C5.93565 12.4045 5.26391 12.3512 5.26391 12.3512C4.60037 12.343 5.21886 12.769 5.21886 12.769C5.66122 12.9738 5.97251 13.7602 5.97251 13.7602C6.36982 14.9767 8.27035 14.5671 8.27035 14.5671C8.27035 14.9358 8.27444 15.4559 8.27444 15.8205C8.27444 16.0171 8.27854 16.1727 8.27854 16.2301C8.27854 16.4062 8.15566 16.6192 7.80751 16.5578C5.10417 15.6525 3.21184 13.0803 3.21184 10.0738C3.21184 6.31376 6.0872 3.45887 9.84729 3.45887C13.6074 3.45887 16.6548 6.31376 16.6548 10.0738C16.6589 13.0803 14.8239 15.6566 12.1206 16.5578C11.7765 16.6192 11.6495 16.4062 11.6495 16.2301ZM7.94267 13.9855C7.93448 13.9241 7.98773 13.8708 8.06555 13.8544C8.14337 13.8462 8.2171 13.879 8.22529 13.9322C8.23758 13.9855 8.18433 14.0387 8.10241 14.0551C8.02459 14.0715 7.95086 14.0387 7.94267 13.9855ZM7.56994 14.1166C7.47983 14.1248 7.41839 14.0797 7.41839 14.0183C7.41839 13.965 7.47983 13.92 7.56175 13.92C7.63957 13.9118 7.7133 13.9568 7.7133 14.0183C7.7133 14.0715 7.65186 14.1166 7.56994 14.1166ZM6.98422 14.0265C6.90639 14.0101 6.85315 13.9486 6.86953 13.8954C6.88591 13.8421 6.96783 13.8176 7.03746 13.8339C7.11938 13.8585 7.17263 13.92 7.15215 13.9732C7.13577 14.0265 7.05385 14.051 6.98422 14.0265ZM6.47222 13.7274C6.41078 13.6742 6.3944 13.5964 6.43536 13.5595C6.47222 13.5145 6.55005 13.5226 6.61148 13.5841C6.66473 13.6373 6.68521 13.7193 6.64835 13.752C6.61148 13.7971 6.53366 13.7889 6.47222 13.7274ZM6.12406 13.3179C6.07901 13.2564 6.07901 13.1868 6.12406 13.1581C6.16912 13.1212 6.23875 13.1499 6.27562 13.2114C6.32067 13.2728 6.32067 13.3465 6.27562 13.3793C6.23875 13.4039 6.16912 13.3793 6.12406 13.3179ZM5.86602 12.9574C5.82096 12.9042 5.81277 12.8427 5.84964 12.814C5.8865 12.7772 5.94794 12.7977 5.99299 12.8386C6.03805 12.8919 6.04624 12.9533 6.00938 12.982C5.97251 13.0188 5.91107 12.9984 5.86602 12.9574ZM5.62026 12.6953C5.56701 12.6707 5.54244 12.6256 5.55882 12.5888C5.57521 12.5642 5.62026 12.5519 5.67351 12.5724C5.72676 12.6011 5.75133 12.6461 5.73495 12.6789C5.71856 12.7157 5.66532 12.7239 5.62026 12.6953Z" fill="#7000FF"/>
</svg>
