<svg width="20" height="20" viewBox="0 0 20 20" fill="none" xmlns="http://www.w3.org/2000/svg">
<path d="M17.8382 0.810547H1.92016C1.19077 0.810547 0.598145 1.40646 0.598145 2.13799V17.8946C0.598145 18.6262 1.19077 19.2221 1.92016 19.2221H17.8382C18.5676 19.2221 19.1644 18.6262 19.1644 17.8946V2.13799C19.1644 1.40646 18.5676 0.810547 17.8382 0.810547ZM6.20946 16.5919H3.45768V7.80528H6.21361V16.5919H6.20946ZM4.83357 6.60525C3.95084 6.60525 3.23803 5.89427 3.23803 5.02301C3.23803 4.15175 3.95084 3.44077 4.83357 3.44077C5.71215 3.44077 6.42911 4.15175 6.42911 5.02301C6.42911 5.89838 5.7163 6.60525 4.83357 6.60525ZM16.5245 16.5919H13.7727V12.3178C13.7727 11.2985 13.752 9.98754 12.343 9.98754C10.909 9.98754 10.6894 11.0972 10.6894 12.2438V16.5919H7.93761V7.80528H10.5775V9.00532H10.6148C10.9836 8.31489 11.8829 7.58747 13.2215 7.58747C16.0065 7.58747 16.5245 9.40807 16.5245 11.7753V16.5919Z" fill="#7000FF"/>
</svg>
