<svg width="20" height="20" viewBox="0 0 20 20" fill="none" xmlns="http://www.w3.org/2000/svg">
<path d="M7.30049 2.67972H12.8055C12.9737 2.67972 13.1113 2.81734 13.1113 2.98555V4.51471H6.99466V2.98555C6.99466 2.81734 7.13228 2.67972 7.30049 2.67972ZM5.15967 2.98555V4.51471H2.71301C1.36353 4.51471 0.266357 5.61188 0.266357 6.96136V10.6313H7.60632H12.4996H19.8396V6.96136C19.8396 5.61188 18.7424 4.51471 17.3929 4.51471H14.9463V2.98555C14.9463 1.80427 13.9867 0.844727 12.8055 0.844727H7.30049C6.11921 0.844727 5.15967 1.80427 5.15967 2.98555ZM19.8396 11.8547H12.4996V13.078C12.4996 13.7547 11.953 14.3013 11.2763 14.3013H8.82965C8.15299 14.3013 7.60632 13.7547 7.60632 13.078V11.8547H0.266357V16.748C0.266357 18.0975 1.36353 19.1946 2.71301 19.1946H17.3929C18.7424 19.1946 19.8396 18.0975 19.8396 16.748V11.8547Z" fill="#7000FF"/>
</svg>
