<svg width="32" height="33" viewBox="0 0 32 33" fill="none" xmlns="http://www.w3.org/2000/svg">
<mask id="mask0_2240_4583" style="mask-type:luminance" maskUnits="userSpaceOnUse" x="0" y="1" width="31" height="31">
<path d="M15.8677 31.2833C24.1519 31.2833 30.8677 24.5676 30.8677 16.2833C30.8677 7.99905 24.1519 1.28333 15.8677 1.28333C7.5834 1.28333 0.867676 7.99905 0.867676 16.2833C0.867676 24.5676 7.5834 31.2833 15.8677 31.2833Z" fill="white"/>
</mask>
<g mask="url(#mask0_2240_4583)">
<path d="M1.12305 34.2633V5.34334C1.12305 -2.67667 7.65305 -9.20667 15.673 -9.20667C23.6931 -9.20667 30.2231 -2.67667 30.2231 5.34334V34.2633H1.12305Z" fill="#7000FF"/>
<path d="M18.3106 -8.77369C31.9301 -8.77369 43.0157 -2.54447 43.0157 5.10856V19.154V33.1993H-6.4122V5.11845C-6.4122 -2.53459 4.67347 -8.7638 18.293 -8.7638M18.293 -9.76245C3.65288 -9.76245 -8.20703 -3.09818 -8.20703 5.12833V34.2277H44.793V5.11845C44.793 -3.10807 32.9331 -9.77234 18.293 -9.77234V-9.76245Z" fill="#1B0066"/>
<path d="M7.88274 32.7433V41.4133C7.88274 47.0433 3.30272 51.6133 -2.31728 51.6133C-4.18728 51.6133 -5.69727 50.1033 -5.69727 48.2333C-5.69727 46.3633 -4.18728 44.8533 -2.31728 44.8533C-0.447276 44.8533 1.12273 43.3133 1.12273 41.4133V29.1333" fill="#7000FF"/>
<path d="M-2.31703 52.1233C-4.45703 52.1233 -6.20703 50.3833 -6.20703 48.2333C-6.20703 46.0833 -4.46703 44.3433 -2.31703 44.3433C-0.697032 44.3433 0.612976 43.0233 0.612976 41.4133V29.1333C0.612976 28.8533 0.84297 28.6233 1.12297 28.6233C1.40297 28.6233 1.63298 28.8533 1.63298 29.1333V41.4133C1.63298 43.5933 -0.137032 45.3633 -2.31703 45.3633C-3.90703 45.3633 -5.18703 46.6533 -5.18703 48.2333C-5.18703 49.8133 -3.89703 51.1033 -2.31703 51.1033C3.03297 51.1033 7.38298 46.7533 7.38298 41.4033V32.7333C7.38298 32.4533 7.61298 32.2233 7.89297 32.2233C8.17297 32.2233 8.40297 32.4533 8.40297 32.7333V41.4033C8.40297 47.3133 3.60298 52.1133 -2.30702 52.1133L-2.31703 52.1233Z" fill="#1B0066"/>
<path d="M23.5728 30.8833V41.2033C23.5728 46.7333 28.0728 51.2333 33.6028 51.2333C35.4428 51.2333 36.9228 49.7433 36.9228 47.9133C36.9228 46.0833 35.4328 44.5933 33.6028 44.5933C31.7728 44.5933 30.2228 43.0733 30.2228 41.2133V29.1333" fill="#7000FF"/>
<path d="M33.603 51.7433C27.793 51.7433 23.063 47.0133 23.063 41.2033V30.8833C23.063 30.6033 23.293 30.3733 23.573 30.3733C23.853 30.3733 24.083 30.6033 24.083 30.8833V41.2033C24.083 46.4533 28.353 50.7233 33.603 50.7233C35.153 50.7233 36.423 49.4633 36.423 47.9033C36.423 46.3433 35.163 45.0833 33.603 45.0833C31.463 45.0833 29.713 43.3433 29.713 41.1933V29.1133C29.713 28.8333 29.943 28.6033 30.223 28.6033C30.503 28.6033 30.733 28.8333 30.733 29.1133V41.1933C30.733 42.7833 32.023 44.0633 33.603 44.0633C35.713 44.0633 37.433 45.7833 37.433 47.8933C37.433 50.0033 35.713 51.7233 33.603 51.7233V51.7433Z" fill="#1B0066"/>
<path d="M20.2329 30.8833V41.2033C20.2329 46.7333 24.7329 51.2333 30.2629 51.2333C32.1029 51.2333 33.5829 49.7433 33.5829 47.9133C33.5829 46.0833 32.0929 44.5933 30.2629 44.5933C28.4329 44.5933 26.8829 43.0733 26.8829 41.2133V29.1333" fill="#7000FF"/>
<path d="M30.2631 51.7433C24.4531 51.7433 19.7231 47.0133 19.7231 41.2033V30.8833C19.7231 30.6033 19.9531 30.3733 20.2331 30.3733C20.5131 30.3733 20.7431 30.6033 20.7431 30.8833V41.2033C20.7431 46.4533 25.0131 50.7233 30.2631 50.7233C31.8131 50.7233 33.0831 49.4633 33.0831 47.9033C33.0831 46.3433 31.8231 45.0833 30.2631 45.0833C28.1231 45.0833 26.3731 43.3433 26.3731 41.1933V29.1133C26.3731 28.8333 26.6031 28.6033 26.8831 28.6033C27.1631 28.6033 27.3931 28.8333 27.3931 29.1133V41.1933C27.3931 42.7833 28.6831 44.0633 30.2631 44.0633C32.3731 44.0633 34.0931 45.7833 34.0931 47.8933C34.0931 50.0033 32.3731 51.7233 30.2631 51.7233V51.7433Z" fill="#1B0066"/>
<path d="M11.453 31.7233V41.4033C11.453 47.0333 6.87305 51.6033 1.25305 51.6033C-0.616948 51.6033 -2.12695 50.0933 -2.12695 48.2233C-2.12695 46.3533 -0.616948 44.8433 1.25305 44.8433C3.12305 44.8433 4.69305 43.3033 4.69305 41.4033V29.1233" fill="#7000FF"/>
<path d="M1.24303 52.1233C-0.896973 52.1233 -2.64697 50.3833 -2.64697 48.2333C-2.64697 46.0833 -0.906973 44.3433 1.24303 44.3433C2.86303 44.3433 4.17303 43.0233 4.17303 41.4133V29.1333C4.17303 28.8533 4.40303 28.6233 4.68303 28.6233C4.96303 28.6233 5.19304 28.8533 5.19304 29.1333V41.4133C5.19304 43.5933 3.42303 45.3633 1.24303 45.3633C-0.346973 45.3633 -1.62697 46.6533 -1.62697 48.2333C-1.62697 49.8133 -0.336973 51.1033 1.24303 51.1033C6.59303 51.1033 10.943 46.7533 10.943 41.4033V31.7233C10.943 31.4433 11.173 31.2133 11.453 31.2133C11.733 31.2133 11.963 31.4433 11.963 31.7233V41.4033C11.963 47.3133 7.16304 52.1133 1.25304 52.1133L1.24303 52.1233Z" fill="#1B0066"/>
<path d="M4.37549 13.6548V17.9943C4.37549 20.6859 6.55074 22.8612 9.24235 22.8612C11.934 22.8612 14.1092 20.6859 14.1092 17.9943V13.6548" fill="#F5F5F5"/>
<path d="M9.24211 23.4215C6.25387 23.4215 3.81494 20.9826 3.81494 17.9943V13.6548C3.81494 13.3472 4.06763 13.0945 4.37525 13.0945C4.68286 13.0945 4.93554 13.3472 4.93554 13.6548V17.9943C4.93554 20.3673 6.86911 22.3119 9.25311 22.3119C11.6371 22.3119 13.5707 20.3783 13.5707 17.9943V13.6548C13.5707 13.3472 13.8233 13.0945 14.131 13.0945C14.4386 13.0945 14.6913 13.3472 14.6913 13.6548V17.9943C14.6913 20.9826 12.2523 23.4215 9.26409 23.4215H9.24211Z" fill="#1B0066"/>
<path d="M14.1092 13.6547C14.1092 10.9631 11.934 8.78784 9.24235 8.78784C6.55074 8.78784 4.37549 10.9631 4.37549 13.6547" fill="#F5F5F5"/>
<path d="M14.109 14.2151C13.8014 14.2151 13.5487 13.9624 13.5487 13.6548C13.5487 11.2818 11.6151 9.33726 9.23112 9.33726C6.84712 9.33726 4.91355 11.2708 4.91355 13.6548C4.91355 13.9624 4.66087 14.2151 4.35326 14.2151C4.04564 14.2151 3.79297 13.9624 3.79297 13.6548C3.79297 10.6666 6.2319 8.22766 9.22014 8.22766C12.2084 8.22766 14.6473 10.6666 14.6473 13.6548C14.6473 13.9624 14.3946 14.2151 14.087 14.2151H14.109Z" fill="#1B0066"/>
<path d="M9.43992 12.3915H9.04442C8.15856 12.3915 7.44043 13.1096 7.44043 13.9955V17.3133C7.44043 18.1991 8.15856 18.9173 9.04442 18.9173H9.43992C10.3258 18.9173 11.0439 18.1991 11.0439 17.3133V13.9955C11.0439 13.1096 10.3258 12.3915 9.43992 12.3915Z" fill="#262626"/>
<path d="M10.0002 14.0505C10.5281 14.0505 10.956 13.6226 10.956 13.0947C10.956 12.5668 10.5281 12.1389 10.0002 12.1389C9.47235 12.1389 9.04443 12.5668 9.04443 13.0947C9.04443 13.6226 9.47235 14.0505 10.0002 14.0505Z" fill="#F5F5F5"/>
<path d="M22.7782 8.78784H21.7016C19.311 8.78784 17.373 10.7258 17.373 13.1164V18.5326C17.373 20.9232 19.311 22.8611 21.7016 22.8611H22.7782C25.1688 22.8611 27.1068 20.9232 27.1068 18.5326V13.1164C27.1068 10.7258 25.1688 8.78784 22.7782 8.78784Z" fill="#F5F5F5"/>
<path d="M22.2509 23.4215C19.2627 23.4215 16.8237 20.9826 16.8237 17.9944V13.6548C16.8237 10.6666 19.2627 8.22766 22.2509 8.22766C25.2391 8.22766 27.6781 10.6666 27.6781 13.6548V17.9944C27.6781 20.9826 25.2391 23.4215 22.2509 23.4215ZM22.2509 9.34825C19.8779 9.34825 17.9333 11.2818 17.9333 13.6658V18.0054C17.9333 20.3784 19.8669 22.3229 22.2509 22.3229C24.6349 22.3229 26.5685 20.3893 26.5685 18.0054V13.6658C26.5685 11.2928 24.6349 9.34825 22.2509 9.34825Z" fill="#1B0066"/>
<path d="M22.4487 12.3915H22.0532C21.1673 12.3915 20.4492 13.1096 20.4492 13.9955V17.3133C20.4492 18.1991 21.1673 18.9173 22.0532 18.9173H22.4487C23.3345 18.9173 24.0527 18.1991 24.0527 17.3133V13.9955C24.0527 13.1096 23.3345 12.3915 22.4487 12.3915Z" fill="#262626"/>
<path d="M22.9978 14.0505C23.5257 14.0505 23.9536 13.6226 23.9536 13.0947C23.9536 12.5668 23.5257 12.1389 22.9978 12.1389C22.4699 12.1389 22.042 12.5668 22.042 13.0947C22.042 13.6226 22.4699 14.0505 22.9978 14.0505Z" fill="#F5F5F5"/>
</g>
<path d="M15.8677 31.2833C24.1519 31.2833 30.8677 24.5676 30.8677 16.2833C30.8677 7.99905 24.1519 1.28333 15.8677 1.28333C7.5834 1.28333 0.867676 7.99905 0.867676 16.2833C0.867676 24.5676 7.5834 31.2833 15.8677 31.2833Z" stroke="#1B0066" stroke-width="1.5" stroke-miterlimit="10"/>
</svg>
