<svg width="35" height="35" viewBox="0 0 35 35" fill="none" xmlns="http://www.w3.org/2000/svg">
<path d="M3.85205 31.2474L10.5185 19.7117L13.5057 24.8724L22.5278 9.26878L25.515 14.4417L31.9507 3.31876" stroke="#7000FF" stroke-width="2.42858" stroke-linecap="round" stroke-linejoin="round"/>
<path d="M3.93709 34.2832C5.61368 34.2832 6.97282 32.924 6.97282 31.2475C6.97282 29.5709 5.61368 28.2117 3.93709 28.2117C2.26051 28.2117 0.901367 29.5709 0.901367 31.2475C0.901367 32.924 2.26051 34.2832 3.93709 34.2832Z" fill="#221160"/>
<path d="M31.8658 6.35456C33.5424 6.35456 34.9015 4.99542 34.9015 3.31884C34.9015 1.64225 33.5424 0.283112 31.8658 0.283112C30.1892 0.283112 28.8301 1.64225 28.8301 3.31884C28.8301 4.99542 30.1892 6.35456 31.8658 6.35456Z" fill="#221160"/>
</svg>
