<svg width="88" height="110" viewBox="0 0 88 110" fill="none" xmlns="http://www.w3.org/2000/svg">
<ellipse cx="35.561" cy="5.74219" rx="35.561" ry="5.74219" transform="matrix(-1 0 0 1 79.1221 98.3823)" fill="#CFCFCF"/>
<path d="M52.3343 73.6626V89.3753C52.3343 96.5726 46.4792 102.428 39.2818 102.428C36.8923 102.428 34.956 100.491 34.956 98.1018C34.956 95.7123 36.8923 93.776 39.2818 93.776C41.7088 93.776 43.6825 91.8022 43.6825 89.3753V73.6626" fill="#7000FF"/>
<path fill-rule="evenodd" clip-rule="evenodd" d="M52.3337 72.7197C51.8131 72.7197 51.3911 73.1417 51.3911 73.6623V89.3749C51.3911 96.0517 45.958 101.485 39.2812 101.485C37.4122 101.485 35.8979 99.9705 35.8979 98.1015C35.8979 96.2325 37.4122 94.7181 39.2812 94.7181C42.2287 94.7181 44.6244 92.3225 44.6244 89.3749V73.6623C44.6244 73.1417 44.2024 72.7197 43.6819 72.7197C43.1613 72.7197 42.7394 73.1417 42.7394 73.6623V89.3749C42.7394 91.2814 41.1876 92.8331 39.2812 92.8331C36.3711 92.8331 34.0128 95.1914 34.0128 98.1015C34.0128 101.012 36.3711 103.37 39.2812 103.37C46.9991 103.37 53.2762 97.0928 53.2762 89.3749V73.6623C53.2762 73.1417 52.8542 72.7197 52.3337 72.7197Z" fill="#3C008A"/>
<path d="M55.7029 83.7495L70.5182 78.5153C77.3044 76.1178 80.8747 68.6466 78.4771 61.8604C77.6811 59.6073 75.2104 58.4266 72.9573 59.2226C70.7042 60.0186 69.5235 62.4893 70.3195 64.7424C71.128 67.0308 69.9245 69.5493 67.6361 70.3577L52.8209 75.5919" fill="#7000FF"/>
<path fill-rule="evenodd" clip-rule="evenodd" d="M51.9321 75.9069C51.7587 75.4161 52.016 74.8777 52.5068 74.7043L67.3221 69.4701C69.1196 68.835 70.0658 66.855 69.4307 65.0575C68.4613 62.3136 69.8993 59.3044 72.6432 58.335C75.3871 57.3656 78.3963 58.8036 79.3657 61.5475C81.9367 68.8245 78.1091 76.8341 70.8321 79.4051L56.0168 84.6393L55.3889 82.8619L70.2041 77.6277C76.4995 75.4036 79.8125 68.4709 77.5883 62.1754C76.9657 60.4131 75.0335 59.4898 73.2712 60.1124C71.5089 60.735 70.5855 62.6672 71.2081 64.4295C72.19 67.2087 70.7292 70.2656 67.95 71.2475L53.1348 76.4817C52.6439 76.6551 52.1055 76.3977 51.9321 75.9069Z" fill="#3C008A"/>
<path d="M40.5734 25C51.4974 25 60.3654 33.9334 60.3654 44.9378V79.6668H20.7791L20.7791 44.9401C20.7791 33.9356 29.6494 25 40.5734 25Z" fill="#7000FF"/>
<path d="M30.5137 41.9712C31.5473 41.9712 32.3852 41.1333 32.3852 40.0997C32.3852 39.0661 31.5473 38.2281 30.5137 38.2281C29.4801 38.2281 28.6422 39.0661 28.6422 40.0997C28.6422 41.1333 29.4801 41.9712 30.5137 41.9712Z" fill="#FEE702"/>
<path d="M35.238 40.325C36.0122 40.325 36.6397 39.6974 36.6397 38.9232C36.6397 38.1491 36.0122 37.5215 35.238 37.5215C34.4638 37.5215 33.8362 38.1491 33.8362 38.9232C33.8362 39.6974 34.4638 40.325 35.238 40.325Z" fill="#FEE702"/>
<path d="M32.7086 36.4018C33.2544 36.4018 33.697 35.9593 33.697 35.4134C33.697 34.8676 33.2544 34.425 32.7086 34.425C32.1627 34.425 31.7202 34.8676 31.7202 35.4134C31.7202 35.9593 32.1627 36.4018 32.7086 36.4018Z" fill="#FEE702"/>
<path fill-rule="evenodd" clip-rule="evenodd" d="M58.4804 44.9378C58.4804 34.9614 50.4432 26.8851 40.5734 26.8851C30.7035 26.8851 22.6642 34.9637 22.6642 44.9401V77.7818H58.4804V44.9378ZM60.3654 44.9378C60.3654 33.9334 51.4974 25 40.5734 25C29.6494 25 20.7791 33.9356 20.7791 44.9401V79.6668H60.3654V44.9378Z" fill="#3C008A"/>
<path d="M58.7555 65.1594C55.7692 65.1594 53.3378 62.7305 53.3378 59.7441V54.4782C53.3378 51.4919 55.7667 49.0605 58.7555 49.0605C61.7444 49.0605 64.1708 51.4894 64.1708 54.4782V59.7441C64.1708 62.7305 61.7419 65.1594 58.7555 65.1594Z" fill="white"/>
<path fill-rule="evenodd" clip-rule="evenodd" d="M58.7553 66.4164C55.0756 66.4164 52.0809 63.4257 52.0809 59.7445V54.4786C52.0809 50.7986 55.072 47.8042 58.7553 47.8042C62.4389 47.8042 65.4272 50.7965 65.4272 54.4786V59.7445C65.4272 63.4249 62.4357 66.4164 58.7553 66.4164ZM53.3376 59.7445C53.3376 62.7308 55.769 65.1597 58.7553 65.1597C61.7416 65.1597 64.1705 62.7308 64.1705 59.7445V54.4786C64.1705 51.4898 61.7441 49.0609 58.7553 49.0609C55.7665 49.0609 53.3376 51.4923 53.3376 54.4786V59.7445Z" fill="#3C008A"/>
<path d="M58.7556 49.5579C61.4682 49.5579 63.6731 51.7653 63.6731 54.4754V59.7413C63.6731 62.4539 61.4657 64.6588 58.7531 64.6588C56.0405 64.6588 53.8332 62.4514 53.8332 59.7413V54.4754C53.8332 51.7629 56.0405 49.5579 58.7531 49.5579M58.7531 48.5625C55.4881 48.5625 52.8377 51.2104 52.8377 54.4754V59.7413C52.8377 63.0089 55.4856 65.6543 58.7531 65.6543C62.0182 65.6543 64.6661 63.0064 64.6661 59.7413V54.4754C64.6661 51.2079 62.0182 48.5625 58.7531 48.5625Z" fill="#3C008A"/>
<path d="M60.9453 57.3814C60.9453 56.1719 59.9649 55.1914 58.7554 55.1914C57.5459 55.1914 56.5654 56.1719 56.5654 57.3814V60.9252C56.5654 62.1347 57.5459 63.1151 58.7554 63.1151C59.9649 63.1151 60.9453 62.1347 60.9453 60.9252V57.3814Z" fill="#1C1C1C"/>
<path d="M60.8262 56.0449C60.8262 55.4054 60.3061 54.8853 59.6665 54.8853C59.0269 54.8853 58.5068 55.4054 58.5068 56.0449C58.5068 56.6845 59.0269 57.2046 59.6665 57.2046C60.3061 57.2046 60.8262 56.6845 60.8262 56.0449Z" fill="white"/>
<path d="M42.4093 65.1594C39.423 65.1594 36.9916 62.7305 36.9916 59.7441V54.4782C36.9916 51.4919 39.4205 49.0605 42.4093 49.0605C45.3982 49.0605 47.8246 51.4894 47.8246 54.4782V59.7441C47.8246 62.7305 45.3957 65.1594 42.4093 65.1594Z" fill="white"/>
<path fill-rule="evenodd" clip-rule="evenodd" d="M42.4106 66.4164C38.7309 66.4164 35.7361 63.4257 35.7361 59.7445V54.4786C35.7361 50.7986 38.7273 47.8042 42.4106 47.8042C46.0942 47.8042 49.0825 50.7965 49.0825 54.4786V59.7445C49.0825 63.4249 46.091 66.4164 42.4106 66.4164ZM36.9929 59.7445C36.9929 62.7308 39.4242 65.1597 42.4106 65.1597C45.3969 65.1597 47.8258 62.7308 47.8258 59.7445V54.4786C47.8258 51.4898 45.3994 49.0609 42.4106 49.0609C39.4217 49.0609 36.9929 51.4923 36.9929 54.4786V59.7445Z" fill="#3C008A"/>
<path d="M42.41 49.5579C45.1226 49.5579 47.3275 51.7653 47.3275 54.4754V59.7413C47.3275 62.4539 45.1201 64.6588 42.4076 64.6588C39.695 64.6588 37.4876 62.4514 37.4876 59.7413V54.4754C37.4876 51.7629 39.695 49.5579 42.4076 49.5579M42.4076 48.5625C39.1425 48.5625 36.4921 51.2104 36.4921 54.4754V59.7413C36.4921 63.0089 39.14 65.6543 42.4076 65.6543C45.6726 65.6543 48.3205 63.0064 48.3205 59.7413V54.4754C48.3205 51.2079 45.6726 48.5625 42.4076 48.5625Z" fill="#3C008A"/>
<path d="M44.6004 57.3814C44.6004 56.1719 43.6199 55.1914 42.4104 55.1914C41.2009 55.1914 40.2205 56.1719 40.2205 57.3814V60.9252C40.2205 62.1347 41.2009 63.1151 42.4104 63.1151C43.6199 63.1151 44.6004 62.1347 44.6004 60.9252V57.3814Z" fill="#1C1C1C"/>
<path d="M44.4803 56.0449C44.4803 55.4054 43.9602 54.8853 43.3206 54.8853C42.681 54.8853 42.1609 55.4054 42.1609 56.0449C42.1609 56.6845 42.681 57.2046 43.3206 57.2046C43.9602 57.2046 44.4803 56.6845 44.4803 56.0449Z" fill="white"/>
<path fill-rule="evenodd" clip-rule="evenodd" d="M56.7439 43.1291C56.3014 43.3865 55.7324 43.2435 55.4651 42.8043C55.1944 42.3596 55.3355 41.7797 55.7802 41.5091L56.2702 42.3142C55.7802 41.5091 55.7806 41.5088 55.7811 41.5086L55.782 41.508L55.7839 41.5068L55.7881 41.5043L55.7978 41.4986C55.8048 41.4945 55.813 41.4898 55.8223 41.4846C55.841 41.4741 55.8643 41.4616 55.892 41.4475C55.9473 41.4194 56.0208 41.3849 56.1109 41.3491C56.2905 41.2776 56.5406 41.1987 56.8471 41.1551C57.4728 41.0663 58.3047 41.1304 59.1998 41.652M56.7439 43.1291C56.7445 43.1288 56.7452 43.1284 56.7461 43.128C56.7549 43.1235 56.776 43.1132 56.8081 43.1005C56.873 43.0746 56.9775 43.0406 57.1121 43.0215C57.3685 42.9851 57.7641 42.9971 58.2509 43.2809L58.2513 43.2811C58.8617 43.6364 59.0458 43.9809 59.1082 44.1542C59.1429 44.2504 59.1506 44.3237 59.152 44.3611C59.1524 44.3709 59.1523 44.3782 59.1522 44.3826C59.0803 44.8798 59.4129 45.3496 59.9112 45.4431C60.4228 45.5392 60.9154 45.2023 61.0115 44.6907L60.0851 44.5168C61.0115 44.6907 61.0116 44.69 61.0117 44.6893L61.012 44.6879L61.0125 44.6851L61.0136 44.679L61.0159 44.6654C61.0175 44.6557 61.0192 44.6447 61.0208 44.6325C61.0242 44.6082 61.0276 44.5789 61.0304 44.545C61.0361 44.4775 61.0396 44.3911 61.0357 44.2893C61.0279 44.0853 60.9906 43.8177 60.8819 43.5158C60.6577 42.893 60.1622 42.2124 59.2002 41.6522" fill="#3C008A"/>
<path fill-rule="evenodd" clip-rule="evenodd" d="M41.7374 45.3434C41.7391 45.8552 41.3307 46.2765 40.8167 46.2884C40.2963 46.3005 39.8646 45.8883 39.8526 45.3679L40.7949 45.3461C39.8526 45.3679 39.8526 45.3674 39.8526 45.3669L39.8525 45.3658L39.8525 45.3636L39.8524 45.3587L39.8523 45.3475C39.8523 45.3393 39.8523 45.3299 39.8524 45.3192C39.8527 45.2978 39.8535 45.2714 39.8551 45.2403C39.8584 45.1784 39.8654 45.0975 39.8793 45.0015C39.9072 44.8103 39.9639 44.5542 40.0795 44.2669C40.3154 43.6807 40.7869 42.9923 41.6861 42.4779M41.7374 45.3434C41.7374 45.3427 41.7375 45.3419 41.7375 45.3409C41.738 45.331 41.7397 45.3076 41.7447 45.2734C41.7548 45.2043 41.7776 45.0968 41.8283 44.9707C41.925 44.7304 42.1332 44.3938 42.6223 44.1141L42.6227 44.1139C43.2356 43.763 43.626 43.7757 43.8074 43.8083C43.9079 43.8264 43.9753 43.8564 44.0084 43.8739C44.0171 43.8785 44.0233 43.8821 44.0271 43.8845C44.4217 44.1953 44.9949 44.1422 45.3251 43.7574C45.6641 43.3623 45.6186 42.7673 45.2236 42.4283L44.6098 43.1436C45.2236 42.4283 45.223 42.4279 45.2225 42.4274L45.2214 42.4265L45.2192 42.4246L45.2145 42.4206L45.2039 42.4118C45.1962 42.4056 45.1876 42.3987 45.1779 42.3911C45.1585 42.376 45.1348 42.3584 45.1069 42.3391C45.0512 42.3004 44.9782 42.2542 44.888 42.2066C44.7075 42.1114 44.4571 42.0099 44.1412 41.9531C43.4898 41.8358 42.6527 41.9247 41.6865 42.4777" fill="#3C008A"/>
<path fill-rule="evenodd" clip-rule="evenodd" d="M52.0303 66.8904C52.2847 66.4462 52.849 66.2856 53.3002 66.5323C53.7569 66.7821 53.9246 67.3548 53.6748 67.8115L52.8479 67.3592C53.6748 67.8115 53.6746 67.812 53.6743 67.8124L53.6738 67.8134L53.6727 67.8153L53.6704 67.8196L53.6649 67.8294C53.6608 67.8365 53.6561 67.8446 53.6506 67.8538C53.6397 67.8722 53.6258 67.8947 53.6088 67.9207C53.575 67.9727 53.5286 68.0393 53.4685 68.1155C53.3487 68.2672 53.1715 68.4606 52.9278 68.6515C52.4304 69.0413 51.6779 69.4017 50.6419 69.3975M52.0303 66.8904C52.0299 66.891 52.0295 66.8917 52.0289 66.8925C52.0235 66.9007 52.0104 66.9202 51.989 66.9473C51.9457 67.0021 51.8722 67.0839 51.7652 67.1677C51.5613 67.3274 51.2127 67.5148 50.6493 67.5125L50.6488 67.5125C49.9426 67.5099 49.6108 67.3037 49.4701 67.1848C49.3921 67.1188 49.3487 67.0592 49.3288 67.0275C49.3236 67.0192 49.32 67.0129 49.3179 67.009C49.1315 66.5425 48.6086 66.3019 48.1303 66.4701C47.6392 66.6427 47.381 67.1807 47.5536 67.6718L48.4428 67.3592C47.5536 67.6718 47.5539 67.6725 47.5541 67.6731L47.5546 67.6744L47.5555 67.6772L47.5576 67.683L47.5625 67.696C47.5659 67.7052 47.57 67.7155 47.5746 67.7269C47.5839 67.7496 47.5956 67.7767 47.61 67.8074C47.6389 67.8688 47.6791 67.9453 47.7334 68.0316C47.8421 68.2043 48.0082 68.4174 48.2533 68.6245C48.7589 69.0518 49.5283 69.3934 50.6415 69.3975" fill="#3C008A"/>
<path d="M50.6453 74.417V90.1297C50.6453 97.327 56.5004 103.182 63.6978 103.182C66.0873 103.182 68.0236 101.246 68.0236 98.8562C68.0236 96.4666 66.0873 94.5303 63.6978 94.5303C61.2708 94.5303 59.2971 92.5566 59.2971 90.1297V74.417" fill="#7000FF"/>
<path fill-rule="evenodd" clip-rule="evenodd" d="M50.6455 73.4741C51.166 73.4741 51.588 73.8961 51.588 74.4167V90.1293C51.588 96.8061 57.0211 102.239 63.6979 102.239C65.5669 102.239 67.0813 100.725 67.0813 98.8559C67.0813 96.9869 65.5669 95.4725 63.6979 95.4725C60.7504 95.4725 58.3547 93.0768 58.3547 90.1293V74.4167C58.3547 73.8961 58.7767 73.4741 59.2972 73.4741C59.8178 73.4741 60.2398 73.8961 60.2398 74.4167V90.1293C60.2398 92.0358 61.7915 93.5875 63.6979 93.5875C66.608 93.5875 68.9663 95.9458 68.9663 98.8559C68.9663 101.766 66.608 104.124 63.6979 104.124C55.98 104.124 49.7029 97.8472 49.7029 90.1293V74.4167C49.7029 73.8961 50.1249 73.4741 50.6455 73.4741Z" fill="#3C008A"/>
<path d="M43.3484 73.2153L43.3484 88.928C43.3484 96.1253 49.2036 101.98 56.4009 101.98C58.7905 101.98 60.7268 100.044 60.7268 97.6546C60.7268 95.265 58.7905 93.3287 56.4009 93.3287C53.9739 93.3287 52.0002 91.355 52.0002 88.928V73.2153" fill="#7000FF"/>
<path fill-rule="evenodd" clip-rule="evenodd" d="M43.3486 72.2725C43.8691 72.2725 44.2911 72.6944 44.2911 73.215L44.2911 88.9277C44.2911 95.6044 49.7243 101.038 56.401 101.038C58.2701 101.038 59.7844 99.5233 59.7844 97.6542C59.7844 95.7852 58.2701 94.2709 56.401 94.2709C53.4535 94.2709 51.0578 91.8752 51.0578 88.9277V73.215C51.0578 72.6944 51.4798 72.2725 52.0004 72.2725C52.5209 72.2725 52.9429 72.6944 52.9429 73.215V88.9277C52.9429 90.8341 54.4946 92.3858 56.401 92.3858C59.3112 92.3858 61.6695 94.7441 61.6695 97.6542C61.6695 100.564 59.3112 102.923 56.401 102.923C48.6832 102.923 42.4061 96.6455 42.4061 88.9277L42.4061 73.215C42.4061 72.6944 42.8281 72.2725 43.3486 72.2725Z" fill="#3C008A"/>
<path d="M30.6054 74.0117V89.995C30.6054 97.3156 24.649 103.272 17.3263 103.272C14.8949 103.272 12.9256 101.303 12.9256 98.8712C12.9256 96.4398 14.8949 94.4705 17.3263 94.4705C19.7951 94.4705 21.804 92.4616 21.804 89.995V74.0117" fill="#7000FF"/>
<path fill-rule="evenodd" clip-rule="evenodd" d="M21.8037 73.0688C22.3242 73.0688 22.7462 73.4908 22.7462 74.0114V89.9947C22.7462 92.9821 20.315 95.4127 17.3259 95.4127C15.4151 95.4127 13.8678 96.96 13.8678 98.8709C13.8678 100.782 15.4151 102.329 17.3259 102.329C24.1283 102.329 29.6625 96.7946 29.6625 89.9947V74.0114H31.5476V89.9947C31.5476 97.8359 25.1691 104.214 17.3259 104.214C14.374 104.214 11.9827 101.823 11.9827 98.8709C11.9827 95.9189 14.374 93.5277 17.3259 93.5277C19.2745 93.5277 20.8611 91.9404 20.8611 89.9947V74.0114C20.8611 73.4908 21.2831 73.0688 21.8037 73.0688Z" fill="#3C008A"/>
<path d="M34.204 73.6626V89.6459C34.204 96.9665 28.2477 102.923 20.9249 102.923C18.4935 102.923 16.5242 100.953 16.5242 98.5221C16.5242 96.0907 18.4935 94.1214 20.9249 94.1214C23.3937 94.1214 25.4026 92.1125 25.4026 89.6459V73.6626" fill="#7000FF"/>
<path fill-rule="evenodd" clip-rule="evenodd" d="M25.4023 72.7197C25.9228 72.7197 26.3448 73.1417 26.3448 73.6623V89.6456C26.3448 92.633 23.9136 95.0636 20.9246 95.0636C19.0137 95.0636 17.4664 96.6109 17.4664 98.5218C17.4664 100.433 19.0137 101.98 20.9246 101.98C27.7269 101.98 33.2611 96.4455 33.2611 89.6456V73.6623C33.2611 73.1417 33.6831 72.7197 34.2037 72.7197C34.7242 72.7197 35.1462 73.1417 35.1462 73.6623V89.6456C35.1462 97.4868 28.7678 103.865 20.9246 103.865C17.9727 103.865 15.5814 101.474 15.5814 98.5218C15.5814 95.5698 17.9727 93.1785 20.9246 93.1785C22.8731 93.1785 24.4597 91.5913 24.4597 89.6456V73.6623C24.4597 73.1417 24.8817 72.7197 25.4023 72.7197Z" fill="#3C008A"/>
<path d="M43.4168 73.6626V89.3753C43.4168 96.5726 37.5617 102.428 30.3644 102.428C27.9748 102.428 26.0385 100.491 26.0385 98.1018C26.0385 95.7123 27.9748 93.776 30.3644 93.776C32.7913 93.776 34.765 91.8022 34.765 89.3753V73.6626" fill="#7000FF"/>
<path fill-rule="evenodd" clip-rule="evenodd" d="M43.4157 72.7197C42.8951 72.7197 42.4732 73.1417 42.4732 73.6623V89.3749C42.4732 96.0517 37.04 101.485 30.3632 101.485C28.4942 101.485 26.9799 99.9705 26.9799 98.1015C26.9799 96.2325 28.4942 94.7181 30.3632 94.7181C33.3108 94.7181 35.7065 92.3225 35.7065 89.3749V73.6623C35.7065 73.1417 35.2845 72.7197 34.7639 72.7197C34.2434 72.7197 33.8214 73.1417 33.8214 73.6623V89.3749C33.8214 91.2814 32.2697 92.8331 30.3632 92.8331C27.4531 92.8331 25.0948 95.1914 25.0948 98.1015C25.0948 101.012 27.4531 103.37 30.3632 103.37C38.0811 103.37 44.3582 97.0928 44.3582 89.3749V73.6623C44.3582 73.1417 43.9362 72.7197 43.4157 72.7197Z" fill="#3C008A"/>
<path d="M24.5082 63.3133C24.9077 63.3627 25.27 63.0802 25.3195 62.6807C25.4946 61.2656 26.79 60.2556 28.205 60.4307L40.9982 62.0139C41.3977 62.0633 41.7601 61.7807 41.8095 61.3813C41.8589 60.9818 41.5764 60.6194 41.1769 60.57L28.3837 58.9868C26.1721 58.7131 24.1492 60.2904 23.8756 62.502C23.8261 62.9015 24.1087 63.2639 24.5082 63.3133Z" fill="#3C008A"/>
<g opacity="0.43">
<path d="M46.0976 67.7199L46.0952 67.7196C42.9372 67.3288 40.694 64.452 41.0848 61.294L41.0851 61.2916C41.4759 58.1337 44.3528 55.8905 47.5107 56.2813L47.5131 56.2816C50.671 56.6724 52.9142 59.5492 52.5234 62.7071L52.5231 62.7096C52.1323 65.8675 49.2555 68.1107 46.0976 67.7199Z" fill="#FDC500"/>
</g>
<path d="M47.6001 55.5594C51.1521 55.999 53.6847 59.2469 53.2454 62.7966C52.8061 66.3462 49.5579 68.8812 46.0058 68.4416C42.4538 68.0021 39.9212 64.7541 40.3608 61.2021C40.8004 57.65 44.0504 55.1201 47.6001 55.5594ZM46.1845 66.9977C48.94 67.3387 51.4605 65.3734 51.8015 62.6179C52.1425 59.8624 50.1769 57.3444 47.4214 57.0034C44.6659 56.6624 42.1457 58.6253 41.8047 61.3808C41.4637 64.1362 43.429 66.6567 46.1845 66.9977Z" fill="#3C008A"/>
<g opacity="0.43">
<path d="M61.1065 67.2434L61.104 67.2431C57.9461 66.8523 55.7029 63.9755 56.0937 60.8176L56.094 60.8152C56.4848 57.6573 59.3616 55.4141 62.5196 55.8049L62.522 55.8052C65.6799 56.196 67.9231 59.0728 67.5323 62.2307L67.532 62.2331C67.1412 65.391 64.2644 67.6342 61.1065 67.2434Z" fill="#FDC500"/>
</g>
<path d="M56.094 60.8153C56.4841 57.6628 59.367 55.4149 62.5219 55.8053C65.6769 56.1958 67.9224 59.0783 67.5323 62.2309C67.9224 59.0783 65.6745 56.1955 62.5195 55.805C59.3646 55.4146 56.4817 57.6625 56.0916 60.815L56.094 60.8153Z" fill="#7000FF"/>
<path d="M62.6089 55.0831C66.1609 55.5227 68.6935 58.7706 68.2542 62.3203C67.8149 65.8699 64.5667 68.4049 61.0147 67.9653C57.4626 67.5257 54.93 64.2778 55.3696 60.7258C55.8092 57.1737 59.0592 54.6438 62.6089 55.0831ZM61.1933 66.5214C63.9488 66.8624 66.4693 64.8971 66.8103 62.1416C67.1513 59.3861 65.1857 56.868 62.4302 56.527C59.6747 56.186 57.1545 58.149 56.8135 60.9044C56.4725 63.6599 58.4379 66.1804 61.1933 66.5214Z" fill="#3C008A"/>
<g opacity="0.7">
<path d="M64.5063 60.6592C64.6916 60.6821 64.8856 60.6353 65.0427 60.5106C65.3591 60.2638 65.4157 59.8066 65.169 59.4902L64.6355 58.806C64.3888 58.4896 63.9315 58.433 63.6151 58.6797C63.2987 58.9264 63.2421 59.3837 63.4889 59.7001L64.0224 60.3843C64.1468 60.5438 64.321 60.6363 64.5063 60.6592Z" fill="white"/>
</g>
<g opacity="0.7">
<path d="M49.4975 61.1356C49.6828 61.1586 49.8767 61.1117 50.0339 60.987C50.3503 60.7403 50.4069 60.283 50.1602 59.9666L49.6266 59.2824C49.3799 58.966 48.9227 58.9094 48.6063 59.1561C48.2899 59.4029 48.2333 59.8601 48.48 60.1765L49.0135 60.8607C49.1379 61.0203 49.3122 61.1127 49.4975 61.1356Z" fill="white"/>
</g>
</svg>
