<svg width="23" height="31" viewBox="0 0 23 31" fill="none" xmlns="http://www.w3.org/2000/svg">
<path d="M2.85 0.91748V30.9175H2.96C1.32 30.9175 0 29.5975 0 27.9575V3.88748C0 2.24748 1.32 0.92748 2.96 0.92748H2.85V0.91748Z" fill="#FF4C4C"/>
<path d="M22.9001 3.88748V27.9675C22.9001 29.6075 21.5801 30.9275 19.9401 30.9275H2.8501V0.91748H19.9401C21.5801 0.91748 22.9001 2.23748 22.9001 3.87748V3.88748Z" fill="#DDDDDD"/>
<path d="M1.39002 4.21754C1.59437 4.21754 1.76002 4.05188 1.76002 3.84754C1.76002 3.64319 1.59437 3.47754 1.39002 3.47754C1.18568 3.47754 1.02002 3.64319 1.02002 3.84754C1.02002 4.05188 1.18568 4.21754 1.39002 4.21754Z" fill="white"/>
<path d="M1.39002 27.9976C1.59437 27.9976 1.76002 27.8319 1.76002 27.6276C1.76002 27.4232 1.59437 27.2576 1.39002 27.2576C1.18568 27.2576 1.02002 27.4232 1.02002 27.6276C1.02002 27.8319 1.18568 27.9976 1.39002 27.9976Z" fill="white"/>
<path d="M17.41 16.4873H6.97998C6.42998 16.4873 5.97998 16.0373 5.97998 15.4873C5.97998 14.9373 6.42998 14.4873 6.97998 14.4873H17.41C17.96 14.4873 18.41 14.9373 18.41 15.4873C18.41 16.0373 17.96 16.4873 17.41 16.4873Z" fill="#5B5B5B"/>
<path d="M17.41 21.9473H6.97998C6.42998 21.9473 5.97998 21.4973 5.97998 20.9473C5.97998 20.3973 6.42998 19.9473 6.97998 19.9473H17.41C17.96 19.9473 18.41 20.3973 18.41 20.9473C18.41 21.4973 17.96 21.9473 17.41 21.9473Z" fill="#5B5B5B"/>
<path d="M17.41 27.3972H6.97998C6.42998 27.3972 5.97998 26.9472 5.97998 26.3972C5.97998 25.8472 6.42998 25.3972 6.97998 25.3972H17.41C17.96 25.3972 18.41 25.8472 18.41 26.3972C18.41 26.9472 17.96 27.3972 17.41 27.3972Z" fill="#5B5B5B"/>
<path d="M13.59 11.3474H10.53C10.24 11.3474 10 11.1074 10 10.8174V5.35739C10 5.06739 10.24 4.82739 10.53 4.82739H11.2C11.49 4.82739 11.73 5.06739 11.73 5.35739V10.4774L11.19 9.66739H13.58C13.87 9.66739 14.11 9.90739 14.11 10.1974V10.8274C14.11 11.1174 13.87 11.3574 13.58 11.3574L13.59 11.3474Z" fill="#5B5B5B"/>
</svg>
