<svg width="29" height="29" viewBox="0 0 29 29" fill="none" xmlns="http://www.w3.org/2000/svg">
<path d="M3.14111 25.9873L8.63111 16.4873L11.0911 20.7373L18.5211 7.8873L20.9811 12.1473L26.2811 2.9873" stroke="#7000FF" stroke-width="2" stroke-linecap="round" stroke-linejoin="round"/>
<path d="M3.21094 28.4873C4.59165 28.4873 5.71094 27.368 5.71094 25.9873C5.71094 24.6066 4.59165 23.4873 3.21094 23.4873C1.83023 23.4873 0.710938 24.6066 0.710938 25.9873C0.710938 27.368 1.83023 28.4873 3.21094 28.4873Z" fill="#221160"/>
<path d="M26.2109 5.4873C27.5916 5.4873 28.7109 4.36802 28.7109 2.9873C28.7109 1.60659 27.5916 0.487305 26.2109 0.487305C24.8302 0.487305 23.7109 1.60659 23.7109 2.9873C23.7109 4.36802 24.8302 5.4873 26.2109 5.4873Z" fill="#221160"/>
</svg>
