<svg width="23" height="32" viewBox="0 0 23 32" fill="none" xmlns="http://www.w3.org/2000/svg">
<path d="M12.3835 25.1384L12.2535 25.3684L12.1235 25.5784C12.2035 25.4284 12.2935 25.2784 12.3835 25.1384Z" fill="#FCCD06"/>
<path d="M15.3336 23.9384C15.3336 26.2484 13.3336 28.0884 10.9636 27.8184C9.28355 27.6184 7.87355 26.3084 7.59355 24.6384C7.43355 23.6884 7.60355 22.7784 8.02355 22.0284L8.07355 21.9484L8.12355 21.8684L10.4836 17.7884C10.9036 17.0484 11.9636 17.0484 12.3936 17.7884L14.7636 21.8984L14.8536 22.0384C15.1736 22.5984 15.3436 23.2484 15.3436 23.9484L15.3336 23.9384Z" fill="#FCCD06"/>
<path d="M15.3336 23.9384C15.3336 26.2484 13.3336 28.0884 10.9636 27.8184C9.28355 27.6184 7.87355 26.3084 7.59355 24.6384C7.43355 23.6884 7.60355 22.7784 8.02355 22.0284L8.07355 21.9484L8.12355 21.8684L10.4836 17.7884C10.9036 17.0484 11.9636 17.0484 12.3936 17.7884L14.7636 21.8984L14.8536 22.0384C15.1736 22.5984 15.3436 23.2484 15.3436 23.9484L15.3336 23.9384Z" fill="#FF4C4C"/>
<path d="M20.7837 15.5383L20.5537 15.1483L13.2837 2.55834C12.4637 1.12834 10.3937 1.12834 9.57374 2.55834L5.57374 9.49834C5.42374 9.75834 5.08374 9.83834 4.83374 9.66834L4.05374 9.14834C3.35374 8.67834 2.39374 9.14834 2.34374 9.98834L2.02374 14.7183V14.8783C2.00374 14.9583 2.00374 15.0383 2.00374 15.1183C2.00374 15.4583 1.93374 15.7883 1.78374 16.0883C1.06374 17.5783 0.673738 19.2683 0.713738 21.0483C0.853738 26.6083 5.38374 31.2383 10.9437 31.4783C17.0837 31.7483 22.1437 26.8483 22.1437 20.7783C22.1437 18.8783 21.6437 17.0883 20.7737 15.5383H20.7837ZM10.9637 27.8183C9.28374 27.6183 7.87374 26.3083 7.59374 24.6383C7.43374 23.6883 7.60374 22.7783 8.02374 22.0283L8.07374 21.9483L8.12374 21.8683L10.4837 17.7883C10.9037 17.0483 11.9637 17.0483 12.3937 17.7883L14.7637 21.8983L14.8537 22.0383C15.1737 22.5983 15.3437 23.2483 15.3437 23.9483C15.3437 26.2583 13.3437 28.0983 10.9737 27.8283L10.9637 27.8183Z" fill="#FCCD06"/>
<g opacity="0.6">
<path d="M8.76361 13.2384C8.54361 13.2384 8.32361 13.1784 8.12361 13.0684C7.50361 12.7084 7.28361 11.9184 7.64361 11.2984L9.36361 8.28841C9.72361 7.66841 10.5136 7.44841 11.1336 7.80841C11.7536 8.16841 11.9736 8.95841 11.6136 9.57841L9.89361 12.5884C9.65361 13.0084 9.21361 13.2484 8.76361 13.2484V13.2384Z" fill="white"/>
</g>
<path d="M5.12715 1.81385C5.12715 2.32385 4.69715 2.74385 4.18715 2.71385C3.71715 2.69385 3.33715 2.30385 3.32715 1.83385C3.32715 1.66385 3.36715 1.50385 3.43715 1.37385V1.35385L3.45715 1.33385L4.00715 0.383848C4.10715 0.213848 4.34715 0.213848 4.44715 0.383848L4.99715 1.34385L5.01715 1.37385C5.08715 1.50385 5.13715 1.65385 5.13715 1.81385H5.12715Z" fill="#FCCD06"/>
<path d="M21.289 5.99348C21.289 6.92348 20.519 7.67348 19.579 7.63348C18.729 7.59348 18.039 6.88348 18.019 6.03348C18.019 5.72348 18.089 5.44348 18.229 5.19348L18.249 5.16348L18.269 5.13348L19.259 3.41348C19.439 3.11348 19.869 3.11348 20.049 3.41348L21.049 5.14348L21.079 5.20348C21.209 5.44348 21.289 5.71348 21.289 6.00348V5.99348Z" fill="#FF4C4C"/>
</svg>
