<?xml version="1.0" encoding="UTF-8"?>
<svg id="Layer_1" data-name="Layer 1" xmlns="http://www.w3.org/2000/svg" xmlns:xlink="http://www.w3.org/1999/xlink" viewBox="0 0 220 220">
  <defs>
    <style>
      .cls-1 {
        fill: #2b147f;
      }

      .cls-1, .cls-2, .cls-3, .cls-4, .cls-5, .cls-6, .cls-7, .cls-8, .cls-9, .cls-10 {
        stroke-width: 0px;
      }

      .cls-2 {
        fill: #f7f7f7;
      }

      .cls-3 {
        fill: #3a179d;
      }

      .cls-4 {
        fill: #b23838;
      }

      .cls-5 {
        fill: none;
      }

      .cls-11 {
        clip-path: url(#clippath-1);
      }

      .cls-6 {
        fill: #fff;
      }

      .cls-7 {
        fill: #ff4c4c;
      }

      .cls-8 {
        fill: #fee702;
      }

      .cls-12 {
        clip-path: url(#clippath);
      }

      .cls-9 {
        fill: #1c1c1c;
      }

      .cls-10 {
        fill: #7000ff;
      }
    </style>
    <clipPath id="clippath">
      <rect class="cls-5" x="9.95" y="10" width="200" height="200" rx="16" ry="16"/>
    </clipPath>
    <clipPath id="clippath-1">
      <rect class="cls-5" x="9.95" y="-318.59" width="200" height="200" rx="16" ry="16"/>
    </clipPath>
  </defs>
  <g class="cls-12">
    <rect class="cls-8" x="9.95" y="10" width="200" height="200"/>
    <g>
      <g>
        <path class="cls-10" d="m45.43,203.31v-115.08c0-35.72,29.06-64.78,64.78-64.78s64.78,29.06,64.78,64.78v115.08H45.43Z"/>
        <path class="cls-3" d="m110.21,25.63c34.52,0,62.6,28.08,62.6,62.6v112.9H47.61v-112.9c0-34.52,28.08-62.6,62.6-62.6m0-4.35c-36.98,0-66.96,29.98-66.96,66.96v117.25h133.91v-117.25c0-36.98-29.98-66.96-66.96-66.96h0Z"/>
      </g>
      <g>
        <circle class="cls-1" cx="59.52" cy="155.63" r="3.74"/>
        <circle class="cls-1" cx="68.79" cy="161.51" r="2.8"/>
        <circle class="cls-1" cx="60.54" cy="165.42" r="1.98"/>
      </g>
      <g>
        <path class="cls-10" d="m75.58,196.47v38.55c0,25.02-20.35,45.37-45.37,45.37-8.31,0-15.04-6.73-15.04-15.04s6.73-15.04,15.04-15.04,15.3-6.86,15.3-15.3v-54.62"/>
        <path class="cls-3" d="m30.21,282.65c-9.54,0-17.29-7.76-17.29-17.29s7.76-17.29,17.29-17.29c7.19,0,13.04-5.85,13.04-13.04v-54.62c0-1.25,1.01-2.26,2.26-2.26s2.26,1.01,2.26,2.26v54.62c0,9.68-7.87,17.55-17.55,17.55-7.05,0-12.78,5.73-12.78,12.78s5.73,12.78,12.78,12.78c23.77,0,43.12-19.34,43.12-43.12v-38.55c0-1.25,1.01-2.26,2.26-2.26s2.26,1.01,2.26,2.26v38.55c0,26.26-21.37,47.63-47.63,47.63Z"/>
      </g>
      <g>
        <path class="cls-10" d="m145.34,188.2v45.9c0,24.6,20.01,44.6,44.61,44.6,8.16,0,14.78-6.62,14.78-14.78,0-8.16-6.62-14.78-14.78-14.78-8.29,0-15.04-6.75-15.04-15.04v-53.69"/>
        <path class="cls-3" d="m189.95,280.96c-25.84,0-46.86-21.02-46.86-46.86v-45.9c0-1.25,1.01-2.26,2.26-2.26s2.26,1.01,2.26,2.26v45.9c0,23.35,19,42.35,42.35,42.35,6.91,0,12.53-5.62,12.53-12.53s-5.62-12.53-12.53-12.53c-9.54,0-17.29-7.76-17.29-17.29v-53.69c0-1.25,1.01-2.26,2.26-2.26s2.26,1.01,2.26,2.26v53.69c0,7.05,5.73,12.78,12.78,12.78,9.4,0,17.04,7.64,17.04,17.04s-7.64,17.04-17.04,17.04Z"/>
      </g>
      <g>
        <path class="cls-10" d="m130.49,188.2v45.9c0,24.6,20.01,44.6,44.61,44.6,8.16,0,14.78-6.62,14.78-14.78,0-8.16-6.62-14.78-14.78-14.78-8.29,0-15.04-6.75-15.04-15.04v-53.69"/>
        <path class="cls-3" d="m175.1,280.96c-25.84,0-46.86-21.02-46.86-46.86v-45.9c0-1.25,1.01-2.26,2.26-2.26s2.26,1.01,2.26,2.26v45.9c0,23.35,19,42.35,42.35,42.35,6.91,0,12.53-5.62,12.53-12.53s-5.62-12.53-12.53-12.53c-9.54,0-17.29-7.76-17.29-17.29v-53.69c0-1.25,1.01-2.26,2.26-2.26s2.26,1.01,2.26,2.26v53.69c0,7.05,5.73,12.78,12.78,12.78,9.4,0,17.04,7.64,17.04,17.04s-7.64,17.04-17.04,17.04Z"/>
      </g>
      <g>
        <path class="cls-10" d="m91.43,191.96v43.07c0,25.02-20.35,45.37-45.37,45.37-8.31,0-15.04-6.73-15.04-15.04s6.73-15.04,15.04-15.04,15.3-6.86,15.3-15.3v-54.62"/>
        <path class="cls-3" d="m46.05,282.65c-9.54,0-17.29-7.76-17.29-17.29s7.76-17.29,17.29-17.29c7.19,0,13.04-5.85,13.04-13.04v-54.62c0-1.25,1.01-2.26,2.26-2.26s2.26,1.01,2.26,2.26v54.62c0,9.68-7.87,17.55-17.55,17.55-7.05,0-12.78,5.73-12.78,12.78s5.73,12.78,12.78,12.78c23.77,0,43.12-19.34,43.12-43.12v-43.07c0-1.25,1.01-2.26,2.26-2.26s2.26,1.01,2.26,2.26v43.07c0,26.26-21.37,47.63-47.63,47.63Z"/>
      </g>
      <path class="cls-3" d="m133.9,89.43c-.37,0-.74-.09-1.08-.28-1.09-.6-1.49-1.97-.89-3.06.11-.2,2.77-4.92,9.46-4.92h.06c3.71.01,6.07,1.18,7.52,2.41,1.33,1.12.93,3.26-.71,3.84h0c-.76.27-1.59.09-2.21-.42-.75-.61-2.15-1.31-4.62-1.32-4.04-.03-5.53,2.55-5.54,2.57-.41.75-1.18,1.17-1.98,1.17Z"/>
      <path class="cls-3" d="m86.97,89.8c.37,0,.74-.09,1.08-.28,1.09-.6,1.49-1.97.89-3.06-.11-.2-2.77-4.92-9.46-4.92h-.06c-3.71.01-6.07,1.18-7.52,2.41-1.33,1.12-.93,3.26.71,3.84h0c.76.27,1.59.09,2.21-.42.75-.61,2.15-1.31,4.62-1.32h.04c3.98,0,5.49,2.55,5.5,2.57.41.75,1.18,1.17,1.98,1.17Z"/>
      <path class="cls-3" d="m110.29,164.01c-5.78,0-10.49-4.71-10.49-10.49,0-1.25,1.01-2.26,2.26-2.26s2.26,1.01,2.26,2.26c0,3.3,2.68,5.98,5.98,5.98s5.98-2.68,5.98-5.98c0-1.25,1.01-2.26,2.26-2.26s2.26,1.01,2.26,2.26c0,5.78-4.71,10.49-10.49,10.49Z"/>
      <g>
        <g>
          <path class="cls-6" d="m59.29,116.18v17.55c0,10.89,8.82,19.71,19.71,19.71h0c10.89,0,19.71-8.82,19.71-19.71v-17.55"/>
          <path class="cls-3" d="m79,155.69c-12.11,0-21.97-9.85-21.97-21.97v-17.55c0-1.25,1.01-2.26,2.26-2.26s2.26,1.01,2.26,2.26v17.55c0,9.62,7.83,17.45,17.45,17.45s17.45-7.83,17.45-17.45v-17.55c0-1.25,1.01-2.26,2.26-2.26s2.26,1.01,2.26,2.26v17.55c0,12.11-9.85,21.97-21.97,21.97Z"/>
        </g>
        <g>
          <path class="cls-6" d="m98.71,116.18c0-10.89-8.82-19.71-19.71-19.71h0c-10.89,0-19.71,8.82-19.71,19.71"/>
          <path class="cls-3" d="m98.71,118.43c-1.25,0-2.26-1.01-2.26-2.26,0-9.62-7.83-17.45-17.45-17.45s-17.45,7.83-17.45,17.45c0,1.25-1.01,2.26-2.26,2.26s-2.26-1.01-2.26-2.26c0-12.11,9.85-21.97,21.97-21.97s21.97,9.85,21.97,21.97c0,1.25-1.01,2.26-2.26,2.26Z"/>
        </g>
        <g>
          <rect class="cls-9" x="73.59" y="116.72" width="14.59" height="26.41" rx="6.71" ry="6.71"/>
          <circle class="cls-6" cx="83.93" cy="119.56" r="3.86"/>
        </g>
      </g>
      <g>
        <g>
          <rect class="cls-6" x="121.7" y="96.47" width="39.42" height="56.97" rx="18.12" ry="18.12"/>
          <path class="cls-3" d="m141.41,155.69c-12.11,0-21.97-9.85-21.97-21.97v-17.55c0-12.11,9.85-21.97,21.97-21.97s21.97,9.85,21.97,21.97v17.55c0,12.11-9.85,21.97-21.97,21.97Zm0-56.97c-9.62,0-17.45,7.83-17.45,17.45v17.55c0,9.62,7.83,17.45,17.45,17.45s17.45-7.83,17.45-17.45v-17.55c0-9.62-7.83-17.45-17.45-17.45Z"/>
        </g>
        <g>
          <rect class="cls-9" x="135.99" y="116.72" width="14.59" height="26.41" rx="6.71" ry="6.71"/>
          <circle class="cls-6" cx="146.33" cy="119.56" r="3.86"/>
        </g>
      </g>
    </g>
    <g>
      <path class="cls-2" d="m207.07,141.9l-97.12,56.06L12.83,141.9c.78-.02,1.57-.04,2.36-.04,36.75,0,74.03,22.45,92.33,51.94.05.08.1.17.17.26.5.72,1.32,1.19,2.27,1.19s1.77-.48,2.27-1.19c.06-.08.11-.17.17-.26,18.29-29.49,55.58-51.94,92.33-51.94.79,0,1.58.02,2.36.04Z"/>
      <path class="cls-4" d="m214.95,143.74h0c0,1.32-.7,2.54-1.84,3.19l-6.03,3.49-95.28,55c-1.14.66-2.55.66-3.69,0L12.82,150.42l-6.03-3.49c-1.14-.66-1.84-1.88-1.84-3.19h0c0-2.84,3.08-4.62,5.54-3.19l2.34,1.35,95.28,55c1.14.66,2.55.66,3.69,0l95.28-55,2.34-1.35c2.46-1.42,5.54.35,5.54,3.19Z"/>
      <path class="cls-7" d="m214.95,143.81v190.7c0,.63-.34,1.21-.88,1.52l-24.83,14.33-78.41,45.28c-.54.31-1.22.31-1.76,0l-78.41-45.28-24.83-14.33c-.54-.31-.88-.9-.88-1.52v-190.7l7.88,4.55,91.93,53.07c3.21,1.85,7.17,1.85,10.38,0l91.93-53.07,7.88-4.55Z"/>
    </g>
  </g>
  <g class="cls-11">
    <path class="cls-7" d="m214.95-184.78V5.91c0,.63-.34,1.21-.88,1.52l-24.83,14.33-78.41,45.28c-.54.31-1.22.31-1.76,0L30.66,21.77,5.83,7.44c-.54-.31-.88-.9-.88-1.52v-190.7l7.88,4.55,91.93,53.07c3.21,1.85,7.17,1.85,10.38,0l91.93-53.07,7.88-4.55Z"/>
  </g>
</svg>