<?xml version="1.0" encoding="UTF-8"?>
<svg id="Layer_2" data-name="Layer 2" xmlns="http://www.w3.org/2000/svg" xmlns:xlink="http://www.w3.org/1999/xlink" viewBox="0 0 261.24 39.72">
  <defs>
    <style>
      .cls-1 {
        fill: #2b147f;
      }

      .cls-1, .cls-2, .cls-3, .cls-4, .cls-5, .cls-6, .cls-7, .cls-8, .cls-9, .cls-10 {
        stroke-width: 0px;
      }

      .cls-2 {
        fill: #f7f7f7;
      }

      .cls-3 {
        fill: #3a179d;
      }

      .cls-4 {
        fill: #b23838;
      }

      .cls-5 {
        fill: none;
      }

      .cls-6 {
        fill: #fff;
      }

      .cls-7 {
        fill: #ff4c4c;
      }

      .cls-8 {
        fill: #fee702;
      }

      .cls-11 {
        clip-path: url(#clippath);
      }

      .cls-9 {
        fill: #1c1c1c;
      }

      .cls-10 {
        fill: #7000ff;
      }
    </style>
    <clipPath id="clippath">
      <rect class="cls-5" y="1.7" width="36.31" height="36.31" rx="2" ry="2"/>
    </clipPath>
  </defs>
  <g id="Layer_1-2" data-name="Layer 1">
    <g>
      <g class="cls-11">
        <rect class="cls-8" x="0" y="1.7" width="36.31" height="36.31"/>
        <g>
          <g>
            <path class="cls-10" d="m6.44,36.8V15.91c0-6.48,5.28-11.76,11.76-11.76s11.76,5.28,11.76,11.76v20.89H6.44Z"/>
            <path class="cls-3" d="m18.2,4.54c6.27,0,11.36,5.1,11.36,11.36v20.5H6.84V15.91c0-6.27,5.1-11.36,11.36-11.36m0-.79c-6.71,0-12.16,5.44-12.16,12.16v21.29h24.31V15.91c0-6.71-5.44-12.16-12.16-12.16h0Z"/>
          </g>
          <g>
            <circle class="cls-1" cx="9" cy="28.14" r=".68"/>
            <circle class="cls-1" cx="10.68" cy="29.21" r=".51"/>
            <circle class="cls-1" cx="9.18" cy="29.92" r=".36"/>
          </g>
          <g>
            <path class="cls-10" d="m11.91,35.55v7c0,4.54-3.69,8.24-8.24,8.24-1.51,0-2.73-1.22-2.73-2.73s1.22-2.73,2.73-2.73,2.78-1.25,2.78-2.78v-9.92"/>
            <path class="cls-3" d="m3.68,51.2c-1.73,0-3.14-1.41-3.14-3.14s1.41-3.14,3.14-3.14c1.31,0,2.37-1.06,2.37-2.37v-9.92c0-.23.18-.41.41-.41s.41.18.41.41v9.92c0,1.76-1.43,3.19-3.19,3.19-1.28,0-2.32,1.04-2.32,2.32s1.04,2.32,2.32,2.32c4.32,0,7.83-3.51,7.83-7.83v-7c0-.23.18-.41.41-.41s.41.18.41.41v7c0,4.77-3.88,8.65-8.65,8.65Z"/>
          </g>
          <g>
            <path class="cls-10" d="m24.58,34.05v8.33c0,4.46,3.63,8.1,8.1,8.1,1.48,0,2.68-1.2,2.68-2.68s-1.2-2.68-2.68-2.68-2.73-1.22-2.73-2.73v-9.75"/>
            <path class="cls-3" d="m32.68,50.89c-4.69,0-8.51-3.82-8.51-8.51v-8.33c0-.23.18-.41.41-.41s.41.18.41.41v8.33c0,4.24,3.45,7.69,7.69,7.69,1.25,0,2.27-1.02,2.27-2.27s-1.02-2.27-2.27-2.27c-1.73,0-3.14-1.41-3.14-3.14v-9.75c0-.23.18-.41.41-.41s.41.18.41.41v9.75c0,1.28,1.04,2.32,2.32,2.32,1.71,0,3.09,1.39,3.09,3.09s-1.39,3.09-3.09,3.09Z"/>
          </g>
          <g>
            <path class="cls-10" d="m21.88,34.05v8.33c0,4.46,3.63,8.1,8.1,8.1,1.48,0,2.68-1.2,2.68-2.68,0-1.48-1.2-2.68-2.68-2.68s-2.73-1.22-2.73-2.73v-9.75"/>
            <path class="cls-3" d="m29.98,50.89c-4.69,0-8.51-3.82-8.51-8.51v-8.33c0-.23.18-.41.41-.41s.41.18.41.41v8.33c0,4.24,3.45,7.69,7.69,7.69,1.25,0,2.27-1.02,2.27-2.27s-1.02-2.27-2.27-2.27c-1.73,0-3.14-1.41-3.14-3.14v-9.75c0-.23.18-.41.41-.41s.41.18.41.41v9.75c0,1.28,1.04,2.32,2.32,2.32,1.71,0,3.09,1.39,3.09,3.09s-1.39,3.09-3.09,3.09Z"/>
          </g>
          <g>
            <path class="cls-10" d="m14.79,34.74v7.82c0,4.54-3.69,8.24-8.24,8.24-1.51,0-2.73-1.22-2.73-2.73s1.22-2.73,2.73-2.73,2.78-1.25,2.78-2.78v-9.92"/>
            <path class="cls-3" d="m6.55,51.2c-1.73,0-3.14-1.41-3.14-3.14s1.41-3.14,3.14-3.14c1.31,0,2.37-1.06,2.37-2.37v-9.92c0-.23.18-.41.41-.41s.41.18.41.41v9.92c0,1.76-1.43,3.19-3.19,3.19-1.28,0-2.32,1.04-2.32,2.32s1.04,2.32,2.32,2.32c4.32,0,7.83-3.51,7.83-7.83v-7.82c0-.23.18-.41.41-.41s.41.18.41.41v7.82c0,4.77-3.88,8.65-8.65,8.65Z"/>
          </g>
          <path class="cls-3" d="m22.5,16.12c-.07,0-.13-.02-.2-.05-.2-.11-.27-.36-.16-.56.02-.04.5-.89,1.72-.89h.01c.67,0,1.1.21,1.36.44.24.2.17.59-.13.7h0c-.14.05-.29.02-.4-.08-.14-.11-.39-.24-.84-.24-.73,0-1,.46-1.01.47-.07.14-.21.21-.36.21Z"/>
          <path class="cls-3" d="m13.98,16.19c.07,0,.13-.02.2-.05.2-.11.27-.36.16-.56-.02-.04-.5-.89-1.72-.89h-.01c-.67,0-1.1.21-1.36.44-.24.2-.17.59.13.7h0c.14.05.29.02.4-.08.14-.11.39-.24.84-.24h0c.72,0,1,.46,1,.47.07.14.21.21.36.21Z"/>
          <path class="cls-3" d="m18.21,29.66c-1.05,0-1.9-.85-1.9-1.9,0-.23.18-.41.41-.41s.41.18.41.41c0,.6.49,1.09,1.09,1.09s1.09-.49,1.09-1.09c0-.23.18-.41.41-.41s.41.18.41.41c0,1.05-.85,1.9-1.9,1.9Z"/>
          <g>
            <g>
              <path class="cls-6" d="m8.96,20.98v3.19c0,1.98,1.6,3.58,3.58,3.58h0c1.98,0,3.58-1.6,3.58-3.58v-3.19"/>
              <path class="cls-3" d="m12.54,28.15c-2.2,0-3.99-1.79-3.99-3.99v-3.19c0-.23.18-.41.41-.41s.41.18.41.41v3.19c0,1.75,1.42,3.17,3.17,3.17s3.17-1.42,3.17-3.17v-3.19c0-.23.18-.41.41-.41s.41.18.41.41v3.19c0,2.2-1.79,3.99-3.99,3.99Z"/>
            </g>
            <g>
              <path class="cls-6" d="m16.11,20.98c0-1.98-1.6-3.58-3.58-3.58h0c-1.98,0-3.58,1.6-3.58,3.58"/>
              <path class="cls-3" d="m16.11,21.39c-.23,0-.41-.18-.41-.41,0-1.75-1.42-3.17-3.17-3.17s-3.17,1.42-3.17,3.17c0,.23-.18.41-.41.41s-.41-.18-.41-.41c0-2.2,1.79-3.99,3.99-3.99s3.99,1.79,3.99,3.99c0,.23-.18.41-.41.41Z"/>
            </g>
            <g>
              <rect class="cls-9" x="11.55" y="21.08" width="2.65" height="4.79" rx="1.27" ry="1.27"/>
              <circle class="cls-6" cx="13.43" cy="21.59" r=".7"/>
            </g>
          </g>
          <g>
            <g>
              <rect class="cls-6" x="20.29" y="17.4" width="7.16" height="10.34" rx="3.42" ry="3.42"/>
              <path class="cls-3" d="m23.86,28.15c-2.2,0-3.99-1.79-3.99-3.99v-3.19c0-2.2,1.79-3.99,3.99-3.99s3.99,1.79,3.99,3.99v3.19c0,2.2-1.79,3.99-3.99,3.99Zm0-10.34c-1.75,0-3.17,1.42-3.17,3.17v3.19c0,1.75,1.42,3.17,3.17,3.17s3.17-1.42,3.17-3.17v-3.19c0-1.75-1.42-3.17-3.17-3.17Z"/>
            </g>
            <g>
              <rect class="cls-9" x="22.88" y="21.08" width="2.65" height="4.79" rx="1.27" ry="1.27"/>
              <circle class="cls-6" cx="24.76" cy="21.59" r=".7"/>
            </g>
          </g>
        </g>
        <g>
          <path class="cls-2" d="m35.78,25.65l-17.63,10.18L.52,25.65c.14,0,.29,0,.43,0,6.67,0,13.44,4.07,16.76,9.43,0,.02.02.03.03.05.09.13.24.22.41.22s.32-.09.41-.22c.01-.02.02-.03.03-.05,3.32-5.35,10.09-9.43,16.76-9.43.14,0,.29,0,.43,0Z"/>
          <path class="cls-4" d="m37.21,25.98h0c0,.24-.13.46-.33.58l-1.1.63-17.3,9.98c-.21.12-.46.12-.67,0L.52,27.2l-1.1-.63c-.21-.12-.33-.34-.33-.58h0c0-.52.56-.84,1.01-.58l.42.25,17.3,9.98c.21.12.46.12.67,0l17.3-9.98.42-.25c.45-.26,1.01.06,1.01.58Z"/>
          <path class="cls-7" d="m37.21,26v34.62c0,.11-.06.22-.16.28l-4.51,2.6-14.23,8.22c-.1.06-.22.06-.32,0l-14.23-8.22-4.51-2.6c-.1-.06-.16-.16-.16-.28V26l1.43.83,16.69,9.63c.58.34,1.3.34,1.89,0l16.69-9.63,1.43-.83Z"/>
        </g>
      </g>
      <g>
        <path class="cls-10" d="m69.55,32.21v6.09c0,.4-.33.73-.73.73h-20.68c-.4,0-.73-.33-.73-.73V3.35c0-.4.33-.73.73-.73h6.35c.4,0,.73.33.73.73v27.41c0,.4.33.73.73.73h12.87c.4,0,.73.33.73.73Z"/>
        <path class="cls-10" d="m96.49,18.95c-1.07-2.05-2.58-3.68-4.54-4.89-1.96-1.21-4.28-1.82-6.95-1.82s-4.89.58-6.87,1.74c-1.98,1.16-3.51,2.77-4.6,4.84-1.09,2.07-1.63,4.45-1.63,7.16s.54,5.13,1.63,7.16c1.09,2.03,2.62,3.6,4.6,4.7,1.98,1.1,4.27,1.66,6.87,1.66,2.85,0,5.31-.58,7.38-1.74,1.85-1.03,3.33-2.45,4.43-4.24.22-.35.09-.81-.27-1.01l-4.08-2.27c-.32-.18-.71-.09-.93.2-.6.78-1.31,1.45-2.12,2-.98.68-2.31,1.02-3.98,1.02-2,0-3.55-.54-4.68-1.63-.74-.71-1.23-1.62-1.49-2.71-.11-.46.24-.89.71-.89h17.32c.37,0,.69-.28.72-.66.01-.11.02-.23.03-.36.04-.43.05-.87.05-1.34,0-2.57-.54-4.87-1.6-6.92Zm-16.27,3.72c-.51,0-.87-.52-.68-.99.27-.65.65-1.23,1.15-1.74,1.09-1.1,2.54-1.66,4.35-1.66,2.03,0,3.54.62,4.52,1.87.36.46.65.96.88,1.52.2.48-.16,1-.67,1h-9.55Z"/>
        <path class="cls-10" d="m122.77,17.16c-.8-1.57-2.02-2.78-3.66-3.64-1.64-.85-3.67-1.28-6.09-1.28-1.89,0-3.73.23-5.53.69-1.57.4-3.05.93-4.44,1.58-.35.16-.5.56-.36.92l1.76,4.26c.15.37.58.54.94.38,1.09-.48,2.15-.81,3.19-1,1.25-.23,2.35-.35,3.31-.35,1.5,0,2.58.36,3.26,1.07.68.71,1.02,1.55,1.02,2.51v.25c0,.53-.55.87-1.03.63-1.41-.7-3.12-1.05-5.12-1.05-1.78,0-3.39.36-4.84,1.07-1.44.71-2.59,1.72-3.45,3.02-.86,1.3-1.28,2.88-1.28,4.73,0,1.75.39,3.28,1.18,4.6.78,1.32,1.9,2.34,3.34,3.07,1.44.73,3.11,1.1,5,1.1,2.6,0,4.7-.61,6.31-1.82h0c.39-.3.96-.11,1.1.36l.08.26c.09.3.37.5.68.5h5.13c.39,0,.71-.32.71-.71v-15.7c0-2.07-.4-3.88-1.2-5.45Zm-7.59,16.09c-.69.61-1.63.91-2.81.91s-2.1-.3-2.78-.91c-.68-.61-1.01-1.37-1.01-2.3,0-1,.34-1.78,1.01-2.35.68-.57,1.6-.86,2.78-.86s2.11.29,2.81.86c.69.57,1.04,1.36,1.04,2.35,0,.93-.35,1.69-1.04,2.3Z"/>
        <path class="cls-10" d="m145.08,12.99v6.4c0,.25-.2.44-.44.44h-1.32c-2.28,0-4.07.37-5.37,1.1-.3.17-.58.36-.84.58-.1.08-.15.21-.15.34v16.74c0,.25-.2.44-.44.44h-6.91c-.25,0-.44-.2-.44-.44V13.33c0-.25.2-.44.44-.44h4.99c.2,0,.37.13.43.32l.47,1.68c.09.33.5.43.74.2,0,0,0,0,0,0,.8-.78,1.75-1.45,2.83-2.01,1.09-.55,2.2-.83,3.34-.83.57,0,1.09.04,1.55.11.34.05.63.13.87.24.16.07.25.23.25.4Z"/>
        <path class="cls-10" d="m173.15,23.09v15.2c0,.4-.33.73-.73.73h-6.35c-.4,0-.73-.33-.73-.73v-14.78c0-1.5-.27-2.48-.8-2.97-.54-.48-1.25-.72-2.14-.72-.75,0-1.52.15-2.32.45-.8.3-1.58.72-2.33,1.26-.33.24-.65.49-.94.75-.15.14-.23.33-.23.54v15.47c0,.4-.33.73-.73.73h-6.35c-.4,0-.73-.33-.73-.73V13.61c0-.4.33-.73.73-.73h4.51c.32,0,.6.21.69.51l.47,1.51c.15.48.73.67,1.13.37.11-.08.22-.17.33-.25,1.18-.86,2.46-1.53,3.85-2.03,1.39-.5,2.85-.75,4.38-.75,1.75,0,3.17.29,4.28.88s1.95,1.4,2.54,2.43.98,2.2,1.18,3.5c.19,1.3.29,2.65.29,4.03Z"/>
        <path class="cls-10" d="m177.74,4.65c0-1.39.42-2.51,1.26-3.37.84-.86,1.95-1.28,3.34-1.28s2.5.43,3.34,1.28c.84.86,1.26,1.98,1.26,3.37s-.42,2.45-1.26,3.29c-.84.84-1.95,1.26-3.34,1.26s-2.5-.42-3.34-1.26c-.84-.84-1.26-1.93-1.26-3.29Zm7.77,34.37h-6.35c-.4,0-.73-.33-.73-.73V13.61c0-.4.33-.73.73-.73h6.35c.4,0,.73.33.73.73v24.69c0,.4-.33.73-.73.73Z"/>
        <path class="cls-10" d="m215.96,13.61v24.69c0,.4-.33.73-.73.73h-4.56c-.32,0-.6-.21-.69-.51l-.44-1.42c-.15-.49-.74-.67-1.14-.35-.05.04-.1.08-.16.12-1.12.87-2.31,1.56-3.55,2.06-1.25.5-2.57.75-3.96.75-1.92,0-3.48-.28-4.68-.86-1.19-.57-2.12-1.36-2.78-2.38-.66-1.01-1.11-2.17-1.34-3.47-.23-1.3-.35-2.68-.35-4.14v-15.2c0-.4.33-.73.73-.73h6.35c.4,0,.73.33.73.73v14.77c0,1.46.3,2.43.91,2.91s1.36.72,2.25.72c.78,0,1.55-.13,2.3-.4.75-.27,1.48-.66,2.19-1.18.29-.21.57-.44.84-.69.15-.14.24-.33.24-.54v-15.61c0-.4.33-.73.73-.73h6.4c.4,0,.73.33.73.73Z"/>
        <path class="cls-10" d="m261.24,23.09v15.55c0,.21-.17.38-.38.38h-7.1c-.21,0-.38-.17-.38-.38v-15.12c0-1.5-.26-2.49-.77-2.97-.52-.48-1.17-.72-1.95-.72-1.14,0-2.25.33-3.31.99-.7.44-1.36.95-1.97,1.55-.08.07-.12.18-.11.28,0,.15,0,.3,0,.45v15.55c0,.21-.17.38-.38.38h-7.04c-.21,0-.38-.17-.38-.38v-15.12c0-1.5-.27-2.49-.8-2.97-.53-.48-1.19-.72-1.98-.72-1.11,0-2.19.33-3.26.99-.7.43-1.36.95-1.97,1.55-.07.07-.11.17-.11.27v16c0,.21-.17.38-.38.38h-7.04c-.21,0-.38-.17-.38-.38V13.26c0-.21.17-.38.38-.38h5.11c.17,0,.31.11.36.27l.67,2.17c.08.26.39.35.6.18s.41-.33.62-.48c1.14-.86,2.39-1.53,3.74-2.03,1.36-.5,2.76-.75,4.22-.75,1.75,0,3.15.29,4.2.88,1.05.59,1.85,1.4,2.41,2.43,0,0,0,0,0,0,.11.22.4.27.59.12.27-.22.55-.44.83-.66,1.14-.86,2.38-1.53,3.72-2.03,1.34-.5,2.73-.75,4.2-.75,1.75,0,3.15.29,4.22.88s1.87,1.4,2.41,2.43c.53,1.03.91,2.2,1.12,3.5.21,1.3.32,2.64.32,4.04Z"/>
      </g>
    </g>
  </g>
</svg>